# Blender 4.1.1
# www.blender.org
mtllib model_collision_31.mtl
o model_collision_31
v -0.080864 0.021684 0.005590
v -0.081265 0.004994 0.005291
v -0.081303 0.026507 -0.000895
v -0.106309 0.018240 -0.001382
v -0.107757 0.003880 0.006815
v -0.118409 0.004836 0.000496
v -0.084876 0.026099 -0.001263
v -0.080873 0.024888 0.000181
v -0.100537 0.012549 0.005652
v -0.087466 0.019842 0.005292
v -0.117828 0.008644 -0.000344
v -0.094458 0.016641 0.005052
v -0.114773 0.012484 -0.000701
v -0.118386 0.005297 0.000420
v -0.105643 0.017031 -0.000065
vn 0.0582 -0.0192 0.9981
vn 0.0298 -0.9797 -0.1985
vn -0.1515 0.7882 0.5965
vn 0.1296 -0.2738 -0.9530
vn 0.1243 -0.2749 -0.9534
vn 0.9996 -0.0238 -0.0157
vn 0.8080 -0.1615 -0.5666
vn 0.8921 0.3894 0.2292
vn -0.0938 0.2087 0.9735
vn -0.2774 0.7473 0.6038
vn -0.2366 0.7478 0.6203
vn -0.1132 0.2504 0.9615
vn 0.0937 -0.2280 -0.9691
vn 0.0789 -0.2003 -0.9765
vn -0.3084 0.6194 0.7220
vn -0.2606 0.5077 0.8212
vn -0.0374 -0.0630 -0.9973
vn -0.4005 0.3954 0.8266
vn -0.3714 0.4203 0.8279
vn -0.4652 -0.1224 -0.8767
vn -0.4921 0.1653 0.8547
vn -0.4697 0.2701 0.8405
vn -0.3094 0.6173 0.7234
vn -0.3204 0.5852 0.7449
vn -0.3366 0.5713 0.7485
vn -0.3474 0.5965 0.7235
s 0
f 5//1 2//1 1//1
f 6//2 2//2 5//2
f 7//3 1//3 3//3
f 7//4 3//4 2//4
f 7//5 2//5 6//5
f 8//6 1//6 2//6
f 8//7 2//7 3//7
f 8//8 3//8 1//8
f 9//9 5//9 1//9
f 10//10 7//10 4//10
f 10//11 1//11 7//11
f 10//12 9//12 1//12
f 11//13 7//13 6//13
f 11//14 4//14 7//14
f 12//15 10//15 4//15
f 12//16 9//16 10//16
f 13//17 4//17 11//17
f 13//18 11//18 5//18
f 13//19 5//19 9//19
f 14//20 11//20 6//20
f 14//21 6//21 5//21
f 14//22 5//22 11//22
f 15//23 12//23 4//23
f 15//24 9//24 12//24
f 15//25 13//25 9//25
f 15//26 4//26 13//26
