# Blender 4.1.1
# www.blender.org
mtllib model_collision_29.mtl
o model_collision_29
v -0.028375 -0.022755 0.005772
v -0.029746 -0.033485 0.007636
v -0.030124 -0.034164 0.000513
v -0.084685 -0.029039 -0.001257
v -0.063221 -0.023482 0.008944
v -0.066318 -0.032530 -0.001079
v -0.030333 -0.025089 0.001033
v -0.084786 -0.025868 0.001488
v -0.062487 -0.027712 0.008428
v -0.085156 -0.027500 0.000209
vn 0.9903 -0.1334 -0.0398
vn 0.0862 0.1597 0.9834
vn -0.0492 -0.9940 0.0974
vn 0.9155 0.0440 -0.3999
vn 0.0329 0.1225 -0.9919
vn 0.0465 0.0583 -0.9972
vn -0.0387 0.9788 -0.2012
vn -0.0157 0.6542 -0.7561
vn -0.0165 0.8997 -0.4362
vn 0.0027 -0.1207 0.9927
vn -0.1396 -0.8594 0.4918
vn -0.1665 -0.8508 0.4983
vn -0.3055 -0.1674 0.9373
vn -0.2894 -0.5491 0.7840
vn -0.2334 0.6323 -0.7387
vn -0.2469 -0.7069 0.6628
s 0
f 1//1 2//1 3//1
f 5//2 2//2 1//2
f 6//3 3//3 2//3
f 7//4 1//4 3//4
f 7//5 6//5 4//5
f 7//6 3//6 6//6
f 8//7 5//7 1//7
f 8//8 7//8 4//8
f 8//9 1//9 7//9
f 9//10 2//10 5//10
f 9//11 6//11 2//11
f 9//12 4//12 6//12
f 9//13 5//13 8//13
f 10//14 9//14 8//14
f 10//15 8//15 4//15
f 10//16 4//16 9//16
