# Blender 4.1.1
# www.blender.org
mtllib model_collision_21.mtl
o model_collision_21
v 0.005250 0.008542 0.045819
v 0.009404 -0.025963 0.029022
v -0.001953 0.010558 0.035610
v -0.005020 -0.021396 0.020850
v -0.004786 -0.016251 0.042712
v -0.002030 -0.022004 0.021989
v 0.004273 0.009966 0.043353
v 0.004749 -0.011600 0.045236
v -0.004038 -0.025613 0.029117
v -0.001523 0.007606 0.044435
v -0.004605 0.009018 0.034266
v 0.001228 -0.022253 0.037693
v 0.007191 -0.014850 0.041433
v -0.005630 -0.018448 0.022135
v 0.003173 -0.010465 0.045495
v 0.004968 -0.024658 0.033947
v -0.003134 -0.020752 0.038885
v 0.006412 -0.010217 0.043946
v -0.001133 -0.004713 0.044518
v 0.000232 -0.023397 0.035640
v 0.008254 -0.025265 0.030972
v -0.003918 -0.024377 0.031905
vn 0.5740 0.3149 -0.7559
vn 0.0255 -0.8528 -0.5216
vn 0.3948 0.3538 -0.8479
vn 0.9429 0.2305 -0.2403
vn 0.7464 0.3358 -0.5746
vn -0.0264 -0.8918 -0.4517
vn -0.3069 0.8980 0.3153
vn -0.2239 0.8029 0.5524
vn 0.2256 0.3906 -0.8925
vn -0.5848 0.7603 0.2828
vn -0.9472 0.1077 0.3020
vn 0.0771 -0.5930 0.8015
vn 0.9906 0.0590 0.1238
vn 0.3096 -0.6155 0.7247
vn -0.9850 -0.1626 0.0578
vn -0.9783 -0.2070 0.0106
vn 0.0212 0.4032 -0.9148
vn -0.9990 0.0202 0.0388
vn 0.1396 -0.0321 0.9897
vn -0.2009 0.0052 0.9796
vn -0.0858 -0.3335 0.9388
vn -0.0236 -0.9714 0.2361
vn 0.3196 -0.6196 0.7169
vn -0.0167 -0.6512 0.7587
vn 0.9717 0.0369 0.2332
vn 0.6320 -0.0381 0.7740
vn 0.7114 -0.2389 0.6610
vn -0.2217 -0.0004 0.9751
vn -0.4246 -0.0073 0.9053
vn -0.2924 -0.0569 0.9546
vn -0.0492 -0.8621 0.5044
vn -0.1077 -0.9177 0.3823
vn -0.1412 -0.8340 0.5333
vn 0.2549 -0.8529 0.4556
vn 0.6549 -0.5012 0.5656
vn 0.4733 -0.5997 0.6452
vn -0.7106 -0.5886 0.3854
vn -0.9093 -0.3644 0.2009
vn -0.2201 -0.8554 0.4689
vn -0.1530 -0.9009 0.4062
s 0
f 6//1 3//1 2//1
f 6//2 2//2 4//2
f 6//3 4//3 3//3
f 7//4 1//4 2//4
f 7//5 2//5 3//5
f 9//6 4//6 2//6
f 10//7 7//7 3//7
f 10//8 1//8 7//8
f 11//9 3//9 4//9
f 11//10 10//10 3//10
f 11//11 5//11 10//11
f 12//12 8//12 5//12
f 13//13 2//13 1//13
f 13//14 8//14 12//14
f 14//15 9//15 5//15
f 14//16 4//16 9//16
f 14//17 11//17 4//17
f 14//18 5//18 11//18
f 15//19 8//19 1//19
f 15//20 1//20 10//20
f 15//21 5//21 8//21
f 16//22 9//22 2//22
f 16//23 13//23 12//23
f 17//24 12//24 5//24
f 18//25 13//25 1//25
f 18//26 1//26 8//26
f 18//27 8//27 13//27
f 19//28 15//28 10//28
f 19//29 10//29 5//29
f 19//30 5//30 15//30
f 20//31 16//31 12//31
f 20//32 9//32 16//32
f 20//33 12//33 17//33
f 21//34 16//34 2//34
f 21//35 2//35 13//35
f 21//36 13//36 16//36
f 22//37 17//37 5//37
f 22//38 5//38 9//38
f 22//39 20//39 17//39
f 22//40 9//40 20//40
