# Blender 4.1.1
# www.blender.org
mtllib model_collision_18.mtl
o model_collision_18
v -0.044162 0.004881 0.018206
v -0.044053 -0.030459 0.012889
v -0.045312 -0.023424 -0.010340
v -0.060039 0.002746 -0.013557
v -0.062487 -0.027712 0.008428
v -0.047021 0.007215 -0.004400
v -0.043638 -0.015638 0.015716
v -0.062219 0.004933 0.008723
v -0.052149 -0.037874 -0.010447
v -0.050713 0.007283 -0.008087
v -0.044897 -0.037156 -0.010508
v -0.058409 -0.026760 0.011455
v -0.063160 -0.035159 -0.006319
v -0.044397 -0.034875 -0.000472
v -0.061957 -0.027559 0.009353
v -0.054449 -0.027540 0.012083
vn 0.9901 0.0779 -0.1172
vn 0.9966 0.0345 -0.0744
vn -0.0546 0.9925 0.1094
vn 0.6974 0.1737 -0.6953
vn 0.4479 0.1435 -0.8825
vn -0.0715 0.9934 0.0899
vn -0.3728 0.9192 -0.1267
vn 0.9968 0.0310 -0.0733
vn -0.0009 -0.0765 -0.9971
vn 0.2461 0.0194 -0.9690
vn -0.1884 -0.1231 0.9744
vn -0.4648 0.0204 0.8852
vn -0.9927 0.0620 -0.1032
vn -0.9991 0.0078 0.0417
vn -0.3782 -0.1435 -0.9145
vn -0.1056 -0.9365 0.3342
vn 0.9987 0.0029 -0.0504
vn 0.9995 -0.0246 -0.0177
vn -0.0375 -0.9485 0.3144
vn 0.0981 -0.9715 0.2159
vn -0.2461 -0.6920 0.6786
vn -0.2275 -0.8692 0.4390
vn -0.4954 -0.7661 0.4095
vn -0.5117 0.0125 0.8591
vn -0.8682 0.0026 0.4961
vn -0.2434 -0.6743 0.6972
vn -0.1268 -0.1824 0.9750
vn -0.1809 -0.1331 0.9745
s 0
f 6//1 1//1 3//1
f 7//2 3//2 1//2
f 8//3 1//3 6//3
f 10//4 6//4 3//4
f 10//5 3//5 4//5
f 10//6 8//6 6//6
f 10//7 4//7 8//7
f 11//8 3//8 7//8
f 11//9 9//9 4//9
f 11//10 4//10 3//10
f 12//11 7//11 1//11
f 12//12 1//12 8//12
f 13//13 8//13 4//13
f 13//14 5//14 8//14
f 13//15 4//15 9//15
f 13//16 9//16 2//16
f 14//17 11//17 7//17
f 14//18 7//18 2//18
f 14//19 2//19 9//19
f 14//20 9//20 11//20
f 15//21 2//21 12//21
f 15//22 13//22 2//22
f 15//23 5//23 13//23
f 15//24 12//24 8//24
f 15//25 8//25 5//25
f 16//26 12//26 2//26
f 16//27 2//27 7//27
f 16//28 7//28 12//28
