# Blender 4.1.1
# www.blender.org
mtllib model_collision_13.mtl
o model_collision_13
v 0.077052 0.029561 0.028257
v 0.077661 0.025926 0.028062
v 0.076468 0.035802 0.003435
v 0.025370 0.039433 0.007263
v 0.025326 0.036286 0.022628
v 0.025629 0.034382 0.013178
v 0.077542 0.032818 0.005104
v 0.055567 0.030094 0.026027
v 0.050926 0.038098 0.021223
v 0.025118 0.038561 0.020471
v 0.076410 0.034355 0.024062
v 0.077000 0.026272 0.024431
v 0.025717 0.036684 0.008319
v 0.040601 0.031237 0.020480
v 0.058448 0.037776 0.004143
v 0.025845 0.034495 0.022312
v 0.062776 0.027978 0.023522
v 0.050355 0.038189 0.008339
v 0.058590 0.036347 0.004744
v 0.041359 0.031569 0.023487
v 0.066846 0.027649 0.026850
v 0.062984 0.027916 0.025217
vn 0.9857 0.1627 0.0438
vn -0.1047 -0.0705 0.9920
vn -0.1020 0.0475 0.9937
vn -0.0022 0.6318 0.7751
vn -0.9948 -0.1016 -0.0114
vn -0.9965 -0.0794 -0.0243
vn 0.0160 0.9977 0.0661
vn -0.0088 0.6874 0.7263
vn 0.9355 0.3521 0.0273
vn 0.9842 0.1711 0.0449
vn 0.0131 0.6594 0.7517
vn 0.1373 0.9881 0.0697
vn 0.7425 -0.6405 -0.1961
vn -0.0785 -0.9436 -0.3218
vn -0.0936 -0.8991 -0.4277
vn -0.9826 -0.1601 -0.0938
vn 0.1100 0.9935 0.0297
vn -0.1056 -0.3681 -0.9238
vn -0.1523 -0.2141 0.9649
vn -0.9589 -0.2826 0.0262
vn -0.2135 -0.9768 0.0172
vn -0.1141 -0.9907 -0.0737
vn -0.1195 -0.9771 -0.1759
vn -0.1008 -0.9664 -0.2363
vn 0.0498 0.9988 -0.0022
vn 0.0495 0.9988 0.0048
vn 0.0534 0.9986 0.0047
vn -0.0791 -0.3935 -0.9159
vn -0.0783 -0.5080 -0.8578
vn -0.0936 -0.5848 -0.8057
vn -0.1033 -0.3947 -0.9130
vn -0.1944 -0.9684 0.1560
vn -0.1794 -0.5537 0.8132
vn -0.1857 -0.5925 0.7839
vn -0.1963 -0.8337 0.5161
vn -0.1305 -0.9912 -0.0200
vn -0.1429 -0.9896 -0.0184
vn -0.1764 -0.9725 0.1519
vn -0.1815 -0.9443 0.2746
vn -0.1812 -0.9445 0.2740
s 0
f 7//1 1//1 2//1
f 8//2 2//2 1//2
f 8//3 1//3 5//3
f 9//4 5//4 1//4
f 10//5 6//5 5//5
f 10//6 4//6 6//6
f 10//7 9//7 4//7
f 10//8 5//8 9//8
f 11//9 7//9 3//9
f 11//10 1//10 7//10
f 11//11 9//11 1//11
f 11//12 3//12 9//12
f 12//13 7//13 2//13
f 12//14 6//14 7//14
f 13//15 7//15 6//15
f 13//16 6//16 4//16
f 15//17 9//17 3//17
f 15//18 13//18 4//18
f 16//19 8//19 5//19
f 16//20 5//20 6//20
f 16//21 6//21 14//21
f 17//22 12//22 2//22
f 17//23 14//23 6//23
f 17//24 6//24 12//24
f 18//25 15//25 4//25
f 18//26 4//26 9//26
f 18//27 9//27 15//27
f 19//28 15//28 3//28
f 19//29 3//29 7//29
f 19//30 7//30 13//30
f 19//31 13//31 15//31
f 20//32 16//32 14//32
f 21//33 2//33 8//33
f 21//34 8//34 16//34
f 21//35 16//35 20//35
f 22//36 17//36 2//36
f 22//37 14//37 17//37
f 22//38 20//38 14//38
f 22//39 21//39 20//39
f 22//40 2//40 21//40
