# Blender 4.1.1
# www.blender.org
mtllib model_collision_15.mtl
o model_collision_15
v -0.092744 0.004817 0.004939
v -0.092403 -0.019528 0.006863
v -0.091307 0.031228 -0.006066
v -0.091569 0.036724 -0.027546
v -0.125621 -0.012324 -0.021947
v -0.091797 -0.037053 -0.026560
v -0.091812 0.025087 -0.001983
v -0.119648 0.004263 0.000138
v -0.092051 -0.035613 -0.011389
v -0.091231 0.035101 -0.012077
v -0.099079 -0.016433 -0.028136
v -0.121992 -0.017650 -0.005658
v -0.107757 0.003880 0.006815
v -0.122127 0.014061 -0.022502
v -0.111936 0.023319 -0.009245
v -0.113664 -0.023627 -0.024255
v -0.091938 -0.023687 -0.028877
v -0.125402 0.000770 -0.005724
v -0.105206 -0.026809 -0.002244
v -0.108692 -0.031563 -0.023356
v -0.108936 0.020487 -0.002888
v -0.119220 -0.011744 0.000147
v -0.117469 0.005208 -0.024532
v -0.109115 0.023591 -0.006844
v -0.101585 0.030429 -0.011982
v -0.108350 0.027698 -0.024243
v -0.117537 -0.005665 -0.024533
v -0.092015 0.023567 -0.028889
v -0.095507 -0.023605 -0.028236
v -0.125289 -0.012172 -0.007594
v -0.125311 0.007853 -0.022365
v -0.121414 0.013543 -0.007919
v -0.095996 -0.029534 -0.002514
v -0.098672 -0.034447 -0.014375
v -0.112313 -0.027398 -0.008360
v -0.098375 -0.035380 -0.025536
v -0.121716 -0.021025 -0.022428
v -0.099811 0.025772 -0.004060
v -0.112936 -0.008960 0.003330
v -0.113689 -0.018843 0.000095
v -0.125428 -0.008653 -0.005504
v -0.117923 0.016453 -0.006095
v -0.094571 0.035459 -0.026848
v -0.094507 0.030150 -0.006282
v -0.113026 0.022670 -0.024253
v -0.108280 0.026879 -0.014686
v -0.099122 0.012467 -0.028189
v -0.125301 0.004343 -0.007689
v -0.125185 0.007508 -0.014744
v -0.102315 -0.030777 -0.006113
v -0.095264 -0.031380 -0.004643
v -0.105589 -0.030716 -0.008585
v -0.115362 -0.027364 -0.023018
v -0.125478 -0.015448 -0.020601
v -0.121523 -0.014581 -0.002919
v -0.112689 -0.024556 -0.003981
v -0.122055 0.007316 -0.003341
v -0.094240 0.033857 -0.012129
v -0.101542 0.031725 -0.025978
v -0.095462 0.023531 -0.028316
v -0.108972 -0.030704 -0.018171
v -0.095256 -0.034840 -0.011231
v -0.115222 -0.027126 -0.018693
v -0.121529 -0.020816 -0.014471
vn 0.9744 0.0313 0.2228
vn 0.9892 0.0158 0.1460
vn 0.9998 -0.0125 0.0179
vn 0.9994 -0.0136 0.0313
vn 0.9997 -0.0034 -0.0222
vn 0.9999 -0.0092 0.0067
vn 0.1187 0.0799 0.9897
vn 0.0980 0.3176 0.9432
vn 0.9964 -0.0042 -0.0850
vn -0.1761 0.4872 0.8553
vn -0.4309 0.4322 0.7922
vn -0.4899 -0.0126 0.8717
vn -0.4353 0.7958 0.4210
vn -0.7003 0.7127 0.0407
vn -0.2270 -0.0640 -0.9718
vn 0.9447 0.0014 -0.3280
vn -0.2132 -0.0926 -0.9726
vn -0.1778 -0.0748 -0.9812
vn -0.1778 -0.1699 -0.9693
vn -0.9999 0.0154 0.0011
vn -0.2932 -0.0153 -0.9559
vn -0.2659 0.0017 -0.9640
vn -0.7126 0.6990 0.0597
vn -0.1679 -0.6413 0.7487
vn -0.2114 -0.9734 0.0889
vn -0.3332 -0.9403 0.0697
vn -0.2349 -0.9691 0.0747
vn -0.1945 -0.1740 -0.9653
vn -0.2109 -0.1694 -0.9627
vn -0.2413 -0.0670 -0.9681
vn -0.2572 -0.0622 -0.9643
vn -0.1782 0.4960 0.8498
vn -0.1641 0.5555 0.8152
vn -0.2468 -0.1599 0.9558
vn -0.4244 -0.0738 0.9025
vn -0.2729 -0.5269 0.8049
vn -0.3375 -0.2695 0.9019
vn -0.2993 -0.2761 0.9133
vn -0.6778 -0.0177 0.7350
vn -0.7190 0.0182 0.6948
vn -0.9999 0.0030 0.0111
vn -0.8149 -0.3195 0.4836
vn -0.5100 0.6841 0.5214
vn -0.4974 0.6714 0.5494
vn -0.6882 0.6953 0.2073
vn -0.4730 0.4532 0.7555
vn -0.3653 0.9250 0.1050
vn -0.3709 0.7833 0.4988
vn -0.3049 0.8024 0.5131
vn -0.2745 0.6784 0.6815
vn -0.3500 0.7292 0.5881
vn -0.3378 0.7181 0.6085
vn -0.6667 0.6209 -0.4124
vn -0.3130 0.1398 -0.9394
vn -0.2414 0.0769 -0.9674
vn -0.6404 0.7648 0.0702
vn -0.5198 0.8317 0.1951
vn -0.1960 0.0013 -0.9806
vn -0.1928 -0.0021 -0.9812
vn -0.0973 -0.0004 -0.9953
vn -0.1051 -0.0020 -0.9945
vn -0.9994 0.0330 0.0085
vn -0.8755 0.4794 0.0599
vn -0.8890 0.4566 0.0353
vn -0.9080 0.3876 0.1590
vn -0.9965 0.0813 0.0201
vn -0.2055 -0.7558 0.6217
vn 0.3829 -0.6894 0.6149
vn 0.1947 -0.7070 0.6799
vn -0.1710 -0.8692 0.4639
vn -0.1920 -0.7733 0.6042
vn -0.3758 -0.7940 0.4779
vn -0.3507 -0.4932 -0.7961
vn -0.2378 -0.2059 -0.9492
vn -0.2745 -0.1873 -0.9432
vn -0.7353 -0.2964 -0.6095
vn -0.9991 -0.0372 0.0201
vn -0.9980 -0.0565 0.0287
vn -0.8692 -0.4763 0.1326
vn -0.5116 -0.4041 0.7583
vn -0.5371 -0.5146 0.6684
vn -0.8093 -0.3175 0.4942
vn -0.7078 -0.1670 0.6864
vn -0.3463 -0.5842 0.7340
vn -0.3548 -0.7723 0.5270
vn -0.3758 -0.7917 0.4816
vn -0.5268 -0.5528 0.6456
vn -0.5913 -0.6987 0.4027
vn -0.6851 0.4760 0.5515
vn -0.5002 0.4493 0.7403
vn -0.8480 0.3678 0.3816
vn -0.8509 0.2714 0.4497
vn -0.7483 0.1472 0.6468
vn -0.4187 0.9017 0.1076
vn -0.3815 0.9180 0.1085
vn -0.3398 0.8013 0.4924
vn -0.3613 0.7949 0.4874
vn -0.4629 0.8828 0.0803
vn -0.4916 0.8672 0.0788
vn -0.4928 0.8667 0.0779
vn -0.4490 0.4192 -0.7891
vn -0.4166 0.6236 -0.6615
vn -0.1642 0.0431 -0.9855
vn -0.2290 0.1061 -0.9676
vn -0.2123 0.1192 -0.9699
vn -0.1641 0.1056 -0.9808
vn -0.2183 0.0611 -0.9740
vn -0.2281 0.0736 -0.9708
vn -0.4333 -0.8884 0.1518
vn -0.3808 -0.9153 0.1309
vn -0.3816 -0.9146 0.1336
vn -0.3116 -0.9237 0.2230
vn -0.2265 -0.9659 0.1253
vn -0.1905 -0.8797 0.4356
vn -0.2727 -0.9005 0.3388
vn -0.5293 -0.8461 0.0638
vn -0.5008 -0.8574 0.1184
vn -0.5008 -0.8579 0.1149
vn -0.8233 -0.5666 0.0342
vn -0.8636 -0.4873 0.1296
vn -0.7043 -0.7091 0.0352
vn -0.6848 -0.7261 0.0622
vn -0.6421 -0.7495 0.1610
vn -0.6602 -0.7173 0.2230
s 0
f 7//1 1//1 2//1
f 7//2 2//2 3//2
f 9//3 6//3 3//3
f 9//4 3//4 2//4
f 10//5 6//5 4//5
f 10//6 3//6 6//6
f 13//7 2//7 1//7
f 13//8 1//8 7//8
f 17//9 4//9 6//9
f 21//10 13//10 7//10
f 21//11 8//11 13//11
f 22//12 13//12 8//12
f 25//13 15//13 24//13
f 26//14 14//14 15//14
f 27//15 11//15 16//15
f 28//16 4//16 17//16
f 29//17 16//17 11//17
f 29//18 11//18 17//18
f 29//19 17//19 6//19
f 31//20 5//20 18//20
f 31//21 27//21 5//21
f 31//22 23//22 27//22
f 32//23 15//23 14//23
f 33//24 2//24 19//24
f 34//25 6//25 9//25
f 36//26 34//26 20//26
f 36//27 6//27 34//27
f 36//28 29//28 6//28
f 36//29 16//29 29//29
f 37//30 27//30 16//30
f 37//31 5//31 27//31
f 38//32 21//32 7//32
f 38//33 7//33 3//33
f 39//34 2//34 13//34
f 39//35 13//35 22//35
f 40//36 19//36 2//36
f 40//37 39//37 22//37
f 40//38 2//38 39//38
f 41//39 22//39 8//39
f 41//40 8//40 18//40
f 41//41 18//41 5//41
f 41//42 30//42 12//42
f 42//43 24//43 15//43
f 42//44 21//44 24//44
f 42//45 15//45 32//45
f 42//46 8//46 21//46
f 43//47 10//47 4//47
f 44//48 25//48 24//48
f 44//49 3//49 10//49
f 44//50 38//50 3//50
f 44//51 24//51 21//51
f 44//52 21//52 38//52
f 45//53 14//53 26//53
f 45//54 31//54 14//54
f 45//55 23//55 31//55
f 46//56 26//56 15//56
f 46//57 15//57 25//57
f 47//58 27//58 23//58
f 47//59 11//59 27//59
f 47//60 28//60 17//60
f 47//61 17//61 11//61
f 48//62 31//62 18//62
f 49//63 32//63 14//63
f 49//64 14//64 31//64
f 49//65 48//65 32//65
f 49//66 31//66 48//66
f 50//67 33//67 19//67
f 51//68 9//68 2//68
f 51//69 2//69 33//69
f 51//70 50//70 9//70
f 51//71 33//71 50//71
f 52//72 50//72 35//72
f 53//73 36//73 20//73
f 53//74 16//74 36//74
f 53//75 37//75 16//75
f 54//76 5//76 37//76
f 54//77 41//77 5//77
f 54//78 30//78 41//78
f 54//79 12//79 30//79
f 55//80 40//80 22//80
f 55//81 12//81 40//81
f 55//82 41//82 12//82
f 55//83 22//83 41//83
f 56//84 19//84 40//84
f 56//85 50//85 19//85
f 56//86 35//86 50//86
f 56//87 40//87 12//87
f 56//88 12//88 35//88
f 57//89 42//89 32//89
f 57//90 8//90 42//90
f 57//91 32//91 48//91
f 57//92 48//92 18//92
f 57//93 18//93 8//93
f 58//94 43//94 25//94
f 58//95 10//95 43//95
f 58//96 44//96 10//96
f 58//97 25//97 44//97
f 59//98 25//98 43//98
f 59//99 46//99 25//99
f 59//100 26//100 46//100
f 59//101 45//101 26//101
f 59//102 43//102 4//102
f 60//103 28//103 47//103
f 60//104 45//104 59//104
f 60//105 59//105 4//105
f 60//106 4//106 28//106
f 60//107 47//107 23//107
f 60//108 23//108 45//108
f 61//109 52//109 35//109
f 61//110 20//110 34//110
f 61//111 34//111 52//111
f 62//112 52//112 34//112
f 62//113 34//113 9//113
f 62//114 9//114 50//114
f 62//115 50//115 52//115
f 63//116 53//116 20//116
f 63//117 61//117 35//117
f 63//118 20//118 61//118
f 64//119 54//119 37//119
f 64//120 12//120 54//120
f 64//121 37//121 53//121
f 64//122 53//122 63//122
f 64//123 63//123 35//123
f 64//124 35//124 12//124
