# Blender 4.1.1
# www.blender.org
mtllib model_collision_27.mtl
o model_collision_27
v -0.074174 -0.022495 0.007826
v -0.073431 -0.025375 0.008130
v -0.074133 -0.016766 -0.032133
v -0.092033 -0.016586 -0.029507
v -0.100236 -0.027594 -0.001683
v -0.073863 -0.016595 0.006236
v -0.092676 -0.016986 0.007109
v -0.074013 -0.027697 -0.031225
v -0.091305 -0.020259 0.006219
v -0.099602 -0.022336 0.001593
v -0.091848 -0.027278 -0.028423
v -0.076350 -0.024615 0.007880
v -0.099886 -0.023858 0.000336
vn 0.0094 0.9999 -0.0045
vn 0.4565 0.2091 0.8648
vn 0.9988 0.0476 -0.0072
vn -0.0078 0.1031 0.9946
vn 0.0395 0.2582 0.9653
vn -0.0203 0.9997 0.0106
vn 0.9998 0.0096 -0.0154
vn 0.0613 -0.9964 0.0579
vn -0.1455 -0.0835 -0.9858
vn -0.6103 0.7922 -0.0021
vn -0.3738 -0.3858 0.8435
vn -0.3382 -0.4679 0.8165
vn -0.0266 -0.9994 -0.0202
vn -0.9530 -0.0468 -0.2995
vn -0.1568 -0.1023 -0.9823
vn -0.2493 -0.5529 0.7950
vn -0.2252 -0.6165 0.7545
vn -0.1309 -0.1816 0.9746
vn -0.1996 -0.3340 0.9212
vn -0.9340 0.3145 -0.1692
vn -0.9585 0.1996 -0.2036
vn -0.9472 -0.0793 0.3107
s 0
f 6//1 3//1 4//1
f 6//2 1//2 2//2
f 6//3 2//3 3//3
f 7//4 2//4 1//4
f 7//5 1//5 6//5
f 7//6 6//6 4//6
f 8//7 3//7 2//7
f 8//8 2//8 5//8
f 8//9 4//9 3//9
f 10//10 7//10 4//10
f 10//11 9//11 7//11
f 10//12 5//12 9//12
f 11//13 8//13 5//13
f 11//14 5//14 4//14
f 11//15 4//15 8//15
f 12//16 9//16 5//16
f 12//17 5//17 2//17
f 12//18 2//18 7//18
f 12//19 7//19 9//19
f 13//20 10//20 4//20
f 13//21 4//21 5//21
f 13//22 5//22 10//22
