# Blender 4.1.1
# www.blender.org
mtllib model_collision_30.mtl
o model_collision_30
v 0.106950 -0.002304 -0.003106
v 0.111318 -0.004317 -0.014498
v 0.076865 -0.001942 -0.009013
v 0.076756 -0.021332 -0.014346
v 0.100763 -0.017172 -0.008611
v 0.076910 -0.020299 -0.003061
v 0.106695 -0.009588 -0.003089
v 0.100251 -0.017160 -0.013147
v 0.076731 -0.021266 -0.008417
v 0.107652 -0.010414 -0.014315
v 0.102953 -0.014212 -0.004045
v 0.087504 -0.020181 -0.014266
v 0.087098 -0.020061 -0.008929
v 0.093580 -0.016698 -0.003744
vn 0.0429 0.9865 -0.1578
vn -0.1339 0.2635 -0.9553
vn -0.1801 0.3030 0.9358
vn 0.9314 -0.0318 0.3627
vn 0.0001 0.0023 1.0000
vn -0.9995 0.0079 0.0321
vn -1.0000 0.0068 -0.0044
vn 0.8532 -0.5098 0.1102
vn 0.6650 -0.7428 -0.0769
vn 0.7610 -0.6390 0.1118
vn 0.7330 -0.6748 0.0858
vn 0.2329 -0.9721 -0.0288
vn 0.1614 -0.3376 -0.9273
vn 0.0106 -0.0306 -0.9995
vn 0.0172 -0.0403 -0.9990
vn 0.1063 -0.9943 0.0115
vn 0.1911 -0.9366 0.2938
vn 0.1221 -0.9774 0.1724
vn 0.2058 -0.9779 0.0378
vn 0.1169 -0.9926 0.0313
vn 0.1056 -0.2827 0.9534
vn 0.0971 -0.2675 0.9587
vn 0.2094 -0.8940 0.3961
vn 0.2431 -0.8630 0.4429
s 0
f 1//1 2//1 3//1
f 3//2 2//2 4//2
f 6//3 1//3 3//3
f 7//4 2//4 1//4
f 7//5 1//5 6//5
f 9//6 6//6 3//6
f 9//7 3//7 4//7
f 10//8 2//8 7//8
f 10//9 5//9 8//9
f 11//10 10//10 7//10
f 11//11 5//11 10//11
f 12//12 8//12 5//12
f 12//13 10//13 8//13
f 12//14 4//14 2//14
f 12//15 2//15 10//15
f 12//16 9//16 4//16
f 13//17 5//17 6//17
f 13//18 6//18 9//18
f 13//19 12//19 5//19
f 13//20 9//20 12//20
f 14//21 11//21 7//21
f 14//22 7//22 6//22
f 14//23 6//23 5//23
f 14//24 5//24 11//24
