# Blender 4.1.1
# www.blender.org
mtllib model_collision_25.mtl
o model_collision_25
v 0.107842 0.021239 0.022726
v 0.113211 0.005842 0.014689
v 0.112968 0.018821 -0.027763
v 0.105086 0.025871 -0.032869
v 0.104651 -0.011645 -0.032712
v 0.106877 0.028131 -0.008720
v 0.113320 0.011777 0.015822
v 0.104812 -0.006812 0.018479
v 0.113175 -0.000956 -0.027621
v 0.105274 0.029777 -0.031310
v 0.110138 0.000011 0.021497
v 0.113330 0.018345 -0.008784
v 0.105000 0.029721 -0.008209
v 0.110297 -0.007287 -0.009197
v 0.113585 -0.000414 -0.009063
v 0.109975 -0.003760 -0.032831
v 0.110859 0.023974 -0.027560
v 0.110339 0.022344 -0.032316
v 0.110409 0.017783 0.022265
v 0.105925 -0.005131 0.022631
v 0.107400 -0.009056 0.005834
v 0.110250 -0.007591 -0.027840
v 0.113063 0.003277 0.011009
v 0.109857 0.024956 -0.008798
v 0.108082 0.025780 -0.032040
v 0.107493 -0.003612 0.022669
v 0.107594 -0.008841 0.006326
v 0.106397 -0.010017 -0.032432
v 0.109688 -0.002685 0.016655
v 0.106670 0.028192 -0.031466
vn 0.9332 -0.0838 0.3494
vn -0.9999 0.0116 -0.0053
vn -1.0000 0.0070 0.0025
vn -0.9985 0.0530 -0.0117
vn -0.9893 0.0894 0.1154
vn 0.6618 0.7363 0.1411
vn 0.6477 0.7619 0.0095
vn 0.9995 -0.0224 0.0216
vn 0.9999 0.0135 0.0040
vn 0.9997 0.0103 -0.0224
vn 0.9997 0.0139 -0.0187
vn -0.0164 -0.0040 -0.9999
vn 0.7207 0.6932 -0.0006
vn 0.9253 0.3791 -0.0081
vn 0.1165 0.0180 -0.9930
vn 0.8679 0.0055 -0.4968
vn 0.8524 -0.0016 -0.5228
vn 0.8981 0.3765 -0.2272
vn 0.8991 -0.0325 0.4366
vn 0.9317 0.3508 0.0940
vn -0.9702 0.0697 0.2319
vn -0.3698 -0.9249 0.0885
vn 0.5734 -0.8192 0.0141
vn 0.5797 -0.8148 0.0118
vn 0.9021 -0.4316 0.0047
vn 0.9151 -0.4032 -0.0084
vn 0.8669 -0.3713 -0.3327
vn 0.9906 -0.1278 0.0492
vn 0.9396 -0.2973 0.1694
vn 0.7292 0.6843 0.0031
vn 0.8851 0.4649 0.0229
vn 0.8815 0.4632 0.0913
vn 0.7248 0.6773 0.1262
vn 0.8046 0.5816 0.1200
vn 0.2653 0.2492 -0.9314
vn 0.2599 0.3471 -0.9011
vn 0.1707 -0.0046 0.9853
vn -0.0227 -0.0020 0.9997
vn 0.4559 -0.0453 0.8889
vn 0.4188 -0.8752 0.2420
vn 0.3846 -0.8921 0.2370
vn 0.6743 -0.7021 0.2288
vn 0.6848 -0.7272 0.0464
vn 0.6848 -0.6993 -0.2051
vn 0.4083 -0.2887 -0.8660
vn 0.7819 -0.4730 -0.4061
vn 0.9111 -0.3902 0.1326
vn 0.8970 -0.4310 0.0978
vn 0.9035 -0.4166 0.1001
vn 0.8746 -0.4734 0.1049
vn 0.8205 -0.5285 0.2180
vn 0.7822 -0.5920 0.1942
vn 0.3852 0.4205 -0.8214
vn 0.7439 0.6634 -0.0814
vn 0.7969 0.5394 -0.2720
vn 0.7687 0.5335 -0.3528
s 0
f 11//1 2//1 7//1
f 13//2 4//2 5//2
f 13//3 5//3 8//3
f 13//4 10//4 4//4
f 13//5 8//5 1//5
f 13//6 1//6 6//6
f 13//7 6//7 10//7
f 15//8 7//8 2//8
f 15//9 12//9 7//9
f 15//10 9//10 3//10
f 15//11 3//11 12//11
f 16//12 5//12 4//12
f 17//13 10//13 6//13
f 17//14 12//14 3//14
f 18//15 16//15 4//15
f 18//16 3//16 9//16
f 18//17 9//17 16//17
f 18//18 17//18 3//18
f 19//19 11//19 7//19
f 19//20 7//20 12//20
f 20//21 1//21 8//21
f 21//22 8//22 5//22
f 21//23 5//23 14//23
f 22//24 14//24 5//24
f 22//25 15//25 14//25
f 22//26 9//26 15//26
f 22//27 16//27 9//27
f 23//28 15//28 2//28
f 23//29 2//29 11//29
f 24//30 17//30 6//30
f 24//31 12//31 17//31
f 24//32 19//32 12//32
f 24//33 6//33 1//33
f 24//34 1//34 19//34
f 25//35 18//35 4//35
f 25//36 4//36 10//36
f 26//37 19//37 1//37
f 26//38 1//38 20//38
f 26//39 11//39 19//39
f 27//40 20//40 8//40
f 27//41 8//41 21//41
f 27//42 26//42 20//42
f 27//43 21//43 14//43
f 28//44 22//44 5//44
f 28//45 5//45 16//45
f 28//46 16//46 22//46
f 29//47 23//47 11//47
f 29//48 14//48 15//48
f 29//49 15//49 23//49
f 29//50 27//50 14//50
f 29//51 11//51 26//51
f 29//52 26//52 27//52
f 30//53 25//53 10//53
f 30//54 10//54 17//54
f 30//55 17//55 18//55
f 30//56 18//56 25//56
