# Blender 4.1.1
# www.blender.org
mtllib model_collision_6.mtl
o model_collision_6
v -0.016028 -0.029733 0.000732
v -0.015531 -0.033235 0.001029
v -0.018904 -0.020438 -0.034198
v -0.044603 -0.024021 -0.033592
v -0.044397 -0.034875 -0.000472
v -0.045246 -0.036532 -0.031499
v -0.019565 -0.012094 -0.016495
v -0.013538 -0.025535 -0.026078
v -0.023382 -0.027666 0.000867
v -0.044822 -0.033947 -0.032708
v -0.041031 -0.034851 0.000080
v -0.029924 -0.020417 -0.034076
v -0.042080 -0.021693 -0.003122
v -0.015001 -0.013392 -0.015564
v -0.020450 -0.026944 -0.032923
v -0.016015 -0.011973 -0.016002
v -0.031519 -0.031243 -0.032650
v -0.016387 -0.030426 -0.015813
v -0.038976 -0.034386 -0.031908
vn -0.9982 0.0554 0.0243
vn 0.0437 0.0906 0.9949
vn -0.9363 -0.0106 -0.3510
vn -0.0111 -0.0885 -0.9960
vn 0.0615 -0.9971 0.0449
vn -0.0017 -0.9986 0.0534
vn -0.0358 -0.0214 0.9991
vn -0.0030 0.9045 -0.4265
vn -0.0112 -0.0883 -0.9960
vn -0.2368 0.9247 -0.2982
vn -0.4098 0.9115 -0.0357
vn -0.9803 0.1858 0.0670
vn -0.1343 0.2242 0.9653
vn -0.1594 0.2214 0.9621
vn 0.9639 0.1552 0.2164
vn 0.9953 0.0454 0.0860
vn 0.8622 0.3870 -0.3269
vn 0.7022 -0.2938 -0.6485
vn 0.2019 0.6716 0.7129
vn 0.5414 0.5764 0.6121
vn 0.0789 0.7125 0.6972
vn -0.0951 0.8776 0.4698
vn 0.8102 0.4716 -0.3480
vn 0.0283 0.9046 -0.4253
vn 0.0430 -0.1907 -0.9807
vn 0.0553 -0.2046 -0.9773
vn 0.4497 -0.8483 -0.2794
vn 0.6778 -0.7188 -0.1544
vn 0.2924 -0.9407 -0.1718
vn 0.0901 -0.4339 -0.8965
vn 0.0909 -0.4280 -0.8992
vn 0.3056 -0.9309 -0.1999
vn 0.3260 -0.8641 -0.3835
vn 0.3468 -0.8996 -0.2654
s 0
f 6//1 5//1 4//1
f 9//2 2//2 1//2
f 10//3 6//3 4//3
f 10//4 4//4 3//4
f 11//5 6//5 2//5
f 11//6 5//6 6//6
f 11//7 2//7 9//7
f 12//8 7//8 3//8
f 12//9 3//9 4//9
f 12//10 4//10 7//10
f 13//11 7//11 4//11
f 13//12 4//12 5//12
f 13//13 11//13 9//13
f 13//14 5//14 11//14
f 14//15 1//15 2//15
f 14//16 2//16 8//16
f 14//17 8//17 3//17
f 15//18 3//18 8//18
f 16//19 9//19 1//19
f 16//20 1//20 14//20
f 16//21 13//21 9//21
f 16//22 7//22 13//22
f 16//23 14//23 3//23
f 16//24 3//24 7//24
f 17//25 10//25 3//25
f 17//26 3//26 15//26
f 18//27 15//27 8//27
f 18//28 8//28 2//28
f 18//29 2//29 6//29
f 19//30 6//30 10//30
f 19//31 10//31 17//31
f 19//32 18//32 6//32
f 19//33 17//33 15//33
f 19//34 15//34 18//34
