# Blender 4.1.1
# www.blender.org
mtllib model_collision_28.mtl
o model_collision_28
v -0.062738 0.026578 0.003434
v -0.062425 0.029034 0.001470
v -0.091307 0.031228 -0.006066
v -0.083725 0.039589 -0.028638
v -0.063123 0.027443 -0.032542
v -0.063602 0.043164 -0.013598
v -0.088429 0.025746 -0.001748
v -0.076655 0.037829 -0.009204
v -0.062831 0.045025 -0.030537
v -0.069819 0.025739 0.001942
v -0.091985 0.027243 -0.028702
v -0.087053 0.037465 -0.014684
v -0.092356 0.026728 -0.003795
v -0.091572 0.033849 -0.028184
v -0.072866 0.041212 -0.012727
v -0.091569 0.036724 -0.027546
v -0.076567 0.041489 -0.018352
v -0.091231 0.034210 -0.010498
v -0.076351 0.042147 -0.029234
v -0.087463 0.038509 -0.027865
vn -0.1512 0.6290 0.7626
vn 0.9904 -0.1375 -0.0139
vn -0.1824 0.5475 0.8167
vn -0.1414 0.6632 0.7350
vn -0.0658 0.7253 0.6853
vn 0.9872 0.1474 0.0611
vn 0.9997 -0.0144 -0.0199
vn 0.0091 -0.9988 -0.0476
vn 0.1228 -0.9921 -0.0252
vn -0.1935 -0.1017 0.9758
vn -0.0005 -0.9985 -0.0554
vn -0.2309 -0.9727 -0.0236
vn -0.3058 0.4849 0.8194
vn -0.1290 0.0984 -0.9868
vn -0.1320 0.0857 -0.9875
vn -0.1033 0.7706 0.6288
vn -0.2102 0.2120 -0.9544
vn -0.9150 0.0881 -0.3937
vn -0.9989 0.0455 -0.0140
vn -0.1877 0.9672 0.1713
vn -0.1636 0.9814 0.1004
vn -0.2780 0.9329 0.2290
vn -0.2851 0.8735 0.3946
vn -0.2478 0.8058 0.5379
vn -0.2492 0.8184 0.5178
vn -0.5215 0.8426 0.1346
vn -0.9806 0.1901 0.0475
vn -0.9284 0.3155 0.1963
vn -0.2028 0.9777 0.0551
vn -0.1194 0.1144 -0.9862
vn -0.3917 0.9162 0.0848
vn -0.3311 0.9398 0.0847
vn -0.3274 0.6268 -0.7071
vn -0.3295 0.8581 -0.3937
vn -0.3051 0.9509 0.0514
s 0
f 1//1 2//1 3//1
f 5//2 2//2 1//2
f 7//3 1//3 3//3
f 8//4 3//4 2//4
f 8//5 2//5 6//5
f 9//6 6//6 2//6
f 9//7 2//7 5//7
f 10//8 7//8 5//8
f 10//9 5//9 1//9
f 10//10 1//10 7//10
f 11//11 5//11 7//11
f 13//12 11//12 7//12
f 13//13 7//13 3//13
f 14//14 4//14 5//14
f 14//15 5//15 11//15
f 15//16 8//16 6//16
f 16//17 4//17 14//17
f 16//18 14//18 11//18
f 16//19 11//19 13//19
f 17//20 15//20 6//20
f 17//21 6//21 9//21
f 17//22 12//22 15//22
f 18//23 15//23 12//23
f 18//24 3//24 8//24
f 18//25 8//25 15//25
f 18//26 12//26 16//26
f 18//27 16//27 13//27
f 18//28 13//28 3//28
f 19//29 17//29 9//29
f 19//30 9//30 5//30
f 19//30 5//30 4//30
f 20//31 16//31 12//31
f 20//32 12//32 17//32
f 20//33 4//33 16//33
f 20//34 19//34 4//34
f 20//35 17//35 19//35
