# Blender 4.1.1
# www.blender.org
mtllib model_collision_16.mtl
o model_collision_16
v 0.104917 -0.000253 0.023659
v 0.106695 0.001401 0.022849
v 0.095739 -0.006472 0.023122
v 0.102640 -0.009191 -0.033753
v 0.105175 -0.012478 -0.001047
v 0.096943 -0.005440 0.023950
v 0.104265 -0.006522 0.022976
v 0.105971 -0.008926 -0.032935
v 0.101312 -0.015171 -0.032512
v 0.107983 0.000290 0.012104
v 0.101866 -0.008118 0.022816
v 0.104065 -0.013232 -0.002180
v 0.103492 -0.013634 -0.032149
v 0.108169 0.000838 0.011881
v 0.096384 -0.007735 0.020102
vn -0.5791 0.8079 -0.1097
vn -0.6017 0.7910 -0.1108
vn -0.4624 0.7382 0.4911
vn 0.5194 -0.1458 0.8420
vn 0.1136 -0.1194 0.9863
vn -0.9735 0.1898 -0.1272
vn 0.2496 -0.2496 -0.9356
vn 0.9381 -0.3262 0.1164
vn 0.9468 -0.2882 0.1433
vn 0.0936 -0.2375 0.9669
vn -0.1047 -0.5450 0.8319
vn 0.5294 -0.8185 0.2230
vn 0.5608 -0.8280 0.0020
vn 0.3869 -0.8961 0.2174
vn 0.3866 -0.3464 -0.8547
vn 0.8823 -0.4697 -0.0303
vn 0.5763 -0.8172 -0.0008
vn 0.9534 -0.2911 0.0790
vn 0.9757 -0.2193 -0.0001
vn -0.0257 0.9770 -0.2116
vn -0.5468 0.8292 -0.1160
vn 0.9536 -0.2656 0.1417
vn -0.9170 -0.3979 -0.0296
vn -0.3853 -0.9180 0.0937
vn -0.1590 -0.9699 0.1845
vn -0.2289 -0.9146 0.3335
s 0
f 6//1 2//1 4//1
f 6//2 4//2 3//2
f 6//3 1//3 2//3
f 7//4 2//4 1//4
f 7//5 1//5 6//5
f 9//6 3//6 4//6
f 9//7 4//7 8//7
f 10//8 7//8 5//8
f 10//9 2//9 7//9
f 11//10 7//10 6//10
f 11//11 6//11 3//11
f 11//12 5//12 7//12
f 12//13 9//13 5//13
f 12//14 5//14 11//14
f 13//15 9//15 8//15
f 13//16 8//16 5//16
f 13//17 5//17 9//17
f 14//18 10//18 5//18
f 14//19 5//19 8//19
f 14//20 8//20 4//20
f 14//21 4//21 2//21
f 14//22 2//22 10//22
f 15//23 3//23 9//23
f 15//24 9//24 12//24
f 15//25 12//25 11//25
f 15//26 11//26 3//26
