# Blender 4.1.1
# www.blender.org
mtllib model_collision_7.mtl
o model_collision_7
v -0.019792 0.028390 0.009513
v -0.019016 0.031256 0.008192
v -0.061967 0.024872 0.008688
v -0.064205 0.036767 -0.006238
v -0.060039 0.002746 -0.013557
v -0.044243 0.029479 0.010432
v -0.031073 0.004980 0.009912
v -0.040345 0.032148 -0.007098
v -0.062219 0.004933 0.008723
v -0.019530 0.033283 0.005477
v -0.058129 0.027342 0.007875
v -0.044162 0.004881 0.018206
v -0.023244 0.034276 0.002850
v -0.048533 0.008028 -0.006531
v -0.049520 0.004358 0.015219
v -0.032637 0.004492 0.008914
vn 0.0524 0.4062 0.9123
vn 0.8258 -0.4046 -0.3930
vn 0.0056 0.2110 -0.9775
vn -0.9873 0.0128 0.1583
vn -0.9909 -0.1026 -0.0869
vn -0.0033 0.8012 0.5984
vn -0.0477 0.8930 0.4475
vn 0.8013 -0.3970 -0.4476
vn -0.2289 0.7611 0.6069
vn -0.3286 0.7140 0.6183
vn -0.2333 0.6114 0.7561
vn 0.5213 -0.2373 0.8197
vn 0.0492 0.3011 0.9523
vn -0.1695 0.2965 0.9399
vn -0.4649 0.0074 0.8853
vn 0.1538 0.8785 -0.4523
vn -0.0310 0.9196 0.3916
vn 0.5320 -0.1916 -0.8248
vn 0.5111 -0.1567 -0.8451
vn 0.6061 -0.3585 -0.7100
vn 0.6020 -0.3697 -0.7078
vn 0.5995 -0.3451 -0.7222
vn -0.4477 -0.2744 0.8510
vn -0.0902 -0.9920 0.0885
vn 0.0254 -0.9986 0.0467
vn 0.5733 -0.4835 -0.6615
vn 0.1532 -0.9610 0.2302
vn 0.0437 -0.9944 0.0957
s 0
f 6//1 1//1 2//1
f 7//2 2//2 1//2
f 8//3 5//3 4//3
f 9//4 3//4 4//4
f 9//5 4//5 5//5
f 10//6 6//6 2//6
f 10//7 4//7 6//7
f 10//8 2//8 7//8
f 11//9 6//9 4//9
f 11//10 4//10 3//10
f 11//11 3//11 6//11
f 12//12 7//12 1//12
f 12//13 1//13 6//13
f 12//14 6//14 3//14
f 12//15 3//15 9//15
f 13//16 8//16 4//16
f 13//17 4//17 10//17
f 13//18 10//18 5//18
f 13//19 5//19 8//19
f 14//20 10//20 7//20
f 14//21 7//21 5//21
f 14//22 5//22 10//22
f 15//23 12//23 9//23
f 15//24 9//24 5//24
f 16//25 15//25 5//25
f 16//26 5//26 7//26
f 16//27 7//27 12//27
f 16//28 12//28 15//28
