# Blender 4.1.1
# www.blender.org
mtllib model_collision_12.mtl
o model_collision_12
v 0.028766 0.002308 -0.013522
v 0.028989 -0.023696 -0.010565
v 0.028955 -0.021294 -0.020437
v -0.012444 -0.025152 -0.026243
v -0.015329 -0.031087 -0.010848
v 0.007552 -0.021054 -0.026383
v 0.029110 0.001395 -0.013436
v -0.015604 -0.001713 -0.017348
v -0.002126 -0.027621 -0.016000
v 0.010898 0.001466 -0.014787
v -0.015616 -0.026629 -0.024786
v -0.003635 0.001443 -0.016515
v -0.015907 -0.028795 -0.020002
v -0.004793 0.001752 -0.016762
vn -0.0251 0.1127 0.9933
vn 0.2603 0.2734 -0.9260
vn 0.1571 -0.7867 -0.5971
vn 0.0502 0.1133 0.9923
vn 1.0000 -0.0054 -0.0048
vn 0.7088 0.2036 -0.6754
vn -0.0772 0.3446 -0.9356
vn 0.1618 -0.9587 -0.2339
vn 0.1615 -0.9593 -0.2316
vn -0.0779 0.1814 0.9803
vn -0.4974 0.2484 -0.8312
vn 0.1514 -0.8397 -0.5216
vn -0.1237 0.2133 0.9691
vn -0.1158 0.2107 0.9707
vn -0.9979 0.0049 0.0642
vn -0.9984 0.0164 -0.0532
vn 0.1538 -0.9562 -0.2491
vn 0.1473 -0.9044 -0.4005
vn 0.1568 -0.9527 -0.2603
vn -0.0643 0.3581 -0.9315
vn -0.1350 0.2596 0.9562
vn 0.0801 0.4239 -0.9021
vn -0.1120 0.3308 0.9370
vn -0.0841 0.6430 0.7613
s 0
f 5//1 2//1 1//1
f 6//2 1//2 3//2
f 6//3 3//3 4//3
f 7//4 1//4 2//4
f 7//5 2//5 3//5
f 7//6 3//6 1//6
f 8//7 6//7 4//7
f 9//8 3//8 2//8
f 9//9 2//9 5//9
f 10//10 5//10 1//10
f 11//11 8//11 4//11
f 11//12 4//12 3//12
f 12//13 8//13 5//13
f 12//14 5//14 10//14
f 13//15 5//15 8//15
f 13//16 8//16 11//16
f 13//17 9//17 5//17
f 13//18 11//18 3//18
f 13//19 3//19 9//19
f 14//20 6//20 8//20
f 14//21 8//21 12//21
f 14//22 1//22 6//22
f 14//23 12//23 10//23
f 14//24 10//24 1//24
