# Blender 4.1.1
# www.blender.org
mtllib model_collision_5.mtl
o model_collision_5
v 0.058380 0.040718 -0.010690
v 0.058552 -0.022586 -0.021587
v 0.058394 0.039773 -0.032295
v -0.004212 0.041282 -0.033494
v -0.003635 0.001443 -0.016515
v 0.058548 -0.019427 -0.032788
v -0.004418 0.042923 -0.011336
v 0.058663 -0.022299 -0.031929
v 0.058509 -0.005746 -0.010568
v -0.004576 -0.021820 -0.033214
v 0.006665 -0.022861 -0.020909
v 0.029108 -0.006105 -0.012237
v -0.004026 0.039787 -0.010220
v -0.004605 0.042121 -0.020818
v -0.004243 -0.023679 -0.024988
v 0.006272 -0.020035 -0.033221
v -0.002873 -0.023691 -0.024341
vn 0.0193 0.0084 -0.9998
vn 0.0355 0.9984 -0.0437
vn 0.0254 0.9970 -0.0736
vn 1.0000 0.0043 0.0005
vn 0.9926 0.0036 -0.1213
vn 1.0000 0.0028 0.0051
vn 0.9999 -0.0045 0.0107
vn 0.0173 -0.2860 -0.9581
vn 0.0138 -0.5475 0.8367
vn -0.0467 -0.4091 0.9113
vn -0.1817 -0.2490 0.9513
vn 0.0075 0.0027 1.0000
vn 0.0021 0.3354 0.9421
vn -0.0555 -0.0838 0.9949
vn -0.9754 -0.0454 0.2158
vn -0.1644 -0.1614 0.9731
vn -0.9998 -0.0043 0.0200
vn -0.3411 0.9372 -0.0726
vn -0.9995 0.0056 -0.0314
vn -0.9791 -0.0433 0.1987
vn -0.9992 -0.0105 0.0381
vn -0.0029 -0.9754 -0.2203
vn -0.0000 -0.0044 -1.0000
vn 0.0083 -0.0030 -1.0000
vn 0.0090 -0.0589 -0.9982
vn -0.3012 -0.2918 0.9078
vn -0.4118 -0.2823 0.8664
vn 0.0080 -0.9768 0.2142
vn 0.0161 -0.9985 -0.0528
vn 0.0192 -0.9994 -0.0275
s 0
f 6//1 4//1 3//1
f 7//2 1//2 3//2
f 7//3 3//3 4//3
f 8//4 3//4 1//4
f 8//5 6//5 3//5
f 9//6 8//6 1//6
f 9//7 2//7 8//7
f 10//8 6//8 8//8
f 11//9 2//9 9//9
f 12//10 11//10 9//10
f 12//11 5//11 11//11
f 13//12 9//12 1//12
f 13//13 1//13 7//13
f 13//14 12//14 9//14
f 13//15 7//15 5//15
f 13//16 5//16 12//16
f 14//17 10//17 7//17
f 14//18 7//18 4//18
f 14//19 4//19 10//19
f 15//20 5//20 7//20
f 15//21 7//21 10//21
f 15//22 10//22 8//22
f 16//23 10//23 4//23
f 16//24 4//24 6//24
f 16//25 6//25 10//25
f 17//26 11//26 5//26
f 17//27 5//27 15//27
f 17//28 2//28 11//28
f 17//29 15//29 8//29
f 17//30 8//30 2//30
