# Blender 4.1.1
# www.blender.org
mtllib model_collision_22.mtl
o model_collision_22
v -0.031073 0.004980 0.009912
v -0.022835 -0.024474 0.008311
v -0.033984 -0.025719 -0.006690
v -0.045312 -0.023424 -0.010340
v -0.046258 -0.024377 0.012817
v -0.043316 0.007200 -0.000733
v -0.023359 -0.026069 0.005161
v -0.023480 -0.020774 0.009545
v -0.041050 -0.024335 -0.010434
v -0.041252 0.003819 0.003607
v -0.045629 0.006087 -0.002124
v -0.030448 -0.026327 -0.002915
v -0.027442 -0.006099 0.010004
v -0.044577 -0.023582 -0.010461
vn 0.6551 0.3104 -0.6888
vn 0.7196 0.2763 -0.6370
vn 0.0808 -0.8946 0.4395
vn 0.1801 -0.2827 0.9421
vn 0.9243 0.2558 -0.2833
vn -0.1715 -0.9844 -0.0402
vn 0.4918 0.2881 -0.8217
vn -0.5221 0.3471 0.7790
vn -0.4795 0.5670 0.6698
vn -0.9992 0.0006 -0.0408
vn -0.6096 0.4582 0.6469
vn -0.6808 0.3338 0.6520
vn 0.3834 0.2966 -0.8747
vn -0.0487 -0.9960 0.0745
vn -0.1452 -0.9891 -0.0233
vn 0.7292 0.2219 -0.6473
vn 0.1066 0.0432 0.9934
vn 0.1411 0.0071 0.9900
vn 0.9228 0.2581 -0.2861
vn 0.8618 0.2789 -0.4237
vn -0.2081 -0.9769 -0.0484
vn -0.2169 -0.9750 -0.0490
vn 0.0656 0.2721 -0.9600
vn -0.1019 0.2658 -0.9586
s 0
f 6//1 1//1 3//1
f 7//2 3//2 1//2
f 7//3 2//3 5//3
f 8//4 5//4 2//4
f 8//5 2//5 7//5
f 9//6 3//6 5//6
f 9//7 6//7 3//7
f 10//8 5//8 1//8
f 10//9 1//9 6//9
f 11//10 4//10 5//10
f 11//11 10//11 6//11
f 11//12 5//12 10//12
f 11//13 6//13 9//13
f 12//14 7//14 5//14
f 12//15 5//15 3//15
f 12//16 3//16 7//16
f 13//17 1//17 5//17
f 13//18 5//18 8//18
f 13//19 8//19 7//19
f 13//20 7//20 1//20
f 14//21 9//21 5//21
f 14//22 5//22 4//22
f 14//23 11//23 9//23
f 14//24 4//24 11//24
