# Blender 4.1.1
# www.blender.org
mtllib model_collision_19.mtl
o model_collision_19
v 0.058530 -0.020734 0.008040
v 0.058340 -0.021903 0.007552
v 0.040126 -0.016510 -0.009256
v -0.014548 -0.024314 -0.013268
v -0.014642 -0.033877 0.010042
v 0.040015 -0.023029 -0.010387
v 0.058587 -0.021240 0.000561
v -0.008376 -0.033855 0.010683
v -0.015371 -0.028165 0.008143
v -0.015329 -0.031087 -0.010848
v 0.046771 -0.024319 0.008825
v 0.028997 -0.016468 -0.009550
v -0.011216 -0.027941 0.008733
v -0.001975 -0.028822 -0.011727
v -0.015863 -0.031321 -0.005865
v 0.058352 -0.022317 0.000848
v 0.003152 -0.019384 -0.010616
vn 0.0480 0.1699 -0.9843
vn 0.9855 -0.1684 0.0189
vn 0.2788 0.9583 -0.0626
vn 0.4927 0.1405 -0.8588
vn 0.0171 -0.9910 -0.1329
vn 0.1831 -0.4047 0.8959
vn -0.0093 0.2427 0.9701
vn -0.0026 0.9708 0.2399
vn 0.0262 0.3056 -0.9518
vn -0.0219 0.3035 0.9526
vn -0.1011 0.9276 0.3597
vn -0.0915 0.9216 0.3771
vn -0.1499 0.2946 0.9438
vn -0.0990 0.2684 0.9582
vn -0.0050 -0.3360 -0.9418
vn 0.0561 -0.1793 -0.9822
vn 0.1397 -0.9420 -0.3051
vn -0.9839 0.1785 -0.0057
vn -0.9917 0.0778 -0.1025
vn -0.5237 -0.8465 -0.0958
vn -0.9925 -0.1072 0.0590
vn 0.9777 -0.2095 0.0148
vn 0.2105 -0.9757 0.0608
vn 0.5035 -0.3232 -0.8013
vn 0.1704 -0.9854 0.0001
vn 0.1433 -0.9746 -0.1722
vn 0.1433 -0.9747 -0.1716
vn -0.0273 0.5477 -0.8362
vn -0.2869 0.9447 0.1589
vn -0.1193 0.9392 0.3219
s 0
f 6//1 4//1 3//1
f 7//2 1//2 2//2
f 7//3 3//3 1//3
f 7//4 6//4 3//4
f 10//5 8//5 5//5
f 11//6 2//6 1//6
f 11//7 1//7 8//7
f 12//8 1//8 3//8
f 12//9 3//9 4//9
f 13//10 8//10 1//10
f 13//11 12//11 9//11
f 13//12 1//12 12//12
f 13//13 9//13 5//13
f 13//14 5//14 8//14
f 14//15 10//15 4//15
f 14//16 4//16 6//16
f 14//17 6//17 10//17
f 15//18 9//18 4//18
f 15//19 4//19 10//19
f 15//20 10//20 5//20
f 15//21 5//21 9//21
f 16//22 7//22 2//22
f 16//23 2//23 11//23
f 16//24 6//24 7//24
f 16//25 11//25 8//25
f 16//26 10//26 6//26
f 16//27 8//27 10//27
f 17//28 12//28 4//28
f 17//29 4//29 9//29
f 17//30 9//30 12//30
