# Blender 4.1.1
# www.blender.org
mtllib model_collision_30.mtl
o model_collision_30
v 0.010511 0.011727 0.019608
v 0.005642 0.007841 -0.015771
v 0.005627 0.042661 -0.015525
v -0.014028 0.042692 -0.015762
v -0.017678 0.011378 0.020907
v -0.013686 0.007832 -0.015656
v -0.013938 0.043493 0.010128
v 0.005468 0.042657 0.008211
vn 0.9906 0.0014 -0.1365
vn 0.0121 0.0071 -0.9999
vn 0.0172 -0.9941 0.1068
vn -0.9941 -0.0101 -0.1076
vn -0.0059 -0.0031 -1.0000
vn 0.0010 -0.9953 0.0966
vn 0.0398 0.3138 0.9487
vn 0.0020 0.9995 -0.0309
vn -0.9933 0.1157 -0.0001
vn 0.1070 0.3591 0.9271
vn 0.9866 0.1633 0.0067
vn 0.0431 0.9991 0.0005
s 0
f 1//1 2//1 3//1
f 3//2 2//2 4//2
f 5//3 2//3 1//3
f 6//4 5//4 4//4
f 6//5 4//5 2//5
f 6//6 2//6 5//6
f 7//7 5//7 1//7
f 7//8 3//8 4//8
f 7//9 4//9 5//9
f 8//10 7//10 1//10
f 8//11 1//11 3//11
f 8//12 3//12 7//12
