# Blender 4.1.1
# www.blender.org
mtllib model_collision_9.mtl
o model_collision_9
v 0.004487 0.006664 0.023127
v 0.029994 -0.029948 0.006185
v 0.018461 -0.022346 0.019213
v 0.030153 0.007371 0.006327
v -0.009186 -0.055166 0.006344
v 0.023485 0.006659 0.014698
v -0.012088 0.011726 0.022163
v 0.019193 -0.047729 0.005633
v 0.028334 -0.029378 0.008490
v 0.011637 -0.004259 0.022811
v 0.028101 0.007178 0.009274
v 0.015046 0.006677 0.019083
v 0.004874 -0.039875 0.018766
v 0.024664 -0.039499 0.008101
v 0.018537 -0.000687 0.018997
v -0.009291 -0.029512 0.023679
v 0.008002 0.003056 0.022886
v 0.001045 -0.053780 0.008638
v 0.025325 -0.040650 0.006087
v 0.021798 -0.029334 0.015383
v 0.014760 -0.039756 0.014987
v -0.009395 0.007085 0.023877
v -0.009268 -0.040089 0.019232
v 0.007929 -0.025939 0.023094
v 0.001486 -0.055447 0.006520
v 0.017987 -0.046207 0.007939
v 0.004135 -0.050073 0.011614
v 0.018001 -0.036098 0.015088
v -0.009032 -0.050260 0.012098
v 0.004660 -0.029365 0.022951
v 0.011655 -0.018696 0.022902
v 0.011418 -0.036250 0.018464
v -0.008670 -0.053736 0.008544
v 0.011410 -0.046593 0.011610
v 0.012179 -0.051602 0.006347
v 0.011358 -0.050256 0.008178
vn -0.3251 0.2043 -0.9234
vn -0.0299 0.0185 -0.9994
vn 0.0451 0.0036 -0.9990
vn 0.7290 -0.0198 0.6842
vn 0.1879 0.9496 0.2509
vn 0.1674 0.9693 0.1799
vn 0.7619 -0.0090 0.6476
vn 0.8106 -0.0074 0.5855
vn 0.8208 -0.0057 0.5712
vn 0.2126 0.8023 0.5578
vn 0.2115 0.8903 0.4032
vn 0.7405 -0.2918 0.6054
vn 0.4810 0.0071 0.8767
vn 0.6514 0.0053 0.7587
vn 0.4027 0.1804 0.8974
vn 0.4518 0.2040 0.8685
vn 0.3436 0.2747 0.8980
vn 0.1175 0.0483 0.9919
vn 0.3914 0.1853 0.9014
vn 0.6227 -0.5735 0.5323
vn 0.1269 -0.0463 -0.9908
vn 0.8079 -0.3567 0.4692
vn 0.6962 -0.2779 0.6619
vn 0.7252 -0.0307 0.6878
vn 0.0542 0.0066 0.9985
vn 0.0614 0.3770 0.9242
vn -0.5444 -0.0061 0.8388
vn -0.9879 -0.0618 0.1420
vn -0.9965 -0.0577 0.0612
vn 0.0362 -0.3872 0.9213
vn 0.0351 -0.0053 0.9994
vn 0.0125 -0.1425 -0.9897
vn 0.5354 -0.5485 0.6423
vn 0.4988 -0.5134 0.6983
vn 0.2680 -0.7290 0.6299
vn 0.5112 -0.4728 0.7177
vn 0.5822 -0.3586 0.7297
vn -0.9880 -0.1035 0.1149
vn 0.0373 -0.6443 0.7638
vn 0.0383 -0.5757 0.8168
vn 0.0357 -0.5733 0.8186
vn 0.0529 -0.0919 0.9944
vn 0.0523 -0.3685 0.9282
vn 0.3932 -0.1785 0.9019
vn 0.4791 0.0062 0.8777
vn 0.0540 0.0064 0.9985
vn 0.0482 0.0016 0.9988
vn 0.3144 -0.5003 0.8067
vn 0.4256 -0.3995 0.8119
vn 0.4096 -0.2547 0.8760
vn 0.4425 -0.2855 0.8501
vn 0.4327 -0.2656 0.8615
vn 0.2384 -0.3550 0.9039
vn 0.2857 -0.3104 0.9067
vn -0.0095 -0.7866 0.6174
vn -0.0310 -0.8346 0.5499
vn -0.5904 -0.6063 0.5328
vn -0.0100 -0.7154 0.6986
vn 0.3066 -0.5380 0.7852
vn 0.2710 -0.5658 0.7787
vn 0.4286 -0.5601 0.7089
vn 0.2724 -0.7292 0.6278
vn 0.1302 -0.4027 -0.9060
vn 0.4194 -0.6411 0.6428
vn 0.3122 -0.6519 0.6911
vn 0.2903 -0.7043 0.6478
vn 0.4121 -0.6361 0.6523
vn 0.4073 -0.6275 0.6636
s 0
f 7//1 4//1 5//1
f 8//2 5//2 4//2
f 8//3 4//3 2//3
f 9//4 6//4 3//4
f 11//5 7//5 6//5
f 11//6 4//6 7//6
f 11//7 6//7 9//7
f 11//8 9//8 2//8
f 11//9 2//9 4//9
f 12//10 7//10 1//10
f 12//11 6//11 7//11
f 14//12 2//12 9//12
f 15//13 10//13 3//13
f 15//14 3//14 6//14
f 15//15 12//15 10//15
f 15//16 6//16 12//16
f 17//17 12//17 1//17
f 17//18 1//18 10//18
f 17//19 10//19 12//19
f 19//20 14//20 8//20
f 19//21 8//21 2//21
f 19//22 2//22 14//22
f 20//23 14//23 9//23
f 20//24 9//24 3//24
f 22//25 10//25 1//25
f 22//26 1//26 7//26
f 22//27 7//27 16//27
f 23//28 16//28 7//28
f 23//29 7//29 5//29
f 23//30 13//30 16//30
f 24//31 22//31 16//31
f 25//32 5//32 8//32
f 26//33 8//33 14//33
f 26//34 14//34 21//34
f 27//35 18//35 25//35
f 28//36 21//36 14//36
f 28//37 14//37 20//37
f 29//38 23//38 5//38
f 29//39 18//39 27//39
f 29//40 27//40 13//40
f 29//41 13//41 23//41
f 30//42 24//42 16//42
f 30//43 16//43 13//43
f 31//44 24//44 3//44
f 31//45 3//45 10//45
f 31//46 10//46 22//46
f 31//47 22//47 24//47
f 32//48 13//48 21//48
f 32//49 21//49 28//49
f 32//50 3//50 24//50
f 32//51 28//51 20//51
f 32//52 20//52 3//52
f 32//53 30//53 13//53
f 32//54 24//54 30//54
f 33//55 25//55 18//55
f 33//56 5//56 25//56
f 33//57 29//57 5//57
f 33//58 18//58 29//58
f 34//59 21//59 13//59
f 34//60 13//60 27//60
f 34//61 26//61 21//61
f 35//62 27//62 25//62
f 35//63 25//63 8//63
f 35//64 8//64 26//64
f 36//65 34//65 27//65
f 36//66 27//66 35//66
f 36//67 35//67 26//67
f 36//68 26//68 34//68
