# Blender 4.1.1
# www.blender.org
mtllib model_collision_26.mtl
o model_collision_26
v 0.006289 0.008517 0.022069
v 0.010511 0.011727 0.019608
v 0.002123 0.036547 0.016189
v 0.004869 0.039989 0.008407
v -0.012088 0.011726 0.022163
v -0.010399 0.008811 0.023242
v -0.010205 0.040339 0.011847
v -0.003024 0.036285 0.015977
v -0.009642 0.029568 0.016305
vn 0.3451 0.2416 0.9069
vn 0.8288 0.3412 0.4434
vn -0.1037 -0.3843 -0.9174
vn -0.1031 -0.3972 -0.9119
vn -0.0682 -0.5491 -0.8330
vn 0.0722 0.2151 0.9739
vn 0.1204 0.8915 0.4368
vn -0.2179 -0.3183 -0.9226
vn -0.0532 0.2686 0.9618
vn -0.1186 0.2835 0.9516
vn -0.0643 0.6541 0.7537
vn -0.3110 0.3495 0.8838
vn -0.3880 0.3351 0.8586
vn -0.2950 0.3343 0.8951
s 0
f 1//1 2//1 3//1
f 3//2 2//2 4//2
f 5//3 4//3 2//3
f 6//4 5//4 2//4
f 6//5 2//5 1//5
f 6//6 1//6 3//6
f 7//7 3//7 4//7
f 7//8 4//8 5//8
f 8//9 6//9 3//9
f 8//10 5//10 6//10
f 8//11 3//11 7//11
f 9//12 8//12 7//12
f 9//13 7//13 5//13
f 9//14 5//14 8//14
