# Blender 4.1.1
# www.blender.org
mtllib model_collision_17.mtl
o model_collision_17
v 0.005297 0.007561 0.022646
v 0.032294 0.007718 0.003907
v 0.026682 0.037370 0.003786
v 0.004772 0.041062 0.007190
v 0.005615 0.007868 0.004368
v 0.002697 0.037810 0.014726
v 0.025637 0.007749 0.013329
v 0.011921 0.006996 0.020398
v 0.027387 0.038272 0.002824
v 0.030153 0.007371 0.006327
v 0.011089 0.014166 0.018655
v 0.028160 0.026425 0.005791
v 0.025655 0.014598 0.011971
v 0.024162 0.021407 0.010406
vn -0.9957 -0.0905 -0.0189
vn -0.9639 -0.0018 -0.2662
vn -0.0911 -0.9957 -0.0183
vn -0.0174 -0.0382 -0.9991
vn -0.1796 0.0788 -0.9806
vn 0.3586 0.5353 0.7648
vn 0.1922 0.8807 0.4330
vn -0.0164 -0.9987 -0.0478
vn -0.0081 -0.9888 -0.1491
vn 0.5794 -0.7035 0.4116
vn 0.1218 -0.9838 0.1317
vn 0.3230 0.2656 0.9084
vn 0.3301 0.2590 0.9077
vn 0.9026 0.1591 0.4001
vn 0.3928 0.2847 0.8744
vn 0.8118 0.1116 0.5732
vn 0.8151 0.1231 0.5661
vn 0.6835 0.2190 0.6963
vn 0.6754 0.2223 0.7032
vn 0.3964 0.2600 0.8805
vn 0.4436 0.1733 0.8793
vn 0.4212 0.2899 0.8594
vn 0.4009 0.2962 0.8669
vn 0.3951 0.2872 0.8726
s 0
f 6//1 5//1 1//1
f 6//2 4//2 5//2
f 8//3 1//3 5//3
f 9//4 2//4 5//4
f 9//5 5//5 4//5
f 9//6 6//6 3//6
f 9//7 4//7 6//7
f 10//8 8//8 5//8
f 10//9 5//9 2//9
f 10//10 2//10 7//10
f 10//11 7//11 8//11
f 11//12 6//12 1//12
f 11//13 1//13 8//13
f 12//14 2//14 9//14
f 13//15 6//15 11//15
f 13//16 7//16 2//16
f 13//17 2//17 12//17
f 13//18 12//18 9//18
f 13//19 9//19 3//19
f 13//20 11//20 8//20
f 13//21 8//21 7//21
f 14//22 13//22 3//22
f 14//23 3//23 6//23
f 14//24 6//24 13//24
