# Blender 4.1.1
# www.blender.org
mtllib model_collision_8.mtl
o model_collision_8
v -0.009395 0.007085 0.023877
v -0.009413 -0.051997 0.010260
v -0.010205 0.040339 0.011847
v -0.030795 0.038036 0.006444
v -0.025852 -0.025468 0.019206
v -0.009783 -0.053767 0.008064
v -0.026329 0.033204 0.011987
v -0.009661 0.037592 0.013033
v -0.009291 -0.029512 0.023679
v -0.029488 -0.033796 0.007369
v -0.024202 0.036834 0.011071
v -0.019387 -0.000401 0.022871
v -0.029552 0.026037 0.011813
v -0.009268 -0.040089 0.019232
v -0.019250 -0.050798 0.006002
v -0.029768 0.036992 0.007867
v -0.017058 0.037327 0.012252
v -0.026020 0.022301 0.015570
v -0.019739 -0.022256 0.023097
v -0.028528 -0.011835 0.017124
v -0.016611 -0.052099 0.006672
v -0.025376 -0.039312 0.012190
v -0.009642 0.029568 0.016305
v -0.016766 0.029414 0.015326
v -0.016305 0.006748 0.022500
v -0.024849 -0.012087 0.020149
v -0.016345 -0.029315 0.022499
v -0.028188 -0.029845 0.014220
v -0.025392 -0.044217 0.007362
v -0.018746 -0.046392 0.011640
v -0.023944 0.025525 0.015082
v -0.012894 -0.039801 0.018777
v -0.022311 -0.032325 0.018847
v -0.028730 -0.033823 0.010546
v -0.018716 -0.049444 0.008398
v -0.025060 -0.043145 0.009125
v -0.018935 -0.035913 0.018755
vn 0.2494 0.0400 -0.9676
vn 0.9251 0.0194 -0.3793
vn 0.9850 0.0081 -0.1724
vn -0.2324 0.8082 0.5412
vn 0.9999 0.0040 -0.0132
vn 0.9998 0.0034 -0.0207
vn 1.0000 0.0029 -0.0017
vn -0.1576 -0.0156 -0.9874
vn 0.2228 0.0338 -0.9743
vn -0.3929 0.5829 0.7112
vn -0.4354 0.4517 0.7787
vn -0.6124 0.2572 0.7476
vn -0.7019 0.2291 0.6744
vn -0.1107 0.3756 0.9202
vn -0.1744 0.5102 0.8422
vn -0.5765 0.2403 0.7810
vn -0.0595 -0.0056 0.9982
vn -0.1091 0.0120 0.9940
vn -0.6834 0.0832 0.7253
vn -0.9703 0.0077 0.2417
vn -0.9908 -0.0163 0.1342
vn 0.1500 -0.1948 -0.9693
vn -0.3031 -0.7162 0.6286
vn 0.9912 0.0519 0.1219
vn -0.1107 0.3750 0.9204
vn -0.1762 0.3508 0.9197
vn -0.1863 0.3416 0.9212
vn -0.1348 0.3545 0.9253
vn -0.1359 0.3149 0.9394
vn -0.3427 0.1954 0.9189
vn -0.2000 0.1365 0.9702
vn -0.4744 0.0167 0.8801
vn -0.5293 -0.0201 0.8482
vn -0.6354 -0.0068 0.7721
vn -0.5874 0.0871 0.8046
vn -0.6297 0.0814 0.7726
vn -0.1672 -0.1628 0.9724
vn -0.9750 -0.0532 0.2157
vn -0.8666 -0.0953 0.4897
vn -0.6989 -0.3424 0.6280
vn -0.3531 -0.1383 -0.9253
vn -0.3161 -0.6874 0.6539
vn -0.1918 0.2951 0.9360
vn -0.2006 0.2883 0.9363
vn -0.2168 0.2812 0.9349
vn -0.2006 0.3119 0.9287
vn -0.2433 0.2966 0.9235
vn -0.1450 -0.3837 0.9120
vn -0.1630 -0.3772 0.9117
vn -0.2488 -0.6013 0.7593
vn -0.1466 -0.5942 0.7909
vn -0.4014 -0.2672 0.8760
vn -0.4170 -0.2610 0.8706
vn -0.6386 -0.3653 0.6773
vn -0.9696 -0.0813 0.2308
vn -0.8016 -0.3432 0.4896
vn -0.9091 -0.3575 0.2140
vn -0.4811 -0.7130 0.5101
vn -0.3385 -0.6866 0.6434
vn -0.5821 -0.6455 0.4945
vn -0.5379 -0.5531 0.6362
vn -0.5437 -0.6136 0.5727
vn -0.5805 -0.6423 0.5004
vn -0.8335 -0.3881 0.3932
vn -0.8306 -0.3879 0.3995
vn -0.2591 -0.3977 0.8802
vn -0.3521 -0.3535 0.8666
vn -0.3449 -0.5315 0.7736
vn -0.4896 -0.4793 0.7284
vn -0.4743 -0.5004 0.7243
s 0
f 6//1 4//1 3//1
f 8//2 6//2 3//2
f 8//3 2//3 6//3
f 11//4 3//4 4//4
f 14//5 8//5 1//5
f 14//6 2//6 8//6
f 14//7 1//7 9//7
f 15//8 10//8 4//8
f 15//9 4//9 6//9
f 16//10 11//10 4//10
f 16//11 7//11 11//11
f 16//12 13//12 7//12
f 16//13 4//13 13//13
f 17//14 8//14 3//14
f 17//15 3//15 11//15
f 18//16 7//16 13//16
f 19//17 9//17 1//17
f 19//18 1//18 12//18
f 20//19 18//19 13//19
f 20//20 13//20 4//20
f 20//21 4//21 10//21
f 21//22 15//22 6//22
f 21//23 6//23 2//23
f 23//24 1//24 8//24
f 23//25 8//25 17//25
f 24//26 17//26 11//26
f 24//27 11//27 7//27
f 24//28 23//28 17//28
f 24//29 1//29 23//29
f 25//30 18//30 12//30
f 25//31 12//31 1//31
f 26//32 19//32 12//32
f 26//33 5//33 19//33
f 26//34 20//34 5//34
f 26//35 12//35 18//35
f 26//36 18//36 20//36
f 27//37 9//37 19//37
f 28//38 20//38 10//38
f 28//39 5//39 20//39
f 28//40 22//40 5//40
f 29//41 10//41 15//41
f 30//42 21//42 2//42
f 31//43 1//43 24//43
f 31//44 25//44 1//44
f 31//45 18//45 25//45
f 31//46 24//46 7//46
f 31//47 7//47 18//47
f 32//48 14//48 9//48
f 32//49 9//49 27//49
f 32//50 30//50 2//50
f 32//51 2//51 14//51
f 33//52 27//52 19//52
f 33//53 19//53 5//53
f 33//54 5//54 22//54
f 34//55 28//55 10//55
f 34//56 22//56 28//56
f 34//57 10//57 29//57
f 35//58 15//58 21//58
f 35//59 21//59 30//59
f 35//60 29//60 15//60
f 36//61 30//61 22//61
f 36//62 35//62 30//62
f 36//63 29//63 35//63
f 36//64 34//64 29//64
f 36//65 22//65 34//65
f 37//66 32//66 27//66
f 37//67 27//67 33//67
f 37//68 30//68 32//68
f 37//69 33//69 22//69
f 37//70 22//70 30//70
