# Blender 4.1.1
# www.blender.org
mtllib model_collision_25.mtl
o model_collision_25
v 0.027672 -0.023523 0.010699
v 0.024975 -0.038546 0.008255
v 0.024989 -0.023138 -0.016208
v -0.029329 -0.022399 -0.015536
v -0.031266 -0.022855 0.007739
v 0.023808 -0.037672 -0.016237
v -0.028607 -0.036932 0.007329
v -0.025270 -0.036445 -0.015787
v -0.028218 -0.036642 -0.009629
v -0.028599 -0.026122 -0.015607
v -0.028565 -0.032855 -0.012685
vn 0.0137 0.9998 0.0130
vn 0.0103 0.9997 0.0204
vn 0.9843 -0.1682 -0.0529
vn 0.9917 -0.0803 -0.1001
vn -0.0218 -0.1567 0.9874
vn -0.0506 -0.0387 0.9980
vn -0.0091 0.0027 -1.0000
vn -0.9824 -0.1848 -0.0257
vn -0.0298 -0.9994 -0.0178
vn -0.0254 -0.9987 -0.0441
vn -0.0242 -0.9991 -0.0345
vn -0.0121 0.0167 -0.9998
vn -0.0120 0.0135 -0.9998
vn -0.9881 -0.1405 -0.0619
vn -0.9918 -0.0955 -0.0844
vn -0.9079 -0.1707 -0.3828
vn -0.7928 -0.2460 -0.5576
vn -0.8205 -0.4027 -0.4057
s 0
f 1//1 3//1 4//1
f 5//2 1//2 4//2
f 6//3 1//3 2//3
f 6//4 3//4 1//4
f 7//5 2//5 1//5
f 7//6 1//6 5//6
f 8//7 3//7 6//7
f 9//8 7//8 5//8
f 9//9 2//9 7//9
f 9//10 8//10 6//10
f 9//11 6//11 2//11
f 10//12 4//12 3//12
f 10//13 3//13 8//13
f 11//14 9//14 5//14
f 11//15 5//15 4//15
f 11//16 4//16 10//16
f 11//17 10//17 8//17
f 11//18 8//18 9//18
