# Blender 4.1.1
# www.blender.org
mtllib belt.mtl
o belt_(1)
v -0.289034 2.497872 0.016501
v -0.289034 2.495733 0.029326
v 0.479034 2.497872 0.016501
v 0.479034 2.497872 0.003499
v 0.479034 2.490218 0.004133
v -0.289034 2.497872 0.003499
v 0.479034 2.495733 0.029326
v -0.289034 2.488287 0.027441
v 0.479034 2.490218 0.015867
v 0.479034 2.488287 -0.007441
v 0.479034 2.495733 -0.009326
v -0.289034 2.490218 0.004133
v -0.289034 2.491511 0.041624
v 0.479034 2.488287 0.027441
v -0.289034 2.490218 0.015867
v -0.289034 2.484477 0.038539
v -0.289034 2.495733 -0.009326
v -0.289034 2.488287 -0.007441
v 0.479034 2.491511 0.041624
v 0.479034 2.484477 0.038539
v 0.479034 2.484477 -0.018539
v 0.479034 2.491511 -0.021624
v -0.289034 2.478892 0.048859
v -0.289034 2.485322 0.053059
v -0.289034 2.491511 -0.021624
v -0.289034 2.484477 -0.018539
v 0.479034 2.478892 0.048859
v 0.479034 2.485322 0.053059
v 0.479034 2.478892 -0.028859
v 0.479034 2.485322 -0.033060
v -0.289034 2.471685 0.058118
v -0.289034 2.477335 0.063320
v -0.289034 2.485322 -0.033060
v -0.289034 2.478892 -0.028859
v 0.479034 2.471685 0.058118
v 0.479034 2.477335 0.063320
v 0.479034 2.471685 -0.038118
v 0.479034 2.477335 -0.043320
v -0.289034 2.463052 0.066065
v -0.289034 2.467769 0.072127
v -0.289034 2.471685 -0.038118
v -0.289034 2.477335 -0.043320
v 0.479034 2.463052 0.066065
v 0.479034 2.467769 0.072127
v 0.479034 2.463052 -0.046066
v 0.479034 2.467769 -0.052127
v -0.289034 2.453228 0.072483
v -0.289034 2.456884 0.079238
v -0.289034 2.463052 -0.046066
v -0.289034 2.467769 -0.052127
v -0.289034 2.442483 0.077197
v 0.479034 2.453228 0.072483
v 0.479034 2.456884 0.079238
v 0.479034 2.453228 -0.052483
v 0.479034 2.456884 -0.059238
v 0.479034 2.442483 0.077197
v -0.289034 2.431108 0.080077
v -0.289034 2.444977 0.084461
v 0.479034 2.442483 -0.057197
v -0.289034 2.453228 -0.052483
v -0.289034 2.456884 -0.059238
v -0.289034 2.419415 0.081046
v 0.479034 2.444977 0.084461
v 0.479034 2.431108 0.080077
v -0.289034 2.442483 -0.057197
v 0.479034 2.431108 -0.060077
v 0.479034 2.444977 -0.064461
v -0.289034 2.432373 0.087653
v 0.479034 2.419415 0.081046
v -0.289034 2.419415 0.088727
v 0.479034 2.419415 -0.061046
v -0.289034 2.431108 -0.060077
v -0.289034 2.444977 -0.064461
v 0.479034 2.432373 0.087653
v 0.479034 2.419415 0.088727
v -0.289034 -2.419413 0.081046
v -0.289034 2.419415 -0.061046
v 0.479034 2.419415 -0.068727
v 0.479034 2.432373 -0.067653
v 0.479034 -2.419413 0.081046
v -0.289034 -2.419413 0.088727
v 0.479034 -2.419413 -0.068727
v -0.289034 2.432373 -0.067653
v -0.289034 2.419415 -0.068727
v 0.479034 -2.419413 0.088727
v -0.289034 -2.444976 0.084461
v 0.479034 -2.419413 -0.061046
v -0.289034 -2.419413 -0.068727
v -0.289034 -2.431107 0.080077
v 0.479034 -2.444976 0.084461
v -0.289034 -2.456883 0.079238
v -0.289034 -2.432371 0.087653
v -0.289034 -2.419413 -0.061046
v 0.479034 -2.444976 -0.064461
v 0.479034 -2.431107 0.080077
v 0.479034 -2.456883 0.079238
v 0.479034 -2.432371 0.087653
v 0.479034 -2.431107 -0.060077
v 0.479034 -2.432371 -0.067653
v 0.479034 -2.456883 -0.059238
v -0.289034 -2.444976 -0.064461
v -0.289034 -2.442482 0.077197
v -0.289034 -2.431107 -0.060077
v -0.289034 -2.432371 -0.067653
v -0.289034 -2.456883 -0.059238
v 0.479034 -2.442482 0.077197
v -0.289034 -2.467768 0.072127
v 0.479034 -2.442482 -0.057197
v 0.479034 -2.467768 0.072127
v -0.289034 -2.453228 0.072483
v 0.479034 -2.467768 -0.052127
v -0.289034 -2.442482 -0.057197
v 0.479034 -2.453228 0.072483
v -0.289034 -2.463051 0.066066
v -0.289034 -2.477335 0.063320
v 0.479034 -2.453228 -0.052483
v -0.289034 -2.467768 -0.052127
v 0.479034 -2.463051 0.066066
v 0.479034 -2.477335 0.063320
v 0.479034 -2.463051 -0.046065
v -0.289034 -2.453228 -0.052483
v 0.479034 -2.477335 -0.043320
v -0.289034 -2.471684 0.058118
v -0.289034 -2.485321 0.053060
v -0.289034 -2.463051 -0.046065
v -0.289034 -2.477335 -0.043320
v 0.479034 -2.471684 0.058118
v 0.479034 -2.485321 0.053060
v 0.479034 -2.471684 -0.038118
v 0.479034 -2.485321 -0.033059
v -0.289034 -2.478891 0.048859
v -0.289034 -2.491509 0.041624
v -0.289034 -2.471684 -0.038118
v -0.289034 -2.485321 -0.033059
v 0.479034 -2.478891 0.048859
v 0.479034 -2.491509 0.041624
v 0.479034 -2.478891 -0.028859
v 0.479034 -2.491509 -0.021624
v -0.289034 -2.484476 0.038539
v -0.289034 -2.495731 0.029326
v -0.289034 -2.478891 -0.028859
v -0.289034 -2.491509 -0.021624
v 0.479034 -2.484476 0.038539
v 0.479034 -2.495731 0.029326
v 0.479034 -2.484476 -0.018539
v 0.479034 -2.495731 -0.009326
v -0.289034 -2.488286 0.027441
v -0.289034 -2.497871 0.016501
v -0.289034 -2.484476 -0.018539
v -0.289034 -2.495731 -0.009326
v 0.479034 -2.488286 0.027441
v 0.479034 -2.497871 0.016501
v 0.479034 -2.488286 -0.007441
v 0.479034 -2.497871 0.003499
v -0.289034 -2.490217 0.015867
v -0.289034 -2.497871 0.003499
v -0.289034 -2.488286 -0.007441
v 0.479034 -2.490217 0.015867
v 0.479034 -2.490217 0.004133
v -0.289034 -2.490217 0.004133
vn -0.0000 0.9864 0.1646
vn 1.0000 -0.0000 -0.0000
vn -0.0000 1.0000 -0.0000
vn -0.0000 0.9864 0.1645
vn -1.0000 -0.0000 -0.0000
vn -0.0000 0.9864 -0.1646
vn -0.0000 0.9458 0.3247
vn -0.0000 -1.0000 -0.0000
vn -0.0000 -0.9864 0.1646
vn -0.0000 0.9864 -0.1645
vn -0.0000 -0.9864 -0.1646
vn -0.0000 -0.9458 -0.3247
vn -0.0000 0.9458 -0.3247
vn -0.0000 0.8795 0.4760
vn -0.0000 -0.9458 0.3247
vn -0.0000 -0.8795 -0.4759
vn -0.0000 0.8795 -0.4760
vn -0.0000 -0.8795 -0.4760
vn -0.0000 0.7891 0.6142
vn -0.0000 -0.8795 0.4759
vn -0.0000 -0.7891 -0.6142
vn -0.0000 -0.8795 0.4760
vn -0.0000 0.7891 -0.6142
vn -0.0000 0.6773 0.7357
vn -0.0000 -0.7891 0.6142
vn -0.0000 -0.6773 -0.7357
vn -0.0000 0.6773 -0.7357
vn -0.0000 0.5470 0.8372
vn -0.0000 -0.6773 0.7357
vn -0.0000 -0.5469 -0.8372
vn -0.0000 0.5470 -0.8372
vn -0.0000 -0.4017 -0.9158
vn -0.0000 0.4017 0.9158
vn -0.0000 -0.5469 0.8372
vn -0.0000 -0.2455 -0.9694
vn -0.0000 -0.4017 0.9158
vn -0.0000 0.4017 -0.9158
vn -0.0000 -0.0826 -0.9966
vn -0.0000 0.2455 0.9694
vn -0.0000 -0.2455 0.9694
vn -0.0000 -0.0826 0.9966
vn -0.0000 0.2455 -0.9694
vn -0.0000 -0.0000 -1.0000
vn -0.0000 0.0826 0.9966
vn -0.0000 -0.0000 1.0000
vn -0.0000 0.0826 -0.9966
vn -0.0000 -0.5470 0.8372
vn -0.0000 -0.5470 -0.8372
vn -0.0000 -0.6773 0.7358
vn -0.0000 0.5469 -0.8372
vn -0.0000 -0.6773 -0.7358
vn -0.0000 0.5469 0.8372
vn -0.0000 -0.7892 0.6142
vn -0.0000 -0.7892 -0.6142
vn -0.0000 0.7892 -0.6142
vn -0.0000 0.8795 -0.4759
vn -0.0000 0.7892 0.6142
vn -0.0000 0.8795 0.4759
s 0
f 1//1 2//1 3//1
f 4//2 3//2 5//2
f 6//3 1//3 4//3
f 7//4 3//4 2//4
f 2//5 1//5 8//5
f 9//2 5//2 3//2
f 10//2 4//2 5//2
f 11//6 6//6 4//6
f 12//5 1//5 6//5
f 7//7 2//7 13//7
f 14//2 3//2 7//2
f 8//5 1//5 15//5
f 2//5 8//5 16//5
f 9//2 3//2 14//2
f 5//8 9//8 15//8
f 12//9 10//9 5//9
f 11//2 4//2 10//2
f 6//10 11//10 17//10
f 12//5 6//5 18//5
f 1//5 12//5 15//5
f 2//5 16//5 13//5
f 13//7 19//7 7//7
f 7//2 20//2 14//2
f 15//11 9//11 8//11
f 8//12 14//12 16//12
f 9//11 14//11 8//11
f 12//8 5//8 15//8
f 12//9 18//9 10//9
f 11//2 10//2 21//2
f 11//13 22//13 17//13
f 18//5 6//5 17//5
f 23//5 13//5 16//5
f 19//2 20//2 7//2
f 24//14 19//14 13//14
f 14//12 20//12 16//12
f 18//15 21//15 10//15
f 22//2 11//2 21//2
f 25//13 17//13 22//13
f 26//5 18//5 17//5
f 20//16 23//16 16//16
f 23//5 24//5 13//5
f 27//2 20//2 19//2
f 19//14 24//14 28//14
f 18//15 26//15 21//15
f 22//2 21//2 29//2
f 25//17 22//17 30//17
f 26//5 17//5 25//5
f 27//18 23//18 20//18
f 24//5 23//5 31//5
f 19//2 28//2 27//2
f 24//19 32//19 28//19
f 26//20 29//20 21//20
f 30//2 22//2 29//2
f 30//17 33//17 25//17
f 34//5 26//5 25//5
f 27//21 31//21 23//21
f 31//5 32//5 24//5
f 35//2 27//2 28//2
f 36//19 28//19 32//19
f 26//22 34//22 29//22
f 29//2 37//2 30//2
f 34//5 25//5 33//5
f 38//23 33//23 30//23
f 35//21 31//21 27//21
f 39//5 32//5 31//5
f 28//2 36//2 35//2
f 36//24 32//24 40//24
f 37//25 29//25 34//25
f 38//2 30//2 37//2
f 33//5 41//5 34//5
f 33//23 38//23 42//23
f 35//26 39//26 31//26
f 39//5 40//5 32//5
f 36//2 43//2 35//2
f 40//24 44//24 36//24
f 37//25 34//25 41//25
f 38//2 37//2 45//2
f 33//5 42//5 41//5
f 38//27 46//27 42//27
f 43//26 39//26 35//26
f 39//5 47//5 40//5
f 36//2 44//2 43//2
f 48//28 44//28 40//28
f 37//29 41//29 45//29
f 45//2 46//2 38//2
f 42//5 49//5 41//5
f 50//27 42//27 46//27
f 47//30 39//30 43//30
f 51//5 40//5 47//5
f 52//2 43//2 44//2
f 51//5 48//5 40//5
f 44//28 48//28 53//28
f 41//29 49//29 45//29
f 54//2 46//2 45//2
f 42//5 50//5 49//5
f 50//31 46//31 55//31
f 47//30 43//30 52//30
f 51//32 47//32 52//32
f 52//2 44//2 56//2
f 48//5 51//5 57//5
f 48//33 58//33 53//33
f 53//2 56//2 44//2
f 45//34 49//34 54//34
f 54//2 59//2 46//2
f 50//5 60//5 49//5
f 55//2 46//2 59//2
f 55//31 61//31 50//31
f 51//32 52//32 56//32
f 51//35 56//35 57//35
f 48//5 57//5 62//5
f 63//33 53//33 58//33
f 48//5 62//5 58//5
f 56//2 53//2 64//2
f 60//34 54//34 49//34
f 60//36 59//36 54//36
f 60//5 50//5 65//5
f 66//2 55//2 59//2
f 50//5 61//5 65//5
f 67//37 61//37 55//37
f 57//35 56//35 64//35
f 64//38 62//38 57//38
f 63//39 58//39 68//39
f 63//2 69//2 53//2
f 62//5 70//5 58//5
f 64//2 53//2 69//2
f 59//36 60//36 65//36
f 66//40 59//40 65//40
f 71//2 55//2 66//2
f 65//5 61//5 72//5
f 71//2 67//2 55//2
f 61//37 67//37 73//37
f 62//38 64//38 69//38
f 58//5 70//5 68//5
f 68//39 74//39 63//39
f 63//2 75//2 69//2
f 76//5 70//5 62//5
f 65//40 72//40 66//40
f 66//41 72//41 71//41
f 72//5 61//5 77//5
f 71//2 78//2 67//2
f 67//42 79//42 73//42
f 61//5 73//5 77//5
f 69//43 76//43 62//43
f 70//44 74//44 68//44
f 63//2 74//2 75//2
f 75//2 80//2 69//2
f 76//5 81//5 70//5
f 77//41 71//41 72//41
f 67//2 78//2 79//2
f 71//2 82//2 78//2
f 83//42 73//42 79//42
f 77//5 73//5 84//5
f 80//43 76//43 69//43
f 74//44 70//44 75//44
f 75//2 85//2 80//2
f 70//45 81//45 75//45
f 86//5 81//5 76//5
f 71//45 77//45 87//45
f 83//46 79//46 78//46
f 78//43 82//43 84//43
f 87//2 82//2 71//2
f 73//5 83//5 84//5
f 77//5 84//5 88//5
f 76//46 80//46 89//46
f 85//2 90//2 80//2
f 85//45 75//45 81//45
f 91//5 86//5 76//5
f 81//5 86//5 92//5
f 87//45 77//45 93//45
f 84//46 83//46 78//46
f 88//43 84//43 82//43
f 87//2 94//2 82//2
f 93//5 77//5 88//5
f 95//46 89//46 80//46
f 91//5 76//5 89//5
f 80//2 90//2 96//2
f 97//2 90//2 85//2
f 81//41 92//41 85//41
f 91//36 90//36 86//36
f 92//40 86//40 97//40
f 93//44 98//44 87//44
f 99//38 88//38 82//38
f 99//2 82//2 94//2
f 94//2 87//2 100//2
f 88//5 101//5 93//5
f 80//2 96//2 95//2
f 102//42 89//42 95//42
f 102//5 91//5 89//5
f 90//36 91//36 96//36
f 92//41 97//41 85//41
f 90//40 97//40 86//40
f 98//2 100//2 87//2
f 98//44 93//44 103//44
f 88//38 99//38 104//38
f 104//35 99//35 94//35
f 94//32 100//32 101//32
f 105//5 93//5 101//5
f 88//5 104//5 101//5
f 95//2 96//2 106//2
f 95//42 106//42 102//42
f 102//5 107//5 91//5
f 96//47 91//47 107//47
f 100//2 98//2 108//2
f 93//5 105//5 103//5
f 103//39 108//39 98//39
f 94//35 101//35 104//35
f 105//32 101//32 100//32
f 106//2 96//2 109//2
f 106//37 110//37 102//37
f 107//5 102//5 110//5
f 107//34 109//34 96//34
f 108//2 111//2 100//2
f 112//5 103//5 105//5
f 112//39 108//39 103//39
f 111//48 105//48 100//48
f 106//2 109//2 113//2
f 110//37 106//37 113//37
f 114//5 107//5 110//5
f 107//49 115//49 109//49
f 116//2 111//2 108//2
f 105//5 117//5 112//5
f 112//33 116//33 108//33
f 105//30 111//30 117//30
f 109//2 118//2 113//2
f 110//50 113//50 114//50
f 115//5 107//5 114//5
f 119//29 109//29 115//29
f 120//2 111//2 116//2
f 112//5 117//5 121//5
f 112//33 121//33 116//33
f 117//51 111//51 122//51
f 118//31 114//31 113//31
f 118//2 109//2 119//2
f 114//5 123//5 115//5
f 124//25 119//25 115//25
f 121//52 120//52 116//52
f 122//2 111//2 120//2
f 121//5 117//5 125//5
f 122//26 126//26 117//26
f 123//27 114//27 118//27
f 127//2 118//2 119//2
f 124//5 115//5 123//5
f 119//53 124//53 128//53
f 121//28 125//28 120//28
f 122//2 120//2 129//2
f 125//5 117//5 126//5
f 122//21 130//21 126//21
f 127//27 123//27 118//27
f 127//2 119//2 128//2
f 124//5 123//5 131//5
f 128//22 124//22 132//22
f 120//24 125//24 129//24
f 130//2 122//2 129//2
f 133//5 125//5 126//5
f 134//54 126//54 130//54
f 127//23 131//23 123//23
f 128//2 135//2 127//2
f 131//5 132//5 124//5
f 132//20 136//20 128//20
f 129//24 125//24 133//24
f 130//2 129//2 137//2
f 133//5 126//5 134//5
f 138//18 134//18 130//18
f 127//55 135//55 131//55
f 128//2 136//2 135//2
f 131//5 139//5 132//5
f 132//15 140//15 136//15
f 129//19 133//19 137//19
f 138//2 130//2 137//2
f 134//5 141//5 133//5
f 134//16 138//16 142//16
f 139//56 131//56 135//56
f 143//2 135//2 136//2
f 139//5 140//5 132//5
f 144//15 136//15 140//15
f 137//57 133//57 141//57
f 138//2 137//2 145//2
f 141//5 134//5 142//5
f 142//12 138//12 146//12
f 139//17 135//17 143//17
f 136//2 144//2 143//2
f 139//5 147//5 140//5
f 148//9 144//9 140//9
f 137//58 141//58 145//58
f 146//2 138//2 145//2
f 142//5 149//5 141//5
f 146//12 150//12 142//12
f 147//13 139//13 143//13
f 144//2 151//2 143//2
f 147//5 148//5 140//5
f 144//9 148//9 152//9
f 145//14 141//14 149//14
f 146//2 145//2 153//2
f 150//5 149//5 142//5
f 146//11 154//11 150//11
f 147//13 143//13 151//13
f 144//2 152//2 151//2
f 155//5 148//5 147//5
f 148//8 156//8 152//8
f 153//7 145//7 149//7
f 153//2 154//2 146//2
f 157//5 149//5 150//5
f 156//11 150//11 154//11
f 155//10 147//10 151//10
f 158//2 151//2 152//2
f 155//5 156//5 148//5
f 152//8 156//8 154//8
f 157//7 153//7 149//7
f 154//2 153//2 159//2
f 150//5 156//5 157//5
f 155//6 151//6 158//6
f 152//2 154//2 158//2
f 156//5 155//5 160//5
f 159//4 153//4 157//4
f 158//2 154//2 159//2
f 157//5 156//5 160//5
f 155//3 158//3 160//3
f 160//1 159//1 157//1
f 158//3 159//3 160//3
f 4//3 1//3 3//3
