# Blender 4.1.1
# www.blender.org
mtllib model_collision_3_001.mtl
o model_collision_3.001
v -0.002870 -0.011514 0.042297
v -0.001112 0.020070 0.040111
v -0.019507 -0.021376 0.038962
v -0.003103 -0.030772 0.031435
v -0.001845 0.019028 0.040922
v -0.023193 0.007147 0.040765
v -0.004968 -0.025135 0.037282
v -0.002921 0.016887 0.041866
v -0.020488 0.014860 0.040727
v -0.005376 0.017441 0.041663
v -0.019342 0.016981 0.039460
v -0.036454 0.031219 0.015648
v -0.044053 0.030459 0.012889
v -0.003134 0.020752 0.038885
v -0.003918 0.024377 0.031905
v -0.004038 0.025613 0.029117
v -0.029386 0.030907 0.016450
v -0.029746 0.033485 0.007636
v -0.005020 0.021396 0.020850
v -0.003839 -0.042092 0.009225
v -0.004318 -0.034427 0.009378
v -0.014040 0.021096 0.015010
v -0.036829 0.032377 0.006415
v -0.044526 0.030662 0.007336
v -0.043737 -0.030594 0.007920
v -0.044259 -0.028894 0.011127
v -0.020621 -0.039100 0.008974
v -0.040053 -0.031551 0.011907
v -0.043725 -0.030334 0.009484
v -0.047538 0.001954 0.017519
v -0.007548 -0.041788 0.009179
v -0.020118 -0.039182 0.010066
v -0.047353 -0.001469 0.017307
v -0.030826 -0.004218 0.037074
v -0.029408 0.001182 0.038694
v -0.021758 -0.017959 0.038856
v -0.030302 0.012309 0.033608
v -0.037146 0.022051 0.022971
v -0.007096 -0.041992 0.011004
v -0.003813 -0.042488 0.010778
vn 0.7380 0.0056 0.6748
vn 0.9964 -0.0507 0.0685
vn 0.0184 -0.3479 0.9373
vn -0.1492 -0.0816 0.9854
vn 0.7664 -0.3226 0.5555
vn 0.6454 0.0127 0.7637
vn -0.0614 0.0150 0.9980
vn -0.0706 0.0522 0.9961
vn -0.0680 0.0289 0.9973
vn 0.0138 0.3979 0.9173
vn -0.1467 0.5644 0.8124
vn -0.1387 0.6553 0.7425
vn -0.3936 0.6187 0.6799
vn -0.1631 0.7908 0.5900
vn -0.3030 0.7062 0.6400
vn -0.1392 0.6670 0.7319
vn -0.1488 0.7394 0.6566
vn -0.0461 0.8844 0.4644
vn 0.0214 0.8883 0.4589
vn -0.0106 0.9139 0.4059
vn 0.2421 0.8907 0.3847
vn -0.0037 0.9200 0.3919
vn 0.9721 0.1412 -0.1875
vn 0.0613 0.9586 0.2779
vn 0.5708 0.7020 -0.4259
vn 0.9637 0.0653 -0.2589
vn 0.9793 0.0539 -0.1950
vn 0.5307 0.1770 -0.8288
vn 0.5305 0.1793 -0.8285
vn 0.5292 0.1768 -0.8299
vn 0.1497 0.0290 -0.9883
vn 0.1642 0.0362 -0.9858
vn 0.0250 -0.0266 -0.9993
vn -0.2111 0.9760 0.0536
vn -0.1164 -0.0110 -0.9931
vn -0.1705 0.9803 0.1001
vn 0.0046 -0.0970 -0.9953
vn -0.9032 -0.4223 0.0768
vn -0.9896 -0.0855 -0.1158
vn -0.9463 -0.0153 -0.3230
vn -0.3475 -0.9334 0.0897
vn -0.0219 -0.1812 -0.9832
vn -0.4004 -0.9034 0.1532
vn -0.3479 -0.9324 0.0978
vn -0.9650 -0.0361 -0.2596
vn -0.7629 -0.2228 0.6069
vn -0.7702 -0.0810 0.6326
vn -0.6568 -0.3466 0.6697
vn -0.7595 0.0043 0.6505
vn -0.4169 -0.1590 0.8949
vn -0.6310 -0.3948 0.6678
vn -0.1749 -0.0846 0.9809
vn -0.2386 -0.0872 0.9672
vn -0.6102 0.2883 0.7379
vn -0.4480 0.1615 0.8793
vn -0.6872 0.2556 0.6800
vn -0.7415 0.1949 0.6420
vn -0.6079 0.3508 0.7123
vn -0.6335 0.3228 0.7032
vn -0.6049 0.3568 0.7119
vn -0.2661 -0.8181 0.5098
vn -0.2369 -0.8249 0.5133
vn -0.2125 -0.9769 0.0243
vn -0.2168 -0.8372 0.5021
vn -0.1538 -0.9855 -0.0719
vn -0.0967 -0.8643 0.4935
vn -0.2002 -0.9780 -0.0595
vn -0.0761 -0.9666 -0.2448
vn 0.9992 -0.0315 -0.0249
vn 0.9992 -0.0368 -0.0135
vn -0.9868 0.1351 0.0890
vn -0.5347 -0.7140 0.4519
vn -0.5006 -0.6134 0.6108
vn 0.0107 0.9598 0.2803
vn -0.1519 0.9771 0.1491
vn -0.1120 -0.7330 0.6710
s 0
f 5//1 1//1 2//1
f 4//2 2//2 1//2
f 7//3 1//3 3//3
f 6//4 3//4 1//4
f 7//5 4//5 1//5
f 5//6 8//6 1//6
f 8//7 6//7 1//7
f 10//8 9//8 8//8
f 8//9 9//9 6//9
f 5//10 10//10 8//10
f 11//11 9//11 10//11
f 11//12 10//12 5//12
f 13//13 9//13 11//13
f 14//14 12//14 11//14
f 13//15 11//15 12//15
f 11//16 5//16 2//16
f 14//17 11//17 2//17
f 14//18 15//18 12//18
f 14//19 2//19 15//19
f 15//20 16//20 12//20
f 15//21 2//21 16//21
f 17//22 12//22 16//22
f 16//23 2//23 19//23
f 17//24 16//24 18//24
f 16//25 19//25 18//25
f 21//26 19//26 20//26
f 19//27 2//27 20//27
f 22//28 19//28 21//28
f 22//29 18//29 19//29
f 22//30 21//30 18//30
f 21//31 20//31 23//31
f 21//32 23//32 18//32
f 23//33 20//33 25//33
f 13//34 23//34 24//34
f 24//35 23//35 25//35
f 13//36 18//36 23//36
f 31//37 25//37 20//37
f 29//38 26//38 25//38
f 33//39 25//39 26//39
f 30//40 24//40 25//40
f 32//41 25//41 27//41
f 31//42 27//42 25//42
f 29//43 25//43 28//43
f 32//44 28//44 25//44
f 33//45 30//45 25//45
f 33//46 26//46 34//46
f 33//47 34//47 30//47
f 34//48 26//48 36//48
f 30//49 34//49 35//49
f 34//50 36//50 35//50
f 36//51 26//51 3//51
f 36//52 3//52 6//52
f 36//53 6//53 35//53
f 37//54 35//54 9//54
f 6//55 9//55 35//55
f 37//56 13//56 35//56
f 30//57 35//57 13//57
f 38//58 37//58 9//58
f 38//59 13//59 37//59
f 38//60 9//60 13//60
f 32//61 3//61 28//61
f 32//62 4//62 3//62
f 39//63 32//63 27//63
f 39//64 4//64 32//64
f 39//65 31//65 40//65
f 39//66 40//66 4//66
f 39//67 27//67 31//67
f 31//68 20//68 40//68
f 40//69 20//69 2//69
f 40//70 2//70 4//70
f 30//71 13//71 24//71
f 29//72 28//72 26//72
f 28//73 3//73 26//73
f 17//74 18//74 12//74
f 13//75 12//75 18//75
f 7//76 3//76 4//76
