# Blender 4.1.1
# www.blender.org
mtllib model_collision_6_001.mtl
o model_collision_6.001
v -0.016028 0.029733 0.000732
v -0.015531 0.033235 0.001029
v -0.023382 0.027666 0.000867
v -0.016015 0.011973 -0.016002
v -0.015001 0.013392 -0.015564
v -0.018904 0.020438 -0.034198
v -0.013538 0.025535 -0.026078
v -0.020450 0.026944 -0.032923
v -0.016387 0.030426 -0.015813
v -0.045246 0.036532 -0.031499
v -0.038976 0.034386 -0.031908
v -0.044822 0.033947 -0.032708
v -0.031519 0.031243 -0.032650
v -0.044603 0.024021 -0.033592
v -0.044397 0.034875 -0.000472
v -0.042080 0.021693 -0.003122
v -0.019565 0.012094 -0.016495
v -0.029924 0.020417 -0.034076
v -0.041031 0.034851 0.000080
vn 0.9639 -0.1552 0.2164
vn 0.0437 -0.0906 0.9949
vn 0.2019 -0.6716 0.7129
vn 0.5414 -0.5764 0.6121
vn 0.9953 -0.0454 0.0860
vn 0.8102 -0.4716 -0.3480
vn 0.8622 -0.3870 -0.3269
vn 0.6778 0.7188 -0.1544
vn 0.4497 0.8483 -0.2794
vn 0.7022 0.2938 -0.6485
vn 0.2924 0.9407 -0.1718
vn 0.3056 0.9309 -0.1999
vn 0.3468 0.8996 -0.2654
vn 0.0909 0.4280 -0.8992
vn 0.0901 0.4339 -0.8965
vn 0.3261 0.8641 -0.3835
vn 0.0553 0.2046 -0.9773
vn 0.0430 0.1907 -0.9807
vn -0.0111 0.0885 -0.9960
vn -0.9363 0.0106 -0.3510
vn -0.0112 0.0883 -0.9960
vn -0.9803 -0.1858 0.0670
vn -0.9982 -0.0554 0.0243
vn -0.4098 -0.9115 -0.0357
vn -0.2368 -0.9247 -0.2982
vn -0.0030 -0.9045 -0.4265
vn 0.0283 -0.9046 -0.4253
vn -0.0951 -0.8776 0.4698
vn -0.1594 -0.2214 0.9621
vn 0.0789 -0.7125 0.6972
vn -0.1343 -0.2242 0.9653
vn -0.0358 0.0214 0.9991
vn 0.0615 0.9971 0.0449
vn -0.0017 0.9986 0.0534
s 0
f 5//1 2//1 1//1
f 3//2 1//2 2//2
f 4//3 1//3 3//3
f 4//4 5//4 1//4
f 5//5 7//5 2//5
f 4//6 6//6 5//6
f 5//7 6//7 7//7
f 9//8 2//8 7//8
f 9//9 7//9 8//9
f 8//10 7//10 6//10
f 9//11 10//11 2//11
f 11//12 10//12 9//12
f 11//13 9//13 8//13
f 11//14 13//14 12//14
f 11//15 12//15 10//15
f 11//16 8//16 13//16
f 13//17 8//17 6//17
f 13//18 6//18 12//18
f 12//19 6//19 14//19
f 12//20 14//20 10//20
f 18//21 14//21 6//21
f 16//22 15//22 14//22
f 10//23 14//23 15//23
f 16//24 14//24 17//24
f 18//25 17//25 14//25
f 18//26 6//26 17//26
f 4//27 17//27 6//27
f 4//28 16//28 17//28
f 16//29 19//29 15//29
f 4//30 3//30 16//30
f 16//31 3//31 19//31
f 19//32 3//32 2//32
f 19//33 2//33 10//33
f 19//34 10//34 15//34
