# Blender 4.1.1
# www.blender.org
mtllib model_collision_29_001.mtl
o model_collision_29.001
v -0.028375 0.022755 0.005772
v -0.029746 0.033485 0.007636
v -0.030124 0.034164 0.000513
v -0.063221 0.023482 0.008944
v -0.030333 0.025089 0.001033
v -0.084786 0.025868 0.001488
v -0.085156 0.027500 0.000209
v -0.062487 0.027712 0.008428
v -0.084685 0.029039 -0.001257
v -0.066318 0.032530 -0.001079
vn 0.0862 -0.1597 0.9834
vn 0.9903 0.1334 -0.0398
vn 0.9155 -0.0440 -0.3999
vn -0.0387 -0.9788 -0.2012
vn -0.0165 -0.8997 -0.4362
vn -0.2334 -0.6323 -0.7388
vn -0.2894 0.5491 0.7840
vn -0.0157 -0.6542 -0.7561
vn -0.3055 0.1674 0.9373
vn -0.2469 0.7069 0.6628
vn -0.1665 0.8508 0.4983
vn 0.0329 -0.1225 -0.9919
vn -0.1396 0.8594 0.4918
vn -0.0492 0.9940 0.0974
vn 0.0465 -0.0583 -0.9972
vn 0.0027 0.1207 0.9927
s 0
f 4//1 1//1 2//1
f 1//2 3//2 2//2
f 5//3 3//3 1//3
f 6//4 1//4 4//4
f 6//5 5//5 1//5
f 7//6 9//6 6//6
f 7//7 6//7 8//7
f 6//8 9//8 5//8
f 8//9 6//9 4//9
f 7//10 8//10 9//10
f 8//11 10//11 9//11
f 5//12 9//12 10//12
f 8//13 2//13 10//13
f 10//14 2//14 3//14
f 5//15 10//15 3//15
f 8//16 4//16 2//16
