# Blender 4.1.1
# www.blender.org
mtllib model_collision_26_001.mtl
o model_collision_26.001
v -0.061967 -0.024872 0.008688
v -0.062487 0.027712 0.008428
v -0.062861 0.027475 -0.032395
v -0.062726 0.026563 0.009868
v -0.062841 -0.027280 -0.032571
v -0.072924 -0.023836 0.006221
v -0.065524 -0.025078 0.007486
v -0.069895 -0.022364 0.007863
v -0.074174 0.022495 0.007826
v -0.073431 0.025375 0.008130
v -0.074013 0.027697 -0.031225
v -0.066240 0.027130 0.008057
v -0.066422 0.029598 0.002416
v -0.062976 0.029980 0.002604
v -0.074044 -0.027387 -0.031384
v -0.073715 0.016610 -0.032188
v -0.069981 0.023715 -0.032165
v -0.073765 -0.008873 -0.032165
v -0.066350 0.027313 -0.032141
v -0.070078 -0.019930 -0.032155
v -0.066404 -0.027305 -0.032273
vn 0.9850 0.0106 0.1723
vn 0.9999 0.0098 -0.0092
vn 0.9998 0.0004 -0.0212
vn -0.1111 -0.0244 0.9935
vn 0.0382 -0.9976 0.0574
vn -0.2361 -0.4659 0.8527
vn -0.2309 -0.5786 0.7822
vn -0.1583 -0.0173 0.9872
vn -0.2885 -0.0267 0.9571
vn -0.4600 -0.0431 0.8868
vn -0.4796 0.8755 0.0588
vn -0.9686 0.2468 0.0289
vn -0.1839 0.7783 0.6003
vn -0.2138 0.8925 0.3973
vn -0.1085 0.9936 -0.0317
vn -0.1788 0.8993 0.3991
vn -0.1223 0.9213 0.3691
vn 0.9824 0.1863 -0.0101
vn 0.0124 0.9974 -0.0713
vn -0.1801 0.7835 0.5947
vn -0.9518 0.0014 -0.3067
vn -1.0000 0.0006 -0.0040
vn -0.0855 0.4326 -0.8975
vn -0.9498 0.0016 -0.3130
vn -0.1490 0.0816 -0.9855
vn -0.1118 0.1194 -0.9865
vn -0.0764 0.0836 -0.9936
vn -0.0385 -0.0008 -0.9993
vn -0.1176 -0.0401 -0.9923
vn -0.1016 -0.0348 -0.9942
vn -0.0832 -0.0274 -0.9962
vn -0.1150 -0.0415 -0.9925
vn -0.0023 -0.9938 -0.1113
vn -0.0472 0.0281 -0.9985
vn -0.0223 0.0032 -0.9997
vn -0.9991 -0.0281 0.0324
vn -0.1810 -0.9786 0.0978
vn 0.0155 -0.9983 0.0559
s 0
f 4//1 1//1 2//1
f 1//2 3//2 2//2
f 5//3 3//3 1//3
f 8//4 1//4 4//4
f 7//5 5//5 1//5
f 8//6 6//6 1//6
f 7//7 1//7 6//7
f 8//8 4//8 10//8
f 8//9 10//9 9//9
f 8//10 9//10 6//10
f 13//11 11//11 10//11
f 10//12 11//12 9//12
f 12//13 10//13 4//13
f 13//14 10//14 12//14
f 13//15 14//15 11//15
f 13//16 12//16 2//16
f 13//17 2//17 14//17
f 14//18 2//18 3//18
f 14//19 3//19 11//19
f 12//20 4//20 2//20
f 18//21 15//21 11//21
f 11//22 15//22 9//22
f 19//23 11//23 3//23
f 18//24 11//24 16//24
f 17//25 16//25 11//25
f 19//26 17//26 11//26
f 19//27 3//27 17//27
f 18//28 16//28 5//28
f 20//29 15//29 18//29
f 20//30 18//30 21//30
f 21//31 18//31 5//31
f 20//32 21//32 15//32
f 21//33 5//33 15//33
f 17//34 3//34 16//34
f 16//35 3//35 5//35
f 6//36 9//36 15//36
f 7//37 6//37 15//37
f 7//38 15//38 5//38
