# Blender 4.1.1
# www.blender.org
mtllib model_collision_15_001.mtl
o model_collision_15.001
v -0.092744 -0.004817 0.004939
v -0.092403 0.019528 0.006863
v -0.091812 -0.025087 -0.001983
v -0.107757 -0.003880 0.006815
v -0.119220 0.011744 0.000147
v -0.112936 0.008960 0.003330
v -0.108936 -0.020487 -0.002888
v -0.119648 -0.004263 0.000138
v -0.117923 -0.016453 -0.006095
v -0.125402 -0.000770 -0.005724
v -0.125428 0.008653 -0.005504
v -0.122055 -0.007316 -0.003341
v -0.121414 -0.013543 -0.007919
v -0.125301 -0.004343 -0.007689
v -0.125185 -0.007508 -0.014744
v -0.125311 -0.007853 -0.022365
v -0.125621 0.012324 -0.021947
v -0.113026 -0.022670 -0.024253
v -0.117469 -0.005208 -0.024532
v -0.117537 0.005665 -0.024533
v -0.122127 -0.014061 -0.022502
v -0.111936 -0.023319 -0.009245
v -0.108350 -0.027698 -0.024243
v -0.101542 -0.031725 -0.025978
v -0.108280 -0.026879 -0.014686
v -0.101585 -0.030429 -0.011982
v -0.094571 -0.035459 -0.026848
v -0.094507 -0.030150 -0.006282
v -0.094240 -0.033857 -0.012129
v -0.109115 -0.023591 -0.006844
v -0.091231 -0.035101 -0.012077
v -0.091307 -0.031228 -0.006066
v -0.091569 -0.036724 -0.027546
v -0.091797 0.037053 -0.026560
v -0.092051 0.035613 -0.011389
v -0.091938 0.023686 -0.028877
v -0.098672 0.034447 -0.014375
v -0.095507 0.023605 -0.028236
v -0.098375 0.035380 -0.025536
v -0.113664 0.023627 -0.024255
v -0.108692 0.031563 -0.023356
v -0.115362 0.027364 -0.023018
v -0.121716 0.021025 -0.022428
v -0.121529 0.020816 -0.014471
v -0.115222 0.027126 -0.018693
v -0.112313 0.027398 -0.008360
v -0.108972 0.030704 -0.018171
v -0.105589 0.030716 -0.008585
v -0.102315 0.030777 -0.006113
v -0.095256 0.034840 -0.011231
v -0.105206 0.026809 -0.002244
v -0.095264 0.031380 -0.004643
v -0.112689 0.024556 -0.003981
v -0.095996 0.029534 -0.002514
v -0.121992 0.017650 -0.005658
v -0.113689 0.018843 0.000095
v -0.121523 0.014581 -0.002919
v -0.125478 0.015448 -0.020601
v -0.125289 0.012172 -0.007594
v -0.099079 0.016433 -0.028136
v -0.099122 -0.012467 -0.028189
v -0.095462 -0.023531 -0.028316
v -0.092015 -0.023567 -0.028889
v -0.099811 -0.025772 -0.004060
vn 0.1187 -0.0799 0.9897
vn 0.9744 -0.0313 0.2228
vn 0.0980 -0.3176 0.9432
vn -0.4244 0.0738 0.9025
vn -0.4899 0.0126 0.8717
vn -0.2468 0.1599 0.9558
vn -0.1761 -0.4872 0.8553
vn -0.4309 -0.4322 0.7922
vn -0.5002 -0.4493 0.7403
vn -0.4730 -0.4532 0.7555
vn -0.7483 -0.1472 0.6468
vn -0.7190 -0.0182 0.6948
vn -0.6778 0.0177 0.7350
vn -0.8509 -0.2714 0.4497
vn -0.6851 -0.4760 0.5515
vn -0.8480 -0.3678 0.3816
vn -0.9080 -0.3876 0.1590
vn -0.9994 -0.0330 0.0085
vn -0.9965 -0.0813 0.0201
vn -0.2932 0.0153 -0.9559
vn -0.9999 -0.0154 0.0011
vn -0.2414 -0.0769 -0.9674
vn -0.3130 -0.1398 -0.9394
vn -0.8890 -0.4566 0.0353
vn -0.2659 -0.0017 -0.9640
vn -0.6667 -0.6209 -0.4124
vn -0.7126 -0.6990 0.0597
vn -0.7003 -0.7127 0.0407
vn -0.8755 -0.4795 0.0599
vn -0.6404 -0.7648 0.0702
vn -0.4490 -0.4192 -0.7891
vn -0.4928 -0.8667 0.0779
vn -0.5198 -0.8317 0.1951
vn -0.4916 -0.8672 0.0788
vn -0.4353 -0.7958 0.4210
vn -0.4629 -0.8828 0.0803
vn -0.4187 -0.9017 0.1076
vn -0.3613 -0.7949 0.4874
vn -0.3709 -0.7833 0.4988
vn -0.5100 -0.6841 0.5214
vn -0.4974 -0.6714 0.5494
vn -0.3500 -0.7292 0.5881
vn -0.3815 -0.9180 0.1085
vn -0.3398 -0.8013 0.4924
vn -0.3049 -0.8024 0.5131
vn 0.9999 0.0092 0.0067
vn -0.3653 -0.9250 0.1050
vn 0.9997 0.0034 -0.0222
vn 0.9998 0.0125 0.0179
vn 0.9964 0.0042 -0.0850
vn -0.2114 0.9734 0.0889
vn -0.1778 0.1699 -0.9693
vn -0.2349 0.9691 0.0747
vn -0.1945 0.1740 -0.9653
vn -0.2109 0.1694 -0.9627
vn -0.2378 0.2059 -0.9492
vn -0.3332 0.9403 0.0697
vn -0.3507 0.4932 -0.7961
vn -0.7043 0.7091 0.0352
vn -0.2745 0.1873 -0.9432
vn -0.6848 0.7261 0.0622
vn -0.5293 0.8461 0.0638
vn -0.6421 0.7495 0.1610
vn -0.5008 0.8574 0.1184
vn -0.5008 0.8579 0.1149
vn -0.4333 0.8884 0.1518
vn -0.3816 0.9146 0.1336
vn -0.3809 0.9153 0.1309
vn -0.3758 0.7940 0.4779
vn -0.3116 0.9237 0.2230
vn -0.2727 0.9005 0.3388
vn -0.1905 0.8797 0.4356
vn -0.2265 0.9659 0.1253
vn -0.3548 0.7723 0.5270
vn -0.2055 0.7558 0.6217
vn -0.3758 0.7917 0.4816
vn -0.1710 0.8692 0.4639
vn -0.1920 0.7733 0.6042
vn -0.1679 0.6413 0.7487
vn 0.1947 0.7070 0.6799
vn -0.3463 0.5842 0.7340
vn -0.5913 0.6987 0.4027
vn -0.5268 0.5528 0.6456
vn -0.5371 0.5146 0.6684
vn -0.2729 0.5269 0.8049
vn -0.5116 0.4041 0.7583
vn -0.3375 0.2695 0.9019
vn -0.2993 0.2761 0.9133
vn -0.8093 0.3175 0.4942
vn -0.7078 0.1670 0.6864
vn -0.8149 0.3195 0.4836
vn -0.8636 0.4873 0.1296
vn -0.8692 0.4763 0.1326
vn -0.6602 0.7173 0.2230
vn -0.9980 0.0565 0.0287
vn -0.8233 0.5666 0.0342
vn -0.7353 0.2964 -0.6095
vn -0.9991 0.0372 0.0201
vn 0.3829 0.6894 0.6149
vn -0.2572 0.0622 -0.9643
vn -0.2413 0.0670 -0.9681
vn -0.2132 0.0926 -0.9726
vn -0.2270 0.0640 -0.9718
vn -0.1051 0.0020 -0.9945
vn -0.1778 0.0748 -0.9812
vn -0.1928 0.0021 -0.9812
vn -0.2183 -0.0611 -0.9740
vn -0.1960 -0.0013 -0.9806
vn -0.1642 -0.0431 -0.9855
vn -0.0973 0.0004 -0.9953
vn 0.9447 -0.0014 -0.3280
vn -0.1641 -0.1056 -0.9808
vn -0.2123 -0.1192 -0.9699
vn -0.2281 -0.0736 -0.9708
vn -0.2290 -0.1061 -0.9676
vn 0.9994 0.0136 0.0313
vn -0.4166 -0.6236 -0.6615
vn -0.1641 -0.5555 0.8152
vn 0.9892 -0.0158 0.1460
vn -0.2745 -0.6784 0.6815
vn -0.1782 -0.4960 0.8498
vn -0.3378 -0.7181 0.6085
vn -0.6882 -0.6953 0.2073
vn -0.9999 -0.0030 0.0111
s 0
f 4//1 1//1 2//1
f 3//2 2//2 1//2
f 4//3 3//3 1//3
f 6//4 5//4 4//4
f 5//5 8//5 4//5
f 6//6 4//6 2//6
f 7//7 3//7 4//7
f 7//8 4//8 8//8
f 12//9 9//9 8//9
f 9//10 7//10 8//10
f 12//11 8//11 10//11
f 11//12 10//12 8//12
f 11//13 8//13 5//13
f 12//14 10//14 14//14
f 12//15 13//15 9//15
f 12//16 14//16 13//16
f 15//17 13//17 14//17
f 14//18 10//18 16//18
f 15//19 14//19 16//19
f 16//20 17//20 20//20
f 16//21 10//21 17//21
f 18//22 16//22 19//22
f 18//23 21//23 16//23
f 15//24 16//24 21//24
f 16//25 20//25 19//25
f 18//26 23//26 21//26
f 13//27 21//27 22//27
f 23//28 22//28 21//28
f 15//29 21//29 13//29
f 25//30 22//30 23//30
f 24//31 23//31 18//31
f 24//32 25//32 23//32
f 25//33 26//33 22//33
f 24//34 26//34 25//34
f 26//35 30//35 22//35
f 24//36 27//36 26//36
f 29//37 26//37 27//37
f 29//38 28//38 26//38
f 28//39 30//39 26//39
f 9//40 22//40 30//40
f 9//41 30//41 7//41
f 28//42 7//42 30//42
f 29//43 27//43 31//43
f 29//44 31//44 28//44
f 28//45 31//45 32//45
f 31//46 34//46 32//46
f 27//47 33//47 31//47
f 31//48 33//48 34//48
f 35//49 32//49 34//49
f 36//50 34//50 33//50
f 37//51 35//51 34//51
f 38//52 34//52 36//52
f 39//53 37//53 34//53
f 39//54 34//54 38//54
f 39//55 38//55 40//55
f 42//56 39//56 40//56
f 39//57 41//57 37//57
f 42//58 41//58 39//58
f 44//59 42//59 43//59
f 42//60 40//60 43//60
f 44//61 45//61 42//61
f 45//62 41//62 42//62
f 44//63 46//63 45//63
f 45//64 46//64 47//64
f 45//65 47//65 41//65
f 47//66 46//66 48//66
f 47//67 48//67 37//67
f 47//68 37//68 41//68
f 48//69 46//69 49//69
f 50//70 37//70 48//70
f 50//71 48//71 49//71
f 50//72 49//72 35//72
f 50//73 35//73 37//73
f 53//74 51//74 49//74
f 49//75 51//75 54//75
f 53//76 49//76 46//76
f 52//77 35//77 49//77
f 52//78 49//78 54//78
f 54//79 51//79 2//79
f 52//80 54//80 2//80
f 53//81 56//81 51//81
f 53//82 46//82 55//82
f 53//83 55//83 56//83
f 57//84 56//84 55//84
f 56//85 2//85 51//85
f 57//86 5//86 56//86
f 56//87 5//87 6//87
f 56//88 6//88 2//88
f 57//89 55//89 11//89
f 57//90 11//90 5//90
f 11//91 55//91 59//91
f 44//92 58//92 55//92
f 58//93 59//93 55//93
f 44//94 55//94 46//94
f 58//95 11//95 59//95
f 44//96 43//96 58//96
f 58//97 43//97 17//97
f 58//98 17//98 11//98
f 52//99 2//99 35//99
f 43//100 20//100 17//100
f 43//101 40//101 20//101
f 38//102 60//102 40//102
f 20//103 40//103 60//103
f 61//104 60//104 36//104
f 38//105 36//105 60//105
f 61//106 20//106 60//106
f 62//107 19//107 61//107
f 61//108 19//108 20//108
f 62//109 61//109 63//109
f 61//110 36//110 63//110
f 63//111 36//111 33//111
f 62//112 63//112 33//112
f 62//113 33//113 24//113
f 62//114 18//114 19//114
f 62//115 24//115 18//115
f 35//116 2//116 32//116
f 24//117 33//117 27//117
f 64//118 32//118 3//118
f 3//119 32//119 2//119
f 28//120 32//120 64//120
f 64//121 3//121 7//121
f 28//122 64//122 7//122
f 9//123 13//123 22//123
f 11//124 17//124 10//124
