# Blender 4.1.1
# www.blender.org
mtllib model_collision_4_001.mtl
o model_collision_4.001
v 0.077268 0.017787 0.003933
v 0.076279 0.019937 0.003918
v 0.076756 0.021332 -0.014346
v 0.076461 0.012420 -0.007544
v 0.077377 0.014539 -0.006776
v 0.057830 0.004137 -0.010851
v 0.028687 0.004083 -0.012671
v 0.062772 0.020918 0.004460
v 0.058562 0.021348 0.004345
v 0.058356 0.022382 0.004233
v 0.010853 0.013509 -0.011942
v 0.007042 0.016981 -0.011233
v 0.040050 0.023736 0.000648
v 0.058552 0.022586 -0.021587
v 0.028989 0.023696 -0.010565
v 0.006897 0.020023 -0.010900
v 0.007014 0.019390 -0.010524
v 0.028955 0.021294 -0.020437
vn 0.0420 0.0263 0.9988
vn 0.9070 0.4174 0.0556
vn 0.9970 0.0766 -0.0130
vn 0.8892 -0.4353 0.1411
vn 0.3176 -0.8673 0.3832
vn -0.0429 -0.7053 0.7076
vn -0.0982 -0.6072 0.7885
vn -0.0735 -0.4870 0.8703
vn -0.0164 0.1046 0.9944
vn -0.1868 0.0690 0.9800
vn -0.2144 -0.4719 0.8552
vn -0.2280 -0.4287 0.8742
vn -0.2296 -0.4213 0.8774
vn 0.0671 0.9977 0.0042
vn 0.0710 0.9974 0.0139
vn 0.0265 0.9992 -0.0297
vn -0.1643 0.9736 0.1586
vn -0.3394 0.4327 0.8352
vn -0.2755 -0.2744 0.9213
vn -0.9789 -0.0680 0.1927
vn -0.1561 0.9599 -0.2330
vn -0.3995 0.0811 -0.9131
vn -0.3472 -0.1938 -0.9175
vn -0.2452 -0.3956 -0.8851
vn -0.0175 -0.4110 -0.9115
vn -0.0515 0.9704 -0.2360
vn 0.2930 -0.4894 -0.8213
vn 0.0548 -0.5038 -0.8621
vn 0.1361 0.9875 0.0790
vn 0.0619 0.3326 0.9410
vn 0.3821 -0.5686 -0.7285
vn 0.9062 -0.2750 -0.3211
s 0
f 8//1 1//1 2//1
f 1//2 3//2 2//2
f 5//3 3//3 1//3
f 5//4 1//4 4//4
f 4//5 1//5 6//5
f 7//6 6//6 1//6
f 9//7 7//7 1//7
f 9//8 1//8 8//8
f 9//9 8//9 10//9
f 9//10 10//10 13//10
f 9//11 11//11 7//11
f 12//12 11//12 9//12
f 12//13 9//13 13//13
f 14//14 13//14 3//14
f 10//15 3//15 13//15
f 15//16 13//16 14//16
f 16//17 13//17 15//17
f 16//18 17//18 13//18
f 12//19 13//19 17//19
f 12//20 17//20 16//20
f 16//21 15//21 18//21
f 12//22 16//22 18//22
f 12//23 18//23 11//23
f 11//24 18//24 7//24
f 7//25 18//25 14//25
f 15//26 14//26 18//26
f 14//27 3//27 6//27
f 7//28 14//28 6//28
f 10//29 2//29 3//29
f 8//30 2//30 10//30
f 4//31 6//31 3//31
f 5//32 4//32 3//32
