# Blender 4.1.1
# www.blender.org
mtllib model_collision_10_001.mtl
o model_collision_10.001
v 0.070075 0.014055 0.029399
v 0.069264 0.021942 0.025054
v 0.069999 0.019896 0.004421
v 0.026069 0.024233 0.007966
v 0.069060 0.017884 0.028644
v 0.013204 0.023340 0.025774
v 0.014768 0.022812 0.020274
v 0.070025 0.016822 0.020168
v 0.014446 0.030601 0.017533
v 0.064512 0.023469 0.021471
v 0.014391 0.028187 0.023878
v 0.069270 0.021134 0.004229
v 0.065181 0.023355 0.024042
v 0.025283 0.026600 0.007900
v 0.028517 0.027598 0.022880
v 0.024798 0.028473 0.013388
v 0.058356 0.022382 0.004233
v 0.058852 0.021254 0.005064
v 0.061680 0.019843 0.027585
vn 0.8649 0.3075 0.3967
vn 0.9925 0.1187 0.0302
vn 0.9993 0.0360 0.0054
vn -0.1138 -0.9675 -0.2259
vn -0.1172 -0.9686 -0.2194
vn -0.0324 0.1850 0.9822
vn -0.1639 -0.9853 0.0480
vn 0.9918 0.1256 0.0229
vn -0.6950 -0.2641 -0.6687
vn -0.9568 -0.1309 -0.2595
vn -0.9577 0.2717 0.0951
vn 0.1476 0.9847 -0.0927
vn 0.1405 0.9901 0.0073
vn -0.6932 -0.2492 -0.6763
vn 0.0640 0.9326 0.3553
vn 0.1188 0.9721 -0.2022
vn 0.1023 0.9578 0.2687
vn 0.0675 0.9460 -0.3170
vn 0.1103 0.9650 -0.2378
vn 0.0856 0.9452 -0.3151
vn -0.0192 -0.1644 -0.9862
vn -0.1205 -0.6224 -0.7734
vn -0.1250 -0.6233 -0.7719
vn -0.1184 -0.0671 -0.9907
vn -0.1258 -0.6996 -0.7033
vn 0.0750 0.8080 0.5844
vn 0.0639 0.6964 0.7148
vn 0.3350 0.9415 -0.0364
vn 0.3175 0.9474 -0.0407
vn 0.8629 0.5051 -0.0194
vn 0.0606 0.6716 0.7384
vn 0.0408 0.5896 0.8066
vn -0.0120 0.3668 0.9302
vn 0.0676 0.6592 0.7489
s 0
f 5//1 1//1 2//1
f 8//2 2//2 1//2
f 8//3 1//3 3//3
f 1//4 4//4 3//4
f 7//5 4//5 1//5
f 6//6 1//6 5//6
f 7//7 1//7 6//7
f 8//8 3//8 2//8
f 7//9 9//9 4//9
f 7//10 6//10 9//10
f 9//11 6//11 11//11
f 10//12 12//12 9//12
f 10//13 9//13 13//13
f 14//14 4//14 9//14
f 15//15 9//15 11//15
f 16//16 9//16 12//16
f 15//17 13//17 9//17
f 16//18 14//18 9//18
f 16//19 12//19 17//19
f 16//20 17//20 14//20
f 17//21 12//21 3//21
f 18//22 17//22 3//22
f 18//23 4//23 17//23
f 17//24 4//24 14//24
f 18//25 3//25 4//25
f 15//26 11//26 13//26
f 13//27 11//27 2//27
f 13//28 2//28 12//28
f 10//29 13//29 12//29
f 12//30 2//30 3//30
f 19//31 2//31 11//31
f 19//32 11//32 5//32
f 6//33 5//33 11//33
f 19//34 5//34 2//34
