# Blender 4.1.1
# www.blender.org
mtllib model_collision_25_001.mtl
o model_collision_25.001
v 0.107842 -0.021239 0.022726
v 0.106877 -0.028131 -0.008720
v 0.104812 0.006812 0.018479
v 0.105000 -0.029721 -0.008209
v 0.110409 -0.017783 0.022265
v 0.105925 0.005131 0.022631
v 0.109857 -0.024956 -0.008798
v 0.107493 0.003612 0.022669
v 0.110138 -0.000011 0.021497
v 0.107594 0.008841 0.006326
v 0.109688 0.002685 0.016655
v 0.113063 -0.003277 0.011009
v 0.110297 0.007287 -0.009197
v 0.113585 0.000414 -0.009063
v 0.113211 -0.005842 0.014689
v 0.112968 -0.018821 -0.027763
v 0.113320 -0.011777 0.015822
v 0.113175 0.000956 -0.027621
v 0.113330 -0.018345 -0.008784
v 0.110250 0.007591 -0.027840
v 0.104651 0.011645 -0.032712
v 0.106397 0.010017 -0.032432
v 0.109975 0.003760 -0.032831
v 0.105086 -0.025871 -0.032869
v 0.110339 -0.022344 -0.032316
v 0.108082 -0.025780 -0.032040
v 0.106670 -0.028192 -0.031466
v 0.110859 -0.023974 -0.027560
v 0.105274 -0.029777 -0.031310
v 0.107400 0.009056 0.005834
vn 0.7248 -0.6773 0.1262
vn 0.6618 -0.7363 0.1411
vn -0.9702 -0.0697 0.2319
vn -0.9893 -0.0894 0.1154
vn 0.1707 0.0046 0.9853
vn 0.8046 -0.5816 0.1200
vn -0.0227 0.0020 0.9997
vn 0.8205 0.5285 0.2180
vn 0.4559 0.0453 0.8889
vn 0.7822 0.5920 0.1942
vn 0.6743 0.7021 0.2288
vn 0.9111 0.3902 0.1326
vn 0.9035 0.4166 0.1001
vn 0.8746 0.4734 0.1049
vn 0.8970 0.4310 0.0978
vn 0.9906 0.1277 0.0492
vn 0.9995 0.0224 0.0216
vn 0.9997 -0.0139 -0.0187
vn 0.9997 -0.0103 -0.0224
vn 0.9999 -0.0135 0.0040
vn 0.9151 0.4032 -0.0084
vn 0.9021 0.4316 0.0047
vn 0.6848 0.6993 -0.2051
vn 0.5797 0.8148 0.0118
vn 0.7819 0.4730 -0.4061
vn 0.8669 0.3713 -0.3327
vn 0.4083 0.2887 -0.8660
vn 0.1165 -0.0180 -0.9930
vn -0.0164 0.0040 -0.9999
vn 0.8524 0.0016 -0.5228
vn 0.7687 -0.5335 -0.3528
vn 0.2653 -0.2492 -0.9314
vn 0.8981 -0.3765 -0.2272
vn 0.8679 -0.0055 -0.4968
vn 0.7969 -0.5394 -0.2720
vn 0.7292 -0.6843 0.0031
vn 0.7207 -0.6932 -0.0006
vn 0.7439 -0.6634 -0.0814
vn 0.9253 -0.3791 -0.0081
vn 0.8851 -0.4649 0.0229
vn 0.2599 -0.3471 -0.9011
vn -0.9985 -0.0530 -0.0117
vn 0.3852 -0.4206 -0.8214
vn 0.6477 -0.7619 0.0095
vn -0.9999 -0.0116 -0.0053
vn -0.3698 0.9249 0.0885
vn -1.0000 -0.0070 0.0025
vn 0.5734 0.8192 0.0141
vn 0.6848 0.7273 0.0464
vn 0.3846 0.8921 0.2370
vn 0.9317 -0.3508 0.0940
vn 0.8815 -0.4632 0.0913
vn 0.9332 0.0838 0.3494
vn 0.8991 0.0325 0.4366
vn 0.9396 0.2973 0.1694
vn 0.4188 0.8752 0.2420
s 0
f 7//1 1//1 2//1
f 4//2 2//2 1//2
f 6//3 3//3 1//3
f 4//4 1//4 3//4
f 8//5 1//5 5//5
f 7//6 5//6 1//6
f 8//7 6//7 1//7
f 11//8 8//8 9//8
f 8//9 5//9 9//9
f 11//10 10//10 8//10
f 10//11 6//11 8//11
f 11//12 9//12 12//12
f 11//13 12//13 14//13
f 11//14 13//14 10//14
f 11//15 14//15 13//15
f 12//16 15//16 14//16
f 14//17 15//17 17//17
f 14//18 19//18 16//18
f 14//19 16//19 18//19
f 14//20 17//20 19//20
f 20//21 14//21 18//21
f 20//22 13//22 14//22
f 22//23 21//23 20//23
f 20//24 21//24 13//24
f 22//25 20//25 23//25
f 20//26 18//26 23//26
f 22//27 23//27 21//27
f 25//28 24//28 23//28
f 23//29 24//29 21//29
f 25//30 23//30 18//30
f 27//31 26//31 25//31
f 26//32 24//32 25//32
f 25//33 16//33 28//33
f 25//34 18//34 16//34
f 27//35 25//35 28//35
f 7//36 2//36 28//36
f 28//37 2//37 29//37
f 27//38 28//38 29//38
f 28//39 16//39 19//39
f 7//40 28//40 19//40
f 26//41 29//41 24//41
f 4//42 24//42 29//42
f 27//43 29//43 26//43
f 4//44 29//44 2//44
f 4//45 21//45 24//45
f 30//46 21//46 3//46
f 4//47 3//47 21//47
f 30//48 13//48 21//48
f 10//49 13//49 30//49
f 10//50 30//50 3//50
f 5//51 19//51 17//51
f 7//52 19//52 5//52
f 9//53 17//53 15//53
f 5//54 17//54 9//54
f 12//55 9//55 15//55
f 10//56 3//56 6//56
