# Blender 4.1.1
# www.blender.org
mtllib model_collision_17_001.mtl
o model_collision_17.001
v -0.052753 0.031244 0.003919
v -0.045042 0.036767 -0.021140
v -0.044321 0.023036 -0.015187
v -0.051935 0.034154 -0.000115
v -0.080796 0.034574 -0.005326
v -0.095854 0.026138 -0.000904
v -0.095996 0.029534 -0.002514
v -0.095177 0.033953 -0.008676
v -0.096931 0.031377 -0.006068
v -0.091848 0.027278 -0.028423
v -0.095256 0.034840 -0.011231
v -0.091797 0.037053 -0.026560
v -0.091783 0.030861 -0.027947
v -0.077029 0.039925 -0.028550
v -0.084448 0.038879 -0.027562
v -0.062741 0.030884 -0.032038
v -0.062861 0.027475 -0.032395
v -0.055379 0.034585 -0.032144
v -0.044596 0.027697 -0.033406
v -0.044822 0.033947 -0.032708
v -0.049063 0.038933 -0.030480
v -0.051084 0.038647 -0.023086
v -0.045246 0.036532 -0.031499
v -0.055842 0.038124 -0.010586
v -0.073741 0.038281 -0.011421
v -0.051998 0.035450 -0.004056
v -0.080995 0.038180 -0.014716
v -0.084414 0.038439 -0.022118
vn 0.9249 0.1935 0.3272
vn 0.9257 0.1903 0.3268
vn 0.0608 -0.9071 0.4165
vn -0.0911 0.8162 0.5705
vn -0.1267 0.7465 0.6532
vn -0.1498 0.4184 0.8958
vn -0.9473 0.1040 0.3030
vn -0.1655 0.8117 0.5601
vn -0.3878 0.7727 0.5025
vn -0.9292 -0.3382 -0.1493
vn -0.9720 0.0483 -0.2299
vn -0.6486 0.7126 0.2676
vn -0.9646 0.1811 -0.1915
vn -0.9720 0.0492 -0.2299
vn -0.1558 0.1891 -0.9695
vn -0.1378 0.1594 -0.9775
vn -0.1841 0.2145 -0.9592
vn -0.1384 0.1328 -0.9814
vn -0.0676 0.1062 -0.9920
vn -0.1357 0.1079 -0.9849
vn -0.1130 0.1971 -0.9738
vn -0.0464 0.1093 -0.9929
vn -0.0562 0.0943 -0.9940
vn -0.0479 0.4168 -0.9077
vn -0.0256 0.3895 -0.9207
vn 0.0388 0.9980 0.0492
vn 0.5265 0.8497 -0.0296
vn 0.2631 0.9586 0.1090
vn 0.0274 0.4270 -0.9038
vn 0.9848 0.1723 -0.0233
vn 0.2539 0.9575 0.1367
vn 0.0374 0.9977 0.0559
vn 0.3104 0.9298 0.1980
vn 0.0043 0.9955 0.0947
vn -0.0085 0.9340 0.3573
vn 0.1328 0.9422 0.3077
vn 0.4930 0.8288 0.2646
vn -0.1482 0.9432 0.2972
vn -0.1463 0.9331 0.3286
vn -0.0626 0.9923 0.1072
vn -0.0698 0.8861 0.4582
vn -0.1321 0.9074 0.3990
vn -0.1971 0.9724 0.1252
vn -0.1202 0.9886 0.0902
vn -0.2301 0.9699 0.0798
vn -0.2342 0.9683 0.0869
vn -0.1286 0.9884 0.0806
vn 0.9985 0.0549 0.0056
vn 0.9993 0.0368 -0.0057
vn -0.0019 -0.9688 -0.2478
vn -0.0242 -0.9740 -0.2251
vn -0.0744 -0.9959 -0.0521
s 0
f 4//1 1//1 2//1
f 1//2 3//2 2//2
f 6//3 3//3 1//3
f 5//4 1//4 4//4
f 5//5 7//5 1//5
f 7//6 6//6 1//6
f 9//7 6//7 7//7
f 8//8 7//8 5//8
f 8//9 9//9 7//9
f 9//10 10//10 6//10
f 13//11 10//11 9//11
f 8//12 11//12 9//12
f 9//13 11//13 12//13
f 13//14 9//14 12//14
f 15//15 14//15 13//15
f 13//16 14//16 16//16
f 15//17 13//17 12//17
f 13//18 16//18 10//18
f 16//19 18//19 17//19
f 16//20 17//20 10//20
f 16//21 14//21 18//21
f 18//22 20//22 19//22
f 18//23 19//23 17//23
f 18//24 14//24 21//24
f 18//25 21//25 20//25
f 22//26 21//26 14//26
f 23//27 21//27 2//27
f 22//28 2//28 21//28
f 23//29 20//29 21//29
f 23//30 2//30 20//30
f 22//31 24//31 2//31
f 22//32 14//32 24//32
f 26//33 2//33 24//33
f 25//34 24//34 14//34
f 25//35 4//35 24//35
f 26//36 24//36 4//36
f 26//37 4//37 2//37
f 27//38 11//38 25//38
f 8//39 25//39 11//39
f 27//40 25//40 14//40
f 5//41 4//41 25//41
f 8//42 5//42 25//42
f 27//43 28//43 11//43
f 27//44 14//44 28//44
f 15//45 12//45 28//45
f 28//46 12//46 11//46
f 15//47 28//47 14//47
f 20//48 2//48 3//48
f 20//49 3//49 19//49
f 17//50 19//50 3//50
f 17//51 3//51 10//51
f 6//52 10//52 3//52
