# Blender 4.1.1
# www.blender.org
mtllib model_collision_20_001.mtl
o model_collision_20.001
v 0.109507 -0.014675 0.033698
v 0.110238 -0.006496 0.033846
v 0.101943 0.000700 0.033600
v 0.110292 -0.014698 0.032397
v 0.108058 -0.018519 0.032158
v 0.103402 -0.019634 0.033328
v 0.107480 -0.018034 0.033343
v 0.103018 -0.020155 0.033210
v 0.108184 -0.008996 0.023084
v 0.091954 0.006715 0.027131
v 0.112835 -0.008990 0.022614
v 0.092308 0.007306 0.032457
v 0.095739 0.006472 0.023122
v 0.101866 0.008118 0.022816
v 0.110138 -0.000011 0.021497
v 0.104265 0.006522 0.022976
v 0.109312 -0.000946 0.031418
v 0.103386 0.005347 0.031331
v 0.107214 -0.000498 0.033647
v 0.099606 0.005253 0.033293
v 0.103981 0.002769 0.033330
v 0.101147 0.006744 0.031442
vn -0.0421 -0.0143 0.9990
vn 0.8525 -0.0855 0.5157
vn -0.0470 -0.0168 0.9988
vn 0.7526 -0.4691 0.4621
vn 0.6972 -0.4773 0.5349
vn 0.0488 -0.1341 0.9898
vn 0.1127 -0.2965 0.9484
vn 0.3601 -0.7889 0.4980
vn -0.5284 -0.4233 -0.7360
vn -0.0755 -0.6507 -0.7556
vn -0.6739 -0.4156 -0.6109
vn -0.9278 -0.3590 0.1015
vn 0.0945 -0.7278 -0.6793
vn -0.2187 -0.0586 0.9740
vn -0.1710 -0.1352 -0.9760
vn -0.0730 0.0869 -0.9935
vn -0.2613 0.9168 -0.3021
vn -0.0991 -0.1521 -0.9834
vn 0.9485 0.2981 0.1071
vn 0.7517 0.6478 0.1237
vn 0.4026 0.5307 -0.7458
vn 0.9574 0.2338 0.1695
vn 0.7109 0.3780 0.5931
vn 0.7162 0.6767 0.1705
vn 0.6365 0.6059 0.4772
vn 0.0072 0.0710 0.9975
vn -0.0015 0.0325 0.9995
vn 0.5379 0.5906 0.6015
vn 0.1035 0.1970 0.9749
vn 0.4168 0.6151 0.6692
vn 0.3259 0.5851 0.7426
vn 0.5273 0.8312 0.1763
vn 0.0812 0.9832 0.1633
vn 0.1242 0.7197 0.6831
vn -0.1111 0.0100 0.9938
vn 0.5374 0.8255 0.1726
vn -0.1806 0.9788 -0.0967
vn -0.1332 -0.0228 0.9908
vn 0.9720 -0.0346 0.2324
vn 0.8631 -0.5005 -0.0676
s 0
f 3//1 1//1 2//1
f 4//2 2//2 1//2
f 6//3 1//3 3//3
f 5//4 4//4 1//4
f 7//5 5//5 1//5
f 7//6 1//6 6//6
f 7//7 6//7 8//7
f 7//8 8//8 5//8
f 13//9 9//9 8//9
f 8//10 9//10 11//10
f 10//11 13//11 8//11
f 10//12 8//12 12//12
f 5//13 8//13 11//13
f 6//14 12//14 8//14
f 15//15 9//15 13//15
f 14//16 15//16 13//16
f 14//17 13//17 10//17
f 15//18 11//18 9//18
f 17//19 11//19 15//19
f 17//20 15//20 16//20
f 14//21 16//21 15//21
f 17//22 2//22 11//22
f 19//23 2//23 17//23
f 17//24 16//24 18//24
f 19//25 17//25 18//25
f 20//26 3//26 19//26
f 19//27 3//27 2//27
f 21//28 19//28 18//28
f 21//29 20//29 19//29
f 21//30 18//30 22//30
f 21//31 22//31 20//31
f 22//32 18//32 14//32
f 22//33 14//33 12//33
f 20//34 22//34 12//34
f 20//35 12//35 3//35
f 18//36 16//36 14//36
f 14//37 10//37 12//37
f 6//38 3//38 12//38
f 4//39 11//39 2//39
f 5//40 11//40 4//40
