# Blender 4.1.1
# www.blender.org
mtllib model_collision_0_001.mtl
o model_collision_0.001
v 0.105959 -0.026343 0.004084
v 0.107652 0.010414 -0.014315
v 0.105101 -0.029386 -0.031710
v 0.106950 0.002304 -0.003106
v 0.103519 -0.031539 -0.008814
v 0.097730 -0.034099 -0.009284
v 0.102636 -0.027289 0.004274
v 0.101170 -0.028131 0.003883
v 0.058639 0.013626 -0.008937
v 0.076742 -0.037166 -0.003228
v 0.058300 -0.040582 -0.013872
v 0.079827 -0.037979 -0.009114
v 0.058832 -0.031448 -0.010526
v 0.076457 -0.038460 -0.008997
v 0.090746 -0.037839 -0.021772
v 0.090711 -0.038599 -0.030860
v 0.058575 -0.040447 -0.031896
v 0.062016 -0.037876 -0.032451
v 0.103454 -0.031545 -0.031055
v 0.058338 -0.037875 -0.032617
v 0.105971 0.008926 -0.032935
v 0.058462 0.021940 -0.014143
v 0.058548 0.019427 -0.032788
v 0.101312 0.015171 -0.032512
v 0.062391 0.022395 -0.032075
v 0.097844 0.017927 -0.032309
v 0.087513 0.021659 -0.032094
v 0.058663 0.022299 -0.031929
v 0.094499 0.019406 -0.014414
v 0.094001 0.020194 -0.031479
v 0.099905 0.017086 -0.031667
v 0.100251 0.017160 -0.013147
v 0.077106 0.013154 -0.007174
vn 0.9987 -0.0231 0.0458
vn 0.9983 -0.0556 -0.0192
vn 0.8872 -0.4610 0.0179
vn -0.0138 0.2438 0.9697
vn 0.3679 -0.8845 0.2868
vn 0.3195 -0.8917 0.3207
vn 0.2432 -0.7237 0.6458
vn -0.2690 0.0217 0.9629
vn 0.2336 -0.9071 0.3502
vn -0.2820 0.0073 0.9594
vn 0.0560 -0.9748 0.2159
vn -0.4386 -0.2864 0.8518
vn 0.2078 -0.9483 0.2398
vn 0.1454 -0.9669 0.2097
vn -0.3865 -0.0342 0.9217
vn 0.0973 -0.9928 0.0697
vn 0.1444 -0.9830 0.1137
vn 0.1166 -0.9898 0.0823
vn 0.2294 -0.4384 -0.8690
vn 0.0503 -0.1694 -0.9843
vn 0.0465 -0.2699 -0.9618
vn 0.0576 -0.9983 -0.0066
vn 0.3611 -0.9294 0.0763
vn 0.3996 -0.9147 0.0608
vn 0.4843 -0.8749 -0.0012
vn 0.7948 -0.6068 -0.0022
vn 0.0445 -0.1396 -0.9892
vn 0.0433 -0.2659 -0.9630
vn 0.0253 -0.0325 -0.9992
vn -0.9953 -0.0960 -0.0159
vn -1.0000 0.0026 -0.0017
vn -0.0038 -0.0030 -1.0000
vn -1.0000 0.0036 -0.0051
vn 0.0142 0.0782 -0.9968
vn 0.0157 0.0930 -0.9955
vn 0.0059 0.2266 -0.9740
vn -0.0448 0.2881 -0.9566
vn 0.0160 0.1017 -0.9947
vn -0.9990 0.0433 -0.0105
vn -0.0250 0.9995 0.0199
vn 0.0705 0.9926 0.0986
vn 0.2165 0.9755 0.0387
vn 0.2135 0.6339 -0.7434
vn 0.0293 0.9991 0.0318
vn 0.4380 0.8496 -0.2938
vn 0.4655 0.8849 -0.0122
vn 0.3573 0.9334 0.0327
vn 0.1048 0.5889 0.8013
vn 0.6311 0.6092 0.4802
vn 0.6723 0.7402 -0.0155
vn 0.0844 0.6448 0.7597
vn -0.0871 0.2201 0.9716
vn -0.0673 0.5285 0.8463
vn -0.0420 0.2475 0.9680
vn 0.0538 0.6881 0.7236
vn 0.4521 0.6165 -0.6447
vn 0.7776 0.6193 -0.1090
vn 0.7919 0.5989 -0.1193
vn -0.9993 0.0028 0.0385
vn 0.9958 -0.0254 -0.0878
vn 0.2102 -0.9626 0.1707
vn -0.9825 -0.0108 0.1858
s 0
f 4//1 1//1 2//1
f 1//2 3//2 2//2
f 5//3 3//3 1//3
f 7//4 1//4 4//4
f 6//5 5//5 1//5
f 8//6 6//6 1//6
f 8//7 1//7 7//7
f 8//8 7//8 9//8
f 8//9 10//9 6//9
f 8//10 9//10 10//10
f 14//11 10//11 11//11
f 13//12 11//12 10//12
f 12//13 6//13 10//13
f 12//14 10//14 14//14
f 13//15 10//15 9//15
f 14//16 11//16 16//16
f 12//17 14//17 15//17
f 15//18 14//18 16//18
f 19//19 16//19 3//19
f 18//20 3//20 16//20
f 17//21 18//21 16//21
f 17//22 16//22 11//22
f 15//23 16//23 6//23
f 6//24 16//24 5//24
f 19//25 5//25 16//25
f 19//26 3//26 5//26
f 18//27 20//27 3//27
f 17//28 20//28 18//28
f 21//29 3//29 20//29
f 17//30 11//30 20//30
f 22//31 20//31 11//31
f 23//32 21//32 20//32
f 23//33 20//33 22//33
f 24//34 21//34 23//34
f 26//35 24//35 23//35
f 25//36 27//36 23//36
f 25//37 23//37 28//37
f 26//38 23//38 27//38
f 23//39 22//39 28//39
f 25//40 28//40 22//40
f 27//41 22//41 29//41
f 27//42 29//42 30//42
f 26//43 27//43 30//43
f 25//44 22//44 27//44
f 26//45 30//45 31//45
f 31//46 30//46 32//46
f 30//47 29//47 32//47
f 32//48 33//48 4//48
f 32//49 4//49 2//49
f 31//50 32//50 2//50
f 32//51 29//51 33//51
f 7//52 33//52 9//52
f 22//53 9//53 33//53
f 7//54 4//54 33//54
f 22//55 33//55 29//55
f 26//56 31//56 24//56
f 24//57 31//57 2//57
f 24//58 2//58 21//58
f 22//59 11//59 9//59
f 21//60 2//60 3//60
f 12//61 15//61 6//61
f 13//62 9//62 11//62
