# Blender 4.1.1
# www.blender.org
mtllib model_collision_8_001.mtl
o model_collision_8.001
v 0.109286 -0.017234 0.031843
v 0.111445 -0.009362 0.032955
v 0.111491 -0.018745 0.004172
v 0.112835 -0.008990 0.022614
v 0.106434 -0.009509 0.033255
v 0.103687 -0.023033 0.031282
v 0.109991 -0.021286 0.004030
v 0.107181 -0.020341 0.031423
v 0.100948 -0.026787 0.025488
v 0.106683 -0.023383 0.017883
v 0.107374 -0.025236 -0.002855
v 0.109122 -0.023033 -0.003096
v 0.097298 -0.031086 -0.003564
v 0.084856 -0.028077 -0.007460
v 0.086900 -0.034988 -0.003306
v 0.091715 -0.030065 0.025491
v 0.069519 -0.038070 -0.003130
v 0.077064 -0.033968 0.024282
v 0.077052 -0.029561 0.028257
v 0.094545 -0.027030 0.030693
v 0.069292 -0.036790 0.003894
v 0.080992 -0.028403 0.029504
v 0.081558 -0.026405 0.029652
v 0.077661 -0.025926 0.028062
v 0.108184 -0.008996 0.023084
v 0.107455 -0.008797 0.027024
v 0.070268 -0.034855 0.004947
v 0.069869 -0.036553 -0.002699
v 0.103053 -0.020197 -0.004483
v 0.106643 -0.020182 -0.003098
vn 0.0636 -0.1567 0.9856
vn 0.9533 -0.2781 0.1181
vn 0.8546 -0.5103 0.0960
vn 0.9479 -0.3049 0.0922
vn 0.0635 -0.1567 0.9856
vn 0.1288 -0.2180 0.9674
vn 0.8169 -0.5675 0.1034
vn 0.5890 -0.7763 0.2246
vn 0.6407 -0.7538 0.1458
vn 0.8024 -0.5879 0.1026
vn 0.5949 -0.7986 0.0912
vn 0.7581 -0.6468 0.0831
vn 0.4976 -0.8649 0.0655
vn 0.7852 -0.6168 0.0556
vn 0.2308 -0.2848 -0.9304
vn 0.1566 -0.4743 -0.8663
vn 0.2255 -0.2769 -0.9341
vn 0.3518 -0.9314 0.0936
vn 0.3328 -0.9372 0.1046
vn 0.2459 -0.9614 0.1233
vn 0.0792 -0.4962 -0.8646
vn 0.1747 -0.9797 0.0985
vn -0.1034 -0.9791 0.1750
vn -0.0381 -0.6694 0.7420
vn -0.8616 -0.3413 0.3757
vn 0.2033 -0.8898 0.4086
vn 0.0058 -0.6864 0.7272
vn -0.0777 -0.0924 0.9927
vn -0.1159 -0.0409 0.9924
vn -0.3060 0.0160 0.9519
vn -0.3638 0.1103 0.9249
vn -0.3298 0.2943 0.8970
vn -0.9522 0.1729 0.2520
vn -0.5226 0.8381 -0.1566
vn -0.4983 0.8535 -0.1526
vn -0.9129 0.3817 0.1445
vn -0.4974 0.8569 -0.1353
vn -0.4979 0.8671 0.0174
vn -0.5237 0.8370 -0.1585
vn -0.8779 0.4751 -0.0596
vn -0.4536 0.3391 -0.8242
vn -0.9667 0.2445 -0.0757
vn 0.0732 0.9963 0.0456
vn -0.0065 0.9986 -0.0517
vn -0.0225 0.9937 0.1098
vn -0.0385 0.9282 -0.3700
vn -0.3374 0.8924 -0.2998
vn 0.3426 0.2971 -0.8912
vn 0.1908 -0.0707 -0.9791
vn 0.1607 0.8902 -0.4262
vn 0.6378 0.5542 -0.5349
vn 0.4361 0.7819 -0.4454
vn 0.3141 -0.8844 0.3452
vn 0.3480 -0.8533 0.3883
vn -0.0007 -0.1442 0.9895
vn 0.8603 -0.5094 0.0200
s 0
f 5//1 1//1 2//1
f 4//2 2//2 1//2
f 7//3 3//3 1//3
f 4//4 1//4 3//4
f 6//5 1//5 5//5
f 8//6 1//6 6//6
f 8//7 7//7 1//7
f 8//8 6//8 9//8
f 8//9 9//9 10//9
f 8//10 10//10 7//10
f 11//11 10//11 9//11
f 7//12 10//12 11//12
f 11//13 9//13 13//13
f 7//14 11//14 12//14
f 11//15 13//15 12//15
f 15//16 14//16 13//16
f 13//17 14//17 12//17
f 15//18 13//18 9//18
f 16//19 15//19 9//19
f 16//20 18//20 15//20
f 15//21 17//21 14//21
f 15//22 18//22 17//22
f 21//23 17//23 18//23
f 22//24 19//24 18//24
f 21//25 18//25 19//25
f 16//26 20//26 18//26
f 22//27 18//27 20//27
f 22//28 20//28 5//28
f 23//29 22//29 5//29
f 23//30 19//30 22//30
f 23//31 24//31 19//31
f 23//32 5//32 24//32
f 21//33 19//33 24//33
f 27//34 24//34 14//34
f 25//35 14//35 24//35
f 27//36 21//36 24//36
f 26//37 25//37 24//37
f 26//38 24//38 5//38
f 27//39 14//39 28//39
f 27//40 28//40 21//40
f 28//41 14//41 17//41
f 28//42 17//42 21//42
f 26//43 2//43 4//43
f 26//44 4//44 25//44
f 26//45 5//45 2//45
f 25//46 4//46 29//46
f 25//47 29//47 14//47
f 30//48 12//48 29//48
f 29//49 12//49 14//49
f 30//50 29//50 4//50
f 30//51 3//51 12//51
f 30//52 4//52 3//52
f 16//53 9//53 20//53
f 6//54 20//54 9//54
f 6//55 5//55 20//55
f 7//56 12//56 3//56
