# Blender 4.1.1
# www.blender.org
mtllib model_collision_21_001.mtl
o model_collision_21.001
v 0.005250 -0.008542 0.045819
v 0.009404 0.025963 0.029022
v 0.007191 0.014850 0.041433
v 0.003173 0.010465 0.045495
v 0.006412 0.010217 0.043946
v 0.004273 -0.009966 0.043353
v 0.004749 0.011600 0.045236
v -0.001523 -0.007606 0.044435
v -0.001953 -0.010558 0.035610
v -0.001133 0.004713 0.044518
v -0.004786 0.016251 0.042712
v -0.004605 -0.009018 0.034266
v -0.005020 0.021396 0.020850
v -0.005630 0.018448 0.022135
v -0.004038 0.025613 0.029117
v 0.004968 0.024658 0.033947
v 0.000232 0.023397 0.035640
v -0.003918 0.024377 0.031905
v -0.003134 0.020752 0.038885
v 0.001228 0.022253 0.037693
v 0.008254 0.025265 0.030972
v -0.002030 0.022004 0.021989
vn 0.9906 -0.0590 0.1238
vn 0.9429 -0.2305 -0.2403
vn 0.9717 -0.0369 0.2332
vn -0.2009 -0.0052 0.9796
vn 0.1396 0.0321 0.9897
vn 0.6320 0.0381 0.7740
vn -0.2239 -0.8029 0.5524
vn -0.5848 -0.7603 0.2828
vn -0.3069 -0.8980 0.3153
vn -0.4246 0.0073 0.9053
vn -0.2217 0.0004 0.9751
vn -0.9472 -0.1077 0.3020
vn 0.0212 -0.4032 -0.9148
vn 0.2256 -0.3906 -0.8925
vn -0.9990 -0.0202 0.0388
vn -0.9850 0.1626 0.0578
vn -0.9783 0.2070 0.0106
vn -0.0236 0.9714 0.2361
vn -0.0264 0.8918 -0.4517
vn -0.9093 0.3644 0.2009
vn -0.1077 0.9177 0.3823
vn -0.1530 0.9009 0.4062
vn -0.7106 0.5886 0.3854
vn -0.2201 0.8554 0.4689
vn -0.0167 0.6512 0.7587
vn -0.1412 0.8340 0.5333
vn 0.0771 0.5930 0.8015
vn -0.0492 0.8621 0.5044
vn 0.3096 0.6155 0.7247
vn 0.3196 0.6196 0.7169
vn 0.2549 0.8529 0.4556
vn 0.4733 0.5997 0.6452
vn 0.6549 0.5012 0.5656
vn 0.0255 0.8528 -0.5216
vn 0.3948 -0.3538 -0.8479
vn 0.5740 -0.3149 -0.7559
vn -0.0858 0.3335 0.9388
vn -0.2924 0.0569 0.9546
vn 0.7464 -0.3358 -0.5746
vn 0.7114 0.2389 0.6610
s 0
f 3//1 1//1 2//1
f 6//2 2//2 1//2
f 5//3 1//3 3//3
f 4//4 8//4 1//4
f 4//5 1//5 7//5
f 5//6 7//6 1//6
f 8//7 6//7 1//7
f 12//8 9//8 8//8
f 8//9 9//9 6//9
f 10//10 11//10 8//10
f 10//11 8//11 4//11
f 12//12 8//12 11//12
f 14//13 13//13 12//13
f 12//14 13//14 9//14
f 14//15 12//15 11//15
f 14//16 11//16 15//16
f 14//17 15//17 13//17
f 16//18 2//18 15//18
f 15//19 2//19 13//19
f 18//20 15//20 11//20
f 17//21 16//21 15//21
f 18//22 17//22 15//22
f 18//23 11//23 19//23
f 18//24 19//24 17//24
f 19//25 11//25 20//25
f 17//26 19//26 20//26
f 20//27 11//27 7//27
f 17//28 20//28 16//28
f 3//29 20//29 7//29
f 16//30 20//30 3//30
f 21//31 2//31 16//31
f 21//32 16//32 3//32
f 21//33 3//33 2//33
f 22//34 13//34 2//34
f 22//35 9//35 13//35
f 22//36 2//36 9//36
f 4//37 7//37 11//37
f 10//38 4//38 11//38
f 6//39 9//39 2//39
f 5//40 3//40 7//40
