# Blender 4.1.1
# www.blender.org
mtllib model_collision_9_001.mtl
o model_collision_9.001
v 0.012069 0.023483 0.027199
v 0.012220 0.025040 0.027458
v 0.025672 0.023043 0.018970
v -0.029131 0.020429 0.028949
v -0.031840 0.019900 0.004898
v -0.033447 0.030435 0.016933
v -0.034446 0.021228 0.023747
v -0.027574 0.023832 0.026472
v -0.024986 0.026984 0.023705
v 0.014391 0.028187 0.023878
v -0.029386 0.030907 0.016450
v -0.030124 0.034164 0.000513
v 0.020143 0.031416 0.016936
v 0.024894 0.029244 0.019029
v -0.015531 0.033235 0.001029
v 0.020507 0.031163 0.016040
v 0.025283 0.026600 0.007900
v 0.024798 0.028473 0.013388
v 0.025373 0.024370 0.007985
v -0.016028 0.029733 0.000732
v 0.025500 0.024473 0.011896
v -0.030333 0.025089 0.001033
vn 0.0544 -0.1693 0.9841
vn 0.5037 -0.1895 0.8428
vn 0.0805 -0.9794 0.1854
vn -0.1894 -0.9810 0.0429
vn 0.0506 -0.9986 0.0163
vn -0.3565 0.6510 0.6702
vn -0.5485 0.5350 0.6426
vn -0.0380 0.5994 0.7995
vn -0.0388 0.6771 0.7349
vn -0.2123 0.7374 0.6412
vn -0.0261 0.7587 0.6510
vn -0.0418 0.8680 0.4948
vn -0.0288 0.8718 0.4889
vn -0.0121 0.9796 0.2008
vn -0.0889 0.9750 0.2034
vn -0.0134 0.9108 0.4126
vn 0.1553 0.8402 0.5195
vn 0.4414 0.8943 -0.0737
vn 0.0646 0.9974 -0.0308
vn 0.1448 0.9660 -0.2143
vn 0.2105 0.9003 -0.3811
vn 0.4690 0.8740 -0.1273
vn 0.3879 0.8822 -0.2669
vn 0.8867 0.4559 -0.0773
vn 0.9922 0.1245 0.0051
vn 0.9987 0.0388 -0.0334
vn 0.1686 -0.0311 -0.9852
vn 0.9959 0.0898 -0.0061
vn 0.1750 0.0586 -0.9828
vn 0.9989 -0.0354 -0.0315
vn -0.0025 -0.0572 -0.9984
vn 0.0403 0.0788 -0.9961
vn 0.1088 -0.3943 -0.9125
vn 0.0902 -0.6117 -0.7860
vn -0.9319 0.0007 -0.3627
vn 0.0838 -0.9890 -0.1218
vn 0.2696 0.6364 0.7227
vn 0.5390 0.0596 0.8402
vn -0.9809 0.0613 -0.1846
vn -0.9905 0.0058 -0.1373
s 0
f 2//1 4//1 1//1
f 2//2 1//2 3//2
f 4//3 3//3 1//3
f 7//4 5//4 4//4
f 4//5 5//5 3//5
f 8//6 6//6 4//6
f 7//7 4//7 6//7
f 8//8 4//8 2//8
f 8//9 2//9 9//9
f 8//10 9//10 6//10
f 9//11 2//11 10//11
f 9//12 11//12 6//12
f 9//13 10//13 11//13
f 11//14 13//14 12//14
f 11//15 12//15 6//15
f 11//16 10//16 13//16
f 13//17 10//17 14//17
f 16//18 13//18 14//18
f 13//19 15//19 12//19
f 16//20 15//20 13//20
f 16//21 17//21 15//21
f 16//22 14//22 18//22
f 16//23 18//23 17//23
f 18//24 14//24 17//24
f 17//25 14//25 3//25
f 21//26 19//26 17//26
f 20//27 17//27 19//27
f 21//28 17//28 3//28
f 20//29 15//29 17//29
f 21//30 3//30 19//30
f 20//31 22//31 12//31
f 20//32 12//32 15//32
f 20//33 19//33 22//33
f 5//34 22//34 19//34
f 5//35 12//35 22//35
f 3//36 5//36 19//36
f 2//37 14//37 10//37
f 2//38 3//38 14//38
f 5//39 6//39 12//39
f 7//40 6//40 5//40
