# Blender 4.1.1
# www.blender.org
mtllib model_collision_23_001.mtl
o model_collision_23.001
v 0.102277 0.004874 0.032789
v 0.101147 0.006745 0.031442
v 0.102953 0.014212 -0.004045
v 0.070001 0.016257 0.030037
v 0.081946 0.010055 0.031166
v 0.092330 0.010210 -0.005495
v 0.086918 0.012185 0.030926
v 0.081366 0.010072 0.027683
v 0.104006 0.008003 0.004945
v 0.097052 0.009165 0.031280
v 0.089449 0.016378 0.027411
v 0.100114 0.008729 0.028432
v 0.069264 0.021942 0.025054
v 0.079438 0.019877 0.025265
v 0.076910 0.020299 -0.003061
v 0.093580 0.016698 -0.003744
v 0.069270 0.021134 0.004229
v 0.077212 0.018414 -0.002455
v 0.069999 0.019896 0.004421
v 0.070245 0.013630 0.025584
v 0.072139 0.013034 0.029525
v 0.102958 0.009506 -0.003151
vn 0.3774 0.6806 0.6280
vn 0.7870 0.5945 0.1651
vn 0.9511 0.2947 0.0922
vn 0.0170 0.2803 0.9598
vn -0.0655 0.0552 0.9963
vn -0.2495 -0.9677 0.0368
vn -0.0831 -0.9897 -0.1164
vn -0.2226 -0.9718 -0.0776
vn 0.0984 0.4348 0.8951
vn 0.4073 0.7262 0.5538
vn 0.1457 0.5825 0.7997
vn 0.5281 0.7809 0.3337
vn 0.3156 0.9463 0.0703
vn 0.5610 0.8068 0.1852
vn 0.1032 0.6017 0.7920
vn 0.0961 0.6632 0.7423
vn 0.1477 0.7886 0.5969
vn 0.2569 0.9662 0.0193
vn 0.1989 0.9800 -0.0032
vn 0.2110 0.9775 -0.0043
vn 0.0363 0.2539 -0.9666
vn 0.0160 0.2577 -0.9661
vn -0.3580 -0.3370 -0.8708
vn -0.6717 -0.3219 -0.6672
vn 0.0721 0.9966 -0.0386
vn -0.5000 -0.7902 -0.3543
vn -0.6558 -0.4770 -0.5852
vn -0.4752 -0.8452 -0.2447
vn -0.8428 -0.5186 -0.1438
vn -0.2863 -0.9531 -0.0985
vn -0.9931 -0.1169 0.0043
vn -0.9931 -0.1163 0.0142
vn -0.7762 -0.5607 0.2882
vn -0.3051 -0.9523 0.0028
vn -0.2972 -0.9538 0.0448
vn -0.2478 -0.3102 0.9178
vn 0.7401 0.6495 0.1743
vn 0.9909 -0.0242 -0.1327
vn -0.0257 -0.9835 -0.1792
vn 0.2002 -0.1827 -0.9626
s 0
f 10//1 1//1 2//1
f 1//2 3//2 2//2
f 9//3 3//3 1//3
f 7//4 4//4 1//4
f 5//5 1//5 4//5
f 5//6 8//6 1//6
f 9//7 1//7 6//7
f 8//8 6//8 1//8
f 7//9 1//9 10//9
f 10//10 2//10 11//10
f 7//11 10//11 11//11
f 12//12 11//12 2//12
f 14//13 11//13 3//13
f 12//14 3//14 11//14
f 7//15 11//15 4//15
f 13//16 4//16 11//16
f 14//17 13//17 11//17
f 16//18 14//18 3//18
f 14//19 15//19 13//19
f 16//20 15//20 14//20
f 16//21 3//21 6//21
f 16//22 6//22 15//22
f 18//23 15//23 6//23
f 18//24 17//24 15//24
f 15//25 17//25 13//25
f 18//26 6//26 19//26
f 18//27 19//27 17//27
f 19//28 6//28 20//28
f 19//29 20//29 17//29
f 8//30 20//30 6//30
f 13//31 17//31 20//31
f 13//32 20//32 4//32
f 21//33 4//33 20//33
f 21//34 20//34 8//34
f 21//35 8//35 5//35
f 21//36 5//36 4//36
f 12//37 2//37 3//37
f 9//38 22//38 3//38
f 9//39 6//39 22//39
f 22//40 6//40 3//40
