# Blender 5.1.0
# www.blender.org
mtllib model_collision_11.mtl
o model_collision_11
v 0.104328 0.005763 0.009475
v 0.104502 -0.024713 0.006668
v 0.103822 -0.027096 0.001061
v 0.014413 0.005135 0.001098
v 0.010663 0.005816 0.008882
v 0.105057 0.009958 0.004907
v 0.072101 -0.024287 0.006893
v 0.058135 -0.027221 -0.001946
v 0.060511 -0.029392 0.004539
v 0.010435 -0.011129 0.005682
v 0.011609 -0.008336 0.000607
vn -0.0039 0.7369 0.6760
vn -0.0482 0.9927 -0.1101
vn 0.9886 -0.0082 0.1503
vn 0.9935 -0.0216 -0.1113
vn 0.0057 -0.0917 0.9958
vn -0.0064 -0.0789 0.9969
vn 0.0651 0.1009 -0.9928
vn 0.0342 0.1393 -0.9897
vn 0.0795 -0.9208 0.3818
vn 0.0008 -0.4201 0.9075
vn 0.0240 -0.9453 -0.3253
vn -0.3405 -0.9221 -0.1840
vn -0.0763 -0.2693 0.9600
vn -0.0586 -0.1845 0.9811
vn -0.9788 0.0506 -0.1985
vn -0.8761 0.1984 -0.4395
vn -0.0369 0.0441 -0.9983
vn -0.3469 -0.7855 -0.5125
s 0
f 6//1 5//1 1//1
f 6//2 4//2 5//2
f 6//3 1//3 2//3
f 6//4 2//4 3//4
f 7//5 2//5 1//5
f 7//6 1//6 5//6
f 8//7 6//7 3//7
f 8//8 4//8 6//8
f 9//9 3//9 2//9
f 9//10 2//10 7//10
f 9//11 8//11 3//11
f 10//12 8//12 9//12
f 10//13 9//13 7//13
f 10//14 7//14 5//14
f 11//15 10//15 5//15
f 11//16 5//16 4//16
f 11//17 4//17 8//17
f 11//18 8//18 10//18
