# Blender 5.1.0
# www.blender.org
mtllib model_collision_4.mtl
o model_collision_4
v -0.150682 0.049728 0.013633
v -0.122155 0.000501 0.006977
v -0.121674 0.054026 -0.026147
v -0.166581 0.055470 -0.026355
v -0.172479 -0.011074 -0.009665
v -0.128592 0.055691 0.004785
v -0.162380 0.014378 0.009550
v -0.123071 0.000016 -0.026182
v -0.175218 0.055651 0.003998
v -0.123316 0.022364 0.011248
v -0.162946 0.000177 0.005171
v -0.156451 -0.011106 -0.026796
v -0.162680 0.049753 0.013410
v -0.170224 0.055469 -0.024389
v -0.175365 0.000303 -0.001679
v -0.123010 0.052629 0.004192
v -0.158769 -0.008031 -0.000161
v -0.140567 0.000428 0.006487
v -0.122992 0.032322 -0.027585
v -0.168924 -0.011145 -0.026315
v -0.174871 0.022802 0.001065
v -0.175385 0.055338 -0.001433
v -0.175479 -0.000232 -0.007142
v -0.169264 0.049853 -0.025561
vn 0.0323 0.9984 -0.0465
vn 0.9993 -0.0258 -0.0272
vn -0.0008 1.0000 -0.0062
vn -0.0034 -0.1919 0.9814
vn 0.3160 -0.9487 0.0052
vn -0.0084 0.8388 0.5444
vn -0.0098 0.8414 0.5403
vn -0.0187 -0.1053 0.9943
vn -0.0210 -0.1086 0.9939
vn -0.0041 1.0000 -0.0071
vn -0.5922 -0.0924 0.8005
vn -0.4704 -0.2429 0.8484
vn -0.3935 -0.5929 0.7026
vn 0.2746 0.3254 0.9048
vn 0.2952 0.2141 0.9311
vn 0.4850 0.8723 0.0615
vn 0.9890 0.0240 0.1458
vn 0.9988 0.0188 0.0448
vn -0.3442 -0.6283 0.6977
vn 0.2010 -0.9710 0.1296
vn 0.1316 -0.9834 0.1250
vn -0.0248 -0.2512 0.9676
vn -0.0529 -0.2923 0.9548
vn -0.0191 -0.5921 0.8057
vn -0.0424 -0.5593 0.8279
vn -0.0269 0.0025 -0.9996
vn 0.0067 0.0657 -0.9978
vn 0.8829 -0.0225 -0.4691
vn 0.0328 -0.0434 -0.9985
vn 0.0033 -1.0000 0.0049
vn -0.0386 0.0008 -0.9993
vn -0.6134 -0.0823 0.7855
vn -0.6213 -0.0762 0.7799
vn -0.7070 -0.0703 0.7037
vn -0.9995 -0.0005 0.0307
vn -0.2402 0.9695 -0.0485
vn -0.9478 -0.0093 -0.3187
vn -0.9754 0.0242 -0.2191
vn -0.9998 -0.0005 0.0209
vn -0.9549 -0.2169 -0.2030
vn -0.9599 -0.2765 0.0471
vn -0.7650 0.0037 -0.6441
vn -0.4724 0.1020 -0.8754
vn -0.3029 0.0101 -0.9530
s 0
f 6//1 3//1 4//1
f 8//2 3//2 2//2
f 9//3 6//3 4//3
f 10//4 7//4 2//4
f 12//5 8//5 2//5
f 13//6 1//6 6//6
f 13//7 6//7 9//7
f 13//8 10//8 1//8
f 13//9 7//9 10//9
f 14//10 9//10 4//10
f 15//11 7//11 13//11
f 15//12 11//12 7//12
f 15//13 5//13 11//13
f 16//14 6//14 1//14
f 16//15 1//15 10//15
f 16//16 3//16 6//16
f 16//17 10//17 2//17
f 16//18 2//18 3//18
f 17//19 11//19 5//19
f 17//20 12//20 2//20
f 17//21 5//21 12//21
f 18//22 2//22 7//22
f 18//23 7//23 11//23
f 18//24 17//24 2//24
f 18//25 11//25 17//25
f 19//26 12//26 4//26
f 19//27 4//27 3//27
f 19//28 3//28 8//28
f 19//29 8//29 12//29
f 20//30 12//30 5//30
f 20//31 4//31 12//31
f 21//32 15//32 13//32
f 21//33 13//33 9//33
f 21//34 9//34 15//34
f 22//35 15//35 9//35
f 22//36 9//36 14//36
f 23//37 14//37 20//37
f 23//38 22//38 14//38
f 23//39 15//39 22//39
f 23//40 20//40 5//40
f 23//41 5//41 15//41
f 24//42 20//42 14//42
f 24//43 14//43 4//43
f 24//44 4//44 20//44
