# Blender 5.1.0
# www.blender.org
mtllib model_collision_18.mtl
o model_collision_18
v 0.189649 -0.066024 -0.003119
v 0.189568 -0.072894 -0.005904
v 0.184426 -0.065684 -0.021420
v 0.010003 -0.066550 -0.024660
v 0.010021 -0.066525 -0.004685
v 0.175514 -0.084191 -0.020678
v 0.188378 -0.074116 -0.012577
v 0.069349 -0.063103 -0.000692
v 0.010124 -0.085286 -0.015682
v 0.186753 -0.065372 -0.014619
v 0.177203 -0.084116 -0.019605
v 0.189205 -0.069932 -0.003224
v 0.009922 -0.084729 -0.022386
v 0.010045 -0.074313 -0.008720
v 0.182093 -0.079318 -0.016917
v 0.178532 -0.082713 -0.012709
v 0.071116 -0.070064 -0.004685
v 0.137458 -0.084517 -0.020782
v 0.184629 -0.076945 -0.008129
v 0.071161 -0.078660 -0.010461
vn 0.0188 -0.0491 -0.9986
vn 0.9804 0.0641 -0.1865
vn -0.0024 0.9906 -0.1366
vn -0.0575 0.9983 -0.0012
vn 0.9401 0.0985 -0.3262
vn 0.9639 0.1241 -0.2357
vn 0.0253 0.9984 0.0502
vn 0.0133 0.9986 -0.0503
vn 0.5231 -0.2841 -0.8035
vn 0.6597 -0.7512 0.0199
vn 0.9592 -0.1159 0.2580
vn 0.0195 -0.0289 0.9994
vn -1.0000 0.0046 0.0009
vn 0.0106 -0.1241 -0.9922
vn -0.0332 -0.4598 0.8874
vn -0.9993 -0.0250 0.0281
vn -0.9997 -0.0129 0.0189
vn 0.6832 -0.3318 -0.6506
vn 0.7054 -0.3282 -0.6282
vn 0.7301 -0.4619 -0.5037
vn 0.6550 -0.7552 0.0274
vn 0.0115 -0.9803 0.1973
vn -0.0102 -0.4996 0.8662
vn -0.0185 -0.5357 0.8442
vn -0.0222 -0.5018 0.8647
vn 0.0086 -0.8184 -0.5746
vn 0.0027 -0.9965 -0.0830
vn 0.0084 -0.9983 0.0579
vn 0.0084 -0.9984 0.0566
vn -0.0044 -0.6190 0.7854
vn 0.5037 -0.7971 0.3332
vn 0.1958 -0.6446 0.7390
vn -0.0105 -0.5577 0.8300
vn -0.0096 -0.5577 0.8300
vn -0.0083 -0.5695 0.8219
vn -0.0082 -0.5710 0.8209
s 0
f 6//1 4//1 3//1
f 7//2 1//2 2//2
f 8//3 3//3 4//3
f 8//4 4//4 5//4
f 10//5 7//5 3//5
f 10//6 1//6 7//6
f 10//7 8//7 1//7
f 10//8 3//8 8//8
f 11//9 6//9 3//9
f 11//10 7//10 2//10
f 12//11 2//11 1//11
f 12//12 1//12 8//12
f 13//13 5//13 4//13
f 13//14 4//14 6//14
f 14//15 8//15 5//15
f 14//16 13//16 9//16
f 14//17 5//17 13//17
f 15//18 11//18 3//18
f 15//19 3//19 7//19
f 15//20 7//20 11//20
f 16//21 11//21 2//21
f 16//22 9//22 11//22
f 17//23 12//23 8//23
f 17//24 14//24 9//24
f 17//25 8//25 14//25
f 18//26 13//26 6//26
f 18//27 9//27 13//27
f 18//28 11//28 9//28
f 18//29 6//29 11//29
f 19//30 9//30 16//30
f 19//31 16//31 2//31
f 19//32 2//32 12//32
f 20//33 17//33 9//33
f 20//34 12//34 17//34
f 20//35 19//35 12//35
f 20//36 9//36 19//36
