# Blender 5.1.0
# www.blender.org
mtllib model_collision_0.mtl
o model_collision_0
v -0.079403 -0.011014 0.005322
v -0.078634 -0.055757 0.002906
v -0.078717 -0.027713 -0.025672
v -0.156453 -0.000017 -0.026726
v -0.162620 -0.042378 0.002729
v -0.123071 0.000016 -0.026182
v -0.076192 -0.010450 -0.002036
v -0.123029 0.000033 0.006748
v -0.168757 -0.067534 -0.026267
v -0.078713 -0.066529 -0.026034
v -0.175365 0.000303 -0.001679
v -0.163225 -0.062127 -0.001122
v -0.095405 -0.072106 -0.026342
v -0.078762 -0.065424 -0.006726
v -0.162946 0.000177 0.005171
v -0.168924 -0.011145 -0.026315
v -0.145357 -0.062191 0.000334
v -0.174846 -0.065946 -0.007940
v -0.095359 -0.072727 -0.008784
v -0.175479 -0.000232 -0.007142
v -0.175251 -0.032621 -0.004853
v -0.145256 -0.072300 -0.009379
v -0.175498 -0.071391 -0.015167
v -0.174683 -0.072192 -0.017069
vn 0.9167 -0.0058 0.3996
vn 0.4442 0.7002 -0.5589
vn -0.0149 -0.0805 0.9966
vn 0.0191 -0.0536 0.9984
vn 0.2183 0.9759 -0.0008
vn 0.2470 0.9520 0.1806
vn 0.0173 0.0093 -0.9998
vn 0.0163 0.0086 -0.9998
vn 0.9943 0.0011 -0.1071
vn 0.0053 1.0000 -0.0005
vn -0.0007 0.9999 -0.0133
vn -0.0014 -0.0065 -1.0000
vn 0.0158 0.0080 -0.9998
vn 0.9989 -0.0472 0.0053
vn 0.9981 -0.0498 0.0367
vn -0.4827 -0.0539 0.8741
vn -0.0396 -0.0575 0.9976
vn 0.0031 0.9999 0.0128
vn -0.0321 -0.0009 -0.9995
vn -0.0246 -0.1411 0.9897
vn -0.0804 -0.1884 0.9788
vn -0.4612 -0.1562 0.8735
vn 0.3173 -0.9477 -0.0344
vn 0.3966 -0.9164 0.0535
vn 0.2182 -0.6903 0.6898
vn 0.0250 -0.5837 0.8116
vn -0.1086 0.9896 -0.0947
vn -0.5681 0.6165 -0.5451
vn -0.5593 -0.0832 0.8248
vn -0.5585 -0.0815 0.8255
vn -0.0145 -0.6929 0.7209
vn -0.0611 -0.6919 0.7194
vn -0.1304 -0.7535 0.6444
vn -0.9385 0.0389 -0.3430
vn -0.9941 -0.0219 0.1061
vn -0.9983 -0.0090 0.0579
vn -0.9998 -0.0021 0.0211
vn -0.1391 -0.7848 0.6039
vn -0.0030 -0.9994 -0.0354
vn -0.0088 -0.9998 0.0197
vn -0.0952 -0.9314 0.3514
vn -0.0551 -0.8760 -0.4791
vn -0.9151 0.0254 -0.4025
vn -0.8400 -0.0029 -0.5426
s 0
f 7//1 1//1 2//1
f 7//2 3//2 6//2
f 8//3 5//3 2//3
f 8//4 2//4 1//4
f 8//5 7//5 6//5
f 8//6 1//6 7//6
f 10//7 6//7 3//7
f 10//8 4//8 6//8
f 10//9 3//9 7//9
f 11//10 8//10 6//10
f 11//11 6//11 4//11
f 13//12 9//12 4//12
f 13//13 4//13 10//13
f 14//14 10//14 7//14
f 14//15 7//15 2//15
f 15//16 11//16 5//16
f 15//17 5//17 8//17
f 15//18 8//18 11//18
f 16//19 4//19 9//19
f 17//20 2//20 5//20
f 17//21 5//21 12//21
f 18//22 12//22 5//22
f 19//23 13//23 10//23
f 19//24 10//24 14//24
f 19//25 14//25 2//25
f 19//26 2//26 17//26
f 20//27 11//27 4//27
f 20//28 4//28 16//28
f 21//29 18//29 5//29
f 21//30 5//30 11//30
f 22//31 19//31 17//31
f 22//32 17//32 12//32
f 22//33 12//33 18//33
f 23//34 20//34 16//34
f 23//35 18//35 21//35
f 23//36 21//36 11//36
f 23//37 11//37 20//37
f 23//38 22//38 18//38
f 24//39 13//39 19//39
f 24//40 19//40 22//40
f 24//41 22//41 23//41
f 24//42 9//42 13//42
f 24//43 23//43 16//43
f 24//44 16//44 9//44
