# Blender 5.1.0
# www.blender.org
mtllib model_collision_29.mtl
o model_collision_29
v -0.006609 -0.055662 0.003725
v -0.006597 -0.062350 0.003039
v -0.006642 -0.055446 -0.024752
v -0.078714 -0.055440 -0.025909
v -0.078634 -0.055757 0.002906
v -0.006635 -0.066545 -0.024882
v -0.078713 -0.066529 -0.026034
v -0.078526 -0.062122 0.002110
vn 1.0000 0.0018 -0.0011
vn -0.0000 1.0000 0.0076
vn -0.0112 -0.1021 0.9947
vn -0.0015 0.9999 0.0110
vn 1.0000 0.0006 -0.0015
vn 0.0161 0.0118 -0.9998
vn -1.0000 -0.0002 0.0028
vn 0.0160 0.0113 -0.9998
vn -0.0026 -0.9889 0.1486
vn -0.0051 -0.9879 0.1547
vn -0.0132 -0.1243 0.9922
vn -0.9998 -0.0181 0.0095
s 0
f 1//1 2//1 3//1
f 1//2 3//2 4//2
f 5//3 2//3 1//3
f 5//4 1//4 4//4
f 6//5 3//5 2//5
f 6//6 4//6 3//6
f 7//7 5//7 4//7
f 7//8 4//8 6//8
f 7//9 6//9 2//9
f 8//10 7//10 2//10
f 8//11 2//11 5//11
f 8//12 5//12 7//12
