# Blender 5.1.0
# www.blender.org
mtllib model_collision_10.mtl
o model_collision_10
v 0.188647 0.062944 0.009051
v 0.188935 0.055583 0.009135
v 0.187615 0.067650 -0.021392
v 0.104256 0.073299 -0.023218
v 0.104204 0.051043 0.011863
v 0.186986 0.073317 -0.021343
v 0.189551 0.071910 -0.016453
v 0.104352 0.062418 0.007930
v 0.184374 0.055419 -0.020503
v 0.104317 0.071900 -0.017247
v 0.104319 0.066131 -0.000690
v 0.189388 0.066552 -0.017934
v 0.104232 0.055523 -0.022910
v 0.188859 0.066688 -0.000476
vn 0.0315 0.0125 0.9994
vn 0.0227 0.0112 -0.9997
vn 0.9980 0.0396 0.0493
vn 0.8927 0.1030 -0.4387
vn -0.0146 0.3269 0.9450
vn 0.0534 -0.9986 -0.0027
vn -0.0027 0.9606 0.2778
vn -0.0054 0.9736 0.2280
vn -0.9999 0.0135 0.0071
vn -0.9998 0.0168 0.0111
vn -0.9955 0.0891 0.0311
vn -0.0110 0.9184 0.3955
vn 0.9995 -0.0316 0.0039
vn 0.9146 -0.3799 -0.1386
vn 0.8251 -0.2553 -0.5039
vn 0.8977 0.0917 -0.4309
vn 0.0026 -0.9918 -0.1278
vn -1.0000 0.0013 -0.0007
vn 0.0207 -0.0174 -0.9996
vn 0.0298 -0.0803 -0.9963
vn -0.0071 0.9308 0.3656
vn 0.9437 0.3001 0.1390
vn -0.0030 0.9505 0.3106
vn -0.0071 0.9443 0.3291
s 0
f 5//1 2//1 1//1
f 6//2 3//2 4//2
f 7//3 1//3 2//3
f 7//4 3//4 6//4
f 8//5 5//5 1//5
f 9//6 2//6 5//6
f 10//7 7//7 6//7
f 10//8 6//8 4//8
f 11//9 4//9 5//9
f 11//10 5//10 8//10
f 11//11 10//11 4//11
f 11//12 8//12 1//12
f 12//13 7//13 2//13
f 12//14 2//14 9//14
f 12//15 9//15 3//15
f 12//16 3//16 7//16
f 13//17 9//17 5//17
f 13//18 5//18 4//18
f 13//19 4//19 3//19
f 13//20 3//20 9//20
f 14//21 11//21 1//21
f 14//22 1//22 7//22
f 14//23 7//23 10//23
f 14//24 10//24 11//24
