# Blender 5.1.0
# www.blender.org
mtllib model_collision_14.mtl
o model_collision_14
v 0.010021 0.055523 0.006482
v 0.010045 0.061573 0.003488
v -0.174769 0.062930 0.003746
v -0.170950 0.071674 -0.027037
v 0.009991 0.055484 -0.024394
v -0.008013 0.065696 -0.000771
v -0.175218 0.055651 0.003998
v -0.174523 0.066679 -0.005992
v 0.009951 0.071256 -0.025450
v -0.139633 0.054317 -0.026371
v -0.174488 0.071717 -0.023833
v -0.067582 0.065420 -0.000927
v 0.010057 0.068738 -0.016410
v -0.170224 0.055469 -0.024389
v -0.039890 0.068333 -0.026163
v -0.174813 0.066907 -0.023670
v -0.166581 0.055470 -0.026355
v -0.039969 0.070560 -0.026310
v -0.171863 0.068068 -0.026804
vn 0.0045 0.4435 0.8962
vn 1.0000 -0.0045 -0.0010
vn 0.0063 0.7319 0.6814
vn -0.0134 0.0354 0.9993
vn 0.0078 -1.0000 0.0013
vn -0.0013 -0.9991 0.0424
vn -0.0028 0.9624 0.2718
vn -0.9734 0.2211 0.0605
vn 0.0024 0.9999 -0.0110
vn 0.0044 0.9748 0.2228
vn -0.0060 0.9333 0.3592
vn -0.0053 0.9277 0.3733
vn -0.0053 0.9388 0.3443
vn 0.0692 0.9612 0.2669
vn 0.1336 0.9324 0.3358
vn 1.0000 -0.0044 -0.0010
vn 0.9999 0.0018 -0.0113
vn -0.0376 -0.9993 -0.0002
vn 0.0182 -0.0667 -0.9976
vn 0.0138 -0.0835 -0.9964
vn -0.9980 0.0619 0.0106
vn -0.9976 0.0677 0.0114
vn -0.9196 -0.3590 -0.1595
vn -0.0024 -0.0428 -0.9991
vn -0.0427 -0.9959 -0.0795
vn 0.0113 -0.0654 -0.9978
vn 0.0053 -0.0288 -0.9996
vn 0.0088 0.4617 -0.8870
vn 0.0181 -0.0651 -0.9977
vn -0.7327 0.0265 -0.6800
vn -0.6655 0.1208 -0.7365
vn -0.6672 -0.2230 -0.7107
vn -0.4627 -0.2246 -0.8576
vn -0.0431 -0.0537 -0.9976
s 0
f 1//1 2//1 3//1
f 5//2 2//2 1//2
f 6//3 3//3 2//3
f 7//4 1//4 3//4
f 10//5 5//5 1//5
f 10//6 1//6 7//6
f 11//7 8//7 6//7
f 11//8 3//8 8//8
f 11//9 9//9 4//9
f 11//10 6//10 9//10
f 12//11 8//11 3//11
f 12//12 3//12 6//12
f 12//13 6//13 8//13
f 13//14 9//14 6//14
f 13//15 6//15 2//15
f 13//16 2//16 5//16
f 13//17 5//17 9//17
f 14//18 10//18 7//18
f 15//19 9//19 5//19
f 15//20 5//20 10//20
f 16//21 7//21 3//21
f 16//22 3//22 11//22
f 16//23 14//23 7//23
f 17//24 4//24 10//24
f 17//25 10//25 14//25
f 18//26 15//26 10//26
f 18//27 10//27 4//27
f 18//28 4//28 9//28
f 18//29 9//29 15//29
f 19//30 16//30 11//30
f 19//31 11//31 4//31
f 19//32 14//32 16//32
f 19//33 17//33 14//33
f 19//34 4//34 17//34
