# Blender 5.1.0
# www.blender.org
mtllib model_collision_26.mtl
o model_collision_26
v -0.078790 -0.075489 -0.010481
v -0.078666 -0.085190 -0.017429
v -0.078712 -0.072074 -0.026093
v -0.165427 -0.069686 -0.026968
v -0.163548 -0.082638 -0.017628
v -0.161466 -0.083706 -0.025219
v -0.175498 -0.071391 -0.015167
v -0.078759 -0.084632 -0.023909
v -0.084339 -0.079875 -0.026275
v -0.162377 -0.083705 -0.024566
v -0.174730 -0.073243 -0.015373
v -0.162832 -0.072364 -0.026659
v -0.089886 -0.072135 -0.026276
v -0.166973 -0.079986 -0.021936
v -0.173536 -0.074263 -0.017804
v -0.174683 -0.072192 -0.017069
vn 0.9999 0.0080 0.0067
vn -0.0194 -0.5823 0.8127
vn 0.0310 0.9764 0.2137
vn 0.0255 0.9861 0.1642
vn 0.9999 -0.0063 -0.0149
vn -0.0098 -0.9963 -0.0857
vn 0.0094 -0.4364 -0.8997
vn 0.2613 -0.1663 -0.9508
vn -0.0160 -0.9997 -0.0201
vn -0.0301 -0.9887 0.1470
vn -0.5632 -0.2571 -0.7853
vn -0.0555 -0.2951 0.9539
vn -0.0536 -0.1323 0.9898
vn -0.0073 -0.1268 -0.9919
vn -0.0136 -0.1276 -0.9917
vn -0.0067 -0.1210 -0.9926
vn 0.0094 0.0065 -0.9999
vn 0.0151 0.1882 -0.9820
vn 0.0164 0.0115 -0.9998
vn -0.6237 -0.7815 0.0149
vn -0.6387 -0.7686 0.0348
vn -0.6303 -0.2623 -0.7307
vn -0.6606 -0.7507 -0.0094
vn -0.6612 -0.2468 -0.7084
vn -0.8800 -0.3924 -0.2674
vn -0.9057 -0.3487 -0.2410
vn -0.6868 0.5164 -0.5115
vn -0.7045 -0.1434 -0.6951
s 0
f 1//1 2//1 3//1
f 5//2 2//2 1//2
f 7//3 1//3 3//3
f 7//4 3//4 4//4
f 8//5 3//5 2//5
f 8//6 2//6 6//6
f 9//7 8//7 6//7
f 9//8 3//8 8//8
f 10//9 6//9 2//9
f 10//10 2//10 5//10
f 10//11 4//11 6//11
f 11//12 5//12 1//12
f 11//13 1//13 7//13
f 12//14 9//14 6//14
f 12//15 6//15 4//15
f 12//16 4//16 9//16
f 13//17 9//17 4//17
f 13//18 4//18 3//18
f 13//19 3//19 9//19
f 14//20 10//20 5//20
f 14//21 5//21 11//21
f 14//22 4//22 10//22
f 15//23 14//23 11//23
f 15//24 4//24 14//24
f 16//25 15//25 11//25
f 16//26 11//26 7//26
f 16//27 7//27 4//27
f 16//28 4//28 15//28
