# Blender 5.1.0
# www.blender.org
mtllib model_collision_1.mtl
o model_collision_1
v 0.180198 0.004650 0.003328
v 0.176262 -0.028177 0.000599
v 0.176343 0.005520 -0.022112
v -0.123071 0.000016 -0.026182
v -0.119298 -0.000136 0.000750
v 0.176309 -0.027725 -0.022256
v -0.123039 -0.027712 -0.004189
v 0.014413 0.005135 0.001098
v -0.123069 -0.027710 -0.026309
v 0.009974 0.005566 -0.023872
vn -0.0073 -0.0820 0.9966
vn 0.9929 -0.1190 -0.0003
vn 0.9887 -0.0003 -0.1498
vn -0.9844 0.1087 0.1385
vn -0.0160 -0.1742 0.9846
vn -0.0123 0.2482 0.9686
vn 0.0025 0.9994 0.0338
vn 0.0002 -0.9998 -0.0197
vn -0.0016 -1.0000 -0.0001
vn -1.0000 -0.0001 0.0014
vn 0.0135 0.0046 -0.9999
vn 0.0135 0.0043 -0.9999
vn 0.0001 0.9999 0.0173
vn 0.0105 0.1594 -0.9872
vn -0.0419 0.9991 0.0115
vn -0.0394 0.9989 0.0243
s 0
f 5//1 2//1 1//1
f 6//2 1//2 2//2
f 6//3 3//3 1//3
f 7//4 5//4 4//4
f 7//5 2//5 5//5
f 8//6 5//6 1//6
f 8//7 1//7 3//7
f 9//8 6//8 2//8
f 9//9 2//9 7//9
f 9//10 7//10 4//10
f 9//11 4//11 3//11
f 9//12 3//12 6//12
f 10//13 8//13 3//13
f 10//14 3//14 4//14
f 10//15 4//15 5//15
f 10//16 5//16 8//16
