# Blender 5.1.0
# www.blender.org
mtllib model_collision_15.mtl
o model_collision_15
v 0.176814 0.022529 0.014705
v 0.189944 0.005909 0.003606
v 0.190132 0.022181 0.001330
v 0.010129 0.029476 0.003465
v 0.010663 0.005816 0.008882
v 0.013540 0.005447 0.002652
v 0.132054 0.029288 0.005048
v 0.189975 0.022390 0.005030
v 0.177190 0.005753 0.010637
v 0.009693 0.026767 0.013339
v 0.190124 0.005564 0.001261
v 0.176546 0.014486 0.013239
v 0.009021 0.017344 0.012183
v 0.132065 0.026871 0.014623
v 0.027832 0.014598 0.012229
vn -0.0105 0.0323 -0.9994
vn -0.9045 -0.1145 -0.4109
vn 0.0118 0.5375 -0.8432
vn 0.5904 -0.0706 0.8041
vn 0.1170 0.9825 0.1451
vn 0.1181 0.9917 -0.0509
vn -0.0010 -0.9983 0.0588
vn -0.0079 0.0042 -1.0000
vn 0.0008 -0.9998 0.0214
vn 0.0959 -0.9837 0.1521
vn 0.9969 -0.0086 0.0777
vn 0.9991 -0.0007 0.0425
vn 0.4731 -0.2194 0.8533
vn 0.5005 -0.1713 0.8486
vn -0.9970 0.0741 -0.0237
vn -0.9714 -0.0736 -0.2260
vn -0.0017 0.9696 0.2447
vn -0.0036 0.9644 0.2645
vn -0.0104 -0.0881 0.9961
vn 0.0932 0.9654 0.2436
vn -0.0100 -0.3389 0.9408
vn -0.0067 -0.2860 0.9582
vn -0.0433 -0.2807 0.9588
vn -0.0068 -0.1790 0.9838
vn -0.0108 -0.1069 0.9942
vn -0.0200 -0.1203 0.9925
s 0
f 6//1 4//1 3//1
f 6//2 5//2 4//2
f 7//3 3//3 4//3
f 8//4 1//4 2//4
f 8//5 7//5 1//5
f 8//6 3//6 7//6
f 9//7 5//7 6//7
f 11//8 6//8 3//8
f 11//9 9//9 6//9
f 11//10 2//10 9//10
f 11//11 8//11 2//11
f 11//12 3//12 8//12
f 12//13 9//13 2//13
f 12//14 2//14 1//14
f 13//15 10//15 4//15
f 13//16 4//16 5//16
f 14//17 7//17 4//17
f 14//18 4//18 10//18
f 14//19 10//19 1//19
f 14//20 1//20 7//20
f 15//21 5//21 9//21
f 15//22 9//22 12//22
f 15//23 13//23 5//23
f 15//24 12//24 1//24
f 15//25 1//25 10//25
f 15//26 10//26 13//26
