# Blender 5.1.0
# www.blender.org
mtllib model_collision_3.mtl
o model_collision_3
v 0.009310 0.050546 0.014983
v 0.009021 0.017344 0.012183
v 0.009991 0.055484 -0.024394
v -0.078716 0.055476 -0.025653
v -0.078670 0.050461 0.013863
v -0.078719 0.022198 -0.025492
v 0.009977 0.022230 -0.023905
v -0.036541 0.017446 0.011766
v -0.033101 0.015747 0.002343
v -0.078634 0.022345 0.011224
v 0.005712 0.016558 0.003395
vn -0.0019 0.9922 0.1244
vn -0.0026 0.9920 0.1259
vn 0.0142 -0.0049 -0.9999
vn -1.0000 0.0001 0.0012
vn 0.9996 -0.0108 0.0250
vn 0.9999 -0.0002 0.0173
vn 0.0179 -0.0147 -0.9997
vn -0.0093 -0.0839 0.9964
vn -0.0126 -0.0794 0.9968
vn 0.0045 -0.9725 -0.2328
vn -0.0038 -0.9844 0.1760
vn -0.0237 -0.0935 0.9953
vn -1.0000 -0.0015 0.0023
vn -0.1163 -0.9840 0.1349
vn -0.1426 -0.9898 0.0043
vn 0.0259 -0.9796 -0.1995
vn 0.4846 -0.8684 -0.1047
vn 0.0186 -0.9964 0.0822
s 0
f 1//1 3//1 4//1
f 5//2 1//2 4//2
f 6//3 4//3 3//3
f 6//4 5//4 4//4
f 7//5 1//5 2//5
f 7//6 3//6 1//6
f 7//7 6//7 3//7
f 8//8 2//8 1//8
f 8//9 1//9 5//9
f 9//10 6//10 7//10
f 9//11 2//11 8//11
f 10//12 8//12 5//12
f 10//13 5//13 6//13
f 10//14 9//14 8//14
f 10//15 6//15 9//15
f 11//16 9//16 7//16
f 11//17 7//17 2//17
f 11//18 2//18 9//18
