# Blender 5.1.0
# www.blender.org
mtllib model_collision_31.mtl
o model_collision_31
v 0.176262 -0.028177 0.000599
v 0.179581 -0.055580 -0.002103
v 0.176309 -0.027725 -0.022256
v 0.104241 -0.027726 -0.023470
v 0.104449 -0.054837 0.003668
v 0.177456 -0.056722 -0.022843
v 0.103822 -0.027096 0.001061
v 0.104245 -0.055453 -0.023628
vn 0.9928 0.1198 0.0044
vn 0.0754 -0.0888 0.9932
vn 0.9937 0.0414 -0.1041
vn 0.0168 0.0209 -0.9996
vn -0.0056 -0.9984 0.0555
vn 0.0150 0.9997 0.0198
vn 0.0004 0.9997 -0.0257
vn 0.0078 0.0937 0.9956
vn -0.0176 -0.9996 0.0227
vn 0.0108 0.0057 -0.9999
vn -0.9999 -0.0001 -0.0171
vn -0.9997 -0.0219 0.0079
s 0
f 1//1 2//1 3//1
f 5//2 2//2 1//2
f 6//3 3//3 2//3
f 6//4 4//4 3//4
f 6//5 2//5 5//5
f 7//6 1//6 3//6
f 7//7 3//7 4//7
f 7//8 5//8 1//8
f 8//9 6//9 5//9
f 8//10 4//10 6//10
f 8//11 7//11 4//11
f 8//12 5//12 7//12
