# Blender 5.1.0
# www.blender.org
mtllib model_collision_27.mtl
o model_collision_27
v 0.104346 -0.029182 0.005404
v 0.104215 -0.055681 0.003737
v 0.104241 -0.027726 -0.023470
v -0.078717 -0.027713 -0.025672
v -0.079928 -0.024448 0.004818
v -0.078714 -0.055440 -0.025909
v 0.104245 -0.055453 -0.023628
v -0.078634 -0.055757 0.002906
vn 0.0255 0.9984 0.0503
vn 0.0013 0.9943 -0.1064
vn 0.0120 0.0086 -0.9999
vn -0.9992 0.0002 -0.0397
vn 1.0000 -0.0050 0.0011
vn 1.0000 0.0002 -0.0036
vn 0.0125 0.0057 -0.9999
vn -0.0045 -0.0627 0.9980
vn -0.0047 -0.0611 0.9981
vn -0.9991 -0.0415 0.0023
vn 0.0005 -1.0000 -0.0083
vn 0.0001 -0.9999 -0.0110
s 0
f 5//1 1//1 3//1
f 5//2 3//2 4//2
f 6//3 4//3 3//3
f 6//4 5//4 4//4
f 7//5 1//5 2//5
f 7//6 3//6 1//6
f 7//7 6//7 3//7
f 8//8 2//8 1//8
f 8//9 1//9 5//9
f 8//10 5//10 6//10
f 8//11 7//11 2//11
f 8//12 6//12 7//12
