# Blender 5.1.0
# www.blender.org
mtllib model_collision_19.mtl
o model_collision_19
v 0.028114 -0.117050 -0.004704
v 0.039282 -0.116670 -0.020490
v -0.048121 -0.115670 -0.038289
v -0.043375 -0.116670 -0.040586
v -0.008088 -0.156439 -0.010081
v 0.036726 -0.116243 -0.036963
v 0.034833 -0.116614 -0.011642
v -0.037043 -0.117066 -0.009088
v -0.023585 -0.151184 -0.028164
v 0.018016 -0.151474 -0.022365
v 0.038905 -0.116429 -0.031137
v -0.012331 -0.146865 -0.002234
v -0.029120 -0.117151 -0.005750
v -0.039391 -0.131148 -0.035641
v 0.019926 -0.144887 -0.031008
v 0.006974 -0.155978 -0.025149
v 0.024717 -0.144371 -0.013783
v -0.030400 -0.148090 -0.015534
v 0.012382 -0.135075 -0.001645
v -0.027117 -0.141590 -0.006211
v -0.043080 -0.120570 -0.039571
v 0.025327 -0.143712 -0.025970
v -0.004697 -0.150849 -0.030904
v 0.010338 -0.155568 -0.015290
v -0.015731 -0.155908 -0.025456
v 0.014696 -0.151591 -0.027635
v 0.033707 -0.128868 -0.016876
v 0.025558 -0.132986 -0.005994
v -0.019444 -0.148744 -0.005610
v -0.038323 -0.135281 -0.032943
v -0.048483 -0.116855 -0.022110
v -0.012352 -0.143518 -0.002034
v 0.006906 -0.148897 -0.002270
v -0.046631 -0.119029 -0.037956
v 0.021542 -0.147850 -0.025800
v 0.026353 -0.139488 -0.031346
v -0.024633 -0.148271 -0.030872
v 0.008095 -0.133857 -0.035135
v 0.010458 -0.155620 -0.022515
v 0.003421 -0.156164 -0.010018
v 0.017437 -0.152082 -0.013199
v -0.023453 -0.152683 -0.012981
v 0.038370 -0.120310 -0.020558
v 0.029490 -0.128660 -0.008817
v 0.011125 -0.146249 -0.002215
v -0.011621 -0.151807 -0.004764
v -0.031070 -0.143285 -0.031889
v -0.038451 -0.136736 -0.017013
v -0.004178 -0.135143 -0.002232
v -0.007828 -0.149621 -0.002248
v -0.047153 -0.120280 -0.021546
v 0.034040 -0.123433 -0.035589
v 0.033409 -0.127872 -0.033337
v 0.006734 -0.151513 -0.004554
v -0.015888 -0.156289 -0.012681
v -0.030888 -0.141085 -0.009274
v 0.021497 -0.140781 -0.005959
v -0.030351 -0.147756 -0.018440
v -0.034124 -0.144279 -0.016768
v -0.035095 -0.133675 -0.010130
v 0.037847 -0.119724 -0.030914
v 0.014156 -0.152242 -0.010800
v 0.014189 -0.148217 -0.005194
v -0.019542 -0.152936 -0.010557
vn 0.0122 0.9258 -0.3777
vn 0.0065 0.9999 0.0151
vn 0.0537 0.9983 0.0207
vn 0.0386 0.9991 0.0175
vn -0.0040 0.9988 0.0478
vn -0.0112 0.9986 0.0520
vn -0.0029 0.9982 0.0599
vn -0.0183 0.1828 0.9830
vn -0.3882 -0.0492 0.9202
vn -0.4643 -0.2558 -0.8479
vn -0.0027 -0.9994 -0.0332
vn 0.0068 -0.7396 -0.6730
vn 0.1225 -0.5207 -0.8449
vn 0.1064 -0.6253 -0.7731
vn 0.8664 -0.4992 0.0164
vn -0.3450 -0.2952 0.8910
vn -0.0631 0.9954 0.0715
vn -0.2788 -0.0589 0.9585
vn -0.2769 -0.0408 0.9600
vn -0.5242 -0.4511 -0.7223
vn -0.5001 -0.3022 -0.8115
vn -0.6930 -0.5111 -0.5085
vn 0.7380 -0.6748 0.0004
vn 0.5184 -0.7974 -0.3090
vn 0.5104 -0.6696 -0.5396
vn 0.5253 -0.6591 -0.5382
vn 0.6781 -0.6352 -0.3697
vn -0.0436 -0.3256 -0.9445
vn -0.1876 -0.7043 -0.6847
vn -0.0839 -0.6397 -0.7640
vn 0.0178 -0.2542 -0.9670
vn 0.0188 -0.2505 -0.9679
vn 0.0454 -0.1758 -0.9834
vn 0.0656 -0.2873 -0.9556
vn 0.0958 -0.9954 0.0087
vn 0.4666 -0.8405 -0.2754
vn 0.3666 -0.8542 -0.3688
vn 0.0239 -0.9997 -0.0066
vn 0.0931 -0.9956 0.0096
vn 0.3330 -0.8804 0.3375
vn 0.7274 -0.6862 0.0065
vn 0.7162 -0.6979 -0.0010
vn 0.4812 -0.8762 -0.0277
vn 0.4376 -0.8991 0.0137
vn -0.5295 -0.8447 -0.0788
vn -0.4930 -0.8662 -0.0813
vn -0.5672 -0.5574 0.6063
vn 0.8697 -0.2263 0.4388
vn 0.8513 -0.2703 0.4497
vn 0.9694 -0.2424 -0.0398
vn 0.8750 -0.4838 -0.0166
vn 0.7144 -0.1569 0.6819
vn 0.6900 -0.1677 0.7041
vn 0.8500 -0.2711 0.4518
vn 0.7805 -0.3913 0.4876
vn 0.8136 -0.3849 0.4357
vn 0.3636 -0.1330 0.9220
vn 0.2779 -0.0801 0.9573
vn 0.0202 -0.0532 0.9984
vn -0.4449 -0.6905 -0.5702
vn -0.5206 -0.5570 -0.6471
vn -0.1669 -0.3939 -0.9039
vn -0.1599 -0.3911 -0.9064
vn -0.0356 0.0583 0.9977
vn -0.0357 0.1440 0.9889
vn -0.0723 0.0940 0.9929
vn -0.0333 -0.0597 0.9977
vn -0.2787 -0.4599 0.8431
vn -0.2773 -0.4779 0.8335
vn -0.0006 -0.7543 0.6566
vn 0.0038 -0.0467 0.9989
vn -0.0030 -0.0373 0.9993
vn -0.9284 -0.3684 -0.0477
vn -0.9102 -0.4098 -0.0602
vn -0.8805 -0.4698 -0.0638
vn -0.8770 -0.4777 -0.0507
vn 0.2545 -0.3592 -0.8979
vn 0.0680 -0.2116 -0.9750
vn 0.0892 -0.2638 -0.9604
vn 0.8030 -0.5334 -0.2658
vn 0.8777 -0.4755 -0.0594
vn 0.5247 -0.4433 -0.7267
vn 0.7458 -0.3827 -0.5452
vn 0.0335 -0.6586 0.7517
vn 0.0059 -0.7543 0.6565
vn 0.0148 -0.7658 0.6430
vn -0.4291 -0.9027 -0.0322
vn -0.0092 -0.9995 -0.0299
vn -0.2030 -0.8012 0.5629
vn -0.5672 -0.5574 0.6062
vn -0.5861 -0.5622 0.5834
vn 0.6395 -0.5643 0.5221
vn 0.7693 -0.3985 0.4994
vn 0.4322 -0.2212 0.8742
vn -0.6604 -0.7224 -0.2049
vn -0.5640 -0.8193 -0.1037
vn -0.8655 -0.4982 -0.0525
vn -0.7560 -0.4173 0.5043
vn -0.6906 -0.5081 0.5148
vn -0.6968 -0.7112 -0.0935
vn -0.7152 -0.6730 -0.1887
vn -0.7093 -0.6794 -0.1879
vn -0.7461 -0.1285 0.6533
vn -0.7845 -0.2084 0.5840
vn -0.8063 -0.2833 0.5192
vn -0.7598 -0.3696 0.5349
vn -0.6284 -0.2727 0.7285
vn -0.5273 -0.1147 0.8419
vn 0.9487 -0.3093 -0.0654
vn 0.8847 -0.4608 -0.0707
vn 0.8587 -0.3590 -0.3657
vn 0.8877 -0.3084 -0.3420
vn 0.3308 -0.8081 0.4874
vn 0.3394 -0.8477 0.4077
vn 0.3506 -0.5741 0.7399
vn 0.3389 -0.6313 0.6975
vn 0.3790 -0.7528 0.5382
vn 0.4214 -0.7379 0.5272
vn 0.4913 -0.4034 0.7719
vn 0.6316 -0.5662 0.5296
vn -0.3292 -0.7346 0.5933
vn -0.3451 -0.7126 0.6108
vn -0.4128 -0.6908 0.5936
vn -0.3807 -0.7540 0.5353
s 0
f 6//1 4//1 3//1
f 7//2 6//2 3//2
f 11//3 7//3 2//3
f 11//4 6//4 7//4
f 13//5 7//5 3//5
f 13//6 3//6 8//6
f 13//7 1//7 7//7
f 19//8 1//8 13//8
f 20//9 13//9 8//9
f 21//10 3//10 4//10
f 25//11 16//11 5//11
f 25//12 23//12 16//12
f 26//13 23//13 15//13
f 26//14 16//14 23//14
f 27//15 17//15 22//15
f 29//16 12//16 20//16
f 31//17 8//17 3//17
f 32//18 20//18 12//18
f 32//19 13//19 20//19
f 34//20 21//20 14//20
f 34//21 3//21 21//21
f 34//22 14//22 30//22
f 35//23 22//23 17//23
f 35//24 10//24 26//24
f 35//25 26//25 15//25
f 36//26 35//26 15//26
f 36//27 22//27 35//27
f 37//28 21//28 23//28
f 37//29 25//29 9//29
f 37//30 23//30 25//30
f 38//31 23//31 21//31
f 38//32 21//32 4//32
f 38//33 4//33 6//33
f 38//34 15//34 23//34
f 39//35 24//35 16//35
f 39//36 26//36 10//36
f 39//37 16//37 26//37
f 40//38 5//38 16//38
f 40//39 16//39 24//39
f 41//40 40//40 24//40
f 41//41 35//41 17//41
f 41//42 10//42 35//42
f 41//43 39//43 10//43
f 41//44 24//44 39//44
f 42//45 18//45 9//45
f 42//46 9//46 25//46
f 42//47 29//47 20//47
f 43//48 2//48 7//48
f 43//49 7//49 27//49
f 43//50 11//50 2//50
f 43//51 27//51 22//51
f 44//52 7//52 1//52
f 44//53 1//53 28//53
f 44//54 27//54 7//54
f 44//55 28//55 17//55
f 44//56 17//56 27//56
f 45//57 28//57 1//57
f 45//58 1//58 19//58
f 45//59 19//59 33//59
f 47//60 37//60 9//60
f 47//61 30//61 14//61
f 47//62 14//62 21//62
f 47//63 21//63 37//63
f 49//64 32//64 19//64
f 49//65 19//65 13//65
f 49//66 13//66 32//66
f 50//67 32//67 12//67
f 50//68 12//68 29//68
f 50//69 29//69 46//69
f 50//70 46//70 5//70
f 50//71 33//71 19//71
f 50//72 19//72 32//72
f 51//73 31//73 3//73
f 51//74 3//74 34//74
f 51//75 34//75 30//75
f 51//76 30//76 48//76
f 52//77 36//77 15//77
f 52//78 38//78 6//78
f 52//79 15//79 38//79
f 53//80 22//80 36//80
f 53//81 43//81 22//81
f 53//82 36//82 52//82
f 53//83 52//83 6//83
f 54//84 33//84 50//84
f 54//85 50//85 5//85
f 54//86 5//86 40//86
f 55//87 42//87 25//87
f 55//88 25//88 5//88
f 55//89 5//89 46//89
f 56//90 42//90 20//90
f 56//91 18//91 42//91
f 57//92 41//92 17//92
f 57//93 17//93 28//93
f 57//94 28//94 45//94
f 58//95 47//95 9//95
f 58//96 9//96 18//96
f 59//97 48//97 30//97
f 59//98 56//98 48//98
f 59//99 18//99 56//99
f 59//100 58//100 18//100
f 59//101 30//101 47//101
f 59//102 47//102 58//102
f 60//103 8//103 31//103
f 60//104 31//104 51//104
f 60//105 51//105 48//105
f 60//106 48//106 56//106
f 60//107 56//107 20//107
f 60//108 20//108 8//108
f 61//109 11//109 43//109
f 61//110 43//110 53//110
f 61//111 53//111 6//111
f 61//112 6//112 11//112
f 62//113 54//113 40//113
f 62//114 40//114 41//114
f 63//115 45//115 33//115
f 63//116 33//116 54//116
f 63//117 54//117 62//117
f 63//118 62//118 41//118
f 63//119 57//119 45//119
f 63//120 41//120 57//120
f 64//121 55//121 46//121
f 64//122 46//122 29//122
f 64//123 29//123 42//123
f 64//124 42//124 55//124
