# Blender 5.1.0
# www.blender.org
mtllib model_collision_20.mtl
o model_collision_20
v 0.031638 0.028055 0.051349
v 0.042912 0.033011 0.036610
v 0.038434 0.019797 0.014975
v 0.037244 0.007147 0.007517
v 0.029250 -0.011757 0.034177
v 0.042145 0.007688 0.007061
v 0.008652 -0.001441 0.050838
v 0.028995 0.027544 0.051848
v 0.038601 0.020663 0.043814
v 0.043337 0.020562 0.015800
v 0.039490 -0.013118 0.006252
v 0.009239 -0.014777 0.038140
v 0.026779 0.001487 0.046829
v 0.039300 0.031167 0.036304
v 0.009636 0.001225 0.052698
v 0.036674 0.022842 0.046739
v 0.037110 0.013606 0.040551
v 0.033280 -0.014584 0.009619
v 0.033740 0.014011 0.047355
v 0.024642 0.022303 0.053094
v 0.039708 0.027373 0.042239
v 0.038328 -0.013305 0.009274
v 0.010300 -0.016159 0.035732
v 0.034640 -0.006315 0.008805
v 0.029764 0.006430 0.047072
v 0.041879 0.031009 0.038507
vn -0.1355 0.5126 -0.8479
vn -0.1468 0.9661 0.2125
vn 0.0526 0.5575 -0.8285
vn -0.0471 0.8568 -0.5135
vn -0.0981 0.0512 -0.9939
vn 0.9546 -0.2100 0.2114
vn 0.9842 -0.1422 0.1052
vn 0.9902 -0.1285 0.0543
vn -0.8090 0.3863 -0.4431
vn -0.8024 0.3573 -0.4780
vn 0.2404 -0.6638 0.7082
vn 0.2630 -0.6403 0.7217
vn -0.4469 0.8902 -0.0888
vn -0.3836 0.8213 -0.4222
vn -0.6993 0.6422 -0.3139
vn 0.2637 -0.6155 0.7428
vn -0.7814 0.5243 -0.3384
vn 0.8447 -0.3611 0.3950
vn 0.8209 -0.3669 0.4376
vn 0.7421 -0.2019 0.6392
vn 0.5864 -0.1391 0.7980
vn 0.1668 0.0949 0.9814
vn -0.7657 0.5614 -0.3139
vn -0.7703 0.5543 -0.3152
vn 0.3874 -0.1980 0.9004
vn 0.3175 -0.2433 0.9165
vn 0.8326 -0.0073 0.5539
vn 0.7459 0.1459 0.6498
vn 0.8869 -0.3328 0.3203
vn 0.8842 -0.3366 0.3240
vn 0.8709 -0.3552 0.3396
vn 0.2476 -0.9682 0.0351
vn 0.2524 -0.9557 0.1514
vn -0.8008 0.2943 -0.5216
vn 0.2353 -0.9604 0.1492
vn 0.2309 -0.7964 0.5589
vn -0.4612 0.0043 -0.8873
vn -0.4752 -0.0085 -0.8799
vn -0.7542 0.0835 -0.6513
vn -0.7512 0.0588 -0.6575
vn 0.6774 -0.4381 0.5909
vn 0.7350 -0.4059 0.5431
vn 0.3257 -0.2417 0.9141
vn 0.3647 -0.2251 0.9035
vn 0.8772 -0.0323 0.4790
vn 0.9066 -0.0741 0.4155
vn 0.7358 0.2254 0.6386
vn 0.7391 0.2142 0.6387
s 0
f 6//1 4//1 3//1
f 8//2 1//2 2//2
f 10//3 6//3 3//3
f 10//4 3//4 2//4
f 11//5 4//5 6//5
f 11//6 2//6 9//6
f 11//7 10//7 2//7
f 11//8 6//8 10//8
f 12//9 7//9 3//9
f 12//10 3//10 4//10
f 12//11 5//11 7//11
f 13//12 7//12 5//12
f 14//13 8//13 2//13
f 14//14 2//14 3//14
f 14//15 3//15 8//15
f 15//16 7//16 13//16
f 15//17 3//17 7//17
f 17//18 9//18 5//18
f 19//19 5//19 9//19
f 19//20 9//20 16//20
f 19//21 16//21 1//21
f 20//22 1//22 8//22
f 20//23 8//23 3//23
f 20//24 3//24 15//24
f 20//25 19//25 1//25
f 20//26 15//26 13//26
f 21//27 16//27 9//27
f 21//28 1//28 16//28
f 22//29 11//29 9//29
f 22//30 9//30 17//30
f 22//31 17//31 5//31
f 22//32 18//32 11//32
f 22//33 5//33 18//33
f 23//34 12//34 4//34
f 23//35 18//35 5//35
f 23//36 5//36 12//36
f 24//37 4//37 11//37
f 24//38 11//38 18//38
f 24//39 23//39 4//39
f 24//40 18//40 23//40
f 25//41 13//41 5//41
f 25//42 5//42 19//42
f 25//43 20//43 13//43
f 25//44 19//44 20//44
f 26//45 21//45 9//45
f 26//46 9//46 2//46
f 26//47 2//47 1//47
f 26//48 1//48 21//48
