# Blender 5.1.0
# www.blender.org
mtllib model_collision_11.mtl
o model_collision_11
v 0.023109 -0.012697 0.042893
v 0.031440 -0.013104 0.028410
v -0.025197 -0.012104 0.042170
v -0.037505 -0.013592 0.019756
v -0.013825 -0.054457 0.018192
v 0.030475 -0.012490 0.031364
v 0.030523 -0.016591 0.027032
v 0.013363 -0.029535 0.037068
v -0.030779 -0.037638 0.024499
v -0.035302 -0.012530 0.030665
v -0.003689 -0.054323 0.019141
v 0.019601 -0.041859 0.027631
v -0.011594 -0.020563 0.041050
v -0.032476 -0.038321 0.018032
v -0.029761 -0.024513 0.033315
v -0.035892 -0.030514 0.018255
v 0.022469 -0.028544 0.032950
v 0.019288 -0.018181 0.042144
v 0.018449 -0.041323 0.029075
v 0.001525 -0.042420 0.027820
v -0.023920 -0.043827 0.024227
v 0.022056 -0.015527 0.042051
v -0.025611 -0.048560 0.018465
v -0.026830 -0.027672 0.033347
v -0.025039 -0.015168 0.040726
vn 0.0179 0.9801 -0.1977
vn 0.0119 0.9996 0.0255
vn 0.1148 0.3386 -0.9339
vn 0.0004 0.9953 -0.0970
vn -0.0002 0.9993 -0.0368
vn 0.1104 0.1066 -0.9882
vn 0.8630 -0.3648 0.3494
vn 0.8605 -0.3639 0.3566
vn 0.4310 -0.2071 -0.8783
vn -0.8238 -0.2707 0.4981
vn -0.7333 -0.1950 0.6513
vn 0.0917 0.0871 -0.9920
vn 0.0992 0.0973 -0.9903
vn 0.0533 0.0517 -0.9972
vn -0.9720 -0.1110 0.2071
vn -0.8787 -0.3923 0.2720
vn -0.8710 -0.2594 0.4173
vn 0.8114 -0.3591 0.4612
vn 0.7934 -0.3462 0.5007
vn 0.7326 -0.3827 0.5629
vn -0.0009 -0.4078 0.9131
vn -0.0164 -0.1240 0.9922
vn -0.0221 -0.1662 0.9858
vn 0.2547 -0.8224 0.5087
vn 0.2057 -0.4869 0.8489
vn 0.6276 -0.4189 0.6562
vn -0.0620 -0.5438 0.8369
vn -0.0241 -0.5682 0.8225
vn -0.0225 -0.5826 0.8125
vn -0.0860 -0.5532 0.8286
vn -0.0692 -0.5678 0.8203
vn -0.0870 -0.5531 0.8286
vn 0.6004 -0.4248 0.6776
vn 0.4077 -0.3963 0.8226
vn 0.4572 -0.4499 0.7672
vn -0.0662 -0.0863 -0.9941
vn -0.3258 -0.6815 0.6554
vn -0.5056 -0.5880 0.6314
vn -0.8056 -0.5288 0.2672
vn -0.4995 -0.4560 0.7366
vn -0.4231 -0.5020 0.7543
vn -0.1878 -0.5083 0.8405
vn -0.4588 -0.3981 0.7944
vn -0.4467 -0.4064 0.7971
vn -0.2109 -0.4742 0.8548
vn -0.1924 -0.4265 0.8838
s 0
f 6//1 2//1 4//1
f 6//2 3//2 1//2
f 7//3 4//3 2//3
f 10//4 6//4 4//4
f 10//5 3//5 6//5
f 11//6 4//6 7//6
f 12//7 7//7 2//7
f 12//8 2//8 6//8
f 12//9 11//9 7//9
f 15//10 10//10 9//10
f 15//11 3//11 10//11
f 16//12 11//12 5//12
f 16//13 4//13 11//13
f 16//14 5//14 14//14
f 16//15 10//15 4//15
f 16//16 14//16 9//16
f 16//17 9//17 10//17
f 17//18 12//18 6//18
f 17//19 6//19 1//19
f 17//20 1//20 12//20
f 18//21 13//21 8//21
f 18//22 1//22 3//22
f 18//23 3//23 13//23
f 19//24 11//24 12//24
f 19//25 18//25 8//25
f 19//26 12//26 1//26
f 20//27 8//27 13//27
f 20//28 19//28 8//28
f 20//29 11//29 19//29
f 20//30 13//30 5//30
f 20//31 5//31 11//31
f 21//32 5//32 13//32
f 22//33 19//33 1//33
f 22//34 1//34 18//34
f 22//35 18//35 19//35
f 23//36 14//36 5//36
f 23//37 5//37 21//37
f 23//38 21//38 9//38
f 23//39 9//39 14//39
f 24//40 15//40 9//40
f 24//41 9//41 21//41
f 24//42 21//42 13//42
f 25//43 3//43 15//43
f 25//44 15//44 24//44
f 25//45 24//45 13//45
f 25//46 13//46 3//46
