# Blender 5.1.0
# www.blender.org
mtllib model_collision_3.mtl
o model_collision_3
v -0.003585 -0.041197 -0.005430
v -0.004772 -0.079050 -0.003567
v -0.004302 -0.070252 -0.044608
v -0.043493 -0.013918 -0.043964
v -0.051208 -0.032025 -0.019864
v -0.004378 -0.044426 -0.044023
v -0.047818 -0.014630 -0.018983
v -0.055787 -0.082599 -0.040247
v -0.009787 -0.056087 -0.044584
v -0.047489 -0.013114 -0.019253
v -0.004789 -0.083085 -0.043932
v -0.052146 -0.082629 -0.020859
v -0.055698 -0.045096 -0.043169
v -0.004621 -0.061593 -0.044573
v -0.053895 -0.082379 -0.045303
v -0.056127 -0.040269 -0.028775
v -0.048171 -0.015099 -0.043108
v -0.049898 -0.027631 -0.044567
v -0.010361 -0.082849 -0.044119
v -0.055910 -0.069758 -0.045247
v -0.055658 -0.044639 -0.026763
v -0.051300 -0.019435 -0.025565
v -0.052044 -0.032428 -0.044335
v -0.055934 -0.078140 -0.043596
v -0.056045 -0.057502 -0.045116
v -0.055557 -0.082563 -0.026218
v -0.050790 -0.019825 -0.035476
v -0.050886 -0.024163 -0.042961
v -0.055409 -0.040780 -0.039665
vn 0.9995 -0.0311 0.0048
vn 0.9998 0.0034 -0.0208
vn 0.6130 0.7861 -0.0784
vn -0.3184 0.0140 0.9478
vn -0.2618 0.0556 0.9635
vn 0.0264 0.0358 -0.9990
vn -0.1698 0.2086 0.9631
vn 0.5251 0.8491 0.0573
vn 0.9993 -0.0378 0.0034
vn -0.3421 -0.0121 0.9396
vn 0.0388 -0.9943 0.0994
vn -0.0095 -1.0000 0.0002
vn 0.0357 0.0315 -0.9989
vn 0.4809 0.0213 -0.8765
vn -0.0130 -0.9987 -0.0483
vn 0.0129 0.0045 -0.9999
vn -0.2567 0.9637 -0.0728
vn 0.0231 0.0331 -0.9992
vn -0.2127 0.1418 -0.9668
vn 0.0266 -0.0516 -0.9983
vn 0.0312 -0.0538 -0.9981
vn 0.0246 -0.1952 -0.9805
vn 0.0117 0.0090 -0.9999
vn 0.0121 0.0064 -0.9999
vn -0.9057 0.0933 0.4136
vn -0.9189 0.1572 0.3618
vn -0.9161 0.1599 0.3678
vn -0.9193 0.2533 0.3012
vn -0.8474 0.5306 -0.0199
vn -0.4632 0.1652 -0.8707
vn -0.7726 -0.1206 -0.6233
vn -0.8922 -0.2896 -0.3464
vn 0.0110 0.0161 -0.9998
vn 0.0112 0.0108 -0.9999
vn -0.2652 0.0723 -0.9615
vn -0.6852 0.1316 -0.7164
vn -0.9986 0.0344 -0.0413
vn -1.0000 -0.0054 0.0007
vn -0.9977 -0.0103 -0.0667
vn -0.8436 0.0051 0.5370
vn -0.8448 0.0054 0.5350
vn -0.0243 -0.9997 0.0030
vn -0.9736 0.0007 0.2282
vn -0.9997 -0.0207 0.0164
vn -0.9998 -0.0124 0.0185
vn -0.9126 0.4041 -0.0629
vn -0.9704 0.2340 -0.0591
vn -0.8498 0.2002 -0.4876
vn -0.7364 0.2101 -0.6431
vn -0.9477 0.2814 -0.1508
vn -0.9897 0.1240 -0.0711
vn -0.9706 0.2289 -0.0748
vn -0.9556 0.2216 -0.1941
vn -0.9633 0.2374 -0.1251
s 0
f 1//1 2//1 3//1
f 6//2 1//2 3//2
f 6//3 4//3 1//3
f 7//4 5//4 2//4
f 7//5 2//5 1//5
f 9//6 4//6 6//6
f 10//7 7//7 1//7
f 10//8 1//8 4//8
f 11//9 3//9 2//9
f 12//10 2//10 5//10
f 12//11 11//11 2//11
f 12//12 8//12 11//12
f 14//13 9//13 6//13
f 14//14 6//14 3//14
f 15//15 11//15 8//15
f 15//16 14//16 3//16
f 17//17 10//17 4//17
f 18//18 4//18 9//18
f 18//19 17//19 4//19
f 19//20 15//20 3//20
f 19//21 3//21 11//21
f 19//22 11//22 15//22
f 20//23 9//23 14//23
f 20//24 14//24 15//24
f 21//25 5//25 16//25
f 22//26 16//26 5//26
f 22//27 5//27 7//27
f 22//28 7//28 10//28
f 22//29 10//29 17//29
f 23//30 17//30 18//30
f 24//31 20//31 15//31
f 24//32 15//32 8//32
f 25//33 18//33 9//33
f 25//34 9//34 20//34
f 25//35 23//35 18//35
f 25//36 13//36 23//36
f 25//37 16//37 13//37
f 25//38 24//38 16//38
f 25//39 20//39 24//39
f 26//40 12//40 5//40
f 26//41 5//41 21//41
f 26//42 8//42 12//42
f 26//43 21//43 16//43
f 26//44 24//44 8//44
f 26//45 16//45 24//45
f 27//46 22//46 17//46
f 27//47 16//47 22//47
f 28//48 23//48 13//48
f 28//49 17//49 23//49
f 28//50 27//50 17//50
f 29//51 13//51 16//51
f 29//52 16//52 27//52
f 29//53 28//53 13//53
f 29//54 27//54 28//54
