# Blender 5.1.0
# www.blender.org
mtllib model_collision_21.mtl
o model_collision_21
v 0.024051 0.000362 0.048281
v 0.030878 -0.001512 0.037990
v 0.028002 0.000574 0.044437
v -0.037694 0.008154 0.036888
v -0.028221 -0.012243 0.041199
v -0.032628 0.008737 0.048948
v 0.023109 -0.012697 0.042893
v 0.027741 -0.012682 0.035708
v -0.035576 0.008995 0.044135
v -0.020069 0.005460 0.052905
v -0.032655 -0.011518 0.037345
v 0.016869 -0.013345 0.045324
v 0.025821 -0.012600 0.039729
v -0.029980 0.002065 0.047195
v -0.031244 -0.011842 0.039000
v -0.035530 0.000299 0.035825
v -0.012657 -0.009644 0.045904
v -0.019677 -0.006598 0.046855
vn 0.1391 0.9587 -0.2482
vn 0.1455 0.9683 0.2029
vn 0.6686 -0.3244 0.6692
vn 0.0424 0.1886 -0.9811
vn 0.1314 0.9910 -0.0273
vn 0.1305 0.9797 -0.1519
vn 0.1420 0.9353 0.3240
vn -0.9265 -0.2304 0.2975
vn -0.8253 -0.2799 0.4904
vn -0.0164 -0.9961 -0.0872
vn 0.3700 -0.3771 0.8491
vn 0.0728 -0.2466 0.9664
vn 0.8513 -0.3234 0.4131
vn 0.8292 -0.3047 0.4685
vn 0.7200 -0.3361 0.6071
vn 0.1351 -0.9872 0.0847
vn 0.1363 -0.9869 0.0867
vn -0.3656 -0.3696 0.8543
vn -0.4561 -0.3911 0.7994
vn -0.3517 -0.3983 0.8472
vn -0.0237 -0.9847 -0.1729
vn -0.0224 -0.9885 -0.1495
vn -0.5754 -0.3870 0.7205
vn -0.7498 -0.3282 0.5746
vn -0.9615 -0.2490 -0.1167
vn 0.0272 0.1414 -0.9896
vn -0.0294 -0.1346 -0.9905
vn -0.0369 -0.4351 0.8996
vn -0.0793 -0.7380 0.6701
vn -0.0743 -0.4492 0.8904
vn -0.2767 -0.4381 0.8553
vn -0.1445 -0.5826 0.7998
s 0
f 3//1 2//1 4//1
f 6//2 1//2 3//2
f 7//3 3//3 1//3
f 8//4 4//4 2//4
f 9//5 6//5 3//5
f 9//6 3//6 4//6
f 10//7 1//7 6//7
f 11//8 9//8 4//8
f 11//9 6//9 9//9
f 12//10 5//10 8//10
f 12//11 7//11 1//11
f 12//12 1//12 10//12
f 13//13 8//13 2//13
f 13//14 2//14 3//14
f 13//15 3//15 7//15
f 13//16 12//16 8//16
f 13//17 7//17 12//17
f 14//18 10//18 6//18
f 14//19 6//19 5//19
f 14//20 5//20 10//20
f 15//21 11//21 8//21
f 15//22 8//22 5//22
f 15//23 5//23 6//23
f 15//24 6//24 11//24
f 16//25 11//25 4//25
f 16//26 4//26 8//26
f 16//27 8//27 11//27
f 17//28 12//28 10//28
f 17//29 5//29 12//29
f 18//30 17//30 10//30
f 18//31 10//31 5//31
f 18//32 5//32 17//32
