# Blender 5.1.0
# www.blender.org
mtllib model_collision_8.mtl
o model_collision_8
v 0.044018 0.059438 0.002681
v 0.037621 -0.025797 0.005117
v 0.039336 -0.028095 -0.017858
v 0.029844 0.059766 -0.012493
v 0.034627 -0.013979 0.015932
v 0.040538 0.060306 -0.013912
v 0.038167 -0.018413 0.008413
v 0.039511 0.059049 0.001816
v 0.032758 -0.026261 0.014997
v 0.034854 -0.013926 -0.019269
v 0.038328 -0.013305 0.009274
v 0.033769 -0.024937 0.013983
v 0.037277 -0.025159 -0.019598
v 0.031617 0.024831 -0.015881
vn 0.9787 -0.0041 -0.2054
vn -0.0423 0.9972 0.0610
vn 0.9902 -0.1112 0.0850
vn 0.9951 -0.0696 0.0699
vn -0.2012 0.1989 0.9591
vn -0.1089 0.9864 0.1230
vn -0.8138 0.1623 0.5580
vn 0.3299 -0.9366 0.1183
vn -0.8999 0.1048 0.4233
vn 0.9823 -0.0608 0.1772
vn 0.8749 -0.0246 0.4838
vn 0.8736 -0.1075 0.4747
vn 0.8555 -0.1548 0.4941
vn 0.7979 -0.1655 0.5795
vn 0.8497 -0.3410 0.4022
vn 0.8800 -0.2464 0.4061
vn 0.1450 0.0602 -0.9876
vn 0.6651 0.0243 -0.7463
vn -0.7775 -0.6171 -0.1212
vn -0.9696 -0.2052 -0.1332
vn -0.1354 0.0888 -0.9868
vn -0.0946 0.0789 -0.9924
vn -0.9933 -0.0753 -0.0879
vn -0.9981 -0.0467 -0.0405
s 0
f 6//1 1//1 3//1
f 6//2 4//2 1//2
f 7//3 2//3 3//3
f 7//4 3//4 1//4
f 8//5 5//5 1//5
f 8//6 1//6 4//6
f 8//7 4//7 5//7
f 9//8 3//8 2//8
f 9//9 5//9 4//9
f 11//10 7//10 1//10
f 11//11 1//11 5//11
f 11//12 5//12 7//12
f 12//13 7//13 5//13
f 12//14 5//14 9//14
f 12//15 9//15 2//15
f 12//16 2//16 7//16
f 13//17 10//17 6//17
f 13//18 6//18 3//18
f 13//19 3//19 9//19
f 13//20 9//20 10//20
f 14//21 4//21 6//21
f 14//22 6//22 10//22
f 14//23 10//23 9//23
f 14//24 9//24 4//24
