# Blender 5.1.0
# www.blender.org
mtllib model_collision_0.mtl
o model_collision_0
v -0.008022 0.114185 -0.000363
v 0.003990 -0.014394 -0.012006
v 0.004211 0.125220 -0.033021
v -0.025505 0.104214 -0.045201
v -0.038894 0.059412 -0.001471
v 0.003339 -0.014444 -0.041037
v -0.022595 0.113075 -0.021479
v 0.003872 0.094555 -0.004723
v 0.004124 0.081148 -0.044069
v -0.039630 0.024248 -0.043468
v -0.016570 0.114590 -0.001630
v -0.021711 0.111772 -0.043162
v -0.029658 0.101008 -0.037326
v 0.004072 0.123580 -0.019430
v -0.037806 0.024779 -0.045124
v -0.021789 -0.013979 -0.010201
v -0.029784 0.096001 -0.001877
v -0.013437 0.114110 -0.044501
v -0.040594 0.045793 -0.026300
v -0.029670 0.092667 -0.045260
v -0.025085 0.108238 -0.039394
v -0.021389 -0.013708 -0.041928
v -0.042660 0.024845 -0.027238
v -0.025496 0.103920 -0.001941
v -0.033942 0.084207 -0.002072
v -0.025666 0.108655 -0.021905
v -0.019587 0.112591 -0.044308
v -0.034263 0.084078 -0.035703
v -0.034114 0.063213 -0.045225
v -0.037700 0.034363 -0.006958
v -0.022248 0.108483 -0.001967
v -0.029291 0.100462 -0.021609
v -0.034782 0.079687 -0.037254
vn 0.1061 -0.0798 0.9911
vn 0.2481 -0.0643 0.9666
vn 1.0000 -0.0017 -0.0010
vn 0.9997 -0.0089 -0.0224
vn -0.3943 0.9176 0.0497
vn -0.4371 0.8966 -0.0717
vn 0.9999 0.0002 0.0139
vn 0.9999 -0.0000 0.0102
vn 0.7288 0.3055 0.6128
vn -0.0211 0.9020 0.4311
vn -0.3152 0.9426 0.1105
vn 0.0684 -0.0322 -0.9971
vn 0.0334 -0.0061 -0.9994
vn -0.0159 -0.9999 0.0021
vn 0.0678 -0.1023 0.9924
vn -0.0990 0.0357 0.9944
vn 0.0478 0.0124 -0.9988
vn 0.4317 0.2185 -0.8751
vn -0.8854 0.3211 -0.3362
vn 0.0295 -0.0055 -0.9996
vn -0.8257 0.4899 -0.2798
vn -0.8480 0.4623 -0.2590
vn -0.7577 0.6488 -0.0699
vn 0.0339 -0.0683 -0.9971
vn -0.5871 -0.3124 -0.7468
vn -0.0294 -0.9995 -0.0089
vn -0.8779 -0.4786 -0.0152
vn -0.8887 -0.4332 -0.1500
vn -0.9769 0.1047 -0.1862
vn -0.9951 0.0975 0.0146
vn -0.1374 0.0823 0.9871
vn -0.1418 0.0899 0.9858
vn -0.2568 0.0746 0.9636
vn -0.8497 0.5258 -0.0408
vn -0.8187 0.5727 -0.0409
vn -0.8195 0.5560 0.1388
vn -0.8726 0.4735 0.1197
vn -0.0690 0.1538 -0.9857
vn -0.5526 0.4642 -0.6922
vn -0.4166 0.9000 -0.1286
vn -0.2248 0.8498 -0.4769
vn -0.9872 0.1585 -0.0194
vn -0.9416 0.2328 -0.2433
vn -0.9647 0.2632 0.0082
vn -0.9806 0.1960 0.0086
vn 0.0266 -0.0052 -0.9996
vn -0.6810 0.0635 -0.7296
vn -0.8781 -0.3133 0.3618
vn -0.4644 -0.2106 0.8602
vn -0.9529 -0.1075 0.2835
vn -0.2649 0.1941 0.9446
vn -0.7264 0.6660 0.1697
vn -0.8051 0.5740 0.1494
vn -0.9421 0.3313 0.0514
vn -0.9497 0.3114 0.0330
vn -0.9134 0.4054 0.0354
vn -0.9114 0.4057 0.0690
vn -0.9763 0.1065 -0.1884
vn -0.9865 0.1440 -0.0779
vn -0.9389 0.1183 -0.3232
vn -0.9413 0.2057 -0.2676
vn -0.9212 0.1386 -0.3635
s 0
f 5//1 2//1 1//1
f 8//2 1//2 2//2
f 9//3 3//3 2//3
f 9//4 2//4 6//4
f 11//5 3//5 7//5
f 12//6 7//6 3//6
f 14//7 8//7 2//7
f 14//8 2//8 3//8
f 14//9 1//9 8//9
f 14//10 11//10 1//10
f 14//11 3//11 11//11
f 15//12 9//12 6//12
f 15//13 4//13 9//13
f 16//14 6//14 2//14
f 16//15 2//15 5//15
f 17//16 5//16 1//16
f 18//17 9//17 4//17
f 18//18 3//18 9//18
f 20//19 13//19 4//19
f 20//20 4//20 15//20
f 21//21 12//21 4//21
f 21//22 4//22 13//22
f 21//23 7//23 12//23
f 22//24 15//24 6//24
f 22//25 10//25 15//25
f 22//26 6//26 16//26
f 23//27 22//27 16//27
f 23//28 10//28 22//28
f 23//29 19//29 10//29
f 23//30 5//30 19//30
f 24//31 17//31 1//31
f 24//32 1//32 11//32
f 25//33 5//33 17//33
f 26//34 21//34 13//34
f 26//35 7//35 21//35
f 26//36 24//36 7//36
f 26//37 17//37 24//37
f 27//38 18//38 4//38
f 27//39 4//39 12//39
f 27//40 12//40 3//40
f 27//41 3//41 18//41
f 28//42 19//42 5//42
f 28//43 13//43 20//43
f 28//44 25//44 13//44
f 28//45 5//45 25//45
f 29//46 20//46 15//46
f 29//47 15//47 10//47
f 30//48 23//48 16//48
f 30//49 16//49 5//49
f 30//50 5//50 23//50
f 31//51 24//51 11//51
f 31//52 11//52 7//52
f 31//53 7//53 24//53
f 32//54 25//54 17//54
f 32//55 13//55 25//55
f 32//56 26//56 13//56
f 32//57 17//57 26//57
f 33//58 10//58 19//58
f 33//59 19//59 28//59
f 33//60 29//60 10//60
f 33//61 28//61 20//61
f 33//62 20//62 29//62
