# Blender 5.1.0
# www.blender.org
mtllib model_collision_7.mtl
o model_collision_7
v 0.015773 -0.081785 0.011790
v 0.042643 -0.104409 -0.024273
v 0.040895 -0.082894 -0.042914
v -0.053895 -0.082379 -0.045303
v -0.039778 -0.116575 -0.010697
v -0.039771 -0.116789 -0.040039
v -0.023364 -0.080136 0.007915
v 0.039564 -0.082739 -0.012045
v 0.020778 -0.117081 -0.002261
v 0.036726 -0.116243 -0.036963
v -0.050798 -0.095173 -0.044358
v -0.044613 -0.082156 -0.044959
v -0.056634 -0.082596 -0.028723
v 0.043441 -0.083183 -0.025747
v 0.043021 -0.082709 -0.039379
v -0.020965 -0.093880 0.006380
v 0.031377 -0.115071 -0.005702
v 0.008477 -0.117415 -0.001872
v 0.037094 -0.107711 -0.039713
v -0.051169 -0.111789 -0.026783
v -0.056153 -0.082512 -0.035594
v -0.047285 -0.103837 -0.014083
v 0.042313 -0.090871 -0.038618
v -0.030205 -0.092556 0.003238
v 0.005261 -0.082012 0.011708
v 0.035034 -0.083201 -0.004728
v 0.022360 -0.107714 0.002173
v 0.038011 -0.103895 -0.011965
v 0.039282 -0.116670 -0.020490
v -0.048483 -0.116855 -0.022110
v -0.032333 -0.116982 -0.006802
v -0.046965 -0.114956 -0.040281
v -0.056178 -0.086872 -0.028763
v -0.051447 -0.102909 -0.041614
v 0.042492 -0.104028 -0.026864
v 0.039204 -0.103240 -0.039686
v -0.024631 -0.090701 0.006449
v -0.047460 -0.082933 -0.014070
v 0.008948 -0.095805 0.008401
v 0.029075 -0.102245 -0.000335
v 0.033726 -0.116552 -0.008993
v -0.042923 -0.116272 -0.013412
v -0.050989 -0.112049 -0.024885
v -0.052954 -0.090614 -0.044300
v -0.055570 -0.086634 -0.035543
v 0.038115 -0.116105 -0.034758
v -0.031384 -0.086269 0.003441
v 0.015390 -0.083475 0.011378
v 0.026720 -0.083336 0.003176
v 0.033943 -0.104227 -0.005469
v -0.046959 -0.111688 -0.016662
v 0.038410 -0.111589 -0.037163
v 0.027618 -0.091098 0.001917
vn 0.0248 -0.0677 -0.9974
vn 0.0254 0.3750 -0.9267
vn -0.0230 0.9993 -0.0289
vn 0.9619 -0.0173 0.2727
vn 0.0417 0.9991 0.0042
vn 0.0471 0.9989 0.0071
vn 0.0090 0.9991 -0.0418
vn 0.0100 0.9982 -0.0585
vn 0.2095 0.9774 0.0276
vn 0.9987 -0.0398 -0.0322
vn 0.0404 -0.3081 -0.9505
vn 0.0334 -0.1329 -0.9906
vn 0.0258 -0.1832 -0.9827
vn -0.0809 0.9967 0.0066
vn -0.0691 0.9976 -0.0024
vn 0.8534 -0.1214 -0.5069
vn -0.6400 -0.1785 0.7474
vn -0.0222 0.8193 0.5729
vn 0.2563 0.9417 0.2181
vn 0.3518 -0.4484 0.8217
vn 0.0403 -0.4331 0.9005
vn 0.9329 -0.0672 0.3539
vn 0.8504 -0.0605 0.5227
vn 0.9241 -0.1441 0.3538
vn 0.0273 -0.9996 0.0052
vn 0.0081 -0.9996 -0.0266
vn 0.0082 -0.9996 -0.0272
vn -0.0073 -0.9999 -0.0072
vn -0.1118 -0.4504 0.8858
vn -0.0110 -0.9999 0.0034
vn -0.1111 -0.9878 0.1090
vn -0.4545 -0.3045 0.8371
vn -0.0194 -0.2054 -0.9785
vn -0.8233 -0.5533 -0.1266
vn -0.2413 -0.9629 -0.1208
vn -0.9919 -0.1051 -0.0707
vn -0.8979 -0.0998 0.4287
vn -0.9111 -0.3610 -0.1991
vn -0.4551 -0.2634 -0.8506
vn 0.9875 -0.0973 -0.1239
vn 0.9956 -0.0643 -0.0675
vn 0.5851 -0.2716 -0.7641
vn 0.3838 -0.1757 -0.9066
vn 0.8143 -0.1564 -0.5589
vn -0.1381 -0.1199 0.9831
vn -0.1243 -0.1646 0.9785
vn -0.2953 -0.3598 0.8851
vn -0.3905 -0.3207 0.8629
vn -0.2978 0.9317 0.2078
vn -0.8476 -0.0074 0.5305
vn -0.0814 -0.2529 0.9641
vn -0.0883 -0.4261 0.9004
vn 0.0374 -0.4297 0.9022
vn -0.0026 -0.2337 0.9723
vn 0.5119 -0.2518 0.8213
vn 0.4790 -0.1957 0.8557
vn 0.8817 -0.1979 0.4282
vn 0.3284 -0.7512 0.5726
vn 0.0615 -0.9973 0.0400
vn -0.3141 -0.9125 0.2620
vn -0.6520 -0.1891 0.7342
vn -0.9792 -0.1915 0.0668
vn -0.8918 -0.4518 0.0228
vn -0.9058 -0.1243 0.4051
vn -0.9643 -0.1377 -0.2262
vn -0.3471 -0.1524 -0.9253
vn -0.5342 -0.2424 -0.8099
vn -0.9857 -0.1406 -0.0933
vn -0.9631 -0.1645 -0.2129
vn -0.9644 -0.1392 -0.2248
vn -0.9726 -0.2070 -0.1057
vn -0.9745 -0.2034 -0.0945
vn 0.1834 -0.9816 -0.0539
vn 0.9533 -0.1940 -0.2317
vn 0.9544 -0.2823 -0.0972
vn 0.9532 -0.2888 -0.0894
vn -0.4442 -0.0706 0.8931
vn -0.4667 -0.1159 0.8768
vn -0.6504 0.3643 0.6665
vn -0.7373 -0.0066 0.6756
vn -0.6549 -0.1468 0.7414
vn 0.1600 -0.3099 0.9372
vn 0.2458 -0.2816 0.9275
vn 0.0070 -0.2381 0.9712
vn 0.5440 0.6039 0.5826
vn 0.8474 -0.0625 0.5273
vn 0.7123 -0.0616 0.6992
vn 0.6794 -0.1761 0.7123
vn 0.8400 -0.1628 0.5176
vn 0.7557 -0.1923 0.6260
vn -0.7563 -0.2323 0.6116
vn -0.7879 -0.3214 0.5252
vn -0.8756 -0.2037 0.4380
vn -0.8800 -0.1808 0.4392
vn 0.8118 -0.3148 -0.4918
vn 0.6708 -0.2723 -0.6898
vn 0.9097 -0.1970 -0.3654
vn 0.9475 -0.1962 -0.2525
vn 0.6972 -0.0532 0.7149
vn 0.6888 -0.0378 0.7240
vn 0.6124 -0.0571 0.7885
vn 0.5990 -0.0825 0.7965
s 0
f 11//1 4//1 3//1
f 12//2 3//2 4//2
f 12//3 4//3 7//3
f 14//4 8//4 2//4
f 15//5 7//5 1//5
f 15//6 1//6 8//6
f 15//7 12//7 7//7
f 15//8 3//8 12//8
f 15//9 8//9 14//9
f 15//10 14//10 2//10
f 19//11 10//11 6//11
f 19//12 11//12 3//12
f 19//13 6//13 11//13
f 21//14 13//14 7//14
f 21//15 7//15 4//15
f 23//16 3//16 15//16
f 24//17 22//17 5//17
f 25//18 1//18 7//18
f 26//19 8//19 1//19
f 27//20 9//20 17//20
f 27//21 18//21 9//21
f 28//22 2//22 8//22
f 28//23 8//23 26//23
f 29//24 2//24 28//24
f 29//25 9//25 18//25
f 29//26 18//26 6//26
f 29//27 6//27 10//27
f 30//28 6//28 18//28
f 31//29 18//29 16//29
f 31//30 30//30 18//30
f 31//31 5//31 30//31
f 31//32 24//32 5//32
f 32//33 11//33 6//33
f 32//34 30//34 20//34
f 32//35 6//35 30//35
f 33//36 13//36 21//36
f 33//37 22//37 13//37
f 34//38 32//38 20//38
f 34//39 11//39 32//39
f 35//40 23//40 15//40
f 35//41 15//41 2//41
f 36//42 10//42 19//42
f 36//43 19//43 3//43
f 36//44 3//44 23//44
f 37//45 25//45 7//45
f 37//46 16//46 25//46
f 37//47 31//47 16//47
f 37//48 24//48 31//48
f 38//49 7//49 13//49
f 38//50 13//50 22//50
f 39//51 25//51 16//51
f 39//52 16//52 18//52
f 39//53 18//53 27//53
f 39//54 1//54 25//54
f 40//55 27//55 17//55
f 40//56 1//56 27//56
f 41//57 29//57 28//57
f 41//58 17//58 9//58
f 41//59 9//59 29//59
f 42//60 30//60 5//60
f 42//61 5//61 22//61
f 43//62 33//62 20//62
f 43//63 20//63 30//63
f 43//64 22//64 33//64
f 44//65 21//65 4//65
f 44//66 4//66 11//66
f 44//67 11//67 34//67
f 45//68 33//68 21//68
f 45//69 44//69 34//69
f 45//70 21//70 44//70
f 45//71 34//71 20//71
f 45//72 20//72 33//72
f 46//73 29//73 10//73
f 46//74 23//74 35//74
f 46//75 35//75 2//75
f 46//76 2//76 29//76
f 47//77 37//77 7//77
f 47//78 24//78 37//78
f 47//79 7//79 38//79
f 47//80 38//80 22//80
f 47//81 22//81 24//81
f 48//82 39//82 27//82
f 48//83 27//83 1//83
f 48//84 1//84 39//84
f 49//85 26//85 1//85
f 50//86 28//86 26//86
f 50//87 26//87 40//87
f 50//88 40//88 17//88
f 50//89 41//89 28//89
f 50//90 17//90 41//90
f 51//91 42//91 22//91
f 51//92 30//92 42//92
f 51//93 43//93 30//93
f 51//94 22//94 43//94
f 52//95 46//95 10//95
f 52//96 10//96 36//96
f 52//97 36//97 23//97
f 52//98 23//98 46//98
f 53//99 40//99 26//99
f 53//100 26//100 49//100
f 53//101 49//101 1//101
f 53//102 1//102 40//102
