# Blender 5.1.0
# www.blender.org
mtllib model_collision_14.mtl
o model_collision_14
v 0.044193 0.072283 -0.005930
v 0.042377 0.059361 -0.005644
v 0.040577 0.072972 -0.045836
v 0.021313 0.072322 -0.044043
v 0.003904 0.072860 -0.008474
v 0.022313 0.059952 -0.043731
v 0.038095 0.060902 -0.045326
v 0.003741 0.060031 -0.010288
v 0.027730 0.060376 -0.044613
v 0.004827 0.058388 -0.010595
v 0.026135 0.072330 -0.044754
vn 0.9858 -0.1406 -0.0917
vn -0.0626 0.0308 0.9976
vn 0.0133 0.9998 0.0161
vn -0.0368 0.9988 -0.0331
vn 0.9723 -0.2047 -0.1128
vn 0.0555 -0.9975 -0.0447
vn -0.8953 0.0734 -0.4393
vn -0.8713 -0.0826 -0.4837
vn -0.1206 -0.1375 0.9831
vn 0.0294 -0.9593 -0.2807
vn -0.1576 -0.0376 -0.9868
vn -0.0672 -0.0283 -0.9973
vn -0.7864 -0.4379 -0.4357
vn 0.0300 -0.9991 -0.0313
vn -0.1197 -0.2579 0.9587
vn -0.1458 -0.0312 -0.9888
vn -0.0762 0.8584 -0.5072
vn -0.0737 -0.0216 -0.9970
s 0
f 1//1 2//1 3//1
f 5//2 2//2 1//2
f 5//3 1//3 3//3
f 5//4 3//4 4//4
f 7//5 3//5 2//5
f 7//6 2//6 6//6
f 8//7 5//7 4//7
f 8//8 4//8 6//8
f 8//9 2//9 5//9
f 9//10 7//10 6//10
f 9//11 6//11 4//11
f 9//12 3//12 7//12
f 10//13 8//13 6//13
f 10//14 6//14 2//14
f 10//15 2//15 8//15
f 11//16 9//16 4//16
f 11//17 4//17 3//17
f 11//18 3//18 9//18
