# Blender 5.1.0
# www.blender.org
mtllib model_collision_1.mtl
o model_collision_1
v 0.034918 0.113068 -0.020927
v 0.042213 0.064801 -0.022226
v 0.039058 0.100635 -0.045332
v -0.013437 0.114110 -0.044501
v 0.004827 0.058388 -0.010595
v 0.004929 0.058496 -0.042827
v 0.016021 0.123687 -0.034576
v 0.042562 0.097100 -0.021952
v 0.040577 0.072972 -0.045836
v -0.013311 0.081020 -0.044140
v 0.040340 0.057066 -0.033639
v 0.031380 0.115084 -0.040359
v -0.020634 0.114481 -0.020402
v 0.037854 0.108178 -0.038971
v 0.030527 0.058638 -0.012700
v 0.041941 0.073355 -0.043400
v -0.014100 0.090440 -0.044787
v 0.022313 0.059952 -0.043731
v 0.027004 0.120053 -0.020923
v 0.035389 0.108302 -0.043953
v 0.007942 0.121430 -0.039352
v 0.041989 0.097144 -0.039496
v 0.037944 0.108836 -0.021352
v 0.034745 0.111540 -0.041249
v 0.042153 0.064806 -0.031318
v 0.042132 0.093087 -0.042979
v -0.019871 0.113469 -0.043113
v 0.027351 0.118897 -0.037524
v -0.007376 0.123942 -0.021299
v 0.042009 0.069255 -0.039373
v -0.003666 0.123413 -0.037795
v 0.019988 0.123384 -0.027314
v 0.008020 0.123655 -0.037111
v 0.019731 0.123195 -0.020787
v -0.010810 0.123594 -0.023666
v -0.011523 0.119656 -0.041157
v -0.019028 0.117044 -0.021384
v -0.007394 0.123306 -0.035372
v -0.014225 0.119155 -0.039434
v -0.014945 0.120424 -0.021370
v -0.018473 0.115210 -0.042263
vn -0.0113 0.0176 -0.9998
vn -0.7770 -0.6295 -0.0046
vn -0.0454 -0.0948 -0.9945
vn -0.0394 -0.9992 -0.0035
vn -0.8992 -0.3664 0.2390
vn 0.6361 -0.0134 0.7715
vn 0.6452 -0.6774 0.3533
vn 0.0165 -0.9965 0.0825
vn 0.8437 -0.3345 -0.4198
vn -0.0152 0.0125 -0.9998
vn -0.0421 -0.0720 -0.9965
vn 0.0585 -0.9273 -0.3696
vn -0.0434 -0.0998 -0.9941
vn 0.3261 -0.5783 -0.7478
vn 0.1229 0.1386 0.9827
vn 0.0795 0.1368 0.9874
vn 0.0339 0.1925 -0.9807
vn 0.8031 0.4538 -0.3861
vn 0.0629 0.4447 -0.8935
vn 0.1021 0.5123 -0.8528
vn 0.9355 0.3520 -0.0297
vn 0.9042 0.3504 -0.2444
vn 0.8120 0.5831 -0.0259
vn 0.9301 0.3670 -0.0184
vn 0.3796 0.1024 0.9195
vn 0.2993 0.1190 0.9467
vn 0.7167 0.6950 -0.0584
vn 0.7516 0.6573 -0.0558
vn 0.4842 0.6157 -0.6217
vn 0.7930 0.4757 -0.3806
vn 0.9999 -0.0108 -0.0067
vn 0.9741 -0.2261 -0.0066
vn 0.8724 0.0020 -0.4887
vn 0.6826 0.0508 -0.7290
vn 0.9144 0.2818 -0.2906
vn 0.9975 0.0632 -0.0324
vn 0.9998 -0.0072 -0.0191
vn -0.2126 0.0177 -0.9770
vn -0.6429 -0.1060 -0.7586
vn -0.9800 -0.1974 -0.0241
vn 0.1566 0.6906 -0.7061
vn 0.6612 0.7492 -0.0383
vn 0.6698 0.7412 -0.0450
vn -0.0426 0.1533 0.9873
vn 0.9738 -0.1912 -0.1229
vn 0.9255 -0.2575 -0.2779
vn 0.9997 -0.0086 -0.0225
vn 0.9996 -0.0091 -0.0262
vn 0.3508 0.9239 -0.1530
vn 0.4663 0.8831 -0.0517
vn 0.0264 0.9993 0.0274
vn 0.1569 0.6982 -0.6985
vn 0.1820 0.7905 -0.5848
vn 0.0266 0.7091 -0.7046
vn -0.0185 0.9992 -0.0362
vn 0.0013 0.9999 -0.0169
vn -0.0143 0.1586 0.9872
vn 0.0778 0.1374 0.9875
vn 0.0270 0.9992 0.0299
vn 0.3969 0.9169 0.0421
vn 0.0104 0.6545 -0.7560
vn 0.0335 0.5076 -0.8609
vn -0.2277 0.5593 -0.7971
vn -0.8550 0.5161 -0.0517
vn -0.0699 0.9965 -0.0449
vn -0.0580 0.9973 -0.0450
vn -0.2668 0.8895 -0.3709
vn -0.3568 0.8837 -0.3029
vn -0.4458 0.8822 -0.1518
vn -0.4614 0.5545 0.6926
vn -0.1448 0.2926 0.9452
vn -0.3827 0.8147 0.4357
vn -0.6355 0.7680 -0.0793
vn -0.6339 0.7694 -0.0793
vn -0.4304 0.7841 -0.4472
vn -0.2455 0.5775 -0.7786
vn -0.7586 0.6470 -0.0770
vn -0.6476 0.7573 -0.0837
s 0
f 9//1 4//1 3//1
f 10//2 6//2 5//2
f 10//3 9//3 6//3
f 11//4 5//4 6//4
f 13//5 10//5 5//5
f 15//6 2//6 8//6
f 15//7 11//7 2//7
f 15//8 5//8 11//8
f 16//9 11//9 9//9
f 17//10 4//10 9//10
f 17//11 9//11 10//11
f 18//12 11//12 6//12
f 18//13 6//13 9//13
f 18//14 9//14 11//14
f 19//15 15//15 1//15
f 19//16 5//16 15//16
f 20//17 3//17 4//17
f 20//18 14//18 3//18
f 21//19 20//19 4//19
f 21//20 12//20 20//20
f 22//21 14//21 8//21
f 22//22 3//22 14//22
f 23//23 14//23 1//23
f 23//24 8//24 14//24
f 23//25 15//25 8//25
f 23//26 1//26 15//26
f 24//27 12//27 1//27
f 24//28 1//28 14//28
f 24//29 20//29 12//29
f 24//30 14//30 20//30
f 25//31 8//31 2//31
f 25//32 2//32 11//32
f 26//33 16//33 9//33
f 26//34 9//34 3//34
f 26//35 3//35 22//35
f 26//36 22//36 8//36
f 26//37 8//37 25//37
f 27//38 4//38 17//38
f 27//39 17//39 10//39
f 27//40 10//40 13//40
f 28//41 12//41 21//41
f 28//42 19//42 1//42
f 28//43 1//43 12//43
f 29//44 13//44 5//44
f 30//45 25//45 11//45
f 30//46 11//46 16//46
f 30//47 26//47 25//47
f 30//48 16//48 26//48
f 32//49 28//49 7//49
f 32//50 19//50 28//50
f 32//51 7//51 29//51
f 33//52 28//52 21//52
f 33//53 7//53 28//53
f 33//54 21//54 31//54
f 33//55 31//55 29//55
f 33//56 29//56 7//56
f 34//57 29//57 5//57
f 34//58 5//58 19//58
f 34//59 32//59 29//59
f 34//60 19//60 32//60
f 36//61 31//61 21//61
f 36//62 21//62 4//62
f 36//63 4//63 27//63
f 37//64 27//64 13//64
f 38//65 35//65 29//65
f 38//66 29//66 31//66
f 38//67 31//67 36//67
f 39//68 38//68 36//68
f 39//69 35//69 38//69
f 40//70 37//70 13//70
f 40//71 13//71 29//71
f 40//72 29//72 35//72
f 40//73 39//73 37//73
f 40//74 35//74 39//74
f 41//75 39//75 36//75
f 41//76 36//76 27//76
f 41//77 27//77 37//77
f 41//78 37//78 39//78
