# Blender 5.1.0
# www.blender.org
mtllib model_collision_25.mtl
o model_collision_25
v -0.003777 -0.024777 -0.009109
v 0.043441 -0.083183 -0.025747
v 0.037277 -0.025159 -0.019598
v -0.004493 -0.026987 -0.043222
v -0.004789 -0.083085 -0.043932
v 0.034404 -0.045701 -0.045017
v -0.004772 -0.079050 -0.003567
v 0.042280 -0.062325 -0.038811
v 0.031634 -0.027899 -0.041812
v 0.016866 -0.040608 -0.044578
v 0.041614 -0.082846 -0.019101
v 0.040811 -0.043768 -0.017975
v 0.040895 -0.082894 -0.042914
v 0.025774 -0.036756 -0.044448
v 0.038163 -0.049848 -0.041922
v 0.042497 -0.061880 -0.022736
v 0.042135 -0.053874 -0.034257
v 0.043021 -0.082709 -0.039379
v 0.039753 -0.078306 -0.044106
v 0.031990 -0.036748 -0.043775
v 0.042496 -0.053894 -0.028867
v 0.036715 -0.027484 -0.031190
v 0.039027 -0.061923 -0.044472
v 0.033878 -0.028350 -0.038075
vn -0.0072 0.9979 -0.0645
vn -0.9996 0.0203 0.0197
vn -1.0000 0.0053 -0.0001
vn 0.0301 0.9911 -0.1299
vn -0.0256 -0.0021 -0.9997
vn -0.0551 0.0129 -0.9984
vn -0.0481 -0.9939 0.0994
vn -0.0191 -0.9988 0.0454
vn 0.2466 0.1306 0.9603
vn 0.2327 0.0946 0.9679
vn 0.3160 -0.0209 0.9485
vn 0.0046 -0.9998 -0.0175
vn 0.0442 0.2581 -0.9651
vn -0.0169 0.0727 -0.9972
vn -0.0091 0.0547 -0.9985
vn 0.7564 0.2281 -0.6130
vn 0.9551 0.0111 0.2960
vn 0.9643 0.0053 0.2648
vn 0.9088 0.2099 -0.3607
vn 0.1512 -0.9877 -0.0391
vn 0.0226 -0.2461 -0.9690
vn -0.0009 -0.0281 -0.9996
vn 0.1048 0.2194 -0.9700
vn 0.3325 0.2170 -0.9178
vn 0.1060 0.1647 -0.9806
vn 0.9780 0.1985 -0.0648
vn 0.9826 0.1849 -0.0199
vn 0.9936 0.0689 0.0896
vn 0.9981 0.0374 0.0485
vn 0.9991 0.0291 -0.0298
vn 0.9978 0.0378 -0.0538
vn 0.9964 0.0529 -0.0665
vn 0.9083 0.2273 -0.3513
vn 0.3444 0.9171 -0.2006
vn 0.9735 0.2103 -0.0894
vn 0.8555 0.0378 -0.5165
vn 0.8676 0.0454 -0.4952
vn 0.7573 0.0190 -0.6527
vn 0.8604 0.1635 -0.4827
vn 0.0466 -0.0203 -0.9987
vn 0.7402 0.1893 -0.6453
vn 0.8846 0.2471 -0.3955
vn 0.8425 0.2530 -0.4755
vn 0.7362 0.5638 -0.3743
s 0
f 1//1 3//1 4//1
f 7//2 1//2 4//2
f 7//3 4//3 5//3
f 9//4 4//4 3//4
f 10//5 6//5 5//5
f 10//6 5//6 4//6
f 11//7 7//7 5//7
f 11//8 5//8 2//8
f 12//9 3//9 1//9
f 12//10 1//10 7//10
f 12//11 7//11 11//11
f 13//12 2//12 5//12
f 14//13 4//13 9//13
f 14//14 10//14 4//14
f 14//15 6//15 10//15
f 15//16 6//16 9//16
f 16//17 12//17 11//17
f 16//18 11//18 2//18
f 17//19 8//19 15//19
f 18//20 2//20 13//20
f 19//21 13//21 5//21
f 19//22 5//22 6//22
f 20//23 14//23 9//23
f 20//24 9//24 6//24
f 20//25 6//25 14//25
f 21//26 17//26 3//26
f 21//27 3//27 12//27
f 21//28 12//28 16//28
f 21//29 16//29 2//29
f 21//30 2//30 18//30
f 21//31 18//31 8//31
f 21//32 8//32 17//32
f 22//33 17//33 15//33
f 22//34 9//34 3//34
f 22//35 3//35 17//35
f 23//36 18//36 13//36
f 23//37 8//37 18//37
f 23//38 13//38 19//38
f 23//39 15//39 8//39
f 23//40 19//40 6//40
f 23//41 6//41 15//41
f 24//42 22//42 15//42
f 24//43 15//43 9//43
f 24//44 9//44 22//44
