# Blender 5.1.0
# www.blender.org
mtllib model_collision_13.mtl
o model_collision_13
v -0.045772 0.008393 -0.000866
v -0.022089 -0.014906 -0.009969
v -0.021826 0.024572 -0.013539
v -0.035886 0.025220 -0.045045
v -0.048171 -0.015099 -0.043108
v -0.021389 -0.013708 -0.041928
v -0.042660 0.024845 -0.027238
v -0.041823 0.007930 -0.001580
v -0.045984 -0.013826 -0.001907
v -0.022807 0.024398 -0.042138
v -0.040024 0.003603 -0.044482
v -0.034736 0.024785 -0.014135
v -0.047044 0.002806 -0.026723
v -0.039038 0.024307 -0.044519
v -0.040285 -0.014784 -0.001405
v -0.047716 -0.014153 -0.010888
v -0.042040 0.003173 -0.044431
v -0.047402 -0.005679 -0.010365
vn 0.9998 -0.0047 0.0217
vn 0.0534 -0.9979 -0.0362
vn 0.4639 0.0767 0.8825
vn 0.2082 0.3933 0.8955
vn 0.2172 0.0027 -0.9761
vn 0.0646 0.9979 -0.0083
vn 0.9987 0.0370 -0.0345
vn 0.0487 -0.0942 -0.9944
vn 0.0952 -0.0442 -0.9945
vn -0.6047 0.7058 0.3689
vn -0.0250 0.6391 0.7687
vn 0.0158 0.9998 0.0135
vn -0.0168 0.9998 0.0147
vn -0.9716 0.1900 -0.1408
vn -0.9807 0.1953 0.0061
vn -0.2911 0.9524 -0.0906
vn -0.9547 0.2139 -0.2068
vn -0.0029 -1.0000 0.0081
vn 0.4258 0.0358 0.9041
vn 0.1803 0.0198 0.9834
vn -0.0953 -0.0457 0.9944
vn -0.9819 0.0005 0.1894
vn -0.1713 -0.9828 0.0688
vn -0.1237 -0.9918 0.0309
vn -0.0101 -0.0689 -0.9976
vn -0.3324 0.0433 -0.9422
vn -0.1702 0.0201 -0.9852
vn -0.0201 -0.0222 -0.9996
vn -0.9984 0.0562 0.0073
vn -0.9993 0.0362 0.0131
vn -0.9914 0.0289 0.1273
vn -0.9950 0.0962 0.0282
s 0
f 6//1 3//1 2//1
f 6//2 2//2 5//2
f 8//3 2//3 3//3
f 8//4 3//4 1//4
f 10//5 6//5 4//5
f 10//6 4//6 3//6
f 10//7 3//7 6//7
f 11//8 6//8 5//8
f 11//9 4//9 6//9
f 12//10 7//10 1//10
f 12//11 1//11 3//11
f 12//12 3//12 4//12
f 12//13 4//13 7//13
f 13//14 7//14 5//14
f 13//15 1//15 7//15
f 14//16 7//16 4//16
f 14//17 5//17 7//17
f 15//18 5//18 2//18
f 15//19 2//19 8//19
f 15//20 8//20 1//20
f 15//21 1//21 9//21
f 16//22 9//22 1//22
f 16//23 15//23 9//23
f 16//24 5//24 15//24
f 17//25 11//25 5//25
f 17//26 5//26 14//26
f 17//27 14//27 4//27
f 17//28 4//28 11//28
f 18//29 13//29 5//29
f 18//30 5//30 16//30
f 18//31 16//31 1//31
f 18//32 1//32 13//32
