# Blender 5.1.0
# www.blender.org
mtllib model_collision_18.mtl
o model_collision_18
v 0.004686 -0.059086 0.019130
v 0.039990 -0.084954 -0.013839
v 0.020512 -0.061447 -0.001643
v -0.041853 -0.062449 -0.007427
v -0.029846 -0.083103 0.001830
v 0.000418 -0.061117 -0.006336
v 0.018460 -0.059255 0.015459
v 0.015773 -0.081785 0.011790
v -0.025705 -0.061419 0.013723
v -0.040260 -0.082054 -0.007435
v 0.020042 -0.065000 -0.006658
v 0.028867 -0.069727 0.001172
v 0.026720 -0.083336 0.003176
v 0.016834 -0.066993 0.015833
v -0.023364 -0.080136 0.007915
v -0.032322 -0.062112 0.005314
v 0.001314 -0.082009 0.010610
v 0.028672 -0.082907 0.000936
v 0.011111 -0.070520 0.015750
v -0.023154 -0.070283 0.011221
vn 0.0143 0.3217 -0.9467
vn -0.0295 0.9968 -0.0745
vn -0.0086 0.9969 -0.0780
vn 0.0447 0.9916 -0.1217
vn -0.0785 0.9968 0.0114
vn -0.0798 -0.0061 -0.9968
vn -0.0413 -0.9969 -0.0664
vn -0.6560 -0.2628 0.7075
vn 0.1488 0.8003 -0.5809
vn 0.4950 0.6865 -0.5327
vn 0.0627 0.3929 -0.9175
vn 0.8203 0.0364 0.5708
vn 0.7210 0.6761 -0.1516
vn 0.7049 0.7092 -0.0064
vn -0.0062 -0.9959 0.0899
vn 0.2574 -0.0075 0.9663
vn 0.7057 -0.1146 0.6992
vn 0.5757 -0.2537 0.7773
vn -0.5726 -0.3075 0.7600
vn -0.7795 -0.0864 0.6205
vn -0.7046 0.4891 0.5141
vn -0.7982 -0.0651 0.5988
vn 0.0007 -0.9840 0.1781
vn -0.0077 -0.9886 0.1503
vn -0.1220 -0.8347 0.5370
vn -0.1272 -0.3291 0.9357
vn 0.7540 -0.2411 0.6110
vn 0.7912 -0.0334 0.6107
vn 0.7586 -0.0702 0.6477
vn 0.1207 -0.2184 0.9684
vn 0.1532 -0.2707 0.9504
vn -0.0705 -0.3567 0.9316
vn -0.1006 -0.3336 0.9373
vn -0.1413 -0.3122 0.9394
vn -0.1438 -0.3069 0.9408
vn -0.1616 -0.3108 0.9366
s 0
f 6//1 2//1 4//1
f 6//2 4//2 1//2
f 7//3 6//3 1//3
f 7//4 3//4 6//4
f 9//5 1//5 4//5
f 10//6 4//6 2//6
f 10//7 2//7 5//7
f 10//8 5//8 9//8
f 11//9 6//9 3//9
f 11//10 3//10 2//10
f 11//11 2//11 6//11
f 12//12 7//12 2//12
f 12//13 2//13 3//13
f 12//14 3//14 7//14
f 13//15 5//15 2//15
f 14//16 7//16 1//16
f 14//17 13//17 7//17
f 14//18 8//18 13//18
f 15//19 9//19 5//19
f 16//20 10//20 9//20
f 16//21 9//21 4//21
f 16//22 4//22 10//22
f 17//23 13//23 8//23
f 17//24 5//24 13//24
f 17//25 15//25 5//25
f 17//26 1//26 15//26
f 18//27 13//27 2//27
f 18//28 2//28 7//28
f 18//29 7//29 13//29
f 19//30 14//30 1//30
f 19//31 8//31 14//31
f 19//32 17//32 8//32
f 19//33 1//33 17//33
f 20//34 15//34 1//34
f 20//35 1//35 9//35
f 20//36 9//36 15//36
