# Blender 5.1.0
# www.blender.org
mtllib model_collision_5.mtl
o model_collision_5
v 0.022671 0.102075 0.055164
v 0.039468 0.092533 0.022466
v 0.019304 0.120662 0.006554
v -0.006846 0.120181 0.006645
v -0.019282 0.096043 0.034965
v 0.041920 0.093530 0.007054
v 0.000199 0.110346 0.052506
v 0.025874 0.111210 0.026983
v 0.026381 0.097286 0.052097
v 0.023575 0.096141 0.006622
v 0.000873 0.119230 0.026871
v -0.010690 0.102362 0.054347
v 0.025655 0.103471 0.049112
v 0.034083 0.107557 0.006372
v 0.029528 0.095903 0.043968
v -0.011552 0.099092 0.015311
v 0.014860 0.118469 0.026517
v -0.002470 0.119377 0.023286
v -0.010495 0.105140 0.055028
v 0.023941 0.099793 0.055034
v 0.013867 0.098767 0.052883
v 0.025906 0.100544 0.052978
v 0.026310 0.115634 0.006380
v 0.038858 0.100246 0.006673
v 0.033687 0.107114 0.010252
v -0.009777 0.103337 0.007831
v 0.007922 0.110612 0.051692
v 0.022430 0.106596 0.048961
v 0.021930 0.114489 0.027060
v -0.006969 0.110087 0.048790
v 0.015376 0.106999 0.054062
v -0.017731 0.104480 0.036211
v -0.016769 0.100544 0.043340
v 0.038076 0.095442 0.022726
v 0.025932 0.115201 0.010621
v 0.015240 0.110342 0.048349
v 0.018607 0.119492 0.013984
v -0.009621 0.107765 0.051980
v -0.007466 0.107017 0.054333
v -0.012540 0.101685 0.051301
v -0.016626 0.101821 0.043753
v 0.037919 0.099500 0.014231
v -0.013351 0.106996 0.044806
v -0.012170 0.104502 0.052555
v -0.006235 0.119221 0.014459
v -0.016544 0.104671 0.039931
v -0.010222 0.110249 0.040559
vn -0.0756 -0.9942 -0.0763
vn -0.0104 -0.0122 -0.9999
vn -0.0315 -0.9873 0.1557
vn -0.0290 -0.9895 0.1417
vn 0.1695 -0.9586 0.2286
vn -0.1330 -0.9689 -0.2086
vn -0.1322 -0.9703 -0.2025
vn 0.0570 0.9910 0.1215
vn -0.0160 0.9983 0.0558
vn -0.0182 0.9984 0.0530
vn -0.0368 -0.2357 0.9711
vn -0.0099 -0.0625 0.9980
vn -0.1148 -0.9283 0.3536
vn -0.0921 -0.9449 0.3141
vn -0.0681 -0.7382 0.6711
vn -0.0533 -0.7809 0.6224
vn 0.9159 0.0252 0.4005
vn 0.7343 -0.0754 0.6746
vn 0.6122 0.6491 0.4515
vn 0.6285 0.3089 0.7139
vn -0.0090 -0.0077 -0.9999
vn -0.0040 0.0290 -0.9996
vn 0.0166 -0.0491 -0.9987
vn 0.0123 -0.0331 -0.9994
vn 0.7741 0.5951 0.2158
vn 0.8255 0.5451 0.1465
vn -0.8614 -0.3260 -0.3894
vn -0.9454 0.1439 -0.2925
vn -0.0494 -0.0616 -0.9969
vn -0.1982 -0.8315 -0.5189
vn 0.0595 0.9481 0.3123
vn 0.0020 0.9448 0.3275
vn 0.6675 0.7008 0.2517
vn 0.6102 0.6513 0.4510
vn 0.6213 0.7415 0.2531
vn 0.4518 0.8425 0.2933
vn -0.1976 0.9278 0.3164
vn -0.2681 0.9195 0.2876
vn 0.0186 0.2446 0.9695
vn 0.0598 0.6309 0.7736
vn 0.4209 0.7408 0.5235
vn -0.9484 0.2095 -0.2379
vn 0.8742 0.3929 0.2854
vn 0.8589 0.4336 0.2724
vn 0.7153 0.6783 0.1680
vn 0.6302 0.7538 0.1861
vn 0.5800 0.8036 0.1338
vn 0.5615 0.8094 0.1718
vn 0.7169 0.6806 0.1508
vn 0.7141 0.6871 0.1339
vn 0.4183 0.8536 0.3105
vn 0.1891 0.9213 0.3397
vn 0.3790 0.8026 0.4607
vn 0.2521 0.8378 0.4843
vn 0.5345 0.8257 0.1801
vn 0.3411 0.9232 0.1773
vn 0.4674 0.8588 0.2098
vn -0.2514 0.8700 0.4242
vn -0.4727 0.8516 0.2268
vn 0.0109 0.4617 0.8870
vn 0.0114 0.3311 0.9435
vn -0.3424 0.7582 0.5548
vn -0.2459 0.8357 0.4911
vn -0.7621 -0.4466 0.4688
vn -0.4749 -0.7527 0.4559
vn -0.9694 0.1495 0.1947
vn -0.9601 0.0171 0.2790
vn 0.8003 0.5586 0.2178
vn 0.8248 0.5160 0.2313
vn 0.8265 0.5409 0.1561
vn 0.8960 0.4171 0.1525
vn 0.8934 0.4115 0.1801
vn 0.9007 0.4002 0.1691
vn -0.6782 0.7226 0.1341
vn -0.8345 -0.1287 0.5357
vn -0.8150 -0.0836 0.5734
vn -0.7163 0.6169 0.3259
vn -0.7223 0.6186 0.3092
vn -0.8846 -0.0511 0.4634
vn -0.8731 -0.0978 0.4777
vn -0.3706 0.9179 0.1418
vn -0.6602 0.7375 0.1423
vn -0.8107 0.5100 0.2877
vn -0.7668 0.6053 0.2135
vn -0.8872 0.3788 0.2635
vn -0.8521 0.4281 0.3010
vn -0.5758 0.7962 0.1857
vn -0.5586 0.8039 0.2043
vn -0.5154 0.8313 0.2080
vn -0.5180 0.8302 0.2062
s 0
f 6//1 2//1 5//1
f 14//2 10//2 4//2
f 15//3 9//3 5//3
f 15//4 5//4 2//4
f 15//5 2//5 9//5
f 16//6 10//6 6//6
f 16//7 6//7 5//7
f 17//8 3//8 11//8
f 18//9 11//9 3//9
f 18//10 3//10 4//10
f 20//11 19//11 12//11
f 20//12 1//12 19//12
f 21//13 12//13 5//13
f 21//14 5//14 9//14
f 21//15 20//15 12//15
f 21//16 9//16 20//16
f 22//17 9//17 2//17
f 22//18 20//18 9//18
f 22//19 13//19 1//19
f 22//20 1//20 20//20
f 23//21 14//21 4//21
f 23//22 4//22 3//22
f 24//23 6//23 10//23
f 24//24 10//24 14//24
f 25//25 8//25 13//25
f 25//26 24//26 14//26
f 26//27 16//27 5//27
f 26//28 5//28 4//28
f 26//29 4//29 10//29
f 26//30 10//30 16//30
f 27//31 17//31 11//31
f 27//32 11//32 7//32
f 28//33 13//33 8//33
f 28//34 1//34 13//34
f 29//35 28//35 8//35
f 29//36 17//36 28//36
f 30//37 7//37 11//37
f 30//38 11//38 18//38
f 31//39 19//39 1//39
f 31//40 27//40 7//40
f 31//41 1//41 28//41
f 32//42 4//42 5//42
f 34//43 22//43 2//43
f 34//44 13//44 22//44
f 35//45 8//45 25//45
f 35//46 29//46 8//46
f 35//47 23//47 3//47
f 35//48 3//48 29//48
f 35//49 25//49 14//49
f 35//50 14//50 23//50
f 36//51 28//51 17//51
f 36//52 17//52 27//52
f 36//53 31//53 28//53
f 36//54 27//54 31//54
f 37//55 29//55 3//55
f 37//56 3//56 17//56
f 37//57 17//57 29//57
f 38//58 7//58 30//58
f 38//59 30//59 18//59
f 39//60 31//60 7//60
f 39//61 19//61 31//61
f 39//62 38//62 19//62
f 39//63 7//63 38//63
f 40//64 33//64 5//64
f 40//65 5//65 12//65
f 41//66 32//66 5//66
f 41//67 5//67 33//67
f 42//68 25//68 13//68
f 42//69 13//69 34//69
f 42//70 24//70 25//70
f 42//71 6//71 24//71
f 42//72 34//72 2//72
f 42//73 2//73 6//73
f 43//74 4//74 32//74
f 44//75 40//75 12//75
f 44//76 12//76 19//76
f 44//77 19//77 38//77
f 44//78 38//78 43//78
f 44//79 41//79 33//79
f 44//80 33//80 40//80
f 45//81 18//81 4//81
f 45//82 4//82 43//82
f 46//83 44//83 43//83
f 46//84 43//84 32//84
f 46//85 32//85 41//85
f 46//86 41//86 44//86
f 47//87 45//87 43//87
f 47//88 43//88 38//88
f 47//89 38//89 18//89
f 47//90 18//90 45//90
