# Blender 5.1.0
# www.blender.org
mtllib model_collision_24.mtl
o model_collision_24
v 0.019178 0.028663 0.071153
v 0.030979 0.009469 0.048034
v 0.031233 0.029838 0.052661
v -0.012895 -0.007418 0.048049
v 0.011910 -0.008212 0.048573
v -0.014827 0.017549 0.067567
v 0.029593 0.032755 0.060594
v 0.024051 0.000362 0.048281
v -0.013997 0.004068 0.054214
v 0.002378 0.016726 0.072388
v 0.021249 0.028736 0.069241
v 0.025384 0.033026 0.065909
v 0.028271 0.033483 0.060563
v 0.029778 0.010678 0.050557
v -0.013210 0.019719 0.071931
v 0.010639 0.020630 0.072867
v -0.011605 0.007373 0.062745
v 0.027312 0.033554 0.064023
v 0.029476 0.033281 0.059595
v 0.029457 0.029731 0.053711
v 0.018018 0.026814 0.071426
v 0.019283 0.029500 0.070283
v -0.011722 0.018496 0.072094
v 0.014828 0.025854 0.072497
v 0.011039 0.002874 0.058436
v -0.007521 0.016756 0.072058
v 0.023366 0.001930 0.049955
v 0.011125 -0.006258 0.050457
vn -0.0857 0.2217 -0.9713
vn 0.9725 -0.0631 0.2242
vn 0.0191 -0.0611 -0.9979
vn 0.0143 -0.0380 -0.9992
vn -0.3859 0.6371 -0.6672
vn -0.2766 0.4337 -0.8575
vn -0.9880 -0.1351 0.0750
vn 0.6776 -0.0859 0.7304
vn 0.6691 -0.4939 0.5553
vn 0.8347 -0.2221 0.5039
vn -0.7435 -0.4467 0.4977
vn -0.3733 0.8784 -0.2985
vn -0.0375 -0.7027 0.7105
vn -0.6508 -0.5059 0.5662
vn 0.7123 -0.1549 0.6846
vn -0.3361 0.9384 -0.0804
vn -0.3408 0.9332 -0.1137
vn 0.7763 -0.2555 0.5762
vn 0.7439 -0.2777 0.6079
vn 0.9379 0.3401 0.0688
vn -0.2448 0.8422 -0.4803
vn 0.6679 0.6880 0.2840
vn 0.1911 0.9810 0.0329
vn -0.3411 0.7984 -0.4962
vn -0.3786 0.7321 -0.5663
vn -0.3710 0.7860 -0.4946
vn 0.6608 -0.3660 0.6553
vn 0.6516 -0.3068 0.6938
vn -0.1826 0.7195 0.6700
vn 0.0870 0.7128 0.6959
vn -0.2503 0.8940 0.3716
vn -0.0422 0.0811 0.9958
vn -0.0286 -0.0617 0.9977
vn -0.5240 -0.5512 0.6493
vn -0.1479 0.6037 0.7833
vn -0.0430 0.1047 0.9936
vn 0.3375 -0.0736 0.9385
vn 0.3725 -0.2352 0.8977
vn 0.2438 -0.6083 0.7553
vn 0.4276 -0.5819 0.6918
vn 0.4396 -0.5605 0.7019
vn -0.2523 -0.6241 0.7395
vn -0.0335 -0.1010 0.9943
vn 0.5384 -0.4812 0.6918
vn 0.4525 -0.5511 0.7011
vn 0.5743 -0.4671 0.6723
vn 0.5689 -0.4637 0.6792
vn 0.1611 -0.6485 0.7439
vn 0.1713 -0.6474 0.7427
vn -0.0261 -0.6953 0.7183
vn -0.0310 -0.6973 0.7161
vn -0.0353 -0.7010 0.7123
s 0
f 3//1 2//1 4//1
f 7//2 2//2 3//2
f 8//3 5//3 4//3
f 8//4 4//4 2//4
f 9//5 6//5 3//5
f 9//6 3//6 4//6
f 9//7 4//7 6//7
f 12//8 1//8 11//8
f 14//9 8//9 2//9
f 14//10 2//10 7//10
f 15//11 6//11 4//11
f 15//12 13//12 6//12
f 17//13 4//13 5//13
f 17//14 15//14 4//14
f 18//15 12//15 11//15
f 18//16 15//16 12//16
f 18//17 13//17 15//17
f 18//18 14//18 7//18
f 18//19 11//19 14//19
f 19//20 7//20 3//20
f 19//21 3//21 13//21
f 19//22 18//22 7//22
f 19//23 13//23 18//23
f 20//24 13//24 3//24
f 20//25 3//25 6//25
f 20//26 6//26 13//26
f 21//27 14//27 11//27
f 21//28 11//28 1//28
f 22//29 15//29 1//29
f 22//30 1//30 12//30
f 22//31 12//31 15//31
f 23//32 16//32 15//32
f 23//33 10//33 16//33
f 23//34 15//34 17//34
f 24//35 1//35 15//35
f 24//36 15//36 16//36
f 24//37 21//37 1//37
f 24//38 16//38 21//38
f 25//39 16//39 10//39
f 25//40 5//40 8//40
f 25//41 8//41 16//41
f 26//42 23//42 17//42
f 26//43 10//43 23//43
f 27//44 21//44 16//44
f 27//45 16//45 8//45
f 27//46 8//46 14//46
f 27//47 14//47 21//47
f 28//48 25//48 10//48
f 28//49 5//49 25//49
f 28//50 10//50 26//50
f 28//51 26//51 17//51
f 28//52 17//52 5//52
