# Blender 5.1.0
# www.blender.org
mtllib model_collision_26.mtl
o model_collision_26
v 0.030401 0.111749 0.006460
v 0.045309 0.081394 0.006994
v 0.039408 0.105310 -0.021125
v -0.008302 0.122773 -0.020235
v -0.009777 0.103337 0.007831
v 0.004929 0.070696 -0.008931
v 0.024479 0.121382 -0.020845
v 0.038858 0.100246 0.006673
v -0.006846 0.120181 0.006645
v 0.041976 0.072496 -0.018518
v -0.008955 0.098572 -0.003000
v 0.032594 0.081625 0.007692
v 0.034083 0.107557 0.006372
v 0.022228 0.118880 0.006366
v 0.012248 0.123536 0.002405
v 0.044193 0.072283 -0.005930
v -0.007562 0.095716 -0.003606
v 0.037745 0.103921 -0.002092
v 0.012288 0.123725 -0.013964
v 0.000871 0.123485 0.002393
v 0.000350 0.123878 -0.014154
vn 0.7310 0.6776 0.0805
vn -0.0186 0.0002 -0.9998
vn 0.9429 0.3239 0.0777
vn -0.9819 0.1758 0.0701
vn -0.2298 -0.2619 -0.9373
vn -0.0489 -0.0829 -0.9954
vn -0.9976 -0.0206 -0.0667
vn -0.2708 -0.5335 0.8013
vn 0.0554 0.0360 0.9978
vn 0.0337 0.0433 0.9985
vn 0.7491 0.6561 0.0915
vn 0.2596 0.2084 0.9430
vn 0.0126 0.0681 0.9976
vn 0.6517 0.7485 0.1227
vn 0.0259 0.0428 0.9988
vn 0.0251 0.0425 0.9988
vn 0.3818 0.9170 0.1159
vn 0.0379 0.6934 0.7195
vn 0.9831 0.0632 -0.1721
vn 0.9870 0.0784 -0.1404
vn 0.0422 -0.9988 -0.0243
vn -0.0093 -0.8284 0.5601
vn 0.0167 -0.8179 0.5751
vn -0.8733 -0.4661 0.1415
vn -0.8791 -0.4572 0.1344
vn -0.8314 -0.3073 -0.4629
vn -0.8253 -0.3119 -0.4707
vn 0.8285 0.5462 0.1238
vn 0.8449 0.5231 0.1120
vn 0.8190 0.5626 0.1126
vn 0.1952 0.9807 0.0118
vn 0.0360 0.9637 -0.2644
vn -0.3401 0.9341 0.1085
vn -0.0042 0.7933 0.6088
vn 0.0158 0.9796 -0.2005
vn -0.1461 0.9889 0.0281
vn -0.0045 0.9997 0.0239
vn 0.0127 0.9999 0.0116
s 0
f 7//1 1//1 3//1
f 7//2 3//2 4//2
f 8//3 2//3 3//3
f 9//4 4//4 5//4
f 10//5 6//5 4//5
f 10//6 4//6 3//6
f 11//7 5//7 4//7
f 12//8 5//8 6//8
f 12//9 2//9 8//9
f 12//10 8//10 1//10
f 13//11 3//11 1//11
f 13//12 1//12 8//12
f 14//13 9//13 5//13
f 14//14 1//14 7//14
f 14//15 12//15 1//15
f 14//16 5//16 12//16
f 15//17 14//17 7//17
f 15//18 9//18 14//18
f 16//19 10//19 3//19
f 16//20 3//20 2//20
f 16//21 6//21 10//21
f 16//22 12//22 6//22
f 16//23 2//23 12//23
f 17//24 6//24 5//24
f 17//25 5//25 11//25
f 17//26 11//26 4//26
f 17//27 4//27 6//27
f 18//28 13//28 8//28
f 18//29 8//29 3//29
f 18//30 3//30 13//30
f 19//31 15//31 7//31
f 19//32 7//32 4//32
f 20//33 4//33 9//33
f 20//34 9//34 15//34
f 21//35 19//35 4//35
f 21//36 4//36 20//36
f 21//37 20//37 15//37
f 21//38 15//38 19//38
