# Blender 5.1.0
# www.blender.org
mtllib model_collision_28.mtl
o model_collision_28
v -0.009157 0.111777 0.037565
v -0.007490 0.113001 0.036528
v -0.009815 0.114765 0.027279
v -0.019028 0.117044 -0.021384
v -0.008798 0.111184 -0.000628
v -0.019196 0.109049 0.015207
v -0.008302 0.122773 -0.020235
v -0.015366 0.109047 0.032137
v -0.021655 0.111160 -0.018763
v -0.007057 0.120610 0.002380
v -0.012176 0.110024 0.036951
v -0.013695 0.115225 0.010622
v -0.017449 0.111046 0.014661
v -0.010913 0.119963 -0.019028
v -0.006970 0.116193 0.027531
v -0.007405 0.121282 -0.006058
v -0.011979 0.121729 -0.020764
v -0.010527 0.111522 0.035870
v -0.013686 0.110744 0.031402
v -0.009937 0.119080 0.002142
vn -0.4519 0.8485 0.2754
vn 0.5991 -0.8005 0.0180
vn 0.1508 -0.9880 -0.0342
vn -0.8933 0.4398 0.0920
vn 0.0990 -0.9927 -0.0689
vn 0.3554 -0.5082 -0.7845
vn 0.2967 -0.9550 -0.0028
vn 0.4993 -0.8662 0.0181
vn -0.7251 0.6734 0.1438
vn -0.7202 0.6743 0.1630
vn -0.6581 0.7375 0.1515
vn 0.5704 -0.7086 -0.4154
vn 0.5765 -0.7097 -0.4049
vn 0.5734 -0.7119 -0.4055
vn -0.4541 0.8773 0.1556
vn -0.4506 0.8492 0.2752
vn 0.9742 -0.2244 -0.0233
vn 0.9847 -0.1712 -0.0335
vn 0.9849 -0.1648 -0.0538
vn 0.9806 -0.1788 -0.0809
vn 0.7555 0.6548 0.0210
vn -0.2857 0.9523 0.1068
vn 0.1807 -0.1432 -0.9731
vn -0.5566 0.8190 0.1393
vn -0.5239 0.7958 0.3036
vn -0.4905 0.8279 0.2719
vn -0.6252 0.7340 0.2653
vn -0.6201 0.7668 0.1656
vn -0.6650 0.7289 0.1626
vn -0.6525 0.7407 0.1600
vn -0.5539 0.7931 0.2535
vn -0.5540 0.7929 0.2536
vn -0.5315 0.8348 0.1439
vn -0.5282 0.8365 0.1462
vn -0.4734 0.8678 0.1513
vn -0.4734 0.8692 0.1427
s 0
f 1//1 2//1 3//1
f 5//2 2//2 1//2
f 8//3 6//3 5//3
f 9//4 6//4 4//4
f 9//5 5//5 6//5
f 9//6 4//6 7//6
f 11//7 8//7 5//7
f 11//8 5//8 1//8
f 13//9 4//9 6//9
f 13//10 6//10 8//10
f 13//11 12//11 4//11
f 14//12 9//12 7//12
f 14//13 7//13 5//13
f 14//14 5//14 9//14
f 15//15 10//15 3//15
f 15//16 3//16 2//16
f 15//17 2//17 5//17
f 15//18 5//18 10//18
f 16//19 10//19 5//19
f 16//20 5//20 7//20
f 16//21 7//21 10//21
f 17//22 10//22 7//22
f 17//23 7//23 4//23
f 17//24 4//24 12//24
f 18//25 11//25 1//25
f 18//26 1//26 3//26
f 19//27 8//27 11//27
f 19//28 3//28 12//28
f 19//29 13//29 8//29
f 19//30 12//30 13//30
f 19//31 18//31 3//31
f 19//32 11//32 18//32
f 20//33 17//33 12//33
f 20//34 12//34 3//34
f 20//35 3//35 10//35
f 20//36 10//36 17//36
