# Blender 5.1.0
# www.blender.org
mtllib model_collision_4.mtl
o model_collision_4
v 0.036999 -0.043664 0.001737
v 0.041614 -0.082846 -0.019101
v 0.037277 -0.025159 -0.019598
v -0.047818 -0.014630 -0.018983
v -0.032322 -0.062112 0.005314
v -0.050302 -0.027180 -0.019129
v 0.022041 -0.013677 -0.015743
v 0.040811 -0.043768 -0.017975
v 0.026189 -0.083043 0.003529
v -0.046920 -0.013911 -0.005958
v -0.041853 -0.062449 -0.007427
v 0.037676 -0.026000 -0.009364
v 0.039492 -0.043819 -0.002984
v 0.037787 -0.083059 -0.008681
v -0.028628 -0.032397 0.003875
v -0.047716 -0.014153 -0.010888
v -0.048715 -0.029212 -0.012923
v 0.039990 -0.084954 -0.013839
v 0.031212 -0.083218 -0.001000
vn -0.0051 -0.0090 -0.9999
vn -0.0056 0.0128 -0.9999
vn 0.0382 0.3632 -0.9309
vn 0.5649 0.0354 -0.8244
vn 0.0425 0.0338 0.9985
vn -0.2137 -0.3534 -0.9107
vn -0.7954 -0.1011 0.5976
vn -0.3180 -0.9112 0.2619
vn 0.6080 0.7929 0.0414
vn 0.9825 0.1846 -0.0232
vn 0.1139 0.5668 0.8159
vn 0.9960 0.0179 0.0877
vn 0.8601 0.2474 0.4461
vn 0.9874 0.1319 0.0874
vn 0.8779 -0.1059 0.4670
vn -0.3964 0.0935 0.9133
vn 0.0400 0.0434 0.9983
vn 0.1120 0.5508 0.8271
vn 0.1176 0.5252 0.8428
vn -0.9810 0.1941 0.0010
vn -0.9832 0.0978 0.1540
vn -0.0101 0.9988 -0.0474
vn -0.0109 0.9982 -0.0587
vn -0.8816 -0.1059 0.4600
vn -0.9688 0.0008 0.2480
vn -0.9669 -0.1678 0.1924
vn -0.2706 -0.8619 -0.4289
vn -0.2716 -0.9560 -0.1106
vn 0.9603 -0.0602 0.2724
vn 0.9012 -0.1004 0.4217
vn 0.7522 -0.1544 0.6406
vn 0.6595 -0.1475 0.7371
vn 0.5856 -0.6474 0.4879
vn 0.2131 -0.9383 0.2725
s 0
f 6//1 3//1 2//1
f 6//2 4//2 3//2
f 7//3 3//3 4//3
f 8//4 2//4 3//4
f 9//5 1//5 5//5
f 11//6 6//6 2//6
f 11//7 5//7 10//7
f 11//8 9//8 5//8
f 12//9 3//9 7//9
f 12//10 8//10 3//10
f 12//11 7//11 10//11
f 13//12 2//12 8//12
f 13//13 12//13 1//13
f 13//14 8//14 12//14
f 14//15 13//15 1//15
f 15//16 10//16 5//16
f 15//17 5//17 1//17
f 15//18 12//18 10//18
f 15//19 1//19 12//19
f 16//20 4//20 6//20
f 16//21 6//21 10//21
f 16//22 10//22 7//22
f 16//23 7//23 4//23
f 17//24 11//24 10//24
f 17//25 10//25 6//25
f 17//26 6//26 11//26
f 18//27 11//27 2//27
f 18//28 9//28 11//28
f 18//29 2//29 13//29
f 18//30 13//30 14//30
f 19//31 14//31 1//31
f 19//32 1//32 9//32
f 19//33 18//33 14//33
f 19//34 9//34 18//34
