# Blender 5.1.0
# www.blender.org
mtllib model_collision_6.mtl
o model_collision_6
v 0.028458 0.095173 0.045308
v 0.047016 0.058552 0.021621
v 0.041932 0.087998 0.021099
v 0.043617 0.089262 -0.021785
v 0.041684 0.042383 -0.001103
v 0.047117 0.071109 0.018084
v 0.042189 0.092119 0.010948
v 0.039000 0.060693 0.024657
v 0.024010 0.096317 0.011569
v 0.047458 0.059429 0.012871
v 0.037817 0.092379 0.025543
v 0.047020 0.072228 0.012784
v 0.043223 0.042624 0.003925
v 0.044291 0.058470 0.025114
v 0.022001 0.095302 0.045962
v 0.043245 0.072689 -0.021560
v 0.041819 0.093699 -0.014355
v 0.030488 0.095031 0.040442
v 0.042855 0.042187 0.002873
v 0.038154 0.058331 -0.006298
vn 0.8673 0.1284 0.4809
vn 0.8805 0.1931 0.4328
vn 0.9538 0.2691 0.1334
vn 0.9987 0.0063 0.0511
vn 0.8161 0.5279 0.2351
vn 0.9705 0.2388 0.0327
vn 0.9711 0.2379 0.0216
vn 0.9961 0.0335 -0.0815
vn 0.9994 0.0341 -0.0110
vn 0.9664 -0.2559 0.0232
vn 0.7885 0.0018 0.6150
vn 0.6054 -0.6517 0.4569
vn -0.3596 -0.7385 0.5704
vn -0.9527 -0.2971 -0.0644
vn 0.0231 0.9993 0.0308
vn 0.0808 -0.4535 0.8876
vn -0.3174 -0.6053 0.7300
vn -0.8609 0.0124 -0.5087
vn 0.9912 -0.0240 -0.1305
vn 0.9726 -0.1508 -0.1771
vn 0.9320 0.3625 0.0090
vn -0.6442 0.5779 -0.5010
vn 0.6299 0.7567 0.1752
vn 0.8351 0.4358 0.3356
vn 0.8317 0.4467 0.3297
vn 0.3643 0.9298 0.0527
vn 0.1577 0.9875 0.0086
vn 0.1142 0.9933 0.0186
vn -0.5582 -0.6784 0.4776
vn -0.7263 -0.5820 0.3659
vn -0.8338 -0.5062 0.2204
vn 0.9467 -0.2086 -0.2453
vn 0.9280 -0.2401 -0.2849
vn -0.7379 -0.3511 -0.5764
vn -0.9465 -0.2680 -0.1796
vn -0.8955 -0.1338 -0.4245
s 0
f 6//1 1//1 2//1
f 6//2 3//2 1//2
f 7//3 3//3 6//3
f 10//4 6//4 2//4
f 11//5 3//5 7//5
f 12//6 7//6 6//6
f 12//7 4//7 7//7
f 12//8 10//8 4//8
f 12//9 6//9 10//9
f 13//10 10//10 2//10
f 14//11 2//11 1//11
f 14//12 13//12 2//12
f 14//13 8//13 13//13
f 15//14 9//14 5//14
f 15//15 1//15 9//15
f 15//16 14//16 1//16
f 15//17 8//17 14//17
f 16//18 9//18 4//18
f 16//19 4//19 10//19
f 16//20 10//20 13//20
f 17//21 7//21 4//21
f 17//22 4//22 9//22
f 18//23 11//23 7//23
f 18//24 1//24 3//24
f 18//25 3//25 11//25
f 18//26 7//26 17//26
f 18//27 17//27 9//27
f 18//28 9//28 1//28
f 19//29 13//29 8//29
f 19//30 8//30 15//30
f 19//31 15//31 5//31
f 19//32 16//32 13//32
f 19//33 5//33 16//33
f 20//34 16//34 5//34
f 20//35 5//35 9//35
f 20//36 9//36 16//36
