# Blender 5.1.0
# www.blender.org
mtllib model_collision_27.mtl
o model_collision_27
v 0.034659 -0.013956 -0.014686
v 0.038621 -0.026972 -0.018774
v 0.027165 -0.014869 -0.039999
v -0.003410 -0.013997 -0.042216
v -0.003777 -0.024777 -0.009109
v 0.031634 -0.027899 -0.041812
v 0.037218 -0.013540 -0.017453
v 0.034390 -0.027073 -0.015058
v -0.003977 -0.012425 -0.011846
v -0.004493 -0.026987 -0.043222
v 0.033207 -0.014768 -0.030253
v 0.033878 -0.028350 -0.038075
v 0.020891 -0.027371 -0.013570
v 0.030004 -0.015533 -0.037229
v 0.029909 -0.020817 -0.040741
v 0.033008 -0.024639 -0.037627
vn 0.0760 0.1629 -0.9837
vn 0.0338 0.9967 -0.0738
vn 0.7334 0.0097 0.6798
vn 0.6601 -0.0348 0.7504
vn 0.1521 -0.0311 0.9879
vn 0.0801 0.2169 0.9729
vn 0.0200 0.9985 -0.0513
vn 0.0532 0.9791 0.1963
vn 0.0408 0.0737 -0.9964
vn -0.9961 0.0848 -0.0230
vn -0.9997 -0.0114 0.0217
vn 0.2648 0.9485 -0.1740
vn 0.9615 0.1245 -0.2451
vn 0.9235 0.2247 -0.3109
vn 0.0710 -0.9960 0.0536
vn -0.0209 -0.9940 -0.1072
vn 0.1064 -0.4829 0.8692
vn -0.0925 -0.9935 0.0663
vn 0.0280 -0.9981 0.0547
vn -0.0381 -0.9991 0.0197
vn 0.4983 0.8069 -0.3172
vn 0.1179 0.1764 -0.9772
vn 0.6876 0.3933 -0.6104
vn 0.8539 0.3003 -0.4250
vn 0.8960 0.2540 -0.3642
vn 0.8335 0.2954 -0.4670
vn 0.8422 0.2548 -0.4751
vn 0.8289 0.2755 -0.4869
s 0
f 6//1 4//1 3//1
f 7//2 3//2 4//2
f 7//3 1//3 2//3
f 8//4 2//4 1//4
f 8//5 1//5 5//5
f 9//6 5//6 1//6
f 9//7 7//7 4//7
f 9//8 1//8 7//8
f 10//9 4//9 6//9
f 10//10 9//10 4//10
f 10//11 5//11 9//11
f 11//12 3//12 7//12
f 12//13 7//13 2//13
f 12//14 11//14 7//14
f 12//15 2//15 8//15
f 12//16 10//16 6//16
f 13//17 8//17 5//17
f 13//18 5//18 10//18
f 13//19 12//19 8//19
f 13//20 10//20 12//20
f 14//21 3//21 11//21
f 15//22 6//22 3//22
f 15//23 3//23 14//23
f 16//24 14//24 11//24
f 16//25 11//25 12//25
f 16//26 15//26 14//26
f 16//27 12//27 6//27
f 16//28 6//28 15//28
