# Blender 5.1.0
# www.blender.org
mtllib model_collision_22.mtl
o model_collision_22
v 0.039300 0.031167 0.036304
v 0.041967 0.022113 0.035701
v 0.047016 0.058552 0.021621
v 0.039719 0.059421 0.002546
v 0.037244 0.007147 0.007517
v 0.037430 0.059938 0.022921
v 0.044209 0.039597 0.032261
v 0.035293 0.020278 0.037601
v 0.042145 0.007688 0.007061
v 0.047458 0.059429 0.012871
v 0.037161 0.021580 0.002432
v 0.040408 0.060041 0.025382
v 0.041130 0.007293 0.015108
v 0.046606 0.038165 0.027190
v 0.044066 0.059462 0.003008
v 0.038177 0.041851 0.001204
v 0.036291 0.007658 0.016389
v 0.044291 0.058470 0.025114
v 0.041144 0.016938 0.032699
v 0.041771 0.018281 0.031982
v 0.046135 0.045713 0.027267
v 0.046156 0.043636 0.013414
v 0.042318 0.021142 0.003783
v 0.038546 0.059207 0.009260
v 0.046027 0.039487 0.016980
vn 0.5261 0.0987 0.8447
vn 0.2698 0.0154 0.9628
vn -0.9981 0.0346 -0.0518
vn -0.0510 -0.3321 -0.9418
vn 0.1720 0.3427 0.9235
vn -0.5885 0.3057 0.7485
vn -0.6133 0.3031 0.7294
vn 0.2776 0.9544 0.1097
vn -0.0125 0.9996 -0.0268
vn 0.1064 -0.9937 -0.0353
vn 0.9004 -0.0301 0.4341
vn 0.9987 -0.0064 0.0498
vn 0.0575 0.9982 -0.0164
vn -0.0066 0.9996 -0.0269
vn -0.9964 0.0455 -0.0722
vn 0.1048 0.0665 -0.9923
vn -0.9936 -0.0424 -0.1043
vn -0.9986 0.0096 -0.0527
vn -0.0617 -0.9968 0.0508
vn 0.2032 0.3460 0.9160
vn 0.7658 0.2249 0.6025
vn 0.3748 0.8728 0.3128
vn 0.3623 -0.5101 0.7801
vn 0.0610 -0.8752 0.4798
vn -0.0648 -0.8589 0.5080
vn 0.9676 -0.2268 0.1109
vn 0.9719 -0.2112 0.1043
vn 0.9680 -0.1984 0.1534
vn 0.9244 -0.3347 0.1828
vn 0.9210 -0.2945 0.2549
vn 0.9585 0.0570 0.2792
vn 0.8235 0.1801 0.5380
vn 0.9085 0.0525 0.4146
vn 0.9870 -0.0861 -0.1360
vn 0.9943 -0.0843 -0.0660
vn 0.9444 -0.0496 -0.3250
vn 0.9671 -0.0719 -0.2441
vn 0.2280 -0.2332 -0.9453
vn 0.3906 -0.0364 -0.9198
vn 0.2473 -0.0709 -0.9663
vn -0.9946 0.0604 -0.0845
vn -0.6724 0.7342 -0.0942
vn -0.9808 0.0990 -0.1683
vn 0.9937 -0.0890 -0.0678
vn 0.9926 -0.0996 -0.0692
vn 0.9923 -0.0971 -0.0772
s 0
f 7//1 1//1 2//1
f 8//2 2//2 1//2
f 11//3 8//3 6//3
f 11//4 9//4 5//4
f 12//5 1//5 7//5
f 12//6 8//6 1//6
f 12//7 6//7 8//7
f 12//8 3//8 10//8
f 12//9 4//9 6//9
f 13//10 5//10 9//10
f 14//11 7//11 2//11
f 14//12 10//12 3//12
f 15//13 12//13 10//13
f 15//14 4//14 12//14
f 16//15 11//15 6//15
f 16//16 4//16 15//16
f 17//17 11//17 5//17
f 17//18 8//18 11//18
f 17//19 5//19 13//19
f 18//20 12//20 7//20
f 18//21 7//21 3//21
f 18//22 3//22 12//22
f 19//23 2//23 8//23
f 19//24 17//24 13//24
f 19//25 8//25 17//25
f 20//26 13//26 9//26
f 20//27 9//27 14//27
f 20//28 14//28 2//28
f 20//29 19//29 13//29
f 20//30 2//30 19//30
f 21//31 14//31 3//31
f 21//32 3//32 7//32
f 21//33 7//33 14//33
f 22//34 9//34 10//34
f 22//35 10//35 14//35
f 23//36 15//36 10//36
f 23//37 10//37 9//37
f 23//38 9//38 11//38
f 23//39 16//39 15//39
f 23//40 11//40 16//40
f 24//41 16//41 6//41
f 24//42 6//42 4//42
f 24//43 4//43 16//43
f 25//44 22//44 14//44
f 25//45 14//45 9//45
f 25//46 9//46 22//46
