# Blender 5.1.0
# www.blender.org
mtllib model_collision_23.mtl
o model_collision_23
v -0.038722 0.020590 0.016025
v -0.024837 -0.083142 0.004588
v -0.024488 -0.043364 0.001881
v -0.045444 0.020682 0.002917
v -0.038704 -0.011473 0.019678
v -0.035227 -0.064453 0.001088
v -0.041085 0.020941 0.003069
v -0.043601 0.021315 0.015756
v -0.025801 -0.043859 0.019782
v -0.029846 -0.083103 0.001830
v -0.043468 -0.026026 0.001503
v -0.039396 0.021838 0.013089
v -0.023418 -0.055269 0.016714
v -0.029212 -0.013261 0.019161
v -0.029415 -0.086217 0.004654
v -0.042809 -0.000097 0.014485
v -0.042390 -0.025757 0.005039
v -0.034148 -0.037410 0.016543
v -0.024654 -0.077772 0.008240
v -0.024310 -0.068020 0.011957
vn -0.0379 0.1131 0.9929
vn 0.0965 -0.0118 -0.9953
vn 0.4809 -0.0637 -0.8745
vn 0.0370 0.0187 -0.9991
vn 0.0480 0.0308 -0.9984
vn 0.0330 0.0316 -0.9990
vn 0.9512 0.2489 -0.1826
vn 0.1169 0.9234 0.3655
vn -0.0565 0.9952 -0.0795
vn -0.1412 0.9896 -0.0285
vn 0.9964 -0.0144 -0.0834
vn 0.0752 0.1129 0.9908
vn 0.0594 0.0269 0.9979
vn 0.9595 0.2593 -0.1103
vn 0.9539 0.2473 -0.1701
vn 0.9902 0.1344 0.0365
vn 0.9419 0.1114 0.3170
vn -0.9461 -0.2795 -0.1637
vn -0.9373 -0.2041 0.2825
vn -0.2741 -0.3026 0.9129
vn 0.3859 -0.5898 -0.7094
vn -0.9885 -0.0451 0.1441
vn -0.9887 -0.0461 0.1424
vn -0.8453 -0.0628 0.5306
vn -0.8899 -0.1936 0.4130
vn -0.9325 -0.2020 0.2995
vn -0.9464 -0.1251 0.2979
vn -0.9116 -0.1550 0.3808
vn -0.5119 -0.2498 0.8219
vn -0.4779 -0.1877 0.8581
vn -0.8232 -0.2084 0.5280
vn 0.3682 -0.5315 0.7628
vn 0.9945 -0.0801 0.0677
vn 0.2112 -0.3546 0.9108
vn -0.1250 -0.3391 0.9324
vn -0.0768 -0.3527 0.9326
s 0
f 8//1 5//1 1//1
f 10//2 6//2 3//2
f 10//3 3//3 2//3
f 11//4 3//4 6//4
f 11//5 7//5 3//5
f 11//6 4//6 7//6
f 12//7 3//7 7//7
f 12//8 8//8 1//8
f 12//9 7//9 4//9
f 12//10 4//10 8//10
f 13//11 2//11 3//11
f 14//12 1//12 5//12
f 14//13 5//13 9//13
f 14//14 12//14 1//14
f 14//15 3//15 12//15
f 14//16 13//16 3//16
f 14//17 9//17 13//17
f 15//18 6//18 10//18
f 15//19 11//19 6//19
f 15//20 13//20 9//20
f 15//21 10//21 2//21
f 16//22 8//22 4//22
f 16//23 4//23 11//23
f 16//24 5//24 8//24
f 17//25 15//25 5//25
f 17//26 11//26 15//26
f 17//27 16//27 11//27
f 17//28 5//28 16//28
f 18//29 15//29 9//29
f 18//30 9//30 5//30
f 18//31 5//31 15//31
f 19//32 15//32 2//32
f 19//33 2//33 13//33
f 20//34 19//34 13//34
f 20//35 13//35 15//35
f 20//36 15//36 19//36
