# Blender 4.1.1
# www.blender.org
mtllib model_collision_0.mtl
o model_collision_0
v -0.014919 0.029878 0.015461
v -0.013938 0.043493 0.010128
v -0.030262 0.041383 0.005592
v -0.027496 0.040724 -0.015022
v -0.013953 0.026170 -0.015360
v -0.016276 0.048804 -0.007070
v -0.031677 0.027235 0.007844
v -0.029427 0.040833 -0.013081
v -0.021147 0.042077 -0.015505
v -0.030761 0.027050 -0.013079
v -0.028464 0.027123 -0.015440
v -0.021453 0.027336 -0.015693
vn -0.2927 0.3670 0.8830
vn 0.9976 -0.0570 0.0381
vn -0.2071 0.9265 0.3143
vn 0.9865 0.1351 -0.0924
vn 0.1003 -0.9874 0.1220
vn -0.4306 0.1837 0.8836
vn -0.3415 0.8560 -0.3880
vn -0.5017 0.8637 -0.0478
vn 0.6960 0.3088 -0.6483
vn -0.2152 0.8203 -0.5299
vn -0.9947 0.0924 -0.0444
vn -0.9942 0.0962 -0.0473
vn -0.0514 -0.9987 0.0065
vn -0.0836 0.0366 -0.9958
vn -0.0647 -0.9935 -0.0935
vn -0.7162 0.0692 -0.6945
vn -0.7050 0.0719 -0.7055
vn -0.0365 0.0135 -0.9992
vn 0.0463 0.0118 -0.9989
vn -0.0211 -0.3977 -0.9173
s 0
f 1//1 2//1 3//1
f 5//2 2//2 1//2
f 6//3 3//3 2//3
f 6//4 2//4 5//4
f 7//5 5//5 1//5
f 7//6 1//6 3//6
f 8//7 6//7 4//7
f 8//8 3//8 6//8
f 9//9 6//9 5//9
f 9//10 4//10 6//10
f 10//11 7//11 3//11
f 10//12 3//12 8//12
f 10//13 5//13 7//13
f 11//14 4//14 9//14
f 11//15 5//15 10//15
f 11//16 10//16 8//16
f 11//17 8//17 4//17
f 12//18 11//18 9//18
f 12//19 9//19 5//19
f 12//20 5//20 11//20
