# Blender 4.1.1
# www.blender.org
mtllib model_collision_28.mtl
o model_collision_28
v -0.017678 0.011378 0.020907
v 0.027672 -0.023523 0.010699
v 0.027716 0.008048 0.009769
v -0.013686 0.007832 -0.015656
v -0.013719 -0.023067 0.008234
v 0.024989 -0.023138 -0.016208
v 0.024971 0.007822 -0.015926
v -0.013556 -0.022917 -0.015931
vn 0.2401 0.0283 0.9703
vn -0.0595 -0.3507 0.9346
vn 0.9950 -0.0043 -0.0993
vn 0.0692 0.9975 -0.0162
vn -0.0004 0.9953 -0.0966
vn -0.0070 0.0091 -0.9999
vn 0.9943 0.0015 -0.1062
vn -0.9937 -0.1115 -0.0074
vn -0.9941 -0.0032 -0.1082
vn -0.0071 0.0089 -0.9999
vn -0.0058 -0.9999 -0.0138
vn -0.0107 -0.9999 -0.0063
s 0
f 1//1 2//1 3//1
f 5//2 2//2 1//2
f 6//3 3//3 2//3
f 7//4 1//4 3//4
f 7//5 4//5 1//5
f 7//6 6//6 4//6
f 7//7 3//7 6//7
f 8//8 5//8 1//8
f 8//9 1//9 4//9
f 8//10 4//10 6//10
f 8//11 6//11 2//11
f 8//12 2//12 5//12
