# Blender 4.1.1
# www.blender.org
mtllib model_collision_7.mtl
o model_collision_7
v -0.014919 0.029878 0.015461
v -0.013719 -0.023067 0.008234
v -0.014028 0.042692 -0.015762
v -0.021147 0.042077 -0.015505
v -0.029890 -0.023885 0.011499
v -0.021641 -0.022939 -0.016102
v -0.016276 0.048804 -0.007070
v -0.022427 0.029128 0.014130
v -0.013556 -0.022917 -0.015931
v -0.022483 0.046980 -0.006467
vn 0.9992 0.0178 0.0358
vn 0.2024 -0.1279 0.9709
vn -0.0369 0.0095 -0.9993
vn -0.9582 0.0099 -0.2860
vn 0.9733 0.2011 0.1103
vn -0.0907 0.8035 -0.5884
vn -0.1721 -0.0247 0.9848
vn 0.0211 0.0027 -0.9998
vn 1.0000 0.0072 0.0068
vn 0.0493 -0.9988 -0.0059
vn 0.0035 -0.9994 -0.0332
vn -0.9826 0.0579 -0.1766
vn -0.9841 0.1327 0.1177
vn -0.2894 0.8228 -0.4891
vn -0.1883 0.7419 0.6435
vn -0.1586 0.7513 0.6406
s 0
f 1//1 2//1 3//1
f 5//2 2//2 1//2
f 6//3 4//3 3//3
f 6//4 5//4 4//4
f 7//5 1//5 3//5
f 7//6 3//6 4//6
f 8//7 5//7 1//7
f 9//8 6//8 3//8
f 9//9 3//9 2//9
f 9//10 2//10 5//10
f 9//11 5//11 6//11
f 10//12 4//12 5//12
f 10//13 5//13 8//13
f 10//14 7//14 4//14
f 10//15 8//15 1//15
f 10//16 1//16 7//16
