# Blender 4.1.1
# www.blender.org
mtllib model_collision_24.mtl
o model_collision_24
v 0.002697 0.037810 0.014726
v 0.005468 0.042657 0.008211
v 0.002411 0.039922 0.013183
v -0.028172 0.042114 0.006902
v -0.028884 0.038633 0.007841
v -0.016811 0.040474 0.011008
v 0.004869 0.039989 0.008407
v -0.017058 0.037327 0.012252
v -0.027280 0.037758 0.009409
v -0.026493 0.041161 0.008589
vn 0.5521 0.5392 0.6359
vn -0.0277 0.8830 0.4686
vn -0.0318 0.8948 0.4454
vn -0.0750 0.5816 0.8100
vn 0.9464 -0.1934 0.2586
vn 0.0268 -0.2653 -0.9638
vn 0.0401 -0.0823 -0.9958
vn -0.1243 0.3732 0.9194
vn 0.0616 -0.9499 -0.3064
vn 0.0430 -0.8531 -0.5200
vn 0.0546 -0.9393 -0.3387
vn -0.5746 0.3205 0.7531
vn -0.5702 0.3146 0.7589
vn -0.0778 0.8329 0.5479
vn -0.2463 0.2804 0.9278
vn -0.1998 0.3738 0.9058
s 0
f 1//1 2//1 3//1
f 6//2 3//2 2//2
f 6//3 2//3 4//3
f 6//4 1//4 3//4
f 7//5 2//5 1//5
f 7//6 5//6 4//6
f 7//7 4//7 2//7
f 8//8 1//8 6//8
f 8//9 7//9 1//9
f 9//10 5//10 7//10
f 9//11 7//11 8//11
f 10//12 4//12 5//12
f 10//13 5//13 9//13
f 10//14 6//14 4//14
f 10//15 9//15 8//15
f 10//16 8//16 6//16
