# Blender 4.1.1
# www.blender.org
mtllib model_collision_31.mtl
o model_collision_31
v 0.004956 0.040101 0.008014
v 0.029046 0.008672 0.007457
v 0.024778 0.038675 -0.015869
v 0.005636 0.038756 -0.015536
v 0.005615 0.007868 0.004368
v 0.004772 0.041062 0.007190
v 0.024816 0.038704 0.004085
v 0.024971 0.007822 -0.015926
v 0.005642 0.007841 -0.015771
vn -0.1260 -0.1141 0.9854
vn 0.0024 0.9949 -0.1009
vn -0.9841 -0.0397 0.1732
vn 0.2015 0.1373 0.9698
vn 0.9903 0.1392 -0.0021
vn 0.1902 0.6599 0.7269
vn 0.1165 0.9932 -0.0017
vn 0.9851 0.0065 -0.1719
vn 0.0302 -0.9991 0.0311
vn -0.9993 0.0001 -0.0380
vn -0.9997 -0.0253 -0.0013
vn -0.0010 -1.0000 0.0013
vn -0.0174 0.0076 -0.9998
vn -0.0080 0.0018 -1.0000
s 0
f 5//1 2//1 1//1
f 6//2 3//2 4//2
f 6//3 5//3 1//3
f 7//4 1//4 2//4
f 7//5 2//5 3//5
f 7//6 6//6 1//6
f 7//7 3//7 6//7
f 8//8 3//8 2//8
f 8//9 2//9 5//9
f 9//10 6//10 4//10
f 9//11 5//11 6//11
f 9//12 8//12 5//12
f 9//13 4//13 3//13
f 9//14 3//14 8//14
