# Blender 5.1.0
# www.blender.org
mtllib model_collision_10.mtl
o model_collision_10
v -0.026893 -0.091215 0.005584
v -0.026883 -0.099461 0.005414
v -0.026896 -0.099490 0.002276
v -0.101362 -0.091275 0.002872
v -0.101301 -0.091183 0.005701
v -0.101334 -0.099503 0.002292
v -0.026896 -0.091224 0.002458
v -0.063988 -0.099768 0.001996
v -0.101288 -0.099434 0.005191
v -0.043472 -0.099660 0.002032
v -0.063980 -0.095653 0.002280
v -0.043474 -0.095533 0.002207
vn 0.0016 -0.0207 0.9998
vn 0.0004 1.0000 -0.0030
vn -0.0009 0.9995 -0.0324
vn 1.0000 0.0012 -0.0010
vn 1.0000 0.0001 -0.0040
vn -0.9998 -0.0029 0.0218
vn -0.9999 -0.0045 0.0162
vn -0.0030 -0.0617 0.9981
vn -0.0007 -0.9953 0.0965
vn -0.0069 -0.9997 0.0240
vn 0.0101 -0.9999 0.0091
vn 0.0052 -0.9994 0.0333
vn 0.0145 0.0220 -0.9997
vn -0.0056 0.0869 -0.9962
vn -0.0074 0.0689 -0.9976
vn -0.0076 0.0702 -0.9975
vn 0.0015 0.0424 -0.9991
vn 0.0041 0.0424 -0.9991
vn -0.0040 0.0734 -0.9973
vn -0.0040 0.0689 -0.9976
s 0
f 5//1 2//1 1//1
f 7//2 5//2 1//2
f 7//3 4//3 5//3
f 7//4 1//4 2//4
f 7//5 2//5 3//5
f 9//6 5//6 4//6
f 9//7 4//7 6//7
f 9//8 2//8 5//8
f 9//9 8//9 2//9
f 9//10 6//10 8//10
f 10//11 3//11 2//11
f 10//12 2//12 8//12
f 10//13 7//13 3//13
f 11//14 4//14 7//14
f 11//15 8//15 6//15
f 11//16 6//16 4//16
f 12//17 10//17 8//17
f 12//18 7//18 10//18
f 12//19 11//19 7//19
f 12//20 8//20 11//20
