# Blender 5.1.0
# www.blender.org
mtllib model_collision_31.mtl
o model_collision_31
v -0.084784 0.103125 0.006018
v -0.084790 0.090720 0.005737
v -0.084737 0.103267 0.003537
v -0.097222 0.103292 0.003463
v -0.097174 0.090724 0.005662
v -0.089009 0.103278 0.006116
v -0.084751 0.090683 0.003325
v -0.097171 0.103122 0.005865
v -0.097222 0.090697 0.003341
v -0.092847 0.103279 0.006074
vn 0.9998 -0.0009 0.0191
vn 0.0374 0.9976 0.0581
vn 0.0020 1.0000 -0.0006
vn -0.0061 -0.0323 0.9995
vn 0.0225 -0.0226 0.9995
vn 0.9999 -0.0014 0.0163
vn -0.0004 -0.9999 0.0155
vn 0.0060 0.0169 -0.9998
vn -0.9998 -0.0001 0.0213
vn -0.0011 -0.9999 0.0118
vn -0.9998 -0.0002 0.0207
vn -0.0013 0.0097 -1.0000
vn 0.0003 1.0000 0.0045
vn -0.0397 0.9966 0.0717
vn -0.0477 -0.0164 0.9987
vn -0.0111 -0.0290 0.9995
s 0
f 1//1 2//1 3//1
f 6//2 1//2 3//2
f 6//3 3//3 4//3
f 6//4 5//4 2//4
f 6//5 2//5 1//5
f 7//6 3//6 2//6
f 7//7 2//7 5//7
f 7//8 4//8 3//8
f 8//9 4//9 5//9
f 9//10 7//10 5//10
f 9//11 5//11 4//11
f 9//12 4//12 7//12
f 10//13 6//13 4//13
f 10//14 4//14 8//14
f 10//15 8//15 5//15
f 10//16 5//16 6//16
