# Blender 5.1.0
# www.blender.org
mtllib model_collision_28.mtl
o model_collision_28
v -0.064104 0.036988 0.004358
v -0.064127 -0.020940 0.004400
v -0.064080 -0.020885 0.001554
v -0.134440 0.037205 0.000824
v -0.134323 0.036911 0.003261
v -0.064150 0.036944 0.001518
v -0.135169 -0.021202 0.000629
v -0.135275 -0.021163 0.002949
vn 0.9999 -0.0004 0.0165
vn -0.0156 0.0007 0.9999
vn -0.0030 0.9928 0.1200
vn 0.9999 0.0012 -0.0161
vn 0.0039 0.9999 -0.0155
vn 0.0047 -0.9998 -0.0192
vn 0.0130 -0.0006 -0.9999
vn 0.0099 0.0032 -0.9999
vn 0.0028 -0.9999 0.0171
vn -0.0204 -0.0050 0.9998
vn -0.9986 0.0161 0.0499
vn -0.9989 0.0126 -0.0457
s 0
f 1//1 2//1 3//1
f 5//2 2//2 1//2
f 5//3 1//3 4//3
f 6//4 1//4 3//4
f 6//5 4//5 1//5
f 7//6 3//6 2//6
f 7//7 6//7 3//7
f 7//8 4//8 6//8
f 8//9 7//9 2//9
f 8//10 2//10 5//10
f 8//11 5//11 4//11
f 8//12 4//12 7//12
