# Blender 5.1.0
# www.blender.org
mtllib model_collision_7.mtl
o model_collision_7
v 0.072383 0.107646 0.007097
v 0.072471 0.061767 0.007359
v 0.072237 0.061739 0.004540
v 0.022699 0.103267 0.003098
v 0.022726 0.103150 0.006010
v 0.072391 0.108065 0.005020
v 0.026962 0.103935 0.006281
v 0.022732 0.061779 0.005808
v 0.059858 0.053478 0.003927
v 0.039373 0.107851 0.006440
v 0.026975 0.065989 0.006005
v 0.022699 0.061749 0.003012
v 0.060115 0.053506 0.006756
v 0.038882 0.107781 0.004047
v 0.035101 0.053477 0.003106
v 0.035245 0.053585 0.005996
vn 1.0000 0.0019 0.0046
vn 0.9966 -0.0025 -0.0826
vn -0.0184 0.0057 0.9998
vn -0.0629 -0.0049 0.9980
vn 0.0427 0.0102 -0.9990
vn 0.0375 0.0114 -0.9992
vn -0.0198 0.0219 0.9996
vn 0.0021 0.9802 0.1981
vn -0.2725 0.9613 0.0412
vn -0.1262 0.3625 0.9234
vn -0.0312 -0.0152 0.9994
vn -0.0304 -0.0073 0.9995
vn -0.0390 -0.0073 0.9992
vn -0.9999 -0.0002 0.0117
vn -1.0000 -0.0000 0.0094
vn 0.5560 -0.8301 -0.0423
vn 0.5567 -0.8299 -0.0380
vn -0.0077 0.9996 -0.0275
vn 0.0279 0.1089 -0.9937
vn -0.2701 0.9624 0.0275
vn -0.5549 -0.8318 0.0154
vn -0.0003 -1.0000 0.0099
vn 0.0090 0.0021 -1.0000
vn 0.0331 0.0081 -0.9994
vn -0.0306 -0.0272 0.9992
vn -0.0312 -0.0247 0.9992
vn -0.0043 -0.9993 0.0373
vn -0.5476 -0.8347 0.0581
s 0
f 6//1 1//1 2//1
f 6//2 2//2 3//2
f 7//3 2//3 1//3
f 8//4 7//4 5//4
f 9//5 6//5 3//5
f 9//6 4//6 6//6
f 10//7 7//7 1//7
f 10//8 1//8 6//8
f 10//9 4//9 5//9
f 10//10 5//10 7//10
f 11//11 8//11 2//11
f 11//12 2//12 7//12
f 11//13 7//13 8//13
f 12//14 8//14 5//14
f 12//15 5//15 4//15
f 13//16 9//16 3//16
f 13//17 3//17 2//17
f 14//18 10//18 6//18
f 14//19 6//19 4//19
f 14//20 4//20 10//20
f 15//21 8//21 12//21
f 15//22 9//22 13//22
f 15//23 12//23 4//23
f 15//24 4//24 9//24
f 16//25 13//25 2//25
f 16//26 2//26 8//26
f 16//27 15//27 13//27
f 16//28 8//28 15//28
