# Blender 5.1.0
# www.blender.org
mtllib model_collision_17.mtl
o model_collision_17
v 0.134799 -0.050200 0.007880
v 0.133823 -0.093732 0.007456
v 0.126779 -0.095625 0.004697
v 0.109682 -0.049795 0.006224
v 0.109528 -0.091196 0.009838
v 0.135513 -0.050056 0.005790
v 0.125852 -0.095287 0.008485
v 0.109525 -0.049885 0.009516
v 0.109570 -0.091225 0.006480
v 0.133941 -0.093816 0.005780
vn -0.0165 0.0271 -0.9995
vn 0.9466 -0.0244 0.3215
vn 0.1305 -0.0126 0.9914
vn 0.0819 -0.0029 0.9966
vn -0.2409 -0.9702 0.0276
vn 0.2067 -0.9688 0.1370
vn 0.0647 0.0078 0.9979
vn 0.0106 0.9996 0.0279
vn 0.0172 0.9971 0.0742
vn -0.1045 -0.0059 -0.9945
vn -0.2472 -0.9690 0.0053
vn -0.9989 0.0024 -0.0477
vn -0.9999 -0.0002 -0.0125
vn 0.9968 -0.0358 0.0720
vn 0.2351 -0.9698 0.0652
vn 0.1508 -0.0052 -0.9885
s 0
f 6//1 3//1 4//1
f 6//2 1//2 2//2
f 7//3 2//3 1//3
f 7//4 1//4 5//4
f 7//5 5//5 3//5
f 7//6 3//6 2//6
f 8//7 5//7 1//7
f 8//8 6//8 4//8
f 8//9 1//9 6//9
f 9//10 4//10 3//10
f 9//11 3//11 5//11
f 9//12 8//12 4//12
f 9//13 5//13 8//13
f 10//14 6//14 2//14
f 10//15 2//15 3//15
f 10//16 3//16 6//16
