# Blender 5.1.0
# www.blender.org
mtllib model_collision_29.mtl
o model_collision_29
v 0.039267 0.036964 0.005862
v 0.035128 -0.062271 0.006126
v 0.039238 -0.033325 0.002891
v 0.002044 0.036963 0.002336
v 0.002059 0.036962 0.005234
v 0.002047 -0.062268 0.002236
v 0.039223 0.036963 0.002900
v 0.039266 -0.033329 0.006018
v 0.035094 -0.062248 0.003006
v 0.002059 -0.062277 0.005308
vn -0.0169 0.0034 0.9999
vn -0.0000 1.0000 0.0003
vn 0.9999 0.0002 -0.0151
vn -0.0000 1.0000 -0.0005
vn 0.0152 0.0010 -0.9999
vn 0.0175 0.0001 -0.9998
vn 0.0107 0.0022 0.9999
vn 0.9899 -0.1416 -0.0089
vn 1.0000 -0.0000 -0.0088
vn 0.0233 -0.0073 -0.9997
vn 0.9898 -0.1419 -0.0118
vn 0.0008 -1.0000 -0.0075
vn 0.0002 -1.0000 -0.0029
vn -0.0248 0.0007 0.9997
vn -1.0000 -0.0000 0.0051
vn -1.0000 -0.0000 0.0041
s 0
f 5//1 2//1 1//1
f 5//2 1//2 4//2
f 7//3 1//3 3//3
f 7//4 4//4 1//4
f 7//5 6//5 4//5
f 7//6 3//6 6//6
f 8//7 1//7 2//7
f 8//8 2//8 3//8
f 8//9 3//9 1//9
f 9//10 6//10 3//10
f 9//11 3//11 2//11
f 9//12 2//12 6//12
f 10//13 6//13 2//13
f 10//14 2//14 5//14
f 10//15 5//15 4//15
f 10//16 4//16 6//16
