# Blender 5.1.0
# www.blender.org
mtllib model_collision_19.mtl
o model_collision_19
v 0.002052 -0.099476 0.005676
v 0.002030 -0.108500 0.004345
v 0.002051 -0.099480 0.002566
v -0.113955 -0.099735 0.001536
v -0.113609 -0.099355 0.004424
v -0.002586 -0.107551 0.001844
v 0.002214 -0.108319 0.003024
v -0.113210 -0.108407 0.002780
v 0.001921 -0.104658 0.002047
v -0.113975 -0.108235 0.001284
v -0.018662 -0.099579 0.002330
v 0.001961 -0.107487 0.001979
vn -0.0109 -0.1459 0.9892
vn 0.0011 1.0000 -0.0013
vn -0.0010 0.9914 -0.1305
vn 0.9905 -0.0225 0.1354
vn 0.9998 0.0184 -0.0003
vn -0.0135 -0.1793 0.9837
vn 0.0069 0.0592 -0.9982
vn -0.8894 -0.1193 0.4412
vn -0.9929 -0.0011 0.1191
vn 0.0048 0.0297 -0.9995
vn 0.0079 -0.8234 -0.5675
vn 0.0013 -0.9907 -0.1362
vn 0.0007 -0.9935 -0.1142
vn 0.0081 0.0885 -0.9960
vn 0.0048 0.6978 -0.7163
vn 0.0109 0.0994 -0.9950
vn 0.0297 -0.7785 -0.6269
vn 0.0293 0.0244 -0.9993
vn 0.8869 0.0238 -0.4614
vn 0.9730 0.0059 -0.2309
s 0
f 5//1 2//1 1//1
f 5//2 1//2 3//2
f 5//3 3//3 4//3
f 7//4 1//4 2//4
f 7//5 3//5 1//5
f 8//6 2//6 5//6
f 9//7 6//7 4//7
f 10//8 8//8 5//8
f 10//9 5//9 4//9
f 10//10 4//10 6//10
f 10//11 6//11 7//11
f 10//12 7//12 2//12
f 10//13 2//13 8//13
f 11//14 9//14 4//14
f 11//15 4//15 3//15
f 11//16 3//16 9//16
f 12//17 7//17 6//17
f 12//18 6//18 9//18
f 12//19 9//19 3//19
f 12//20 3//20 7//20
