# Blender 5.1.0
# www.blender.org
mtllib model_collision_25.mtl
o model_collision_25
v -0.026886 -0.078819 0.005516
v -0.026893 -0.091215 0.005584
v -0.026896 -0.091224 0.002458
v -0.076466 -0.078799 0.003093
v -0.076515 -0.078811 0.006115
v -0.026899 -0.078801 0.002402
v -0.076491 -0.091257 0.002890
v -0.076523 -0.091204 0.005883
vn 1.0000 -0.0006 -0.0010
vn 0.0121 0.0055 0.9999
vn 1.0000 0.0003 -0.0044
vn 0.0002 1.0000 0.0059
vn 0.0001 1.0000 0.0040
vn 0.0007 -1.0000 0.0030
vn -0.9999 0.0023 -0.0160
vn -0.0087 -0.0045 -1.0000
vn -0.0139 0.0164 -0.9998
vn -0.0001 -0.9998 0.0177
vn 0.0060 -0.0187 0.9998
vn -0.9999 0.0008 -0.0105
s 0
f 1//1 2//1 3//1
f 5//2 2//2 1//2
f 6//3 1//3 3//3
f 6//4 5//4 1//4
f 6//5 4//5 5//5
f 7//6 3//6 2//6
f 7//7 5//7 4//7
f 7//8 6//8 3//8
f 7//9 4//9 6//9
f 8//10 7//10 2//10
f 8//11 2//11 5//11
f 8//12 5//12 7//12
