# Blender 5.1.0
# www.blender.org
mtllib model_collision_4.mtl
o model_collision_4
v 0.022726 0.103150 0.006010
v 0.022732 0.061779 0.005808
v 0.022699 0.103267 0.003098
v -0.051704 0.103125 0.002049
v -0.051748 0.090724 0.004835
v -0.026895 0.061773 0.002033
v -0.051695 0.103315 0.004780
v 0.022699 0.061749 0.003012
v -0.051694 0.090722 0.002267
v -0.026870 0.061771 0.004798
vn 1.0000 0.0002 -0.0094
vn -0.0150 -0.0049 0.9999
vn 0.0141 0.0088 -0.9999
vn 0.0016 0.9992 0.0401
vn -0.0009 0.9976 -0.0692
vn -0.0165 0.0044 0.9999
vn -1.0000 0.0042 0.0029
vn 0.0197 0.0021 -0.9998
vn 0.9999 -0.0000 -0.0117
vn -0.7594 -0.6504 -0.0152
vn -0.9998 -0.0012 -0.0208
vn -0.0299 -0.0175 -0.9994
vn -0.0203 -0.0187 0.9996
vn -0.7584 -0.6517 0.0067
vn -0.0001 -0.9999 0.0108
vn -0.0005 -1.0000 -0.0006
s 0
f 1//1 2//1 3//1
f 5//2 2//2 1//2
f 6//3 4//3 3//3
f 7//4 1//4 3//4
f 7//5 3//5 4//5
f 7//6 5//6 1//6
f 7//7 4//7 5//7
f 8//8 6//8 3//8
f 8//9 3//9 2//9
f 9//10 6//10 5//10
f 9//11 5//11 4//11
f 9//12 4//12 6//12
f 10//13 2//13 5//13
f 10//14 5//14 6//14
f 10//15 8//15 2//15
f 10//16 6//16 8//16
