# Blender 5.1.0
# www.blender.org
mtllib model_collision_11.mtl
o model_collision_11
v 0.125871 -0.091157 0.008624
v 0.132852 -0.094913 0.007900
v 0.132253 -0.094766 0.004143
v 0.072089 -0.091342 0.005564
v 0.072582 -0.108598 0.007958
v 0.126462 -0.091366 0.005097
v 0.123332 -0.106915 0.007905
v 0.072448 -0.091181 0.008860
v 0.072178 -0.108447 0.004775
v 0.130211 -0.101006 0.005660
v 0.123364 -0.107403 0.006780
v 0.130709 -0.100664 0.007597
v 0.120283 -0.107151 0.004914
v 0.127409 -0.104506 0.006092
vn -0.0082 0.2573 -0.9663
vn -0.0001 0.9982 -0.0592
vn 0.4758 0.8791 0.0277
vn 0.5002 0.8647 -0.0460
vn 0.0726 -0.0572 0.9957
vn -0.0007 0.9988 -0.0485
vn 0.0044 -0.0463 0.9989
vn 0.0028 -0.0517 0.9987
vn -0.0210 0.0460 -0.9987
vn -0.9940 -0.0102 0.1088
vn -0.9920 -0.0142 0.1255
vn 0.0308 -0.9167 0.3984
vn 0.0223 -0.9985 -0.0500
vn 0.9221 -0.3445 -0.1761
vn 0.9276 -0.3371 -0.1610
vn 0.1245 -0.0984 0.9873
vn 0.0270 -0.9838 -0.1774
vn 0.0047 -0.0666 -0.9978
vn 0.2590 -0.3073 -0.9157
vn 0.7723 -0.6292 -0.0874
vn 0.2717 -0.3293 -0.9043
vn 0.3530 -0.6523 -0.6707
vn 0.5934 -0.6790 0.4322
vn 0.5854 -0.7377 0.3362
s 0
f 6//1 3//1 4//1
f 6//2 4//2 1//2
f 6//3 1//3 2//3
f 6//4 2//4 3//4
f 7//5 2//5 1//5
f 8//6 1//6 4//6
f 8//7 7//7 1//7
f 8//8 5//8 7//8
f 9//9 4//9 3//9
f 9//10 8//10 4//10
f 9//11 5//11 8//11
f 11//12 7//12 5//12
f 11//13 5//13 9//13
f 12//14 10//14 3//14
f 12//15 3//15 2//15
f 12//16 2//16 7//16
f 13//17 11//17 9//17
f 13//18 9//18 3//18
f 13//19 3//19 10//19
f 14//20 10//20 12//20
f 14//21 13//21 10//21
f 14//22 11//22 13//22
f 14//23 12//23 7//23
f 14//24 7//24 11//24
