# Blender 5.1.0
# www.blender.org
mtllib model_collision_5.mtl
o model_collision_5
v 0.002059 0.036962 0.005234
v 0.002059 -0.062277 0.005308
v 0.002047 -0.062268 0.002236
v -0.010358 0.036963 0.002165
v -0.010357 -0.062291 0.005219
v 0.002044 0.036963 0.002336
v -0.010342 0.036972 0.005082
v -0.010357 -0.062269 0.002148
v -0.002157 -0.045740 0.002092
v -0.010413 -0.012668 0.002022
v -0.002116 -0.053947 0.002098
v -0.010385 -0.053947 0.002040
vn 1.0000 -0.0000 -0.0041
vn -0.0072 0.0007 1.0000
vn 0.0012 -1.0000 -0.0029
vn 1.0000 -0.0000 -0.0051
vn -0.0122 0.0014 0.9999
vn -0.0000 1.0000 -0.0029
vn 0.0008 1.0000 0.0003
vn 0.0001 -1.0000 -0.0071
vn 0.0381 0.0010 -0.9993
vn -1.0000 0.0011 0.0054
vn -0.9998 0.0002 0.0204
vn 0.0138 0.0029 -0.9999
vn 0.0169 0.0021 -0.9999
vn 0.0319 -0.0006 -0.9995
vn 0.0071 -0.0130 -0.9999
vn -1.0000 -0.0034 -0.0002
vn -1.0000 -0.0007 0.0070
vn 0.0068 -0.0004 -1.0000
vn 0.0071 -0.0007 -1.0000
s 0
f 1//1 2//1 3//1
f 5//2 2//2 1//2
f 5//3 3//3 2//3
f 6//4 1//4 3//4
f 7//5 5//5 1//5
f 7//6 6//6 4//6
f 7//7 1//7 6//7
f 8//8 3//8 5//8
f 9//9 6//9 3//9
f 10//10 7//10 4//10
f 10//11 5//11 7//11
f 10//12 4//12 6//12
f 10//13 6//13 9//13
f 11//14 9//14 3//14
f 11//15 3//15 8//15
f 12//16 8//16 5//16
f 12//17 5//17 10//17
f 12//15 11//15 8//15
f 12//18 10//18 9//18
f 12//19 9//19 11//19
