# Blender 5.1.0
# www.blender.org
mtllib model_collision_3.mtl
o model_collision_3
v -0.014384 0.109001 0.004758
v -0.014486 0.103306 0.005422
v -0.014497 0.103188 0.002538
v -0.114208 0.106664 0.001796
v -0.104858 0.108822 0.005800
v -0.113618 0.103317 0.004783
v -0.043505 0.107559 0.002119
v -0.068491 0.107167 0.005913
v -0.114218 0.103988 0.001889
v -0.113045 0.108919 0.005132
v -0.014582 0.108812 0.004155
v -0.068296 0.108481 0.005622
v -0.105129 0.103874 0.005528
v -0.114551 0.109341 0.003876
v -0.031139 0.106118 0.002097
v -0.072690 0.103888 0.005697
v -0.031106 0.103643 0.002251
vn 0.9998 -0.0182 -0.0033
vn -0.0004 -0.9992 0.0412
vn 0.0173 0.1155 0.9932
vn -0.0064 -0.9744 -0.2247
vn 0.9332 0.1122 -0.3415
vn 0.0136 0.2142 0.9767
vn 0.0089 0.5063 0.8623
vn 0.0068 0.2152 0.9766
vn -0.0041 -0.7772 0.6293
vn -0.0056 -0.0548 0.9985
vn -0.0837 -0.0533 0.9951
vn -0.0819 -0.0504 0.9954
vn -0.9768 -0.1253 0.1735
vn -0.9870 -0.0018 -0.1608
vn -0.6371 0.0173 0.7705
vn -0.0042 0.6133 -0.7898
vn 0.0059 0.8118 -0.5839
vn 0.0059 0.9536 -0.3009
vn -0.0164 0.9415 0.3365
vn 0.0010 0.9668 0.2556
vn 0.0741 0.2765 -0.9581
vn 0.0463 0.4111 -0.9104
vn 0.0034 -0.0349 -0.9994
vn 0.0039 0.0490 -0.9988
vn -0.0035 -0.6914 0.7225
vn 0.0040 -0.0707 0.9975
vn -0.0052 -0.0589 0.9982
vn 0.0156 -0.0618 -0.9980
vn 0.0018 -0.4861 -0.8739
vn 0.0041 -0.0620 -0.9981
s 0
f 1//1 2//1 3//1
f 6//2 3//2 2//2
f 8//3 2//3 1//3
f 9//4 3//4 6//4
f 11//5 1//5 3//5
f 12//6 8//6 1//6
f 12//7 1//7 5//7
f 12//8 5//8 8//8
f 13//9 6//9 2//9
f 13//10 8//10 5//10
f 13//11 10//11 6//11
f 13//12 5//12 10//12
f 14//13 9//13 6//13
f 14//14 4//14 9//14
f 14//15 6//15 10//15
f 14//16 7//16 4//16
f 14//17 11//17 7//17
f 14//18 1//18 11//18
f 14//19 10//19 5//19
f 14//20 5//20 1//20
f 15//21 11//21 3//21
f 15//22 7//22 11//22
f 15//23 9//23 4//23
f 15//24 4//24 7//24
f 16//25 13//25 2//25
f 16//26 2//26 8//26
f 16//27 8//27 13//27
f 17//28 15//28 3//28
f 17//29 3//29 9//29
f 17//30 9//30 15//30
