# Blender 5.1.0
# www.blender.org
mtllib model_collision_6.mtl
o model_collision_6
v -0.064127 -0.020940 0.004400
v -0.064164 -0.049882 0.004720
v -0.064008 -0.049824 0.001767
v -0.101437 -0.020901 0.001937
v -0.101289 -0.033348 0.004935
v -0.064080 -0.020885 0.001554
v -0.076561 -0.049896 0.005254
v -0.101283 -0.020947 0.004727
v -0.101329 -0.033322 0.002244
v -0.076495 -0.049857 0.002309
v -0.101455 -0.024955 0.002033
v -0.072194 -0.049802 0.002110
vn 0.9986 -0.0007 0.0528
vn 0.9999 0.0026 0.0166
vn -0.0103 -0.0074 -0.9999
vn 0.0430 0.0110 0.9990
vn -0.0003 0.9999 0.0165
vn -0.0000 0.9998 0.0193
vn 0.0088 0.0257 0.9996
vn -0.0018 0.0167 0.9999
vn -0.5562 -0.8311 0.0002
vn 0.0018 -0.9998 -0.0198
vn 0.0005 -0.9999 -0.0131
vn -0.5540 -0.8322 -0.0234
vn -0.9985 0.0058 0.0550
vn -0.9981 0.0015 0.0615
vn -0.9998 -0.0148 0.0146
vn -0.0226 -0.0233 -0.9995
vn -0.0241 -0.0256 -0.9994
vn -0.0453 -0.0720 -0.9964
vn -0.0419 -0.0659 -0.9969
vn -0.0408 -0.2855 -0.9575
s 0
f 1//1 2//1 3//1
f 6//2 1//2 3//2
f 6//3 3//3 4//3
f 7//4 2//4 1//4
f 8//5 6//5 4//5
f 8//6 1//6 6//6
f 8//7 7//7 1//7
f 8//8 5//8 7//8
f 9//9 7//9 5//9
f 10//10 3//10 2//10
f 10//11 2//11 7//11
f 10//12 7//12 9//12
f 11//13 8//13 4//13
f 11//14 5//14 8//14
f 11//15 9//15 5//15
f 11//16 4//16 3//16
f 11//17 3//17 9//17
f 12//18 10//18 9//18
f 12//19 9//19 3//19
f 12//20 3//20 10//20
