# Blender 5.1.0
# www.blender.org
mtllib model_collision_21.mtl
o model_collision_21
v 0.124614 0.106329 0.007923
v 0.135513 -0.050056 0.005790
v 0.130480 0.100416 0.005821
v 0.072391 0.108065 0.005020
v 0.072483 -0.049934 0.008207
v 0.120278 0.106684 0.006079
v 0.134260 0.096290 0.007543
v 0.072383 0.107646 0.007097
v 0.072078 -0.049802 0.005075
v 0.127669 0.103379 0.006369
v 0.124731 0.106437 0.007612
v 0.135215 0.093958 0.006653
v 0.134799 -0.050200 0.007880
v 0.134282 0.096484 0.006914
vn 0.0139 0.0007 -0.9999
vn 0.0244 0.0807 -0.9964
vn -0.0156 0.0070 0.9999
vn 0.0113 -0.0004 -0.9999
vn -1.0000 0.0020 -0.0038
vn -0.9917 0.0003 0.1282
vn 0.1938 0.3531 -0.9153
vn 0.0269 0.9963 0.0820
vn 0.2922 0.5874 -0.7547
vn 0.6510 0.6082 0.4542
vn 0.0185 0.9425 0.3338
vn 0.0207 0.9800 0.1982
vn 0.1813 0.0063 -0.9834
vn 0.6872 0.0042 0.7264
vn 0.9464 -0.0000 0.3231
vn -0.0032 -0.9976 -0.0695
vn -0.0045 -0.9991 -0.0415
vn 0.0419 0.0025 0.9991
vn 0.0052 0.0001 1.0000
vn 0.7102 0.6654 0.2298
vn 0.7225 0.6908 -0.0277
vn 0.7216 0.6923 0.0020
vn 0.5170 0.2746 -0.8107
vn 0.9339 0.3311 0.1346
s 0
f 3//1 2//1 4//1
f 6//2 3//2 4//2
f 8//3 5//3 1//3
f 9//4 4//4 2//4
f 9//5 8//5 4//5
f 9//6 5//6 8//6
f 10//7 3//7 6//7
f 11//8 6//8 4//8
f 11//9 10//9 6//9
f 11//10 1//10 7//10
f 11//11 8//11 1//11
f 11//12 4//12 8//12
f 12//13 2//13 3//13
f 13//14 12//14 7//14
f 13//15 2//15 12//15
f 13//16 9//16 2//16
f 13//17 5//17 9//17
f 13//18 7//18 1//18
f 13//19 1//19 5//19
f 14//20 11//20 7//20
f 14//21 3//21 10//21
f 14//22 10//22 11//22
f 14//23 12//23 3//23
f 14//24 7//24 12//24
