# Blender 5.1.0
# www.blender.org
mtllib model_collision_14.mtl
o model_collision_14
v 0.035265 -0.062307 0.006131
v 0.039267 -0.108301 0.006634
v 0.039202 -0.078770 0.003562
v 0.014447 -0.062271 0.002335
v 0.014594 -0.107770 0.006301
v 0.035094 -0.062248 0.003006
v 0.039423 -0.078931 0.006752
v 0.014465 -0.062274 0.005559
v 0.039575 -0.108597 0.003616
v 0.014421 -0.108577 0.003525
v 0.014613 -0.087157 0.005987
vn 0.9694 0.2406 -0.0487
vn 0.9694 0.2391 -0.0553
vn -0.0136 -0.0040 0.9999
vn -0.0012 1.0000 0.0009
vn 0.0011 0.9998 0.0188
vn -0.0274 0.0305 0.9992
vn 0.9948 -0.0057 0.1019
vn 0.9976 0.0124 -0.0686
vn 0.1335 -0.0001 -0.9910
vn 0.0325 -0.0100 -0.9994
vn -1.0000 0.0007 0.0057
vn -0.9980 -0.0018 0.0626
vn 0.0036 -0.0257 -0.9997
vn -0.0011 -0.9952 0.0974
vn -0.0244 -0.9596 0.2804
vn -0.2753 0.0149 0.9613
vn -0.0359 0.0153 0.9992
vn -0.0365 0.0170 0.9992
s 0
f 7//1 6//1 1//1
f 7//2 3//2 6//2
f 7//3 5//3 2//3
f 8//4 6//4 4//4
f 8//5 1//5 6//5
f 8//6 7//6 1//6
f 9//7 7//7 2//7
f 9//8 3//8 7//8
f 9//9 6//9 3//9
f 9//10 4//10 6//10
f 10//11 8//11 4//11
f 10//12 5//12 8//12
f 10//13 4//13 9//13
f 10//14 9//14 2//14
f 10//15 2//15 5//15
f 11//16 8//16 5//16
f 11//17 5//17 7//17
f 11//18 7//18 8//18
