# Blender 5.1.0
# www.blender.org
mtllib model_collision_27.mtl
o model_collision_27
v 0.039266 -0.033329 0.006018
v 0.039423 -0.078931 0.006752
v 0.039238 -0.037459 0.002905
v 0.035107 -0.033325 0.002782
v 0.035259 -0.078920 0.006602
v 0.039238 -0.033325 0.002891
v 0.035136 -0.033330 0.005880
v 0.035073 -0.078775 0.003401
v 0.039401 -0.045767 0.006128
v 0.039202 -0.078770 0.003562
vn 0.0264 -0.0033 -0.9996
vn -0.0001 1.0000 0.0013
vn -0.0360 0.0157 0.9992
vn -0.0335 0.0160 0.9993
vn -0.0003 1.0000 0.0016
vn -0.0011 -0.9990 -0.0453
vn 0.0161 -0.0136 -0.9998
vn -1.0000 0.0009 0.0095
vn -0.9983 -0.0018 0.0579
vn 0.9999 0.0108 -0.0088
vn 0.7013 0.0139 0.7128
vn 0.9987 -0.0003 -0.0511
vn 0.0388 -0.0159 -0.9991
vn 0.9976 -0.0020 -0.0694
vn 0.0030 -0.9987 -0.0504
s 0
f 6//1 3//1 4//1
f 6//2 4//2 1//2
f 7//3 5//3 2//3
f 7//4 2//4 1//4
f 7//5 1//5 4//5
f 8//6 2//6 5//6
f 8//7 4//7 3//7
f 8//8 7//8 4//8
f 8//9 5//9 7//9
f 9//10 6//10 1//10
f 9//11 1//11 2//11
f 9//12 2//12 3//12
f 9//12 3//12 6//12
f 10//13 8//13 3//13
f 10//14 3//14 2//14
f 10//15 2//15 8//15
