# Blender 5.1.0
# www.blender.org
mtllib model_collision_31_001.mtl
o model_collision_31.001
v -0.033297 -0.082475 -0.002880
v -0.025432 -0.082817 -0.042805
v -0.032419 -0.097057 -0.003605
v 0.004789 -0.083085 -0.043932
v 0.004493 -0.096797 -0.001654
v 0.004954 -0.083169 -0.003015
v 0.004320 -0.085905 -0.002629
v 0.004741 -0.095811 -0.042484
v -0.025066 -0.094733 -0.041528
vn 0.0086 0.9999 -0.0069
vn -0.9800 -0.0494 -0.1926
vn -0.0524 -0.0527 0.9972
vn 0.0181 0.9998 0.0020
vn 0.0015 0.0892 0.9960
vn 0.0060 0.1384 0.9904
vn 0.2033 0.0905 0.9749
vn 1.0000 -0.0043 -0.0040
vn 0.9994 -0.0333 0.0053
vn 0.0083 -0.9997 -0.0241
vn -0.0383 -0.9969 -0.0685
vn -0.0359 -0.1128 -0.9930
vn -0.9799 -0.0508 -0.1931
vn -0.0380 -0.1076 -0.9935
s 0
f 1//1 4//1 2//1
f 1//2 2//2 3//2
f 5//3 1//3 3//3
f 6//4 4//4 1//4
f 7//5 1//5 5//5
f 7//6 6//6 1//6
f 7//7 5//7 6//7
f 6//8 8//8 4//8
f 6//9 5//9 8//9
f 8//10 5//10 3//10
f 9//11 8//11 3//11
f 9//12 4//12 8//12
f 9//13 3//13 2//13
f 9//14 2//14 4//14
