# Blender 5.1.0
# www.blender.org
mtllib model_collision_4_001.mtl
o model_collision_4.001
v -0.036999 -0.043664 0.001737
v -0.026189 -0.083043 0.003529
v 0.032323 -0.062112 0.005314
v -0.039491 -0.043819 -0.002984
v -0.037676 -0.026000 -0.009364
v -0.037787 -0.083059 -0.008681
v 0.028628 -0.032397 0.003875
v -0.031212 -0.083218 -0.001000
v -0.039990 -0.084954 -0.013839
v -0.041614 -0.082846 -0.019101
v 0.041853 -0.062449 -0.007427
v 0.050302 -0.027180 -0.019129
v 0.046920 -0.013911 -0.005958
v 0.048715 -0.029212 -0.012923
v -0.022041 -0.013677 -0.015743
v 0.047716 -0.014153 -0.010888
v 0.047819 -0.014630 -0.018983
v -0.037277 -0.025159 -0.019598
v -0.040811 -0.043768 -0.017975
vn -0.6595 -0.1475 0.7371
vn -0.0425 0.0338 0.9985
vn -0.0400 0.0434 0.9983
vn -0.8779 -0.1059 0.4670
vn -0.8601 0.2474 0.4461
vn -0.1176 0.5252 0.8428
vn -0.7522 -0.1544 0.6406
vn -0.5856 -0.6474 0.4879
vn -0.2131 -0.9383 0.2725
vn -0.9603 -0.0602 0.2724
vn 0.2706 -0.8619 -0.4289
vn 0.2716 -0.9560 -0.1106
vn -0.9012 -0.1004 0.4217
vn 0.2137 -0.3534 -0.9107
vn 0.9669 -0.1678 0.1924
vn 0.8816 -0.1059 0.4600
vn 0.7954 -0.1011 0.5976
vn 0.3180 -0.9112 0.2619
vn 0.9688 0.0008 0.2480
vn 0.3964 0.0935 0.9133
vn -0.1120 0.5508 0.8271
vn -0.1139 0.5668 0.8159
vn 0.0101 0.9988 -0.0474
vn 0.9832 0.0978 0.1540
vn 0.9810 0.1941 0.0010
vn 0.0109 0.9982 -0.0587
vn 0.0056 0.0128 -0.9999
vn -0.0382 0.3632 -0.9309
vn 0.0051 -0.0090 -0.9999
vn -0.5649 0.0354 -0.8244
vn -0.6080 0.7929 0.0414
vn -0.9825 0.1846 -0.0232
vn -0.9960 0.0179 0.0877
vn -0.9874 0.1319 0.0874
s 0
f 8//1 2//1 1//1
f 2//2 3//2 1//2
f 7//3 1//3 3//3
f 6//4 1//4 4//4
f 4//5 1//5 5//5
f 7//6 5//6 1//6
f 8//7 1//7 6//7
f 8//8 6//8 9//8
f 8//9 9//9 2//9
f 9//10 4//10 10//10
f 9//11 10//11 11//11
f 9//12 11//12 2//12
f 9//13 6//13 4//13
f 11//14 10//14 12//14
f 14//15 11//15 12//15
f 14//16 13//16 11//16
f 11//17 13//17 3//17
f 11//18 3//18 2//18
f 14//19 12//19 13//19
f 7//20 3//20 13//20
f 7//21 13//21 5//21
f 5//22 13//22 15//22
f 16//23 15//23 13//23
f 16//24 13//24 12//24
f 16//25 12//25 17//25
f 16//26 17//26 15//26
f 12//27 18//27 17//27
f 15//28 17//28 18//28
f 12//29 10//29 18//29
f 19//30 18//30 10//30
f 5//31 15//31 18//31
f 5//32 18//32 19//32
f 4//33 19//33 10//33
f 4//34 5//34 19//34
