# Blender 5.1.0
# www.blender.org
mtllib model_collision_11_001.mtl
o model_collision_11.001
v -0.023109 -0.012697 0.042893
v -0.030475 -0.012490 0.031364
v 0.025197 -0.012104 0.042170
v -0.022469 -0.028544 0.032950
v -0.019601 -0.041859 0.027631
v -0.019288 -0.018181 0.042144
v -0.018449 -0.041323 0.029075
v -0.022056 -0.015527 0.042051
v 0.003689 -0.054323 0.019141
v -0.013363 -0.029535 0.037068
v -0.001525 -0.042420 0.027820
v 0.011594 -0.020563 0.041050
v 0.013825 -0.054457 0.018192
v 0.035892 -0.030514 0.018255
v 0.032476 -0.038321 0.018032
v 0.023920 -0.043827 0.024227
v 0.025612 -0.048560 0.018465
v 0.030779 -0.037638 0.024499
v 0.029761 -0.024513 0.033315
v 0.035302 -0.012530 0.030665
v 0.026830 -0.027672 0.033347
v 0.025039 -0.015168 0.040726
v 0.037505 -0.013592 0.019756
v -0.031439 -0.013104 0.028410
v -0.030523 -0.016591 0.027032
vn -0.7934 -0.3462 0.5007
vn -0.0119 0.9996 0.0255
vn 0.0164 -0.1240 0.9922
vn -0.7326 -0.3827 0.5629
vn -0.6276 -0.4189 0.6562
vn -0.4077 -0.3963 0.8226
vn -0.6004 -0.4248 0.6776
vn -0.4572 -0.4499 0.7672
vn -0.2547 -0.8224 0.5087
vn 0.0225 -0.5826 0.8125
vn 0.0241 -0.5682 0.8225
vn -0.2057 -0.4869 0.8489
vn 0.0860 -0.5532 0.8286
vn 0.0620 -0.5438 0.8369
vn 0.0692 -0.5678 0.8203
vn -0.0533 0.0517 -0.9972
vn -0.0917 0.0871 -0.9920
vn 0.0662 -0.0863 -0.9941
vn 0.0870 -0.5531 0.8286
vn 0.3258 -0.6815 0.6554
vn 0.8056 -0.5288 0.2672
vn 0.5056 -0.5880 0.6314
vn 0.4995 -0.4560 0.7366
vn 0.8238 -0.2707 0.4981
vn 0.8710 -0.2594 0.4173
vn 0.8787 -0.3923 0.2720
vn 0.4231 -0.5020 0.7543
vn 0.4467 -0.4064 0.7971
vn 0.1878 -0.5083 0.8405
vn 0.2109 -0.4742 0.8548
vn 0.4588 -0.3981 0.7944
vn 0.1924 -0.4265 0.8838
vn 0.9720 -0.1110 0.2071
vn -0.0004 0.9953 -0.0970
vn 0.0002 0.9993 -0.0368
vn 0.7333 -0.1950 0.6513
vn -0.0179 0.9801 -0.1977
vn -0.1148 0.3386 -0.9339
vn -0.1104 0.1066 -0.9882
vn -0.0992 0.0973 -0.9903
vn -0.8630 -0.3648 0.3494
vn -0.4310 -0.2071 -0.8783
vn -0.8605 -0.3639 0.3566
vn 0.0221 -0.1662 0.9858
vn 0.0009 -0.4078 0.9131
vn -0.8114 -0.3591 0.4612
s 0
f 4//1 1//1 2//1
f 2//2 1//2 3//2
f 6//3 3//3 1//3
f 4//4 5//4 1//4
f 7//5 1//5 5//5
f 8//6 6//6 1//6
f 8//7 1//7 7//7
f 8//8 7//8 6//8
f 7//9 5//9 9//9
f 11//10 7//10 9//10
f 11//11 10//11 7//11
f 7//12 10//12 6//12
f 11//13 13//13 12//13
f 11//14 12//14 10//14
f 11//15 9//15 13//15
f 14//16 15//16 13//16
f 14//17 13//17 9//17
f 17//18 13//18 15//18
f 16//19 12//19 13//19
f 17//20 16//20 13//20
f 17//21 15//21 18//21
f 17//22 18//22 16//22
f 21//23 18//23 19//23
f 19//24 18//24 20//24
f 14//25 20//25 18//25
f 14//26 18//26 15//26
f 21//27 16//27 18//27
f 22//28 21//28 19//28
f 21//29 12//29 16//29
f 22//30 12//30 21//30
f 22//31 19//31 3//31
f 22//32 3//32 12//32
f 14//33 23//33 20//33
f 20//34 23//34 2//34
f 20//35 2//35 3//35
f 19//36 20//36 3//36
f 2//37 23//37 24//37
f 25//38 24//38 23//38
f 9//39 25//39 23//39
f 14//40 9//40 23//40
f 5//41 24//41 25//41
f 5//42 25//42 9//42
f 5//43 2//43 24//43
f 6//44 12//44 3//44
f 6//45 10//45 12//45
f 4//46 2//46 5//46
