# Blender 5.1.0
# www.blender.org
mtllib model_collision_29_001.mtl
o model_collision_29.001
v -0.034235 -0.026846 0.002751
v -0.035108 -0.044030 0.003729
v -0.032759 -0.031871 -0.042095
v -0.035969 -0.026332 -0.032373
v -0.038872 -0.026038 0.001489
v -0.038194 -0.027124 -0.020484
v -0.038489 -0.045459 -0.038459
v -0.038128 -0.043051 0.000098
v -0.036240 -0.044900 -0.042587
v -0.033563 -0.032932 -0.041422
v -0.037277 -0.032756 -0.033479
v -0.036715 -0.027484 -0.031190
v -0.034246 -0.044237 -0.044558
vn -0.2512 0.0677 0.9656
vn 0.9981 -0.0485 0.0383
vn 0.8381 0.5444 -0.0334
vn 0.1699 0.9854 0.0060
vn -0.5952 0.8015 -0.0580
vn -0.9983 0.0486 -0.0332
vn -0.9989 -0.0447 0.0121
vn -0.7772 -0.0850 0.6235
vn -0.3736 -0.9256 0.0613
vn 0.2616 -0.9651 0.0117
vn -0.9805 0.1454 -0.1322
vn -0.8663 0.2366 -0.4399
vn -0.8759 0.2463 -0.4150
vn -0.9096 0.2432 -0.3369
vn -0.8751 0.2496 -0.4147
vn -0.9762 0.1650 -0.1404
vn -0.8898 0.4351 -0.1375
vn -0.8233 0.3316 -0.4607
vn -0.7857 0.2316 -0.5736
vn 0.3242 -0.9459 0.0098
vn -0.7217 0.2177 -0.6571
vn 0.9922 -0.1230 0.0183
s 0
f 5//1 2//1 1//1
f 2//2 3//2 1//2
f 4//3 1//3 3//3
f 5//4 1//4 4//4
f 5//5 4//5 6//5
f 5//6 6//6 7//6
f 5//7 7//7 8//7
f 5//8 8//8 2//8
f 7//9 2//9 8//9
f 9//10 2//10 7//10
f 11//11 7//11 6//11
f 9//12 7//12 10//12
f 11//13 10//13 7//13
f 11//14 12//14 4//14
f 11//15 4//15 10//15
f 11//16 6//16 12//16
f 12//17 6//17 4//17
f 10//18 4//18 3//18
f 9//19 10//19 3//19
f 9//20 13//20 2//20
f 9//21 3//21 13//21
f 13//22 3//22 2//22
