# Blender 5.1.0
# www.blender.org
mtllib model_collision_9_001.mtl
o model_collision_9.001
v 0.035314 0.042631 0.028489
v 0.034002 0.058522 0.023456
v 0.033722 0.008692 0.027010
v 0.039931 0.008666 0.027569
v 0.038423 0.052938 0.025370
v 0.036819 0.057415 0.024213
v 0.038118 0.057913 0.022763
v 0.043074 0.033389 0.019699
v 0.042732 0.041899 0.011753
v 0.036633 0.060115 -0.037514
v 0.038036 0.058847 -0.013457
v 0.042868 0.041379 0.003044
v 0.037479 0.059616 -0.035506
v 0.046116 0.007265 -0.027049
v 0.042651 0.007794 0.018281
v 0.044958 0.009715 -0.029241
v 0.029404 0.046901 -0.043569
v 0.030244 0.038971 -0.008634
vn -0.1413 0.2883 0.9471
vn -0.9407 0.0294 0.3379
vn -0.0899 -0.0392 0.9952
vn 0.6007 0.0601 0.7972
vn 0.0644 0.2712 0.9604
vn 0.6121 0.3962 0.6843
vn 0.2069 0.8534 0.4785
vn 0.9633 0.1686 0.2088
vn 0.9727 0.1780 0.1488
vn 0.9618 0.2738 0.0049
vn 0.1517 0.9879 0.0323
vn 0.4330 0.9011 0.0222
vn 0.9640 0.2659 -0.0008
vn 0.9674 0.2529 -0.0156
vn 0.4738 0.8804 0.0188
vn 0.9256 0.0934 -0.3668
vn 0.9862 0.1521 -0.0659
vn 0.9969 -0.0207 0.0764
vn -0.0958 -0.9954 0.0043
vn -0.8211 -0.5437 -0.1739
vn 0.9181 0.0882 -0.3865
vn 0.9974 0.0661 0.0279
vn 0.9963 0.0856 0.0104
vn -0.8797 -0.4387 -0.1837
vn 0.6579 -0.0149 -0.7529
vn -0.9927 0.1105 0.0489
vn -0.9931 -0.1174 -0.0028
vn -0.8722 0.4885 -0.0249
vn -0.9940 0.0133 0.1083
vn -0.0122 -0.9959 0.0899
vn 0.9584 -0.0315 0.2836
vn 0.8562 0.0547 0.5137
s 0
f 6//1 2//1 1//1
f 2//2 3//2 1//2
f 4//3 1//3 3//3
f 5//4 1//4 4//4
f 6//5 1//5 5//5
f 7//6 6//6 5//6
f 7//7 2//7 6//7
f 7//8 5//8 8//8
f 7//9 8//9 9//9
f 11//10 7//10 9//10
f 7//11 10//11 2//11
f 11//12 10//12 7//12
f 11//13 9//13 12//13
f 11//14 12//14 13//14
f 11//15 13//15 10//15
f 10//16 13//16 14//16
f 12//17 14//17 13//17
f 8//18 15//18 14//18
f 15//19 3//19 14//19
f 16//20 14//20 3//20
f 10//21 14//21 16//21
f 8//22 14//22 9//22
f 12//23 9//23 14//23
f 16//24 3//24 17//24
f 10//25 16//25 17//25
f 2//26 17//26 18//26
f 18//27 17//27 3//27
f 10//28 17//28 2//28
f 2//29 18//29 3//29
f 4//30 3//30 15//30
f 8//31 4//31 15//31
f 5//32 4//32 8//32
