# Blender 5.1.0
# www.blender.org
mtllib model_collision_30_001.mtl
o model_collision_30.001
v 0.003585 -0.041197 -0.005430
v 0.047490 -0.013114 -0.019253
v 0.003978 -0.012425 -0.011846
v 0.003410 -0.013997 -0.042216
v 0.004378 -0.044426 -0.044023
v 0.049488 -0.045111 -0.016217
v 0.043493 -0.013918 -0.043964
v 0.043378 -0.044194 -0.044631
vn 0.2360 0.1064 0.9659
vn 0.1673 0.2124 0.9628
vn -0.9997 0.0176 0.0178
vn -0.9994 -0.0307 -0.0180
vn -0.0656 -0.9945 0.0819
vn 0.0054 -0.9994 -0.0334
vn 0.9859 0.0463 -0.1609
vn 0.9777 0.0009 -0.2102
vn -0.0157 0.0221 -0.9996
vn 0.0100 0.9994 -0.0341
vn -0.0042 0.9987 -0.0516
vn -0.0436 0.0578 -0.9974
s 0
f 6//1 2//1 1//1
f 1//2 2//2 3//2
f 4//3 1//3 3//3
f 4//4 5//4 1//4
f 6//5 1//5 5//5
f 8//6 6//6 5//6
f 6//7 7//7 2//7
f 8//8 7//8 6//8
f 8//9 5//9 7//9
f 2//10 7//10 3//10
f 4//11 3//11 7//11
f 4//12 7//12 5//12
