# Blender 5.1.0
# www.blender.org
mtllib model_collision_19_001.mtl
o model_collision_19.001
v -0.028114 -0.117050 -0.004704
v 0.029120 -0.117151 -0.005750
v -0.034833 -0.116614 -0.011642
v -0.012382 -0.135075 -0.001645
v -0.029490 -0.128660 -0.008817
v -0.025558 -0.132986 -0.005994
v -0.011125 -0.146249 -0.002215
v -0.006906 -0.148897 -0.002270
v -0.021497 -0.140781 -0.005959
v -0.014189 -0.148217 -0.005194
v -0.006734 -0.151513 -0.004554
v -0.014156 -0.152242 -0.010800
v -0.017437 -0.152082 -0.013199
v -0.010338 -0.155568 -0.015290
v -0.003421 -0.156164 -0.010018
v -0.024717 -0.144371 -0.013783
v -0.021542 -0.147850 -0.025800
v -0.018016 -0.151474 -0.022365
v -0.010458 -0.155620 -0.022515
v -0.006974 -0.155978 -0.025149
v -0.014696 -0.151591 -0.027635
v -0.019926 -0.144887 -0.031008
v 0.004697 -0.150849 -0.030904
v 0.015731 -0.155908 -0.025456
v 0.024633 -0.148271 -0.030872
v 0.043080 -0.120570 -0.039571
v -0.008095 -0.133857 -0.035135
v 0.043375 -0.116670 -0.040586
v -0.036726 -0.116243 -0.036963
v -0.034040 -0.123433 -0.035589
v -0.026353 -0.139488 -0.031346
v -0.033409 -0.127872 -0.033337
v -0.025327 -0.143712 -0.025970
v -0.038370 -0.120310 -0.020558
v -0.037847 -0.119724 -0.030914
v -0.038905 -0.116429 -0.031137
v -0.039282 -0.116670 -0.020490
v -0.033707 -0.128868 -0.016876
v 0.048121 -0.115670 -0.038289
v 0.037043 -0.117066 -0.009088
v 0.048483 -0.116855 -0.022110
v 0.046631 -0.119029 -0.037956
v 0.047153 -0.120280 -0.021546
v 0.038323 -0.135281 -0.032943
v 0.038451 -0.136736 -0.017013
v 0.035095 -0.133675 -0.010130
v 0.030888 -0.141085 -0.009274
v 0.027118 -0.141590 -0.006211
v 0.019444 -0.148744 -0.005610
v 0.012331 -0.146865 -0.002234
v 0.012352 -0.143518 -0.002034
v 0.023453 -0.152683 -0.012981
v 0.023585 -0.151184 -0.028164
v 0.030400 -0.148090 -0.015534
v 0.015888 -0.156289 -0.012681
v 0.019542 -0.152936 -0.010557
v 0.011621 -0.151807 -0.004764
v 0.007828 -0.149621 -0.002248
v 0.008088 -0.156439 -0.010081
v 0.030351 -0.147756 -0.018440
v 0.034124 -0.144279 -0.016768
v 0.031070 -0.143285 -0.031889
v 0.039392 -0.131148 -0.035641
v 0.004178 -0.135143 -0.002232
vn 0.0183 0.1828 0.9830
vn 0.0029 0.9982 0.0599
vn -0.7144 -0.1569 0.6819
vn -0.2779 -0.0801 0.9573
vn -0.6900 -0.1677 0.7041
vn -0.3636 -0.1330 0.9220
vn -0.4322 -0.2212 0.8742
vn -0.0202 -0.0532 0.9984
vn -0.3506 -0.5741 0.7399
vn -0.4913 -0.4034 0.7719
vn -0.3389 -0.6313 0.6975
vn -0.3790 -0.7528 0.5382
vn -0.4214 -0.7379 0.5272
vn -0.6316 -0.5662 0.5296
vn -0.4376 -0.8991 0.0137
vn -0.3330 -0.8804 0.3375
vn -0.3394 -0.8477 0.4077
vn -0.6395 -0.5643 0.5221
vn -0.7274 -0.6862 0.0065
vn -0.7162 -0.6979 -0.0010
vn -0.4812 -0.8762 -0.0277
vn -0.3666 -0.8542 -0.3688
vn -0.0958 -0.9954 0.0087
vn -0.4666 -0.8405 -0.2754
vn -0.5104 -0.6696 -0.5396
vn -0.1225 -0.5207 -0.8449
vn -0.1064 -0.6253 -0.7731
vn -0.5184 -0.7974 -0.3090
vn 0.0839 -0.6397 -0.7640
vn -0.0068 -0.7396 -0.6730
vn -0.0656 -0.2873 -0.9556
vn 0.0436 -0.3256 -0.9445
vn -0.0178 -0.2542 -0.9670
vn -0.0188 -0.2505 -0.9679
vn -0.0454 -0.1758 -0.9834
vn -0.0680 -0.2116 -0.9750
vn -0.0892 -0.2638 -0.9604
vn -0.2545 -0.3592 -0.8979
vn -0.5247 -0.4433 -0.7267
vn -0.7458 -0.3827 -0.5452
vn -0.8030 -0.5334 -0.2658
vn -0.8777 -0.4755 -0.0594
vn -0.8847 -0.4608 -0.0707
vn -0.8587 -0.3590 -0.3657
vn -0.9487 -0.3093 -0.0654
vn -0.8877 -0.3084 -0.3420
vn -0.9694 -0.2424 -0.0398
vn -0.0537 0.9983 0.0207
vn -0.0386 0.9991 0.0175
vn -0.8697 -0.2263 0.4388
vn -0.8513 -0.2703 0.4497
vn -0.8750 -0.4838 -0.0166
vn -0.8664 -0.4992 0.0164
vn -0.8136 -0.3849 0.4357
vn -0.8500 -0.2711 0.4518
vn -0.7380 -0.6748 0.0004
vn -0.6781 -0.6352 -0.3697
vn -0.5253 -0.6591 -0.5382
vn -0.0065 0.9999 0.0151
vn -0.0122 0.9258 -0.3777
vn 0.4643 -0.2558 -0.8479
vn 0.0040 0.9988 0.0478
vn 0.0112 0.9986 0.0520
vn 0.0631 0.9954 0.0715
vn 0.5001 -0.3022 -0.8115
vn 0.9284 -0.3684 -0.0477
vn 0.9102 -0.4098 -0.0602
vn 0.7845 -0.2084 0.5840
vn 0.8805 -0.4698 -0.0638
vn 0.8770 -0.4777 -0.0507
vn 0.8063 -0.2833 0.5192
vn 0.7461 -0.1285 0.6533
vn 0.5273 -0.1147 0.8419
vn 0.7598 -0.3696 0.5349
vn 0.6284 -0.2727 0.7285
vn 0.3882 -0.0492 0.9202
vn 0.2769 -0.0408 0.9600
vn 0.5672 -0.5574 0.6063
vn 0.3450 -0.2952 0.8910
vn 0.2788 -0.0589 0.9585
vn 0.5672 -0.5574 0.6062
vn 0.4930 -0.8662 -0.0813
vn 0.5295 -0.8447 -0.0788
vn 0.5861 -0.5622 0.5834
vn 0.4291 -0.9027 -0.0322
vn 0.4128 -0.6908 0.5936
vn 0.3807 -0.7540 0.5353
vn 0.3451 -0.7126 0.6108
vn 0.3292 -0.7346 0.5933
vn 0.0006 -0.7543 0.6566
vn 0.2773 -0.4779 0.8335
vn 0.2030 -0.8012 0.5629
vn 0.0092 -0.9995 -0.0299
vn 0.0027 -0.9994 -0.0332
vn -0.0239 -0.9997 -0.0066
vn -0.0148 -0.7658 0.6430
vn -0.0059 -0.7543 0.6565
vn 0.2787 -0.4599 0.8431
vn 0.0333 -0.0597 0.9977
vn 0.0030 -0.0373 0.9993
vn -0.0038 -0.0467 0.9989
vn -0.0335 -0.6586 0.7517
vn 0.5640 -0.8193 -0.1037
vn 0.6906 -0.5081 0.5148
vn 0.6968 -0.7112 -0.0935
vn 0.7152 -0.6730 -0.1887
vn 0.8655 -0.4982 -0.0525
vn 0.7560 -0.4173 0.5043
vn 0.7093 -0.6794 -0.1879
vn 0.6604 -0.7224 -0.2049
vn 0.4449 -0.6905 -0.5702
vn 0.1599 -0.3911 -0.9064
vn 0.1669 -0.3939 -0.9039
vn 0.5206 -0.5570 -0.6471
vn 0.6930 -0.5111 -0.5085
vn 0.5242 -0.4511 -0.7223
vn 0.1876 -0.7043 -0.6847
vn 0.0723 0.0940 0.9929
vn 0.0356 0.0583 0.9977
vn 0.0357 0.1440 0.9889
vn -0.0931 -0.9956 0.0096
vn -0.7805 -0.3913 0.4876
vn -0.7693 -0.3985 0.4994
vn -0.3308 -0.8081 0.4874
s 0
f 4//1 2//1 1//1
f 2//2 3//2 1//2
f 5//3 1//3 3//3
f 7//4 4//4 1//4
f 5//5 6//5 1//5
f 7//6 1//6 6//6
f 9//7 7//7 6//7
f 7//8 8//8 4//8
f 10//9 8//9 7//9
f 10//10 7//10 9//10
f 10//11 11//11 8//11
f 10//12 12//12 11//12
f 10//13 13//13 12//13
f 10//14 9//14 13//14
f 13//15 19//15 14//15
f 13//16 14//16 15//16
f 12//17 13//17 15//17
f 9//18 16//18 13//18
f 13//19 16//19 17//19
f 13//20 17//20 18//20
f 13//21 18//21 19//21
f 19//22 21//22 20//22
f 19//23 20//23 14//23
f 19//24 18//24 21//24
f 17//25 22//25 21//25
f 21//26 22//26 23//26
f 21//27 23//27 20//27
f 17//28 21//28 18//28
f 25//29 24//29 23//29
f 24//30 20//30 23//30
f 27//31 23//31 22//31
f 25//32 23//32 26//32
f 27//33 26//33 23//33
f 27//34 28//34 26//34
f 27//35 29//35 28//35
f 30//36 29//36 27//36
f 30//37 27//37 22//37
f 30//38 22//38 31//38
f 32//39 30//39 31//39
f 32//40 29//40 30//40
f 32//41 31//41 33//41
f 32//42 33//42 34//42
f 35//43 32//43 34//43
f 35//44 29//44 32//44
f 35//45 34//45 36//45
f 35//46 36//46 29//46
f 34//47 37//47 36//47
f 36//48 37//48 3//48
f 36//49 3//49 29//49
f 34//50 3//50 37//50
f 34//51 38//51 3//51
f 34//52 33//52 38//52
f 38//53 33//53 16//53
f 5//54 38//54 16//54
f 5//55 3//55 38//55
f 17//56 16//56 33//56
f 31//57 17//57 33//57
f 31//58 22//58 17//58
f 3//59 39//59 29//59
f 29//60 39//60 28//60
f 26//61 28//61 39//61
f 2//62 39//62 3//62
f 2//63 40//63 39//63
f 41//64 39//64 40//64
f 42//65 26//65 39//65
f 43//66 39//66 41//66
f 43//67 42//67 39//67
f 46//68 43//68 41//68
f 43//69 44//69 42//69
f 43//70 45//70 44//70
f 46//71 45//71 43//71
f 46//72 41//72 40//72
f 46//73 40//73 48//73
f 46//74 47//74 45//74
f 46//75 48//75 47//75
f 48//76 40//76 2//76
f 51//77 48//77 2//77
f 52//78 48//78 49//78
f 49//79 48//79 50//79
f 51//80 50//80 48//80
f 47//81 48//81 52//81
f 52//82 24//82 53//82
f 52//83 53//83 54//83
f 47//84 52//84 54//84
f 55//85 24//85 52//85
f 56//86 52//86 49//86
f 56//87 55//87 52//87
f 56//88 49//88 57//88
f 56//89 57//89 55//89
f 58//90 59//90 57//90
f 58//91 57//91 49//91
f 55//92 57//92 59//92
f 55//93 59//93 24//93
f 24//94 59//94 20//94
f 15//95 20//95 59//95
f 11//96 15//96 59//96
f 11//97 59//97 58//97
f 58//98 49//98 50//98
f 58//99 50//99 51//99
f 58//100 51//100 4//100
f 58//101 4//101 8//101
f 11//102 58//102 8//102
f 60//103 54//103 53//103
f 61//104 47//104 54//104
f 61//105 54//105 60//105
f 61//106 62//106 44//106
f 61//107 44//107 45//107
f 61//108 45//108 47//108
f 61//109 60//109 62//109
f 60//110 53//110 62//110
f 62//111 53//111 25//111
f 62//112 25//112 26//112
f 62//113 26//113 63//113
f 62//114 63//114 44//114
f 42//115 44//115 63//115
f 42//116 63//116 26//116
f 25//117 53//117 24//117
f 64//118 51//118 2//118
f 64//119 4//119 51//119
f 64//120 2//120 4//120
f 15//121 14//121 20//121
f 5//122 16//122 6//122
f 9//123 6//123 16//123
f 12//124 15//124 11//124
