# Blender 5.1.0
# www.blender.org
mtllib model_collision_14_001.mtl
o model_collision_14.001
v -0.044193 0.072283 -0.005930
v -0.040577 0.072972 -0.045836
v -0.042376 0.059361 -0.005644
v -0.003904 0.072860 -0.008474
v -0.021313 0.072322 -0.044043
v -0.003741 0.060031 -0.010288
v -0.022313 0.059952 -0.043731
v -0.004827 0.058388 -0.010595
v -0.038095 0.060902 -0.045326
v -0.027730 0.060376 -0.044613
v -0.026135 0.072330 -0.044754
vn -0.0133 0.9998 0.0161
vn -0.9858 -0.1406 -0.0917
vn 0.0626 0.0308 0.9976
vn 0.1206 -0.1375 0.9831
vn 0.0368 0.9988 -0.0331
vn 0.8953 0.0734 -0.4393
vn 0.8713 -0.0826 -0.4837
vn 0.7864 -0.4379 -0.4357
vn 0.1197 -0.2579 0.9587
vn -0.0300 -0.9991 -0.0313
vn -0.0294 -0.9593 -0.2807
vn -0.0555 -0.9975 -0.0447
vn 0.1576 -0.0376 -0.9868
vn 0.0672 -0.0283 -0.9973
vn 0.1458 -0.0312 -0.9888
vn 0.0737 -0.0216 -0.9970
vn 0.0762 0.8584 -0.5072
vn -0.9723 -0.2047 -0.1128
s 0
f 4//1 2//1 1//1
f 1//2 2//2 3//2
f 4//3 1//3 3//3
f 6//4 4//4 3//4
f 4//5 5//5 2//5
f 6//6 5//6 4//6
f 6//7 7//7 5//7
f 8//8 7//8 6//8
f 8//9 6//9 3//9
f 8//10 3//10 7//10
f 10//11 7//11 9//11
f 9//12 7//12 3//12
f 10//13 5//13 7//13
f 10//14 9//14 2//14
f 11//15 5//15 10//15
f 11//16 10//16 2//16
f 11//17 2//17 5//17
f 9//18 3//18 2//18
