# Blender 5.1.0
# www.blender.org
mtllib model_collision_26_001.mtl
o model_collision_26.001
v -0.030401 0.111749 0.006460
v -0.024479 0.121382 -0.020845
v -0.039408 0.105310 -0.021125
v -0.032594 0.081625 0.007692
v -0.038858 0.100246 0.006673
v -0.034083 0.107557 0.006372
v -0.022228 0.118880 0.006366
v 0.009777 0.103337 0.007831
v 0.006847 0.120181 0.006645
v -0.012248 0.123536 0.002405
v -0.012288 0.123725 -0.013964
v -0.000871 0.123485 0.002393
v -0.000350 0.123878 -0.014154
v 0.008302 0.122773 -0.020235
v -0.041976 0.072496 -0.018518
v -0.004929 0.070696 -0.008931
v 0.008955 0.098572 -0.003000
v 0.007563 0.095716 -0.003606
v -0.044193 0.072283 -0.005930
v -0.045309 0.081394 0.006994
v -0.037745 0.103921 -0.002092
vn -0.6517 0.7485 0.1227
vn -0.7310 0.6776 0.0805
vn -0.7491 0.6561 0.0915
vn -0.0259 0.0428 0.9988
vn -0.0337 0.0433 0.9985
vn -0.2596 0.2084 0.9430
vn -0.0251 0.0425 0.9988
vn -0.0126 0.0681 0.9976
vn -0.0379 0.6934 0.7195
vn -0.3818 0.9170 0.1159
vn -0.1952 0.9807 0.0118
vn 0.0042 0.7933 0.6088
vn -0.0127 0.9999 0.0116
vn 0.0045 0.9997 0.0239
vn 0.1461 0.9889 0.0281
vn -0.0158 0.9796 -0.2005
vn -0.0360 0.9637 -0.2644
vn 0.0186 0.0002 -0.9998
vn 0.0489 -0.0829 -0.9954
vn 0.3401 0.9341 0.1085
vn 0.9819 0.1758 0.0701
vn 0.9976 -0.0206 -0.0667
vn 0.2298 -0.2619 -0.9373
vn 0.8253 -0.3119 -0.4707
vn 0.8314 -0.3073 -0.4629
vn 0.8791 -0.4572 0.1344
vn 0.8733 -0.4661 0.1415
vn -0.0422 -0.9988 -0.0243
vn 0.0093 -0.8284 0.5601
vn 0.2708 -0.5335 0.8013
vn -0.9870 0.0784 -0.1404
vn -0.9831 0.0632 -0.1721
vn -0.0167 -0.8179 0.5751
vn -0.0554 0.0360 0.9978
vn -0.9429 0.3239 0.0777
vn -0.8190 0.5626 0.1126
vn -0.8285 0.5462 0.1238
vn -0.8449 0.5231 0.1120
s 0
f 7//1 2//1 1//1
f 2//2 3//2 1//2
f 6//3 1//3 3//3
f 7//4 1//4 4//4
f 4//5 1//5 5//5
f 6//6 5//6 1//6
f 7//7 4//7 8//7
f 7//8 8//8 9//8
f 10//9 7//9 9//9
f 10//10 2//10 7//10
f 11//11 2//11 10//11
f 12//12 10//12 9//12
f 13//13 11//13 10//13
f 13//14 10//14 12//14
f 13//15 12//15 14//15
f 13//16 14//16 11//16
f 11//17 14//17 2//17
f 2//18 14//18 3//18
f 15//19 3//19 14//19
f 12//20 9//20 14//20
f 9//21 8//21 14//21
f 17//22 14//22 8//22
f 15//23 14//23 16//23
f 18//24 16//24 14//24
f 18//25 14//25 17//25
f 18//26 17//26 8//26
f 18//27 8//27 16//27
f 19//28 15//28 16//28
f 19//29 16//29 4//29
f 4//30 16//30 8//30
f 19//31 20//31 3//31
f 19//32 3//32 15//32
f 19//33 4//33 20//33
f 4//34 5//34 20//34
f 5//35 3//35 20//35
f 21//36 6//36 3//36
f 21//37 5//37 6//37
f 21//38 3//38 5//38
