# Blender 5.1.0
# www.blender.org
mtllib model_collision_13_001.mtl
o model_collision_13.001
v 0.045772 0.008393 -0.000866
v 0.041823 0.007930 -0.001580
v 0.021826 0.024572 -0.013539
v 0.034736 0.024785 -0.014135
v 0.042660 0.024845 -0.027238
v 0.047044 0.002806 -0.026723
v 0.040285 -0.014784 -0.001405
v 0.045984 -0.013826 -0.001907
v 0.047716 -0.014153 -0.010888
v 0.047402 -0.005679 -0.010365
v 0.048171 -0.015099 -0.043108
v 0.021389 -0.013708 -0.041928
v 0.022089 -0.014906 -0.009969
v 0.040024 0.003603 -0.044482
v 0.039038 0.024307 -0.044519
v 0.042040 0.003173 -0.044431
v 0.035886 0.025220 -0.045045
v 0.022807 0.024398 -0.042138
vn -0.1803 0.0198 0.9834
vn -0.2082 0.3933 0.8955
vn 0.0250 0.6391 0.7687
vn 0.6047 0.7058 0.3689
vn 0.9807 0.1953 0.0061
vn 0.9950 0.0962 0.0282
vn 0.0953 -0.0457 0.9944
vn 0.9819 0.0005 0.1894
vn 0.9914 0.0289 0.1273
vn 0.9993 0.0362 0.0131
vn 0.9984 0.0562 0.0073
vn -0.0487 -0.0942 -0.9944
vn -0.0534 -0.9979 -0.0362
vn 0.0029 -1.0000 0.0081
vn 0.0101 -0.0689 -0.9976
vn 0.9716 0.1900 -0.1408
vn 0.9547 0.2139 -0.2068
vn 0.3324 0.0433 -0.9422
vn 0.1237 -0.9918 0.0309
vn 0.0201 -0.0222 -0.9996
vn 0.1702 0.0201 -0.9852
vn -0.0646 0.9979 -0.0083
vn -0.2172 0.0027 -0.9761
vn -0.0952 -0.0442 -0.9945
vn -0.0158 0.9998 0.0135
vn 0.0168 0.9998 0.0147
vn 0.2911 0.9524 -0.0906
vn -0.9987 0.0370 -0.0345
vn -0.9998 -0.0047 0.0217
vn -0.4639 0.0767 0.8825
vn -0.4258 0.0358 0.9041
vn 0.1713 -0.9828 0.0688
s 0
f 7//1 1//1 2//1
f 2//2 1//2 3//2
f 4//3 3//3 1//3
f 4//4 1//4 5//4
f 6//5 5//5 1//5
f 10//6 6//6 1//6
f 7//7 8//7 1//7
f 9//8 1//8 8//8
f 10//9 1//9 9//9
f 10//10 9//10 11//10
f 10//11 11//11 6//11
f 14//12 11//12 12//12
f 12//13 11//13 13//13
f 7//14 13//14 11//14
f 16//15 11//15 14//15
f 6//16 11//16 5//16
f 15//17 5//17 11//17
f 16//18 15//18 11//18
f 9//19 7//19 11//19
f 16//20 14//20 17//20
f 16//21 17//21 15//21
f 18//22 3//22 17//22
f 18//23 17//23 12//23
f 14//24 12//24 17//24
f 4//25 17//25 3//25
f 4//26 5//26 17//26
f 15//27 17//27 5//27
f 18//28 12//28 3//28
f 12//29 13//29 3//29
f 2//30 3//30 13//30
f 7//31 2//31 13//31
f 9//32 8//32 7//32
