# Blender 5.1.0
# www.blender.org
mtllib model_collision_12_001.mtl
o model_collision_12.001
v -0.040538 0.060306 -0.013912
v -0.038900 0.060515 -0.043507
v -0.040128 -0.013938 -0.010604
v -0.039277 0.024845 -0.010345
v -0.027730 0.060376 -0.044613
v -0.004103 0.059483 -0.010390
v -0.029844 0.059766 -0.012493
v -0.003339 -0.014444 -0.041037
v -0.004929 0.058496 -0.042827
v -0.003990 -0.014394 -0.012006
v -0.030004 -0.015533 -0.037229
v -0.034524 -0.015107 -0.020160
v -0.037257 0.059918 -0.045615
v -0.028791 0.030875 -0.044122
v -0.021970 0.031134 -0.043821
vn 0.0133 0.9999 0.0078
vn -0.9984 -0.0080 -0.0553
vn -0.8813 0.0162 0.4723
vn -0.1262 0.0948 0.9875
vn 0.0215 0.9997 0.0112
vn -0.0414 0.7893 0.6127
vn -0.0803 0.0828 0.9933
vn 0.9997 0.0010 0.0224
vn 0.9994 0.0212 -0.0261
vn 0.0847 0.9959 -0.0325
vn 0.0080 -0.0069 0.9999
vn 0.0385 -0.0218 0.9990
vn -0.0080 -0.9931 0.1168
vn 0.0412 -0.9991 0.0026
vn 0.0156 -0.9995 0.0291
vn -0.2894 -0.9557 -0.0528
vn -0.9286 -0.1371 -0.3449
vn -0.8000 -0.1417 -0.5831
vn -0.2898 -0.1332 -0.9478
vn -0.1343 -0.1422 -0.9807
vn 0.0456 -0.0423 -0.9981
vn 0.0454 -0.0381 -0.9982
vn 0.0852 -0.0168 -0.9962
vn 0.0940 -0.0224 -0.9953
vn -0.0162 0.9586 -0.2841
vn 0.0930 0.2010 -0.9752
s 0
f 5//1 2//1 1//1
f 2//2 3//2 1//2
f 4//3 1//3 3//3
f 7//4 1//4 4//4
f 5//5 1//5 6//5
f 7//6 6//6 1//6
f 7//7 4//7 6//7
f 10//8 8//8 6//8
f 8//9 9//9 6//9
f 5//10 6//10 9//10
f 4//11 3//11 6//11
f 10//12 6//12 3//12
f 12//13 10//13 3//13
f 10//14 11//14 8//14
f 12//15 11//15 10//15
f 12//16 3//16 11//16
f 11//17 3//17 2//17
f 11//18 2//18 13//18
f 14//19 11//19 13//19
f 14//20 8//20 11//20
f 14//21 15//21 8//21
f 14//22 13//22 15//22
f 15//23 13//23 9//23
f 15//24 9//24 8//24
f 5//25 13//25 2//25
f 5//26 9//26 13//26
