# Blender 5.1.0
# www.blender.org
mtllib model_collision_0_001.mtl
o model_collision_0.001
v 0.008022 0.114185 -0.000363
v 0.038894 0.059412 -0.001471
v -0.003990 -0.014394 -0.012006
v -0.003872 0.094555 -0.004723
v -0.004072 0.123580 -0.019430
v 0.016570 0.114590 -0.001630
v 0.029784 0.096001 -0.001877
v 0.025496 0.103920 -0.001941
v 0.025666 0.108655 -0.021905
v 0.022595 0.113075 -0.021479
v 0.022248 0.108483 -0.001967
v -0.004211 0.125220 -0.033021
v 0.021711 0.111772 -0.043162
v 0.025085 0.108238 -0.039394
v 0.025505 0.104214 -0.045201
v 0.029658 0.101008 -0.037326
v 0.029670 0.092667 -0.045260
v 0.034263 0.084078 -0.035703
v 0.033943 0.084207 -0.002072
v 0.029291 0.100462 -0.021609
v 0.040594 0.045793 -0.026300
v 0.034782 0.079687 -0.037254
v 0.039630 0.024248 -0.043468
v 0.034115 0.063213 -0.045225
v 0.037806 0.024779 -0.045124
v -0.003339 -0.014444 -0.041037
v -0.004124 0.081148 -0.044069
v 0.021389 -0.013708 -0.041928
v 0.021789 -0.013979 -0.010201
v 0.042660 0.024845 -0.027238
v 0.037700 0.034363 -0.006958
v 0.013437 0.114110 -0.044502
v 0.019587 0.112591 -0.044308
vn 0.0990 0.0357 0.9944
vn -0.1061 -0.0798 0.9911
vn -0.2481 -0.0643 0.9666
vn -0.7288 0.3055 0.6128
vn 0.0211 0.9020 0.4311
vn 0.1418 0.0899 0.9858
vn 0.1374 0.0823 0.9871
vn 0.8726 0.4735 0.1197
vn 0.2649 0.1941 0.9446
vn 0.8195 0.5560 0.1388
vn 0.8051 0.5740 0.1494
vn 0.7264 0.6660 0.1697
vn 0.3943 0.9176 0.0497
vn 0.4371 0.8966 -0.0717
vn 0.7577 0.6488 -0.0699
vn 0.8187 0.5727 -0.0409
vn 0.8480 0.4623 -0.2590
vn 0.8257 0.4899 -0.2798
vn 0.8497 0.5258 -0.0408
vn 0.9416 0.2328 -0.2433
vn 0.8854 0.3211 -0.3362
vn 0.9134 0.4054 0.0354
vn 0.9647 0.2632 0.0082
vn 0.9497 0.3114 0.0330
vn 0.9114 0.4057 0.0690
vn 0.9421 0.3313 0.0514
vn 0.2568 0.0746 0.9636
vn 0.9806 0.1960 0.0086
vn 0.9872 0.1585 -0.0194
vn 0.9865 0.1440 -0.0779
vn 0.9413 0.2057 -0.2676
vn 0.9763 0.1065 -0.1884
vn 0.9389 0.1183 -0.3232
vn 0.9212 0.1386 -0.3635
vn 0.6810 0.0635 -0.7296
vn -0.0266 -0.0052 -0.9996
vn -0.0339 -0.0683 -0.9971
vn -0.0684 -0.0322 -0.9971
vn -0.0334 -0.0061 -0.9994
vn -0.0295 -0.0055 -0.9996
vn 0.5871 -0.3124 -0.7468
vn 0.0294 -0.9995 -0.0089
vn 0.8887 -0.4332 -0.1500
vn 0.8779 -0.4786 -0.0152
vn 0.8781 -0.3133 0.3618
vn 0.9769 0.1047 -0.1862
vn 0.9951 0.0975 0.0146
vn 0.9529 -0.1075 0.2835
vn 0.4644 -0.2106 0.8602
vn -0.0678 -0.1023 0.9924
vn 0.0159 -0.9999 0.0021
vn -0.9997 -0.0089 -0.0224
vn -1.0000 -0.0017 -0.0010
vn -0.4317 0.2185 -0.8751
vn -0.0478 0.0124 -0.9988
vn 0.0690 0.1538 -0.9857
vn 0.2248 0.8498 -0.4769
vn 0.5526 0.4642 -0.6922
vn 0.4166 0.9000 -0.1286
vn -0.9999 -0.0000 0.0102
vn 0.3152 0.9426 0.1105
vn -0.9999 0.0002 0.0139
s 0
f 7//1 1//1 2//1
f 2//2 1//2 3//2
f 4//3 3//3 1//3
f 5//4 4//4 1//4
f 5//5 1//5 6//5
f 8//6 6//6 1//6
f 8//7 1//7 7//7
f 9//8 8//8 7//8
f 11//9 6//9 8//9
f 9//10 10//10 8//10
f 11//11 8//11 10//11
f 11//12 10//12 6//12
f 6//13 10//13 12//13
f 13//14 12//14 10//14
f 14//15 13//15 10//15
f 9//16 14//16 10//16
f 14//17 16//17 15//17
f 14//18 15//18 13//18
f 9//19 16//19 14//19
f 18//20 17//20 16//20
f 17//21 15//21 16//21
f 20//22 16//22 9//22
f 18//23 16//23 19//23
f 20//24 19//24 16//24
f 20//25 9//25 7//25
f 20//26 7//26 19//26
f 19//27 7//27 2//27
f 18//28 19//28 2//28
f 18//29 2//29 21//29
f 22//30 18//30 21//30
f 22//31 17//31 18//31
f 22//32 21//32 23//32
f 22//33 23//33 24//33
f 22//34 24//34 17//34
f 24//35 23//35 25//35
f 24//36 25//36 17//36
f 28//37 26//37 25//37
f 25//38 26//38 27//38
f 25//39 27//39 15//39
f 17//40 25//40 15//40
f 28//41 25//41 23//41
f 28//42 29//42 26//42
f 30//43 28//43 23//43
f 30//44 29//44 28//44
f 31//45 29//45 30//45
f 30//46 23//46 21//46
f 30//47 21//47 2//47
f 31//48 30//48 2//48
f 31//49 2//49 29//49
f 29//50 2//50 3//50
f 29//51 3//51 26//51
f 27//52 26//52 3//52
f 27//53 3//53 12//53
f 32//54 27//54 12//54
f 32//55 15//55 27//55
f 33//56 15//56 32//56
f 33//57 32//57 12//57
f 33//58 13//58 15//58
f 33//59 12//59 13//59
f 5//60 12//60 3//60
f 5//61 6//61 12//61
f 5//62 3//62 4//62
