# Blender 5.1.0
# www.blender.org
mtllib model_collision_21_001.mtl
o model_collision_21.001
v -0.024051 0.000362 0.048281
v 0.032628 0.008737 0.048948
v -0.028002 0.000574 0.044437
v -0.023109 -0.012697 0.042893
v 0.020069 0.005460 0.052905
v -0.016869 -0.013345 0.045324
v -0.027741 -0.012682 0.035708
v 0.028221 -0.012243 0.041199
v -0.025821 -0.012600 0.039729
v 0.012657 -0.009644 0.045904
v 0.019677 -0.006598 0.046855
v -0.030878 -0.001512 0.037990
v 0.037694 0.008154 0.036888
v 0.035576 0.008995 0.044135
v 0.032655 -0.011518 0.037345
v 0.035530 0.000299 0.035825
v 0.031244 -0.011842 0.039000
v 0.029980 0.002065 0.047195
vn -0.1420 0.9353 0.3240
vn -0.1455 0.9683 0.2029
vn -0.6686 -0.3244 0.6692
vn -0.3700 -0.3771 0.8491
vn -0.0728 -0.2466 0.9664
vn -0.1351 -0.9872 0.0847
vn 0.0164 -0.9961 -0.0872
vn 0.0793 -0.7380 0.6701
vn -0.1363 -0.9869 0.0867
vn 0.0369 -0.4351 0.8996
vn 0.0743 -0.4492 0.8904
vn 0.1445 -0.5826 0.7998
vn 0.2767 -0.4381 0.8553
vn -0.8292 -0.3047 0.4685
vn -0.8513 -0.3234 0.4131
vn -0.7200 -0.3361 0.6071
vn -0.1391 0.9587 -0.2482
vn -0.0424 0.1886 -0.9811
vn -0.1305 0.9797 -0.1519
vn -0.0272 0.1414 -0.9896
vn 0.9265 -0.2304 0.2975
vn 0.9615 -0.2490 -0.1167
vn 0.0294 -0.1346 -0.9905
vn 0.8253 -0.2799 0.4904
vn 0.7498 -0.3282 0.5746
vn 0.0237 -0.9847 -0.1729
vn 0.0224 -0.9885 -0.1495
vn 0.5754 -0.3870 0.7205
vn -0.1314 0.9910 -0.0273
vn 0.3517 -0.3983 0.8472
vn 0.4560 -0.3911 0.7994
vn 0.3656 -0.3696 0.8543
s 0
f 5//1 2//1 1//1
f 2//2 3//2 1//2
f 4//3 1//3 3//3
f 6//4 1//4 4//4
f 6//5 5//5 1//5
f 9//6 7//6 6//6
f 6//7 7//7 8//7
f 10//8 6//8 8//8
f 9//9 6//9 4//9
f 10//10 5//10 6//10
f 11//11 5//11 10//11
f 11//12 10//12 8//12
f 11//13 8//13 5//13
f 9//14 3//14 12//14
f 9//15 12//15 7//15
f 9//16 4//16 3//16
f 3//17 13//17 12//17
f 7//18 12//18 13//18
f 14//19 13//19 3//19
f 16//20 7//20 13//20
f 15//21 13//21 14//21
f 16//22 13//22 15//22
f 16//23 15//23 7//23
f 15//24 14//24 2//24
f 17//25 15//25 2//25
f 17//26 7//26 15//26
f 17//27 8//27 7//27
f 17//28 2//28 8//28
f 14//29 3//29 2//29
f 18//30 5//30 8//30
f 18//31 8//31 2//31
f 18//32 2//32 5//32
