# Blender 5.1.0
# www.blender.org
mtllib model_collision_16_001.mtl
o model_collision_16.001
v 0.025643 -0.015549 0.022199
v 0.026190 -0.027161 -0.007004
v 0.004597 -0.040577 0.020833
v 0.028784 -0.042467 0.018292
v 0.029212 -0.013261 0.019161
v 0.033577 -0.015678 0.013294
v 0.030505 -0.027079 -0.006669
v 0.034367 -0.046276 0.005093
v 0.029917 -0.060820 0.007156
v 0.030336 -0.031149 -0.005552
v 0.004640 -0.062449 0.004474
v 0.026117 -0.031291 -0.006043
v 0.004529 -0.051942 0.011585
v 0.004647 -0.059242 0.016657
v 0.025394 -0.061662 0.013766
vn -0.6766 0.6798 -0.2830
vn -0.7311 0.6292 -0.2639
vn 0.0933 -0.1324 0.9868
vn 0.6597 -0.0320 0.7508
vn -0.1224 0.8823 -0.4546
vn 0.7960 -0.0296 0.6045
vn 0.0221 0.8667 -0.4983
vn 0.9778 0.0774 -0.1947
vn 0.9084 -0.0862 0.4091
vn 0.8781 -0.2075 0.4312
vn 0.6681 -0.3009 -0.6805
vn 0.7976 -0.1903 -0.5724
vn 0.1220 -0.3922 -0.9118
vn 0.1195 -0.3905 -0.9128
vn 0.1203 -0.2676 -0.9560
vn -0.1505 -0.2215 -0.9635
vn 0.0795 -0.2272 -0.9706
vn -0.8028 0.3283 -0.4977
vn -0.9999 -0.0133 0.0041
vn -0.0771 -0.9642 0.2539
vn 0.0723 -0.9944 -0.0771
vn 0.1056 -0.2459 0.9635
vn 0.8110 -0.2661 0.5211
vn 0.0852 -0.2174 0.9724
vn -0.9999 -0.0060 0.0147
vn -0.8117 0.3715 -0.4506
s 0
f 5//1 2//1 1//1
f 2//2 3//2 1//2
f 4//3 1//3 3//3
f 5//4 1//4 4//4
f 6//5 2//5 5//5
f 6//6 5//6 4//6
f 6//7 7//7 2//7
f 6//8 8//8 7//8
f 6//9 4//9 8//9
f 8//10 4//10 9//10
f 8//11 9//11 10//11
f 8//12 10//12 7//12
f 10//13 9//13 11//13
f 12//14 10//14 11//14
f 12//15 7//15 10//15
f 12//16 11//16 2//16
f 12//17 2//17 7//17
f 13//18 2//18 11//18
f 13//19 11//19 14//19
f 15//20 14//20 11//20
f 15//21 11//21 9//21
f 15//22 4//22 14//22
f 15//23 9//23 4//23
f 4//24 3//24 14//24
f 13//25 14//25 3//25
f 13//26 3//26 2//26
