# Blender 5.1.0
# www.blender.org
mtllib model_collision_8_001.mtl
o model_collision_8.001
v -0.044018 0.059438 0.002681
v -0.040538 0.060306 -0.013912
v -0.039336 -0.028095 -0.017858
v -0.029844 0.059766 -0.012493
v -0.038167 -0.018413 0.008413
v -0.039511 0.059049 0.001816
v -0.034627 -0.013979 0.015932
v -0.038328 -0.013305 0.009274
v -0.032758 -0.026261 0.014997
v -0.033769 -0.024937 0.013983
v -0.037621 -0.025797 0.005117
v -0.037277 -0.025159 -0.019598
v -0.034854 -0.013926 -0.019269
v -0.031617 0.024831 -0.015881
vn 0.0423 0.9972 0.0610
vn -0.9787 -0.0041 -0.2054
vn -0.9951 -0.0696 0.0699
vn 0.1089 0.9864 0.1230
vn -0.9823 -0.0608 0.1772
vn 0.2012 0.1989 0.9591
vn -0.8749 -0.0246 0.4838
vn -0.8736 -0.1075 0.4747
vn 0.8138 0.1623 0.5580
vn 0.8999 0.1048 0.4233
vn -0.7979 -0.1655 0.5795
vn -0.8555 -0.1548 0.4941
vn -0.8800 -0.2464 0.4061
vn -0.8497 -0.3410 0.4022
vn -0.9902 -0.1112 0.0850
vn -0.3299 -0.9366 0.1183
vn 0.7775 -0.6171 -0.1212
vn 0.9981 -0.0467 -0.0405
vn 0.9696 -0.2052 -0.1332
vn 0.9933 -0.0753 -0.0879
vn 0.0946 0.0789 -0.9924
vn 0.1354 0.0888 -0.9868
vn -0.1450 0.0602 -0.9876
vn -0.6651 0.0243 -0.7463
s 0
f 2//1 1//1 4//1
f 2//2 3//2 1//2
f 5//3 1//3 3//3
f 6//4 4//4 1//4
f 8//5 1//5 5//5
f 6//6 1//6 7//6
f 8//7 7//7 1//7
f 8//8 5//8 7//8
f 6//9 7//9 4//9
f 9//10 4//10 7//10
f 10//11 9//11 7//11
f 10//12 7//12 5//12
f 10//13 5//13 11//13
f 10//14 11//14 9//14
f 5//15 3//15 11//15
f 9//16 11//16 3//16
f 12//17 9//17 3//17
f 14//18 4//18 9//18
f 12//19 13//19 9//19
f 14//20 9//20 13//20
f 14//21 13//21 2//21
f 14//22 2//22 4//22
f 12//23 2//23 13//23
f 12//24 3//24 2//24
