# Blender 5.1.0
# www.blender.org
mtllib model_collision_15_001.mtl
o model_collision_15.001
v 0.041205 0.007894 0.003234
v 0.041823 0.007930 -0.001580
v 0.029287 -0.024744 -0.007229
v 0.033496 -0.024576 0.003288
v 0.042747 -0.029260 0.002042
v 0.045664 0.007865 0.002658
v 0.045772 0.008393 -0.000866
v 0.050302 -0.027180 -0.019129
v 0.051246 -0.082993 -0.019199
v 0.030554 -0.022987 -0.007486
v 0.029846 -0.083103 0.001830
v 0.035660 -0.083520 -0.001901
v 0.047460 -0.082933 -0.014070
vn -0.1152 0.9933 -0.0074
vn -0.9206 0.3732 -0.1154
vn -0.9077 0.2161 0.3598
vn 0.1200 -0.0269 0.9924
vn 0.1278 -0.0265 0.9914
vn 0.0256 0.9885 0.1489
vn 0.9936 0.1029 0.0460
vn 0.1046 0.4647 -0.8793
vn 0.9830 0.0164 0.1829
vn -0.4934 -0.0073 -0.8698
vn -0.4635 0.2084 -0.8612
vn -0.4304 0.3182 -0.8447
vn -0.6402 0.3627 -0.6772
vn -0.2067 -0.9544 -0.2153
vn -0.6958 -0.1167 -0.7087
vn 0.8455 -0.0752 0.5286
vn 0.7992 -0.1074 0.5914
vn 0.2470 -0.9495 0.1936
vn 0.7140 -0.1431 0.6854
vn 0.5289 -0.1300 0.8387
vn -0.9276 0.0486 0.3705
vn 0.1174 -0.0320 0.9926
s 0
f 7//1 2//1 1//1
f 2//2 3//2 1//2
f 4//3 1//3 3//3
f 5//4 1//4 4//4
f 6//5 1//5 5//5
f 7//6 1//6 6//6
f 7//7 6//7 8//7
f 7//8 8//8 2//8
f 6//9 9//9 8//9
f 9//10 3//10 8//10
f 10//11 8//11 3//11
f 10//12 2//12 8//12
f 10//13 3//13 2//13
f 12//14 11//14 9//14
f 9//15 11//15 3//15
f 6//16 5//16 9//16
f 13//17 9//17 5//17
f 13//18 12//18 9//18
f 13//19 5//19 12//19
f 12//20 5//20 11//20
f 4//21 3//21 11//21
f 5//22 4//22 11//22
