# Blender 5.1.0
# www.blender.org
mtllib model_collision_28_001.mtl
o model_collision_28.001
v 0.009157 0.111777 0.037565
v 0.009815 0.114765 0.027279
v 0.007490 0.113001 0.036528
v 0.008798 0.111184 -0.000628
v 0.012176 0.110024 0.036951
v 0.010527 0.111522 0.035870
v 0.013686 0.110744 0.031402
v 0.015366 0.109047 0.032137
v 0.013695 0.115225 0.010622
v 0.017449 0.111046 0.014661
v 0.019196 0.109049 0.015207
v 0.019028 0.117044 -0.021384
v 0.021655 0.111160 -0.018763
v 0.008302 0.122773 -0.020235
v 0.011979 0.121729 -0.020764
v 0.007057 0.120610 0.002380
v 0.009937 0.119080 0.002142
v 0.006970 0.116193 0.027531
v 0.007405 0.121282 -0.006058
v 0.010913 0.119963 -0.019028
vn 0.4905 0.8279 0.2719
vn 0.4519 0.8485 0.2754
vn -0.5991 -0.8005 0.0180
vn -0.4993 -0.8662 0.0181
vn 0.5239 0.7958 0.3036
vn 0.5540 0.7929 0.2536
vn 0.5539 0.7931 0.2535
vn 0.6252 0.7340 0.2653
vn 0.6650 0.7289 0.1626
vn 0.6525 0.7407 0.1600
vn 0.6201 0.7668 0.1656
vn 0.7202 0.6743 0.1630
vn 0.7251 0.6734 0.1438
vn 0.6581 0.7375 0.1515
vn -0.3554 -0.5082 -0.7845
vn 0.8933 0.4398 0.0920
vn -0.1807 -0.1432 -0.9731
vn 0.5566 0.8190 0.1393
vn 0.2857 0.9523 0.1068
vn 0.4734 0.8692 0.1427
vn 0.5315 0.8348 0.1439
vn 0.5282 0.8365 0.1462
vn 0.4734 0.8678 0.1513
vn -0.9847 -0.1712 -0.0335
vn 0.4541 0.8773 0.1556
vn -0.9849 -0.1648 -0.0538
vn -0.7555 0.6548 0.0210
vn -0.9806 -0.1788 -0.0809
vn 0.4506 0.8492 0.2752
vn -0.9742 -0.2244 -0.0233
vn -0.5704 -0.7086 -0.4154
vn -0.5765 -0.7097 -0.4049
vn -0.5734 -0.7119 -0.4055
vn -0.0990 -0.9927 -0.0689
vn -0.1508 -0.9880 -0.0342
vn -0.2967 -0.9550 -0.0028
s 0
f 6//1 2//1 1//1
f 1//2 2//2 3//2
f 4//3 1//3 3//3
f 5//4 1//4 4//4
f 6//5 1//5 5//5
f 7//6 6//6 5//6
f 7//7 2//7 6//7
f 7//8 5//8 8//8
f 7//9 8//9 10//9
f 7//10 10//10 9//10
f 7//11 9//11 2//11
f 10//12 8//12 11//12
f 10//13 11//13 12//13
f 10//14 12//14 9//14
f 13//15 14//15 12//15
f 13//16 12//16 11//16
f 15//17 12//17 14//17
f 15//18 9//18 12//18
f 15//19 14//19 16//19
f 17//20 15//20 16//20
f 17//21 9//21 15//21
f 17//22 2//22 9//22
f 17//23 16//23 2//23
f 18//24 16//24 4//24
f 18//25 2//25 16//25
f 19//26 4//26 16//26
f 19//27 16//27 14//27
f 19//28 14//28 4//28
f 18//29 3//29 2//29
f 18//30 4//30 3//30
f 20//31 14//31 13//31
f 20//32 4//32 14//32
f 20//33 13//33 4//33
f 13//34 11//34 4//34
f 8//35 4//35 11//35
f 5//36 4//36 8//36
