# Blender 5.1.0
# www.blender.org
mtllib model_collision_31.mtl
o model_collision_31
v 0.000541 -0.002625 0.021637
v 0.001394 -0.025942 0.024321
v 0.001674 -0.000656 -0.013680
v -0.014054 -0.000798 -0.013947
v -0.015433 -0.000538 0.020432
v 0.001396 -0.024646 -0.013648
v -0.015645 -0.025033 0.020431
v -0.014459 -0.024648 -0.013826
vn 0.9986 0.0405 0.0343
vn -0.0602 0.1120 0.9919
vn 0.1249 0.9904 0.0592
vn -0.0089 0.9999 -0.0079
vn 0.9999 -0.0116 -0.0003
vn 0.0170 -0.0015 -0.9999
vn -0.2225 0.0019 0.9749
vn -0.9994 0.0086 -0.0345
vn -0.9991 0.0168 -0.0402
vn 0.0112 -0.0053 -0.9999
vn 0.0005 -0.9994 -0.0341
vn -0.0503 -0.9986 -0.0130
s 0
f 1//1 2//1 3//1
f 5//2 2//2 1//2
f 5//3 1//3 3//3
f 5//4 3//4 4//4
f 6//5 3//5 2//5
f 6//6 4//6 3//6
f 7//7 2//7 5//7
f 8//8 7//8 5//8
f 8//9 5//9 4//9
f 8//10 4//10 6//10
f 8//11 6//11 2//11
f 8//12 2//12 7//12
