# Blender 5.1.0
# www.blender.org
mtllib model_collision_10.mtl
o model_collision_10
v 0.026268 0.009394 0.013841
v 0.029206 -0.016855 0.007652
v 0.030449 0.017300 0.006729
v 0.027393 0.017720 -0.002842
v 0.027847 -0.003488 -0.005655
v 0.026631 0.017058 0.011382
v 0.030475 -0.000830 0.010371
v 0.027056 -0.001026 0.014822
v 0.029340 -0.011647 -0.005934
v 0.030014 0.014362 0.008960
v 0.030210 0.017817 0.005648
v 0.029233 -0.016437 -0.000422
v 0.028220 -0.001089 0.013569
v 0.027922 -0.003798 -0.005967
v 0.027963 0.008810 0.012543
v 0.028021 0.016654 0.010316
v 0.027687 0.017959 -0.002045
v 0.029175 -0.016641 0.007467
v 0.029413 -0.017067 -0.000387
v 0.029089 -0.011193 -0.005301
vn -0.9973 -0.0117 -0.0731
vn -0.9982 0.0306 -0.0521
vn -0.9965 -0.0782 -0.0291
vn 0.9980 -0.0111 -0.0621
vn 0.9646 0.0532 0.2582
vn 0.3562 0.8712 0.3378
vn 0.9799 0.0472 -0.1936
vn -0.9929 -0.1161 -0.0244
vn 0.7115 -0.2074 0.6713
vn 0.8129 -0.1594 0.5602
vn 0.8118 0.0784 0.5787
vn -0.9694 0.0118 -0.2453
vn 0.6867 0.1210 -0.7168
vn -0.9851 -0.1437 -0.0948
vn 0.6293 0.1199 0.7679
vn 0.8050 0.0818 0.5875
vn 0.7320 0.0890 0.6754
vn 0.7565 0.3207 0.5699
vn 0.5743 0.6444 0.5049
vn 0.6934 0.1921 0.6945
vn 0.6324 0.2094 0.7458
vn 0.6387 0.2058 0.7414
vn -0.6330 0.7742 0.0021
vn -0.1187 0.9913 0.0572
vn 0.9466 0.0934 -0.3087
vn 0.9230 0.1003 -0.3714
vn -0.9883 -0.1520 -0.0112
vn -0.9905 -0.1373 0.0062
vn -0.9915 -0.1295 -0.0106
vn -0.9248 -0.2781 -0.2596
vn 0.9983 -0.0343 -0.0467
vn 0.9961 -0.0836 0.0278
vn -0.9612 -0.2752 -0.0175
vn -0.9519 -0.1729 -0.2530
vn -0.9503 -0.2258 -0.2145
vn -0.9743 -0.1672 -0.1510
s 0
f 5//1 1//1 4//1
f 6//2 4//2 1//2
f 8//3 1//3 5//3
f 9//4 3//4 7//4
f 10//5 7//5 3//5
f 11//6 6//6 3//6
f 11//7 3//7 9//7
f 12//8 8//8 5//8
f 13//9 8//9 2//9
f 13//10 2//10 7//10
f 13//11 7//11 10//11
f 14//12 5//12 4//12
f 14//13 4//13 9//13
f 14//14 12//14 5//14
f 15//15 1//15 8//15
f 15//16 13//16 10//16
f 15//17 8//17 13//17
f 16//18 10//18 3//18
f 16//19 3//19 6//19
f 16//20 15//20 10//20
f 16//21 6//21 1//21
f 16//22 1//22 15//22
f 17//23 4//23 6//23
f 17//24 6//24 11//24
f 17//25 11//25 9//25
f 17//26 9//26 4//26
f 18//27 12//27 2//27
f 18//28 2//28 8//28
f 18//29 8//29 12//29
f 19//30 12//30 9//30
f 19//31 9//31 7//31
f 19//32 7//32 2//32
f 19//33 2//33 12//33
f 20//34 14//34 9//34
f 20//35 9//35 12//35
f 20//36 12//36 14//36
