# Blender 5.1.0
# www.blender.org
mtllib model_collision_0.mtl
o model_collision_0
v 0.011521 -0.024266 0.023564
v 0.032927 -0.050041 -0.007053
v 0.030545 -0.024640 -0.013271
v -0.019757 -0.024640 -0.013894
v -0.012230 -0.066709 -0.007912
v -0.008448 -0.024237 0.023237
v 0.027988 -0.024434 0.014011
v 0.013698 -0.056328 0.007274
v 0.016692 -0.063163 -0.013205
v 0.023750 -0.024320 0.018516
v -0.022670 -0.031983 0.011822
v 0.033861 -0.030094 -0.006946
v -0.008437 -0.046224 0.014934
v 0.032556 -0.045209 -0.011978
v 0.013890 -0.069332 -0.007208
v -0.013544 -0.061761 -0.013517
v 0.024574 -0.058089 -0.013277
v 0.018566 -0.038909 0.017191
v -0.024897 -0.025421 0.007101
v 0.033041 -0.042385 -0.004684
v 0.032437 -0.024827 -0.006126
v -0.000619 -0.069154 -0.005330
v -0.017208 -0.048742 0.007681
v -0.015104 -0.036467 0.017412
v -0.000837 -0.031689 0.022885
v 0.033547 -0.032621 -0.012106
v 0.025479 -0.061493 -0.005205
v -0.005676 -0.069333 -0.008482
v 0.029938 -0.054357 -0.011405
v 0.023198 -0.064235 -0.008613
v -0.023398 -0.045366 -0.013849
v 0.006579 -0.065477 -0.013328
v 0.018408 -0.031657 0.019970
v 0.027511 -0.039258 0.010223
v 0.006699 -0.044034 0.017468
v -0.025216 -0.024787 -0.001882
v -0.007895 -0.058798 0.004762
v 0.008844 -0.068976 -0.005291
v -0.015757 -0.031900 0.018747
v -0.015020 -0.048784 0.010040
v -0.019402 -0.041701 0.010772
v -0.008205 -0.036477 0.020010
v 0.032665 -0.050238 -0.009380
v 0.018322 -0.066326 -0.005370
v 0.023158 -0.051246 0.007089
v -0.008190 -0.066494 -0.010927
v -0.005837 -0.069385 -0.007465
v 0.030177 -0.057337 -0.007352
v 0.018550 -0.066996 -0.008550
v 0.023327 -0.061740 -0.011238
v -0.019576 -0.060117 -0.008829
v 0.011435 -0.069520 -0.008518
v 0.018935 -0.024370 0.021163
v 0.011207 -0.036643 0.020387
v 0.027561 -0.031626 0.013048
v 0.013797 -0.046269 0.014880
v -0.027285 -0.032567 -0.008474
v 0.006342 -0.051577 0.012549
v 0.014035 -0.069467 -0.007705
v 0.013936 -0.063873 -0.000456
v -0.021530 -0.036741 0.010914
v -0.012838 -0.043863 0.014757
v -0.010514 -0.048766 0.012456
v -0.016770 -0.059023 -0.002492
vn 0.0001 0.9999 -0.0109
vn 0.0016 1.0000 -0.0070
vn 0.0011 1.0000 -0.0098
vn 0.0209 0.9998 -0.0056
vn 0.0124 -0.0020 -0.9999
vn 0.2223 -0.0395 -0.9742
vn -0.6861 0.2568 0.6806
vn 0.9618 -0.0139 0.2733
vn 0.9934 -0.0471 0.1043
vn 0.0938 0.9956 0.0013
vn 0.9522 0.2254 0.2060
vn -0.0164 -0.0638 0.9978
vn 0.9982 -0.0465 -0.0381
vn 0.2859 -0.0322 -0.9577
vn 0.9384 0.2844 -0.1965
vn 0.9205 0.3119 -0.2356
vn 0.4331 -0.1793 -0.8833
vn 0.0108 -0.0041 -0.9999
vn 0.0240 -0.0515 -0.9984
vn 0.0084 -0.0134 -0.9999
vn 0.0064 -0.0164 -0.9998
vn -0.1444 0.9867 0.0748
vn -0.0304 0.9995 -0.0016
vn -0.6859 0.2550 0.6816
vn -0.5695 -0.4250 0.7036
vn -0.6530 -0.4656 0.5973
vn -0.0676 -0.4352 0.8978
vn -0.0818 -0.4588 0.8848
vn -0.3356 -0.3083 0.8901
vn -0.2045 -0.2534 0.9455
vn -0.3043 -0.2485 0.9196
vn 0.9921 -0.0661 -0.1063
vn 0.9779 -0.0789 -0.1937
vn 0.7986 -0.2625 -0.5416
vn 0.5318 -0.7972 0.2856
vn 0.4269 -0.6534 0.6252
vn 0.3671 -0.6596 0.6559
vn 0.5554 -0.3933 0.7327
vn -0.3545 -0.7703 -0.5300
vn -0.3793 -0.7360 -0.5608
vn -0.0705 -0.6861 -0.7241
vn -0.0955 -0.5589 -0.8237
vn -0.3775 -0.9198 -0.1072
vn -0.3489 -0.7367 0.5792
vn -0.2191 -0.7555 0.6174
vn 0.6624 -0.5844 -0.4687
vn 0.6875 -0.7168 0.1167
vn 0.6826 -0.4929 0.5396
vn 0.8228 -0.3292 0.4634
vn 0.7413 -0.4084 0.5326
vn 0.9340 -0.3490 -0.0758
vn 0.8522 -0.3963 -0.3416
vn 0.5011 -0.8389 0.2125
vn 0.3436 -0.5447 -0.7650
vn 0.5860 -0.5385 -0.6055
vn 0.6314 -0.5772 -0.5178
vn 0.3405 -0.6546 -0.6749
vn 0.3930 -0.6760 -0.6234
vn -0.6288 -0.3915 -0.6718
vn -0.5547 -0.6840 -0.4738
vn -0.8028 -0.4310 0.4120
vn -0.0098 -0.7703 -0.6376
vn -0.0111 -0.9985 -0.0532
vn 0.1619 -0.6688 -0.7256
vn 0.4756 -0.1755 0.8620
vn 0.0486 0.9931 0.1071
vn 0.3011 -0.1753 0.9374
vn 0.2260 -0.2476 0.9422
vn 0.0971 -0.2497 0.9634
vn 0.0332 -0.3845 0.9225
vn 0.2856 -0.3374 0.8970
vn 0.7201 -0.1340 0.6808
vn 0.5812 -0.2711 0.7673
vn 0.5796 -0.2805 0.7651
vn 0.5820 -0.2856 0.7614
vn 0.9312 -0.1022 0.3498
vn 0.9144 -0.1457 0.3776
vn 0.9237 -0.1257 0.3618
vn 0.1763 -0.4527 0.8741
vn 0.2443 -0.4312 0.8685
vn 0.3854 -0.4945 0.7790
vn 0.3225 -0.5729 0.7535
vn -0.9749 0.2169 0.0500
vn -0.9617 -0.2684 -0.0564
vn -0.9384 -0.2655 0.2210
vn -0.9606 -0.1655 0.2232
vn -0.7870 0.5070 -0.3515
vn -0.6566 0.1137 -0.7456
vn -0.0275 -0.7075 0.7062
vn -0.0616 -0.5432 0.8373
vn -0.1031 -0.6283 0.7711
vn 0.1300 -0.5460 0.8276
vn 0.1782 -0.5946 0.7840
vn 0.0424 -0.7123 0.7006
vn 0.0106 -0.7151 0.6989
vn 0.0174 -0.9718 0.2351
vn 0.0352 -0.9618 0.2714
vn -0.0027 -0.9935 0.1142
vn -0.0032 -0.9971 0.0760
vn 0.4994 -0.8399 0.2126
vn 0.4222 -0.8364 0.3497
vn 0.2281 -0.6929 -0.6840
vn 0.2540 -0.6944 -0.6732
vn 0.1806 -0.7655 0.6176
vn 0.0522 -0.7138 0.6984
vn 0.3654 -0.6605 0.6559
vn 0.2586 -0.7520 0.6063
vn -0.6754 -0.2911 0.6776
vn -0.6732 -0.2946 0.6782
vn -0.6702 -0.3069 0.6758
vn -0.8532 -0.3764 0.3612
vn -0.9373 -0.2673 0.2237
vn -0.5649 -0.4266 0.7063
vn -0.3226 -0.4057 0.8552
vn -0.2702 -0.4396 0.8566
vn -0.3672 -0.6246 0.6893
vn -0.1473 -0.6259 0.7659
vn -0.3969 -0.5373 0.7441
vn -0.3111 -0.5206 0.7951
vn -0.6063 -0.5722 0.5522
vn -0.4554 -0.6769 0.5783
vn -0.4711 -0.6497 0.5966
vn -0.6400 -0.6579 0.3969
vn -0.7831 -0.4539 0.4250
s 0
f 6//1 3//1 4//1
f 10//2 6//2 1//2
f 10//3 3//3 6//3
f 10//4 7//4 3//4
f 17//5 4//5 3//5
f 17//6 3//6 14//6
f 19//7 11//7 6//7
f 20//8 12//8 7//8
f 20//9 2//9 12//9
f 21//10 3//10 7//10
f 21//11 7//11 12//11
f 25//12 1//12 6//12
f 26//13 12//13 2//13
f 26//14 14//14 3//14
f 26//15 21//15 12//15
f 26//16 3//16 21//16
f 29//17 17//17 14//17
f 31//18 4//18 17//18
f 32//19 17//19 9//19
f 32//20 31//20 17//20
f 32//21 16//21 31//21
f 36//22 19//22 6//22
f 36//23 6//23 4//23
f 39//24 6//24 11//24
f 41//25 40//25 24//25
f 41//26 23//26 40//26
f 42//27 35//27 25//27
f 42//28 13//28 35//28
f 42//29 39//29 24//29
f 42//30 25//30 6//30
f 42//31 6//31 39//31
f 43//32 26//32 2//32
f 43//33 14//33 26//33
f 43//34 29//34 14//34
f 44//35 30//35 27//35
f 45//36 44//36 27//36
f 45//37 8//37 44//37
f 45//38 34//38 18//38
f 46//39 28//39 5//39
f 46//40 5//40 16//40
f 46//41 32//41 28//41
f 46//42 16//42 32//42
f 47//43 5//43 28//43
f 47//44 37//44 5//44
f 47//45 22//45 37//45
f 48//46 30//46 29//46
f 48//47 27//47 30//47
f 48//48 45//48 27//48
f 48//49 2//49 34//49
f 48//50 34//50 45//50
f 48//51 43//51 2//51
f 48//52 29//52 43//52
f 49//53 30//53 44//53
f 50//54 9//54 17//54
f 50//55 17//55 29//55
f 50//56 29//56 30//56
f 50//57 49//57 9//57
f 50//58 30//58 49//58
f 51//59 31//59 16//59
f 51//60 16//60 5//60
f 51//61 23//61 41//61
f 52//62 28//62 32//62
f 52//63 47//63 28//63
f 52//64 32//64 9//64
f 53//65 33//65 10//65
f 53//66 10//66 1//66
f 53//67 1//67 33//67
f 54//68 33//68 1//68
f 54//69 1//69 25//69
f 54//70 25//70 35//70
f 54//71 18//71 33//71
f 55//72 7//72 10//72
f 55//73 10//73 33//73
f 55//74 33//74 18//74
f 55//75 18//75 34//75
f 55//76 20//76 7//76
f 55//77 34//77 2//77
f 55//78 2//78 20//78
f 56//79 54//79 35//79
f 56//80 18//80 54//80
f 56//81 45//81 18//81
f 56//82 8//82 45//82
f 57//83 19//83 36//83
f 57//84 31//84 51//84
f 57//85 51//85 11//85
f 57//86 11//86 19//86
f 57//87 36//87 4//87
f 57//88 4//88 31//88
f 58//89 37//89 22//89
f 58//90 35//90 13//90
f 58//91 13//91 37//91
f 58//92 56//92 35//92
f 58//93 8//93 56//93
f 58//94 38//94 8//94
f 58//95 22//95 38//95
f 59//96 38//96 22//96
f 59//97 15//97 38//97
f 59//98 22//98 47//98
f 59//99 47//99 52//99
f 59//100 49//100 44//100
f 59//101 44//101 15//101
f 59//102 52//102 9//102
f 59//103 9//103 49//103
f 60//104 38//104 15//104
f 60//105 8//105 38//105
f 60//106 44//106 8//106
f 60//107 15//107 44//107
f 61//108 39//108 11//108
f 61//109 24//109 39//109
f 61//110 41//110 24//110
f 61//111 51//111 41//111
f 61//112 11//112 51//112
f 62//113 24//113 40//113
f 62//114 42//114 24//114
f 62//115 13//115 42//115
f 63//116 40//116 37//116
f 63//117 37//117 13//117
f 63//118 62//118 40//118
f 63//119 13//119 62//119
f 64//120 40//120 23//120
f 64//121 5//121 37//121
f 64//122 37//122 40//122
f 64//123 51//123 5//123
f 64//124 23//124 51//124
