# Blender 5.1.0
# www.blender.org
mtllib model_collision_20.mtl
o model_collision_20
v 0.027420 -0.000882 -0.005660
v 0.033914 -0.032732 -0.006586
v 0.033048 -0.017063 -0.011022
v 0.026585 0.001568 -0.012129
v 0.030516 -0.032569 -0.013359
v 0.027654 0.001090 -0.011279
v 0.033038 -0.017504 -0.009973
v 0.033019 -0.032485 -0.004889
v 0.027888 -0.011422 -0.013310
v 0.033547 -0.032621 -0.012106
v 0.027200 0.001725 -0.008327
v 0.029089 -0.011193 -0.005301
v 0.032638 -0.022882 -0.007028
vn 0.6611 0.1862 -0.7268
vn 0.9971 0.0658 0.0377
vn -0.1628 -0.9850 0.0579
vn -0.9864 -0.1228 0.1089
vn -0.9904 -0.1072 0.0872
vn 0.5162 0.1288 -0.8467
vn 0.9972 0.0365 -0.0656
vn -0.0090 -0.9998 -0.0196
vn 0.4727 0.0763 -0.8779
vn 0.3824 0.0496 -0.9227
vn 0.4794 0.8702 -0.1136
vn -0.9848 0.0766 0.1561
vn 0.9444 0.2707 0.1867
vn 0.9521 0.2782 0.1265
vn 0.9547 0.2849 0.0854
vn 0.5607 0.1193 0.8194
vn -0.9636 -0.1482 0.2224
vn -0.9448 -0.1690 0.2808
vn 0.8760 0.1800 0.4474
vn 0.8114 0.1575 0.5629
vn 0.8844 0.1345 0.4469
vn 0.9183 0.1356 0.3720
s 0
f 6//1 3//1 4//1
f 7//2 2//2 3//2
f 8//3 5//3 2//3
f 9//4 5//4 1//4
f 9//5 1//5 4//5
f 9//6 4//6 3//6
f 10//7 3//7 2//7
f 10//8 2//8 5//8
f 10//9 9//9 3//9
f 10//10 5//10 9//10
f 11//11 6//11 4//11
f 11//12 4//12 1//12
f 11//13 1//13 7//13
f 11//14 7//14 3//14
f 11//15 3//15 6//15
f 12//16 8//16 1//16
f 12//17 1//17 5//17
f 12//18 5//18 8//18
f 13//19 7//19 1//19
f 13//20 1//20 8//20
f 13//21 8//21 2//21
f 13//22 2//22 7//22
