# Blender 5.1.0
# www.blender.org
mtllib model_collision_27.mtl
o model_collision_27
v 0.019360 0.017219 0.014369
v 0.029060 0.017167 0.009081
v 0.020451 0.038592 0.006502
v 0.019927 0.040872 -0.005581
v 0.026589 0.017194 -0.005127
v 0.026501 0.038674 -0.002667
v 0.018952 0.019600 0.013676
v 0.023168 0.027414 0.009975
v 0.021204 0.016687 0.013511
v 0.025392 0.037688 0.002757
v 0.027687 0.017959 -0.002045
v 0.021195 0.035479 0.007618
v 0.026631 0.017058 0.011382
v 0.023001 0.037950 0.005463
v 0.027491 0.032022 0.003175
v 0.027245 0.033327 -0.002429
v 0.023395 0.019674 0.012222
v 0.023053 0.034729 0.006911
v 0.027420 0.029422 0.005040
v 0.025450 0.024326 0.009614
v 0.024867 0.034564 0.005287
v 0.027530 0.024244 0.007426
vn -0.9052 -0.2611 -0.3353
vn 0.2440 0.9548 0.1696
vn 0.4319 0.1043 -0.8958
vn -0.9929 0.1018 0.0622
vn -0.9127 -0.2505 -0.3229
vn 0.2364 0.3088 0.9213
vn 0.0545 -0.9984 -0.0114
vn -0.3262 -0.9377 -0.1198
vn 0.7996 -0.5839 -0.1402
vn 0.0558 0.3490 0.9355
vn 0.2133 0.3218 0.9225
vn 0.3698 -0.1872 0.9101
vn 0.0844 -0.9956 0.0419
vn 0.3683 0.8986 0.2386
vn 0.3214 0.9209 0.2204
vn 0.4301 0.3943 0.8121
vn 0.9022 0.3525 0.2485
vn 0.9924 0.0256 -0.1206
vn 0.9951 0.0967 -0.0212
vn 0.9905 0.1373 -0.0115
vn 0.9403 0.0186 -0.3398
vn 0.7603 0.0770 -0.6451
vn 0.4359 0.2626 0.8609
vn 0.3173 0.2729 0.9082
vn 0.3775 0.1749 0.9093
vn 0.4575 0.3708 0.8082
vn 0.4536 0.3504 0.8194
vn 0.8018 0.3336 0.4958
vn 0.8956 0.2428 0.3727
vn 0.5627 0.3269 0.7592
vn 0.5086 0.2806 0.8140
vn 0.6539 0.2774 0.7039
vn 0.6264 0.3281 0.7071
vn 0.7431 0.3412 0.5757
vn 0.7152 0.3633 0.5971
vn 0.6941 0.3134 0.6481
vn 0.6547 0.3256 0.6822
vn 0.6965 0.3028 0.6506
vn 0.7228 0.3018 0.6217
vn 0.6942 0.3133 0.6480
s 0
f 5//1 1//1 4//1
f 6//2 4//2 3//2
f 6//3 5//3 4//3
f 7//4 3//4 4//4
f 7//5 4//5 1//5
f 8//6 7//6 1//6
f 9//7 5//7 2//7
f 9//8 1//8 5//8
f 11//9 2//9 5//9
f 12//10 3//10 7//10
f 12//11 7//11 8//11
f 13//12 1//12 9//12
f 13//13 9//13 2//13
f 14//14 10//14 6//14
f 14//15 6//15 3//15
f 14//16 3//16 12//16
f 15//17 6//17 10//17
f 16//18 2//18 11//18
f 16//19 15//19 2//19
f 16//20 6//20 15//20
f 16//21 11//21 5//21
f 16//22 5//22 6//22
f 17//23 13//23 8//23
f 17//24 8//24 1//24
f 17//25 1//25 13//25
f 18//26 14//26 12//26
f 18//27 12//27 8//27
f 19//28 15//28 10//28
f 19//29 2//29 15//29
f 20//30 18//30 8//30
f 20//31 8//31 13//31
f 20//32 13//32 2//32
f 20//33 14//33 18//33
f 21//34 19//34 10//34
f 21//35 10//35 14//35
f 21//36 20//36 19//36
f 21//37 14//37 20//37
f 22//38 20//38 2//38
f 22//39 2//39 19//39
f 22//40 19//40 20//40
