# Blender 5.1.0
# www.blender.org
mtllib model_collision_3.mtl
o model_collision_3
v 0.006464 -0.001323 0.023540
v 0.027340 -0.000097 -0.003304
v 0.018604 0.016567 0.014994
v -0.015137 0.018590 -0.013439
v -0.014431 -0.000840 -0.003007
v 0.026589 0.017194 -0.005127
v -0.025542 0.018284 0.010232
v 0.019406 -0.001040 0.019759
v -0.002484 0.014025 0.020237
v -0.013607 -0.001169 0.021212
v -0.025186 0.010712 0.012302
v 0.011379 0.008774 0.020217
v 0.016387 -0.001266 0.021164
v -0.010989 0.016598 0.017298
v -0.002086 0.003876 0.023030
v -0.020743 0.009205 0.015666
v -0.023722 0.009151 0.013739
v 0.011315 0.016134 0.017767
v 0.015988 0.003695 0.020236
v -0.003641 -0.001131 0.023419
v -0.013314 0.003767 0.020345
v 0.000027 0.013810 0.020294
v -0.018211 0.016549 0.014884
v -0.022779 0.016486 0.012501
v 0.018454 0.008848 0.017704
v 0.004036 0.003618 0.022620
v -0.015888 0.011374 0.017439
v -0.020636 0.011457 0.015133
v 0.006306 0.001125 0.023028
vn 0.0021 -0.4730 -0.8811
vn 0.1914 -0.0947 -0.9769
vn 0.0284 0.9993 0.0254
vn 0.0340 0.9984 0.0446
vn 0.9186 0.1417 0.3690
vn 0.9420 0.0754 0.3271
vn -0.0061 -0.9999 -0.0134
vn -0.9041 -0.1517 -0.3994
vn -0.8712 -0.2564 -0.4186
vn 0.0175 -0.9990 -0.0399
vn 0.0663 -0.9976 -0.0180
vn 0.0011 -0.9998 -0.0191
vn -0.7304 -0.6830 0.0022
vn -0.7195 -0.6944 0.0151
vn -0.5425 0.0742 0.8368
vn -0.5770 0.1900 0.7943
vn 0.0020 0.7552 0.6555
vn 0.0168 0.9802 0.1974
vn 0.0162 0.9796 0.2004
vn 0.2224 0.2054 0.9531
vn 0.2272 0.1968 0.9538
vn 0.4014 0.1996 0.8939
vn -0.2145 0.1418 0.9664
vn -0.0202 -0.9940 0.1079
vn -0.0104 0.0807 0.9967
vn -0.2303 0.1817 0.9560
vn -0.4258 0.1811 0.8865
vn -0.2275 0.2500 0.9411
vn -0.2422 0.2655 0.9332
vn 0.0011 0.2653 0.9642
vn 0.0381 0.6448 0.7634
vn 0.1455 0.3137 0.9383
vn -0.2111 0.7590 0.6159
vn -0.5340 0.2070 0.8198
vn -0.5370 0.2070 0.8178
vn -0.4334 0.3707 0.8214
vn 0.3163 0.3021 0.8993
vn 0.3222 0.3080 0.8952
vn 0.3175 0.2915 0.9023
vn 0.4313 0.2232 0.8742
vn 0.7620 0.2013 0.6155
vn 0.0752 0.2499 0.9654
vn -0.2583 0.2673 0.9284
vn -0.3035 0.3089 0.9014
vn -0.4135 0.1995 0.8884
vn -0.5053 0.2212 0.8341
vn -0.4497 0.2562 0.8557
vn -0.4202 0.2431 0.8743
vn -0.4221 0.2275 0.8775
vn 0.0746 0.2271 0.9710
vn 0.0684 0.2083 0.9757
vn 0.2080 0.2129 0.9547
vn 0.1253 0.2680 0.9552
vn 0.1188 0.2651 0.9569
s 0
f 5//1 4//1 2//1
f 6//2 2//2 4//2
f 7//3 6//3 4//3
f 7//4 3//4 6//4
f 8//5 6//5 3//5
f 8//6 2//6 6//6
f 10//7 5//7 1//7
f 11//8 7//8 4//8
f 11//9 4//9 5//9
f 13//10 5//10 2//10
f 13//11 2//11 8//11
f 13//12 1//12 5//12
f 17//13 11//13 5//13
f 17//14 5//14 10//14
f 17//15 10//15 16//15
f 17//16 7//16 11//16
f 18//17 14//17 9//17
f 18//18 3//18 7//18
f 18//19 7//19 14//19
f 19//20 12//20 1//20
f 19//21 1//21 13//21
f 19//22 13//22 8//22
f 20//23 15//23 10//23
f 20//24 10//24 1//24
f 20//25 1//25 15//25
f 21//26 10//26 15//26
f 21//27 16//27 10//27
f 21//28 15//28 9//28
f 21//29 9//29 14//29
f 22//30 9//30 15//30
f 22//31 18//31 9//31
f 22//32 12//32 18//32
f 23//33 14//33 7//33
f 24//34 17//34 16//34
f 24//35 7//35 17//35
f 24//36 23//36 7//36
f 25//37 18//37 12//37
f 25//38 3//38 18//38
f 25//39 12//39 19//39
f 25//40 19//40 8//40
f 25//41 8//41 3//41
f 26//42 22//42 15//42
f 27//43 21//43 14//43
f 27//44 14//44 23//44
f 27//45 16//45 21//45
f 28//46 24//46 16//46
f 28//47 23//47 24//47
f 28//48 27//48 23//48
f 28//49 16//49 27//49
f 29//50 26//50 15//50
f 29//51 15//51 1//51
f 29//52 1//52 12//52
f 29//53 12//53 22//53
f 29//54 22//54 26//54
