# Blender 5.1.0
# www.blender.org
mtllib model_collision_26.mtl
o model_collision_26
v 0.000541 -0.002625 0.021637
v 0.029944 -0.024691 0.007520
v 0.029979 -0.000804 0.007825
v 0.001435 -0.000840 0.007570
v 0.001435 -0.024639 0.007570
v 0.029832 -0.023896 0.007483
v 0.026669 -0.001291 0.015362
v 0.001394 -0.025942 0.024321
v 0.028220 -0.001089 0.013569
v 0.026232 -0.024244 0.016004
v 0.027988 -0.024434 0.014011
vn -0.9980 -0.0000 -0.0634
vn 0.3839 0.0112 -0.9233
vn 0.0089 0.0147 -0.9999
vn -0.0031 -0.0000 -1.0000
vn -0.0018 -0.0467 -0.9989
vn -0.0207 0.9920 0.1245
vn -0.0020 -0.9970 -0.0776
vn -0.9993 -0.0372 -0.0053
vn 0.2261 0.1196 0.9667
vn -0.0017 0.9988 0.0491
vn -0.0133 0.9948 0.1007
vn 0.3162 0.0205 0.9485
vn 0.9574 -0.0051 0.2887
vn 0.9562 -0.0039 0.2926
vn 0.7560 0.0049 0.6546
vn 0.7504 0.0042 0.6610
vn 0.1375 -0.9673 0.2132
vn 0.0812 -0.9947 0.0639
s 0
f 5//1 1//1 4//1
f 6//2 3//2 2//2
f 6//3 4//3 3//3
f 6//4 5//4 4//4
f 6//5 2//5 5//5
f 7//6 4//6 1//6
f 8//7 5//7 2//7
f 8//8 1//8 5//8
f 8//9 7//9 1//9
f 9//10 3//10 4//10
f 9//11 4//11 7//11
f 10//12 7//12 8//12
f 11//13 2//13 3//13
f 11//14 3//14 9//14
f 11//15 9//15 7//15
f 11//16 7//16 10//16
f 11//17 10//17 8//17
f 11//18 8//18 2//18
