# Blender 5.1.0
# www.blender.org
mtllib model_collision_6.mtl
o model_collision_6
v -0.014431 -0.000840 -0.003007
v -0.014431 -0.024639 -0.003007
v -0.014054 -0.000798 -0.013947
v -0.024144 -0.000800 -0.013816
v -0.027051 -0.000767 -0.002917
v -0.019783 -0.045796 -0.014120
v -0.024948 -0.033211 -0.001860
v -0.014459 -0.024648 -0.013826
v -0.024353 -0.046399 -0.006628
v -0.027142 -0.037188 -0.011441
v -0.025214 -0.040017 -0.013436
v -0.027425 -0.014418 -0.011875
v -0.027229 -0.040287 -0.009832
v -0.023398 -0.045366 -0.013849
v -0.026201 -0.000919 -0.012375
v -0.025352 -0.008813 -0.013299
v -0.026046 -0.045362 -0.009188
v -0.025650 -0.032471 -0.003506
v -0.027463 -0.014431 -0.011627
v -0.027196 -0.040109 -0.010170
v -0.024814 -0.044957 -0.011931
vn 0.9994 -0.0000 0.0345
vn 0.0058 1.0000 0.0040
vn -0.0002 1.0000 -0.0031
vn -0.0130 0.0055 -0.9999
vn 0.1085 -0.0000 0.9941
vn 0.0074 0.0330 0.9994
vn 0.0805 -0.0064 -0.9967
vn 0.9999 -0.0170 -0.0026
vn 0.9697 -0.2441 -0.0023
vn 0.7850 -0.4319 0.4441
vn 0.3456 -0.3052 0.8873
vn -0.7345 -0.0220 -0.6783
vn -0.2301 -0.0031 -0.9732
vn -0.0748 -0.0005 -0.9972
vn -0.1281 -0.9793 -0.1569
vn -0.0740 0.9970 -0.0228
vn -0.4056 0.0022 -0.9140
vn -0.5684 0.0011 -0.8227
vn -0.5746 0.0339 -0.8177
vn -0.6136 0.0263 -0.7892
vn -0.8525 -0.2113 0.4780
vn -0.9025 -0.1597 0.4000
vn -0.3086 -0.9351 -0.1745
vn -0.9306 -0.0975 0.3529
vn -0.9264 -0.0479 0.3734
vn -0.9537 -0.0477 0.2970
vn -0.9877 -0.0152 -0.1554
vn -0.9965 -0.0147 -0.0823
vn -0.9985 -0.0052 0.0554
vn -0.9852 0.0837 -0.1495
vn -0.9920 0.0876 -0.0905
vn -0.9930 -0.0312 -0.1138
vn -0.8338 -0.2073 -0.5117
vn -0.9426 -0.2481 -0.2233
vn -0.8307 -0.2228 -0.5103
vn -0.8055 -0.2315 -0.5456
vn -0.7134 -0.5720 -0.4048
vn -0.8632 -0.2689 -0.4273
s 0
f 1//1 2//1 3//1
f 5//2 1//2 3//2
f 5//3 3//3 4//3
f 6//4 4//4 3//4
f 7//5 2//5 1//5
f 7//6 1//6 5//6
f 8//7 6//7 3//7
f 8//8 3//8 2//8
f 8//9 2//9 6//9
f 9//10 6//10 2//10
f 9//11 2//11 7//11
f 12//12 11//12 10//12
f 14//13 11//13 4//13
f 14//14 4//14 6//14
f 14//15 6//15 9//15
f 15//16 5//16 4//16
f 16//17 4//17 11//17
f 16//18 11//18 12//18
f 16//19 15//19 4//19
f 16//20 12//20 15//20
f 17//21 9//21 7//21
f 17//22 7//22 13//22
f 17//23 14//23 9//23
f 18//24 13//24 7//24
f 18//25 7//25 5//25
f 18//26 5//26 13//26
f 19//27 12//27 10//27
f 19//28 10//28 13//28
f 19//29 13//29 5//29
f 19//30 15//30 12//30
f 19//31 5//31 15//31
f 20//32 13//32 10//32
f 20//33 10//33 11//33
f 20//34 17//34 13//34
f 21//35 20//35 11//35
f 21//36 11//36 14//36
f 21//37 14//37 17//37
f 21//38 17//38 20//38
