# Blender 5.1.0
# www.blender.org
mtllib model_collision_15.mtl
o model_collision_15
v 0.004093 0.041520 0.007661
v 0.003533 0.047711 0.004398
v -0.028006 0.045946 0.001207
v -0.016485 0.040398 -0.006875
v 0.004486 0.042923 -0.007125
v -0.024268 0.040619 0.002945
v -0.013279 0.045274 0.004442
v 0.003768 0.054257 0.000508
v -0.014046 0.040387 -0.007174
v -0.029936 0.043031 -0.001886
v 0.000400 0.047467 0.004422
v -0.018867 0.040347 0.005199
v -0.013611 0.050266 0.001690
v -0.010650 0.050119 -0.003648
v -0.029245 0.043875 0.000941
v -0.024270 0.039862 -0.003970
v -0.000204 0.054260 0.000638
v 0.001605 0.050283 -0.004036
v -0.016344 0.051423 -0.000529
v -0.029601 0.044056 -0.001111
v 0.003380 0.054412 0.000014
v -0.025459 0.047455 -0.000393
v -0.015902 0.051558 0.000201
v 0.000444 0.054631 -0.000010
v -0.026789 0.046659 0.000770
vn 0.4190 0.4527 0.7871
vn 0.9986 0.0427 0.0306
vn 0.1353 -0.9867 -0.0900
vn -0.0697 0.4435 0.8936
vn -0.0296 0.4639 0.8854
vn -0.1165 0.2785 0.9533
vn -0.1855 0.3514 0.9177
vn -0.1693 0.4672 0.8678
vn -0.0752 0.4776 0.8753
vn -0.0461 0.3544 -0.9339
vn -0.1111 0.3726 -0.9213
vn -0.2382 0.4318 -0.8700
vn -0.6079 -0.7078 0.3599
vn -0.3515 0.0907 0.9318
vn -0.3861 -0.0227 0.9222
vn -0.3491 -0.0079 -0.9370
vn -0.4584 -0.8834 0.0968
vn -0.0950 -0.9896 0.1083
vn -0.0390 -0.9588 -0.2815
vn 0.0543 -0.9985 0.0099
vn 0.0484 -0.9985 0.0243
vn -0.0313 0.4842 0.8744
vn 0.0285 0.5099 0.8597
vn -0.0745 0.4802 0.8740
vn -0.0344 0.3753 -0.9263
vn -0.8530 0.4857 0.1909
vn -0.9669 0.1771 0.1834
vn 0.7810 0.3822 -0.4940
vn 0.4907 0.4935 -0.7181
vn -0.2732 0.6017 -0.7505
vn -0.2723 0.5435 -0.7940
vn -0.4039 0.6319 -0.6615
vn -0.5957 0.7725 -0.2199
vn -0.1976 0.5692 0.7981
vn -0.1312 0.6398 0.7572
vn -0.3972 0.9149 0.0719
vn 0.0173 0.8604 0.5093
vn 0.0702 0.9666 0.2464
vn -0.1681 0.9188 0.3571
vn -0.1852 0.9803 -0.0685
vn -0.1352 0.8018 -0.5822
vn 0.0570 0.6866 -0.7248
vn -0.0324 0.6745 -0.7376
vn -0.3978 0.9029 0.1630
vn -0.4995 0.8660 0.0214
vn -0.3637 0.8519 0.3768
s 0
f 8//1 2//1 1//1
f 8//2 1//2 5//2
f 9//3 5//3 1//3
f 11//4 7//4 1//4
f 11//5 1//5 2//5
f 12//6 1//6 7//6
f 12//7 7//7 3//7
f 13//8 3//8 7//8
f 13//9 7//9 11//9
f 14//10 5//10 9//10
f 14//11 9//11 4//11
f 14//12 4//12 10//12
f 15//13 10//13 6//13
f 15//14 12//14 3//14
f 15//15 6//15 12//15
f 16//16 10//16 4//16
f 16//17 6//17 10//17
f 16//18 12//18 6//18
f 16//19 4//19 9//19
f 16//20 9//20 1//20
f 16//21 1//21 12//21
f 17//22 11//22 2//22
f 17//23 2//23 8//23
f 17//24 13//24 11//24
f 18//25 5//25 14//25
f 20//26 15//26 3//26
f 20//27 10//27 15//27
f 21//28 8//28 5//28
f 21//29 5//29 18//29
f 22//30 19//30 14//30
f 22//31 14//31 10//31
f 22//32 10//32 20//32
f 22//33 20//33 3//33
f 23//34 3//34 13//34
f 23//35 13//35 17//35
f 23//36 19//36 22//36
f 24//37 17//37 8//37
f 24//38 8//38 21//38
f 24//39 23//39 17//39
f 24//40 19//40 23//40
f 24//41 14//41 19//41
f 24//42 21//42 18//42
f 24//43 18//43 14//43
f 25//44 23//44 22//44
f 25//45 22//45 3//45
f 25//46 3//46 23//46
