# Blender 5.1.0
# www.blender.org
mtllib model_collision_28.mtl
o model_collision_28
v -0.009001 0.017426 0.017432
v -0.023416 0.029913 0.007587
v -0.024896 0.030589 -0.013815
v -0.009471 0.017695 -0.013806
v -0.006636 0.031010 0.013848
v -0.024008 0.017257 0.011408
v -0.009543 0.030739 -0.013765
v -0.016197 0.016828 0.015588
v -0.024817 0.017773 -0.013887
v -0.018557 0.029828 0.009921
v -0.020702 0.021804 0.011947
v -0.021237 0.016604 0.013357
v -0.015874 0.026896 0.012092
v -0.023183 0.024640 0.009647
v -0.015912 0.019223 0.014883
v -0.013596 0.021718 0.014784
vn -0.0789 0.9962 0.0369
vn 0.9843 -0.1757 -0.0163
vn -0.9952 0.0679 0.0710
vn 0.9945 0.0058 -0.1047
vn -0.0097 0.9999 -0.0088
vn -0.2601 0.2884 0.9215
vn 0.0853 -0.9963 -0.0099
vn -0.9995 -0.0064 0.0318
vn 0.0053 0.0032 -1.0000
vn 0.0032 0.0056 -1.0000
vn -0.2696 0.7618 0.5890
vn -0.4050 0.3241 0.8549
vn -0.2208 -0.9752 -0.0128
vn -0.3992 0.2780 0.8737
vn -0.0049 -0.9991 -0.0422
vn 0.0521 -0.9985 -0.0175
vn -0.3241 0.3532 0.8776
vn -0.4646 0.2759 0.8414
vn -0.4289 0.3122 0.8477
vn -0.6776 0.2414 0.6947
vn -0.5159 0.2529 0.8185
vn -0.3146 0.3259 0.8915
vn -0.3744 0.3024 0.8765
vn -0.3588 0.3207 0.8766
vn -0.3648 0.3184 0.8749
vn -0.2861 0.3016 0.9095
vn -0.2682 0.2934 0.9176
vn -0.3063 0.3198 0.8966
s 0
f 5//1 3//1 2//1
f 5//2 1//2 4//2
f 6//3 2//3 3//3
f 7//4 5//4 4//4
f 7//5 3//5 5//5
f 8//6 1//6 5//6
f 8//7 4//7 1//7
f 9//8 6//8 3//8
f 9//9 7//9 4//9
f 9//10 3//10 7//10
f 10//11 5//11 2//11
f 11//12 10//12 2//12
f 12//13 6//13 9//13
f 12//14 8//14 11//14
f 12//15 9//15 4//15
f 12//16 4//16 8//16
f 13//17 5//17 10//17
f 14//18 12//18 11//18
f 14//19 11//19 2//19
f 14//20 2//20 6//20
f 14//21 6//21 12//21
f 15//22 5//22 13//22
f 15//23 11//23 8//23
f 15//24 13//24 10//24
f 15//25 10//25 11//25
f 16//26 15//26 8//26
f 16//27 8//27 5//27
f 16//28 5//28 15//28
