# Blender 5.1.0
# www.blender.org
mtllib model_collision_30.mtl
o model_collision_30
v 0.028370 -0.000227 0.006484
v 0.029219 -0.025309 0.010906
v 0.020118 -0.024652 -0.013350
v 0.001007 -0.001529 -0.013529
v 0.001435 -0.000840 0.007570
v 0.027340 -0.000097 -0.003304
v 0.001435 -0.024639 0.007570
v 0.001435 -0.024639 -0.003007
vn 0.0357 0.1747 0.9840
vn 0.3357 0.2704 -0.9023
vn -0.0221 0.9996 0.0157
vn -0.0420 0.9986 -0.0318
vn 0.9944 0.0152 -0.1045
vn 0.9273 -0.1290 -0.3514
vn -0.1192 -0.0000 0.9929
vn -0.9998 -0.0000 0.0203
vn -0.0130 -0.9997 -0.0222
vn -0.0241 -0.9997 -0.0000
vn -0.9998 -0.0185 -0.0000
vn -0.4488 -0.3772 -0.8102
s 0
f 5//1 2//1 1//1
f 6//2 3//2 4//2
f 6//3 5//3 1//3
f 6//4 4//4 5//4
f 6//5 1//5 2//5
f 6//6 2//6 3//6
f 7//7 2//7 5//7
f 7//8 5//8 4//8
f 8//9 3//9 2//9
f 8//10 2//10 7//10
f 8//11 7//11 4//11
f 8//12 4//12 3//12
