# Blender 5.1.0
# www.blender.org
mtllib model_collision_25.mtl
o model_collision_25
v 0.019406 -0.001040 0.019759
v 0.026669 -0.001291 0.015362
v 0.025641 0.016620 0.012284
v 0.019944 0.017670 -0.013265
v 0.019964 -0.000824 -0.013252
v 0.026882 -0.001027 -0.012359
v 0.019360 0.017219 0.014369
v 0.026165 0.003906 0.014828
v 0.021273 -0.001205 0.018753
v 0.025260 0.017336 -0.011174
v 0.018597 0.006500 0.018414
v 0.020842 0.006072 0.017336
v 0.018797 0.014235 0.015743
vn 0.9982 0.0587 0.0082
vn 0.1279 -0.0006 -0.9918
vn 0.8604 0.1339 0.4917
vn -0.0921 -0.9957 -0.0081
vn 0.5287 0.1372 0.8376
vn 0.4854 0.1907 0.8532
vn 0.4782 0.1937 0.8566
vn -0.0221 -0.9997 -0.0097
vn -0.0280 -0.9995 -0.0108
vn 0.3696 0.0923 -0.9246
vn 0.9960 0.0888 -0.0134
vn 0.1043 0.9941 0.0287
vn 0.0559 0.9983 0.0175
vn -0.9938 -0.1098 -0.0175
vn -0.9991 -0.0011 -0.0429
vn 0.4551 0.2034 0.8669
vn 0.4699 0.1981 0.8602
vn 0.4554 0.2075 0.8658
vn 0.3457 0.2983 0.8897
vn 0.3252 0.3441 0.8808
vn -0.9840 0.1775 -0.0179
vn -0.9992 0.0127 -0.0380
s 0
f 6//1 3//1 2//1
f 6//2 5//2 4//2
f 8//3 2//3 3//3
f 9//4 1//4 5//4
f 9//5 2//5 8//5
f 9//6 8//6 3//6
f 9//7 3//7 1//7
f 9//8 6//8 2//8
f 9//9 5//9 6//9
f 10//10 6//10 4//10
f 10//11 3//11 6//11
f 10//12 7//12 3//12
f 10//13 4//13 7//13
f 11//14 5//14 1//14
f 11//15 4//15 5//15
f 12//16 11//16 1//16
f 12//17 1//17 3//17
f 12//18 3//18 11//18
f 13//19 11//19 3//19
f 13//20 3//20 7//20
f 13//21 7//21 4//21
f 13//22 4//22 11//22
