# Blender 5.1.0
# www.blender.org
mtllib model_collision_11.mtl
o model_collision_11
v 0.023001 0.037950 0.005463
v 0.026105 0.037940 0.001501
v 0.003955 0.053849 0.000713
v 0.004059 0.038673 -0.013227
v 0.011849 0.038193 -0.012788
v 0.004167 0.039414 0.008693
v 0.018773 0.050253 0.002481
v 0.024987 0.037898 -0.009654
v 0.003917 0.053693 -0.000460
v 0.020916 0.048028 0.001832
v 0.020433 0.042820 0.004858
v 0.003733 0.050757 0.002609
v 0.003813 0.039750 -0.012750
v 0.014245 0.051987 -0.000432
v 0.024822 0.042722 0.000168
v 0.025149 0.044888 -0.003661
v 0.003866 0.045743 0.005372
v 0.024688 0.039699 -0.008686
v 0.013878 0.052183 0.000235
v 0.021311 0.049287 -0.000016
v 0.025079 0.045380 -0.002185
v 0.020761 0.049419 0.000945
v 0.022094 0.048118 0.000238
vn -0.0629 -0.9977 0.0252
vn -0.0716 -0.9969 0.0340
vn 0.0013 -1.0000 0.0036
vn -0.0225 -0.9997 0.0005
vn 0.6045 0.3777 0.7014
vn 0.1502 0.3314 0.9315
vn 0.1813 0.2146 0.9597
vn 0.5047 0.3632 0.7832
vn 0.0247 0.5213 0.8530
vn -0.9962 0.0846 0.0212
vn 0.0769 0.4185 -0.9050
vn -0.9991 0.0327 -0.0286
vn -0.9735 -0.2283 0.0125
vn 0.1105 0.6567 -0.7460
vn 0.1225 0.6503 -0.7497
vn 0.7339 0.3594 0.5763
vn 0.7355 0.3577 0.5754
vn 0.9931 0.0625 -0.0997
vn 0.0307 0.4656 0.8845
vn 0.0236 0.4830 0.8753
vn -0.9991 -0.0391 0.0159
vn -0.9997 -0.0212 0.0100
vn 0.2127 0.4897 -0.8456
vn 0.1638 0.6423 -0.7488
vn 0.7945 0.3845 -0.4700
vn 0.2244 0.6676 -0.7099
vn 0.1603 0.9673 -0.1966
vn 0.1577 0.9782 -0.1351
vn 0.1703 0.8997 0.4019
vn 0.3220 0.7547 -0.5717
vn 0.3633 0.9316 0.0087
vn 0.3598 0.9299 -0.0757
vn 0.8025 0.3500 0.4832
vn 0.9906 0.1371 0.0012
vn 0.6404 0.7372 -0.2154
vn 0.4839 0.8606 0.1587
vn 0.6560 0.4566 0.6010
vn 0.7385 0.3660 0.5662
vn 0.7678 0.3814 0.5148
vn 0.7138 0.4316 0.5516
vn 0.7642 0.5755 0.2911
vn 0.7428 0.5731 0.3462
s 0
f 5//1 1//1 4//1
f 6//2 4//2 1//2
f 8//3 2//3 1//3
f 8//4 1//4 5//4
f 10//5 7//5 1//5
f 11//6 7//6 6//6
f 11//7 6//7 1//7
f 11//8 1//8 7//8
f 12//9 7//9 3//9
f 12//10 3//10 9//10
f 13//11 5//11 4//11
f 13//12 12//12 9//12
f 13//13 4//13 6//13
f 14//14 13//14 9//14
f 14//15 5//15 13//15
f 15//16 10//16 1//16
f 15//17 1//17 2//17
f 16//18 2//18 8//18
f 17//19 6//19 7//19
f 17//20 7//20 12//20
f 17//21 13//21 6//21
f 17//22 12//22 13//22
f 18//23 8//23 5//23
f 18//24 5//24 14//24
f 18//25 16//25 8//25
f 18//26 14//26 16//26
f 19//27 14//27 9//27
f 19//28 9//28 3//28
f 19//29 3//29 7//29
f 20//30 16//30 14//30
f 20//31 19//31 7//31
f 20//32 14//32 19//32
f 21//33 15//33 2//33
f 21//34 2//34 16//34
f 21//35 16//35 20//35
f 22//36 20//36 7//36
f 22//37 7//37 10//37
f 23//38 10//38 15//38
f 23//39 15//39 21//39
f 23//40 22//40 10//40
f 23//41 21//41 20//41
f 23//42 20//42 22//42
